<svg width="62" height="62" viewBox="0 0 62 62" fill="none" xmlns="http://www.w3.org/2000/svg">
<g opacity="0.6">
<rect width="62" height="62" rx="31" fill="#F5F5F5"/>
<path d="M42.6781 26.7729C40.469 30.5993 35.5762 31.9103 31.7499 29.7011C27.9235 27.492 26.6125 22.5993 28.8217 18.7729C31.0308 14.9466 35.9235 13.6356 39.7499 15.8447C43.5762 18.0539 44.8872 22.9466 42.6781 26.7729Z" fill="url(#paint0_linear_32863_77603)"/>
<path d="M28.3887 18.5229C28.6648 18.0446 29.2764 17.8808 29.7547 18.1569L42.7451 25.6569C43.2234 25.933 43.3872 26.5446 43.1111 27.0229C42.835 27.5012 42.2234 27.6651 41.7451 27.389L28.7547 19.889C28.2764 19.6128 28.1125 19.0012 28.3887 18.5229Z" fill="#69737C"/>
<path d="M37.946 30.9691C35.081 33.1168 31.6618 37.8589 24.848 47.6556L19.6518 44.6556C24.7291 33.8563 27.1263 28.5242 27.5537 24.9691L37.946 30.9691Z" fill="#6C7882"/>
<path d="M28.5178 31.2992C29.0701 30.3426 30.2933 30.0149 31.2499 30.5672C32.2065 31.1194 32.5342 32.3426 31.9819 33.2992L30.9819 35.0313C30.4297 35.9878 29.2065 36.3156 28.2499 35.7633C27.2933 35.211 26.9656 33.9878 27.5178 33.0313L28.5178 31.2992Z" fill="#3B3B3B"/>
<path d="M31.5489 33.0492C31.1347 33.7666 30.2173 34.0125 29.4999 33.5982C28.7824 33.184 28.5366 32.2666 28.9508 31.5492C29.3651 30.8318 30.2824 30.586 30.9999 31.0002C31.7173 31.4144 31.9631 32.3318 31.5489 33.0492Z" fill="#CCCCCC"/>
<path d="M27.3707 24.2861C27.5088 24.0469 27.8146 23.965 28.0537 24.1031L38.446 30.1031C38.6852 30.2411 38.7671 30.5469 38.6291 30.7861C38.491 31.0252 38.1852 31.1072 37.946 30.9691L27.5537 24.9691C27.3146 24.831 27.2327 24.5252 27.3707 24.2861Z" fill="#69737C"/>
</g>
<defs>
<linearGradient id="paint0_linear_32863_77603" x1="31.0345" y1="17.1277" x2="44.0324" y2="34.4665" gradientUnits="userSpaceOnUse">
<stop stop-color="#626262"/>
<stop offset="1" stop-color="#4B4B4B"/>
</linearGradient>
</defs>
</svg>
