<svg width="97" height="25" viewBox="0 0 97 25" fill="none" xmlns="http://www.w3.org/2000/svg">
<mask id="mask0_34374_163851" style="mask-type:alpha" maskUnits="userSpaceOnUse" x="0" y="4" width="16" height="17">
<rect y="4.5" width="16" height="16" fill="#D9D9D9"/>
</mask>
<g mask="url(#mask0_34374_163851)">
<path d="M8.00046 18.2046C7.89101 18.2046 7.77884 18.1873 7.66396 18.1526C7.54896 18.1181 7.44234 18.0606 7.34412 17.9801L3.54912 15.0675C3.41068 14.958 3.30684 14.8313 3.23762 14.6873C3.1684 14.5433 3.13379 14.3875 3.13379 14.22V6.70465C3.13379 6.40453 3.2374 6.15087 3.44462 5.94365C3.65184 5.73642 3.90551 5.63281 4.20562 5.63281H11.7953C12.0954 5.63281 12.3491 5.73642 12.5563 5.94365C12.7635 6.15087 12.8671 6.40453 12.8671 6.70465V14.22C12.8671 14.3875 12.8325 14.5433 12.7633 14.6873C12.6941 14.8313 12.5902 14.958 12.4518 15.0675L8.65679 17.9801C8.55857 18.0606 8.45196 18.1181 8.33696 18.1526C8.22207 18.1873 8.1099 18.2046 8.00046 18.2046ZM7.87862 17.293C7.91284 17.323 7.95346 17.338 8.00046 17.338C8.04746 17.338 8.08807 17.323 8.12229 17.293L11.9171 14.3636C11.9428 14.3422 11.9631 14.3176 11.978 14.2898C11.993 14.262 12.0005 14.2311 12.0005 14.197V6.70465C12.0005 6.65331 11.9791 6.60631 11.9363 6.56365C11.8936 6.52087 11.8466 6.49948 11.7953 6.49948H4.20562C4.15429 6.49948 4.10729 6.52087 4.06462 6.56365C4.02184 6.60631 4.00046 6.65331 4.00046 6.70465V14.197C4.00046 14.2311 4.00796 14.262 4.02296 14.2898C4.03784 14.3176 4.05812 14.3422 4.08379 14.3636L7.87862 17.293ZM7.30046 11.8431L6.17229 10.7148C6.08418 10.6268 5.98479 10.5807 5.87412 10.5765C5.76346 10.5721 5.66196 10.6156 5.56962 10.707C5.4774 10.8045 5.43234 10.9093 5.43446 11.0213C5.43657 11.1332 5.48379 11.2353 5.57612 11.3276L6.91196 12.6803C7.0204 12.7896 7.14685 12.8443 7.29129 12.8443C7.43585 12.8443 7.56284 12.7896 7.67229 12.6803L10.4351 9.91748C10.5231 9.82937 10.5692 9.72998 10.5735 9.61931C10.5778 9.50865 10.5343 9.40715 10.443 9.31481C10.3454 9.22259 10.2406 9.17753 10.1286 9.17965C10.0167 9.18176 9.91462 9.22898 9.82229 9.32131L7.30046 11.8431Z" fill="#B611F5"/>
</g>
<path d="M27.5059 7.53125V17.9492H26.6035V12.5586H25.1035V17.4102H24.2363V7.76562H25.1035V11.7734H26.6035V7.53125H27.5059ZM20.0527 8.80859V14.4336C21.0898 14.4219 22.1914 14.3516 23.4629 14.0938L23.5801 14.9141C22.127 15.1719 20.9316 15.2539 19.7832 15.2539H19.1387V8.80859H20.0527ZM37.0449 7.53125V11.7734H38.7324V12.5469H37.0449V17.9492H36.1309V7.53125H37.0449ZM34.3496 8.65625C34.3496 11.6094 32.9668 14.293 29.5684 15.9688L29.0527 15.2422C31.748 13.9004 33.2129 11.8965 33.4238 9.42969H29.5332V8.65625H34.3496ZM45.8926 9.46484C45.8926 10.8477 46.9121 12.1133 48.459 12.6523L47.9902 13.3672C46.8008 12.9453 45.8926 12.0898 45.4473 11.0117C45.002 12.1953 44.0469 13.1152 42.8223 13.5664L42.3301 12.8516C43.8887 12.3008 44.9785 10.9531 44.9902 9.46484V9.01953H42.6113V8.26953H48.2363V9.01953H45.8926V9.46484ZM50.5098 7.53125V10.2852H52.0801V11.0703H50.5098V13.8125H49.5957V7.53125H50.5098ZM50.5098 14.3633V17.9492H49.5957V15.1133H43.6895V14.3633H50.5098ZM56.3223 9.17188C56.3105 10.6602 57.3652 11.9727 58.9004 12.4883L58.3848 13.2031C57.2363 12.7695 56.334 11.9258 55.8887 10.8242C55.4375 12.0723 54.4824 13.0449 53.2285 13.5195L52.7246 12.7695C54.3301 12.207 55.3965 10.8242 55.4082 9.20703V8.12891H56.3223V9.17188ZM61.373 7.53125V13.707H60.4473V10.5312H58.127V9.76953H60.4473V7.53125H61.373ZM57.916 14.0117C60.084 14.0117 61.4082 14.7266 61.4082 15.9805C61.4082 17.2227 60.084 17.9258 57.916 17.9258C55.748 17.9258 54.4238 17.2227 54.4238 15.9805C54.4238 14.7266 55.748 14.0117 57.916 14.0117ZM57.916 14.7383C56.3223 14.7383 55.3262 15.207 55.3379 15.9805C55.3262 16.7305 56.3223 17.1875 57.916 17.1875C59.5098 17.1875 60.4941 16.7305 60.4941 15.9805C60.4941 15.207 59.5098 14.7383 57.916 14.7383ZM71.252 7.54297V10.9766H72.8223V11.75H71.252V15.3477H70.3379V7.54297H71.252ZM69.3418 8.82031V9.57031H63.1309V8.82031H65.7793V7.54297H66.6934V8.82031H69.3418ZM66.2363 10.1445C67.7246 10.1445 68.7324 10.9062 68.7441 12.0898C68.7324 13.2617 67.7246 14.0117 66.2363 14.0117C64.7363 14.0117 63.7168 13.2617 63.7285 12.0898C63.7168 10.9062 64.7363 10.1445 66.2363 10.1445ZM66.2363 10.8711C65.252 10.8711 64.5957 11.3516 64.6074 12.0898C64.5957 12.8281 65.252 13.2969 66.2363 13.2852C67.209 13.2969 67.8652 12.8281 67.877 12.0898C67.8652 11.3516 67.209 10.8711 66.2363 10.8711ZM71.7324 16.9531V17.7266H64.7363V14.7266H65.6387V16.9531H71.7324ZM85.0918 7.53125V17.9727H84.1777V7.53125H85.0918ZM81.9277 8.50391V12.207H78.0371V14.668C79.7656 14.668 81.3066 14.5918 83.1699 14.293L83.2637 15.0664C81.3418 15.3711 79.7598 15.4414 77.9668 15.4414H77.0996V11.457H81.002V9.26562H77.0762V8.50391H81.9277ZM96.3887 13.6133V14.3867H93.9512V17.9492H93.0371V14.3867H90.2012V17.9492H89.2637V14.3867H86.8496V13.6133H96.3887ZM88.9824 7.95312V9.37109H94.2324V7.95312H95.1582V12.3828H88.0684V7.95312H88.9824ZM88.9824 11.6328H94.2324V10.1094H88.9824V11.6328Z" fill="#B611F5"/>
</svg>
