<svg width="25" height="24" viewBox="0 0 25 24" fill="none" xmlns="http://www.w3.org/2000/svg">
<g clip-path="url(#clip0_1_5331)">
<path fill-rule="evenodd" clip-rule="evenodd" d="M0.5 13C0.5 12.1716 1.17157 11.5 2 11.5H22C22.8284 11.5 23.5 12.1716 23.5 13V18C23.5 21.0376 21.0376 23.5 18 23.5H6C2.96243 23.5 0.5 21.0376 0.5 18V13ZM2 12.5C1.72386 12.5 1.5 12.7239 1.5 13V18C1.5 20.4853 3.51472 22.5 6 22.5H18C20.4853 22.5 22.5 20.4853 22.5 18V13C22.5 12.7239 22.2761 12.5 22 12.5H2Z" fill="#4B4B4B" stroke="#4B4B4B" stroke-width="0.5"/>
<path fill-rule="evenodd" clip-rule="evenodd" d="M7.88935 0.797375C8.6927 0.567847 9.52874 1.03893 9.74858 1.84498L12.4823 11.8685C12.5233 12.0189 12.4919 12.1797 12.3973 12.3036C12.3027 12.4274 12.1557 12.5001 11.9999 12.5001H3.99989C3.76554 12.5001 3.56263 12.3373 3.5118 12.1086L1.71616 4.02818C1.54398 3.25337 2.00519 2.47854 2.76836 2.26049L7.88935 0.797375ZM8.78381 2.10809C8.71054 1.83941 8.43185 1.68238 8.16407 1.75889L3.04308 3.22203C2.78869 3.29471 2.63496 3.55299 2.69235 3.81126L4.40098 11.5001H11.3453L8.78381 2.10809Z" fill="#4B4B4B" stroke="#4B4B4B" stroke-width="0.5"/>
<path fill-rule="evenodd" clip-rule="evenodd" d="M18.2631 5.67435C18.1145 5.60501 17.9414 5.61293 17.7998 5.69555L17.0687 6.12198C16.6738 6.35236 16.1954 6.39003 15.7693 6.22432L15.6962 6.19592C15.311 6.0461 14.9207 6.40185 15.0342 6.79928L16.3772 11.4998H19.6229L21.0194 6.61218C21.0971 6.34013 20.8189 6.10281 20.5625 6.22246C20.206 6.38883 19.7942 6.38883 19.4377 6.22246L18.2631 5.67435ZM17.2959 4.83177C17.7208 4.58391 18.2402 4.56014 18.686 4.76817L19.8605 5.31628C19.949 5.35756 20.0512 5.35756 20.1397 5.31628C21.1729 4.83408 22.2942 5.79052 21.9809 6.8869L20.4809 12.1372C20.4195 12.3518 20.2233 12.4998 20.0001 12.4998H16.0001C15.7769 12.4998 15.5807 12.3518 15.5193 12.1372L14.0727 7.074C13.7321 5.88171 14.903 4.81448 16.0587 5.26391L16.1317 5.29232C16.2737 5.34755 16.4332 5.33499 16.5649 5.2582L17.2959 4.83177Z" fill="#4B4B4B" stroke="#4B4B4B" stroke-width="0.5"/>
<path fill-rule="evenodd" clip-rule="evenodd" d="M15.5 2C15.5 1.17157 16.1716 0.5 17 0.5C17.8284 0.5 18.5 1.17157 18.5 2V5C18.5 5.27614 18.2761 5.5 18 5.5C17.7239 5.5 17.5 5.27614 17.5 5V2C17.5 1.72386 17.2761 1.5 17 1.5C16.7239 1.5 16.5 1.72386 16.5 2V3C16.5 3.27614 16.2761 3.5 16 3.5C15.7239 3.5 15.5 3.27614 15.5 3V2Z" fill="#4B4B4B" stroke="#4B4B4B" stroke-width="0.5"/>
<path fill-rule="evenodd" clip-rule="evenodd" d="M7.4852 3.37885C7.55217 3.64675 7.38929 3.91822 7.12139 3.98519L5.12139 4.48519C4.8535 4.55216 4.58203 4.38928 4.51505 4.12139C4.44808 3.85349 4.61095 3.58202 4.87885 3.51505L6.87885 3.01505C7.14675 2.94807 7.41822 3.11095 7.4852 3.37885Z" fill="#4B4B4B" stroke="#4B4B4B" stroke-width="0.5"/>
<path fill-rule="evenodd" clip-rule="evenodd" d="M12 14.5C11.4477 14.5 11 14.9477 11 15.5C11 15.7761 10.7761 16 10.5 16C10.2239 16 10 15.7761 10 15.5C10 14.3954 10.8954 13.5 12 13.5C13.1046 13.5 14 14.3954 14 15.5C14 16.4319 13.3626 17.215 12.5 17.437V19C12.5 19.2761 12.2761 19.5 12 19.5C11.7239 19.5 11.5 19.2761 11.5 19V17C11.5 16.7239 11.7239 16.5 12 16.5C12.5523 16.5 13 16.0523 13 15.5C13 14.9477 12.5523 14.5 12 14.5Z" fill="#4B4B4B" stroke="#4B4B4B" stroke-width="0.5"/>
<path fill-rule="evenodd" clip-rule="evenodd" d="M12 20C12.2761 20 12.5 20.2239 12.5 20.5V21C12.5 21.2761 12.2761 21.5 12 21.5C11.7239 21.5 11.5 21.2761 11.5 21V20.5C11.5 20.2239 11.7239 20 12 20Z" fill="#4B4B4B" stroke="#4B4B4B" stroke-width="0.5"/>
<path fill-rule="evenodd" clip-rule="evenodd" d="M4 13.5C4.27614 13.5 4.5 13.7239 4.5 14V19C4.5 19.2761 4.27614 19.5 4 19.5C3.72386 19.5 3.5 19.2761 3.5 19V14C3.5 13.7239 3.72386 13.5 4 13.5Z" fill="#4B4B4B" stroke="#4B4B4B" stroke-width="0.5"/>
<path fill-rule="evenodd" clip-rule="evenodd" d="M20 13.5C20.2761 13.5 20.5 13.7239 20.5 14V19C20.5 19.2761 20.2761 19.5 20 19.5C19.7239 19.5 19.5 19.2761 19.5 19V14C19.5 13.7239 19.7239 13.5 20 13.5Z" fill="#4B4B4B" stroke="#4B4B4B" stroke-width="0.5"/>
</g>
<defs>
<clipPath id="clip0_1_5331">
<rect width="24" height="24" fill="white" transform="translate(0.5)"/>
</clipPath>
</defs>
</svg>
