<svg width="95" height="75" viewBox="0 0 95 75" fill="none" xmlns="http://www.w3.org/2000/svg">
<path d="M70.4958 38.8336C65.5763 41.4424 59.1541 44.0456 51.2018 46.4841C43.2495 48.9171 36.4708 50.356 30.9316 50.9492C35.0998 55.6504 41.1764 58.6161 47.9496 58.6161C48.4432 58.6161 48.9313 58.5942 49.4194 58.5612C51.2951 58.4788 56.8397 58.2482 62.6367 58.2482C66.5306 58.2482 70.5342 58.3525 73.6164 58.6656C73.6164 58.6656 67.1777 53.1076 69.9035 41.7993C70.1667 40.8327 70.3642 39.8442 70.5013 38.8281" fill="#D370F9"/>
<path d="M25.3977 32.8359C16.2388 37.6964 12.2956 42.5679 13.4637 46.3959C14.6319 50.2239 20.6208 52.0528 30.9314 50.9543C27.3666 46.9341 25.1948 41.6398 25.1948 35.8401C25.1948 34.8241 25.2661 33.8245 25.3977 32.8414V32.8359Z" fill="#B611F5"/>
<path d="M82.4354 25.2763C81.2673 21.4483 75.2784 19.6195 64.9678 20.7179C68.5326 24.7381 70.7044 30.0325 70.7044 35.8321C70.7044 36.8482 70.6331 37.8477 70.5015 38.8308C79.6604 33.9703 83.6036 29.0988 82.4354 25.2708V25.2763Z" fill="#B611F5"/>
<path d="M64.9702 20.7216C60.8021 16.0204 54.7254 13.0547 47.9522 13.0547C36.4022 13.0547 26.8704 21.6718 25.406 32.8372C25.2744 33.8203 25.2031 34.8198 25.2031 35.8359C25.2031 41.6355 27.3694 46.9299 30.9398 50.9501C36.479 50.357 43.2576 48.918 51.2099 46.4851C59.1623 44.0521 65.5844 41.4433 70.5039 38.8346C70.6355 37.8515 70.7068 36.8519 70.7068 35.8359C70.7068 30.0362 68.5405 24.7419 64.9702 20.7216ZM35 28C32 28 32 27 32 27C32 27 32 26 35 26C38 26 38 27 38 27C38 27 38.5 28 35 28ZM45 28C42 28 42 27 42 27C42 27 42 25.9453 45 26C48 26.0547 48 27 48 27C48 27 47.9525 28 45 28Z" fill="#1D1D1B"/>
</svg>
