<svg width="20" height="20" viewBox="0 0 20 20" fill="none" xmlns="http://www.w3.org/2000/svg">
<mask id="mask0_9627_9868" style="mask-type:alpha" maskUnits="userSpaceOnUse" x="0" y="0" width="20" height="20">
<rect width="20" height="20" fill="#D9D9D9"/>
</mask>
<g mask="url(#mask0_9627_9868)">
<path d="M9.99192 15.9454C9.82734 15.9454 9.66893 15.9169 9.51671 15.8598C9.36449 15.8026 9.21998 15.7126 9.08317 15.5898L8.09442 14.6892C6.57525 13.3419 5.24914 12.0393 4.11609 10.7812C2.98303 9.52318 2.4165 8.19332 2.4165 6.79166C2.4165 5.69207 2.79338 4.77138 3.54713 4.02957C4.30102 3.28763 5.23664 2.91666 6.354 2.91666C7.00095 2.91666 7.64109 3.06464 8.27442 3.36061C8.90762 3.65659 9.48275 4.15978 9.99984 4.8702C10.5447 4.15978 11.1286 3.65659 11.7515 3.36061C12.3746 3.06464 13.0037 2.91666 13.639 2.91666C14.7566 2.91666 15.6934 3.28763 16.4494 4.02957C17.2053 4.77138 17.5832 5.69207 17.5832 6.79166C17.5832 8.20943 17.0033 9.55131 15.8436 10.8173C14.6839 12.0833 13.3711 13.3712 11.9053 14.681L10.9084 15.5898C10.7717 15.7126 10.6259 15.8026 10.4711 15.8598C10.3161 15.9169 10.1564 15.9454 9.99192 15.9454ZM9.4838 6.03207C9.10241 5.34513 8.64164 4.83471 8.1015 4.50082C7.5615 4.16693 6.979 3.99999 6.354 3.99999C5.53859 3.99999 4.859 4.26388 4.31525 4.79166C3.77164 5.31943 3.49984 5.98881 3.49984 6.79978C3.49984 7.44923 3.70845 8.12145 4.12567 8.81645C4.54289 9.51145 5.06664 10.2091 5.69692 10.9094C6.3272 11.6098 7.01178 12.2901 7.75067 12.9502C8.48942 13.6105 9.18303 14.2291 9.8315 14.806C9.87956 14.8488 9.93567 14.8702 9.99984 14.8702C10.064 14.8702 10.1201 14.8488 10.1682 14.806C10.8166 14.2291 11.5103 13.6105 12.249 12.9502C12.9879 12.2901 13.6725 11.6098 14.3028 10.9094C14.933 10.2091 15.4568 9.51145 15.874 8.81645C16.2912 8.12145 16.4998 7.44923 16.4998 6.79978C16.4998 5.98881 16.228 5.31943 15.6844 4.79166C15.1407 4.26388 14.4611 3.99999 13.6457 3.99999C13.0207 3.99999 12.4347 4.16693 11.8878 4.50082C11.3407 4.83471 10.8764 5.34513 10.495 6.03207C10.4523 6.13888 10.3841 6.21555 10.2905 6.26207C10.1969 6.30846 10.0996 6.33166 9.9988 6.33166C9.89796 6.33166 9.79762 6.30846 9.69775 6.26207C9.59789 6.21555 9.52657 6.13888 9.4838 6.03207Z" fill="#4B4B4B"/>
</g>
</svg>
