<svg width="20" height="21" viewBox="0 0 20 21" fill="none" xmlns="http://www.w3.org/2000/svg">
<path d="M9.56399 3.28906L1.19999 18.2561C1.15746 18.3321 1.13556 18.418 1.13644 18.5051C1.13732 18.5923 1.16097 18.6777 1.20503 18.7529C1.24909 18.828 1.31204 18.8904 1.38763 18.9338C1.46323 18.9771 1.54884 19 1.63599 19.0001H18.364C18.4511 19 18.5368 18.9771 18.6124 18.9338C18.6879 18.8904 18.7509 18.828 18.795 18.7529C18.839 18.6777 18.8627 18.5923 18.8635 18.5051C18.8644 18.418 18.8425 18.3321 18.8 18.2561L10.436 3.28906C10.3925 3.21163 10.3292 3.14718 10.2526 3.10232C10.176 3.05746 10.0888 3.03381 9.99999 3.03381C9.9112 3.03381 9.82401 3.05746 9.74738 3.10232C9.67075 3.14718 9.60746 3.21163 9.56399 3.28906ZM11 16.7501C11 16.8164 10.9737 16.88 10.9268 16.9268C10.8799 16.9737 10.8163 17.0001 10.75 17.0001H9.24999C9.18369 17.0001 9.1201 16.9737 9.07322 16.9268C9.02633 16.88 8.99999 16.8164 8.99999 16.7501V15.2501C8.99999 15.1838 9.02633 15.1202 9.07322 15.0733C9.1201 15.0264 9.18369 15.0001 9.24999 15.0001H10.75C10.8163 15.0001 10.8799 15.0264 10.9268 15.0733C10.9737 15.1202 11 15.1838 11 15.2501V16.7501ZM11 13.7501C11 13.8164 10.9737 13.88 10.9268 13.9268C10.8799 13.9737 10.8163 14.0001 10.75 14.0001H9.24999C9.18369 14.0001 9.1201 13.9737 9.07322 13.9268C9.02633 13.88 8.99999 13.8164 8.99999 13.7501V7.75006C8.99999 7.68376 9.02633 7.62017 9.07322 7.57328C9.1201 7.5264 9.18369 7.50006 9.24999 7.50006H10.75C10.8163 7.50006 10.8799 7.5264 10.9268 7.57328C10.9737 7.62017 11 7.68376 11 7.75006V13.7501Z" fill="#D94A4A"/>
</svg>
