<svg width="348" height="229" viewBox="0 0 348 229" fill="none" xmlns="http://www.w3.org/2000/svg">
<rect x="0.5" y="0.5" width="347" height="228" rx="7.5" fill="#FAFAFA"/>
<rect x="0.5" y="0.5" width="347" height="228" rx="7.5" stroke="#CACACA"/>
<path d="M186.17 114.025L183.903 111.794H163.822C163.043 111.794 162.376 111.516 161.821 110.961C161.266 110.407 160.989 109.74 160.989 108.96V91.9604C160.989 91.1813 161.266 90.5142 161.821 89.9594C162.376 89.4045 163.043 89.1271 163.822 89.1271H165.274V93.1646L160.103 87.9938C159.82 87.7104 159.678 87.374 159.678 86.9844C159.678 86.5948 159.82 86.2583 160.103 85.975C160.387 85.6917 160.723 85.55 161.113 85.55C161.502 85.55 161.839 85.6917 162.122 85.975L188.189 112.042C188.472 112.325 188.614 112.656 188.614 113.033C188.614 113.411 188.472 113.742 188.189 114.025C187.905 114.308 187.569 114.45 187.179 114.45C186.79 114.45 186.453 114.308 186.17 114.025ZM188.437 107.013C188.177 107.131 187.917 107.166 187.657 107.119C187.398 107.072 187.15 106.93 186.914 106.694L181.495 101.275C181.613 100.283 181.513 99.3212 181.194 98.3885C180.875 97.4559 180.362 96.6354 179.653 95.9271C178.969 95.2424 178.16 94.7406 177.227 94.4219C176.295 94.1031 175.332 94.0028 174.341 94.1208L169.737 89.5521C169.595 89.4104 169.495 89.2569 169.436 89.0917C169.376 88.9264 169.347 88.7493 169.347 88.5604C169.347 88.3715 169.376 88.2004 169.436 88.0469C169.495 87.8934 169.583 87.7458 169.701 87.6042L170.055 87.2146C170.315 86.9313 170.628 86.7069 170.994 86.5417C171.36 86.3764 171.744 86.2938 172.145 86.2938H178.166C178.567 86.2938 178.951 86.3764 179.317 86.5417C179.683 86.7069 179.996 86.9313 180.255 87.2146L182.026 89.1271H186.489C187.268 89.1271 187.935 89.4045 188.49 89.9594C189.045 90.5142 189.322 91.1813 189.322 91.9604V105.702C189.322 106.033 189.239 106.304 189.074 106.517C188.909 106.729 188.696 106.894 188.437 107.013ZM175.155 106.835C175.698 106.835 176.224 106.776 176.731 106.658C177.239 106.54 177.729 106.351 178.201 106.092L169.524 97.4146C169.264 97.8868 169.075 98.3767 168.957 98.8844C168.839 99.392 168.78 99.9174 168.78 100.46C168.78 102.231 169.4 103.736 170.64 104.976C171.879 106.216 173.384 106.835 175.155 106.835ZM175.155 104.002C174.164 104.002 173.325 103.66 172.641 102.975C171.956 102.29 171.614 101.452 171.614 100.46C171.614 99.9882 171.702 99.5337 171.879 99.0969C172.056 98.6601 172.31 98.2764 172.641 97.9458L177.67 102.975C177.339 103.306 176.956 103.559 176.519 103.736C176.082 103.914 175.628 104.002 175.155 104.002Z" fill="#8E8E8E"/>
<path d="M186.17 114.025L183.903 111.794H163.822C163.043 111.794 162.376 111.516 161.821 110.961C161.266 110.407 160.989 109.74 160.989 108.96V91.9604C160.989 91.1813 161.266 90.5142 161.821 89.9594C162.376 89.4045 163.043 89.1271 163.822 89.1271H165.274V93.1646L160.103 87.9938C159.82 87.7104 159.678 87.374 159.678 86.9844C159.678 86.5948 159.82 86.2583 160.103 85.975C160.387 85.6917 160.723 85.55 161.113 85.55C161.502 85.55 161.839 85.6917 162.122 85.975L188.189 112.042C188.472 112.325 188.614 112.656 188.614 113.033C188.614 113.411 188.472 113.742 188.189 114.025C187.905 114.308 187.569 114.45 187.179 114.45C186.79 114.45 186.453 114.308 186.17 114.025ZM188.437 107.013C188.177 107.131 187.917 107.166 187.657 107.119C187.398 107.072 187.15 106.93 186.914 106.694L181.495 101.275C181.613 100.283 181.513 99.3212 181.194 98.3885C180.875 97.4559 180.362 96.6354 179.653 95.9271C178.969 95.2424 178.16 94.7406 177.227 94.4219C176.295 94.1031 175.332 94.0028 174.341 94.1208L169.737 89.5521C169.595 89.4104 169.495 89.2569 169.436 89.0917C169.376 88.9264 169.347 88.7493 169.347 88.5604C169.347 88.3715 169.376 88.2004 169.436 88.0469C169.495 87.8934 169.583 87.7458 169.701 87.6042L170.055 87.2146C170.315 86.9313 170.628 86.7069 170.994 86.5417C171.36 86.3764 171.744 86.2938 172.145 86.2938H178.166C178.567 86.2938 178.951 86.3764 179.317 86.5417C179.683 86.7069 179.996 86.9313 180.255 87.2146L182.026 89.1271H186.489C187.268 89.1271 187.935 89.4045 188.49 89.9594C189.045 90.5142 189.322 91.1813 189.322 91.9604V105.702C189.322 106.033 189.239 106.304 189.074 106.517C188.909 106.729 188.696 106.894 188.437 107.013ZM175.155 106.835C175.698 106.835 176.224 106.776 176.731 106.658C177.239 106.54 177.729 106.351 178.201 106.092L169.524 97.4146C169.264 97.8868 169.075 98.3767 168.957 98.8844C168.839 99.392 168.78 99.9174 168.78 100.46C168.78 102.231 169.4 103.736 170.64 104.976C171.879 106.216 173.384 106.835 175.155 106.835ZM175.155 104.002C174.164 104.002 173.325 103.66 172.641 102.975C171.956 102.29 171.614 101.452 171.614 100.46C171.614 99.9882 171.702 99.5337 171.879 99.0969C172.056 98.6601 172.31 98.2764 172.641 97.9458L177.67 102.975C177.339 103.306 176.956 103.559 176.519 103.736C176.082 103.914 175.628 104.002 175.155 104.002Z" fill="black" fill-opacity="0.2"/>
<path d="M153.11 130.671C153.11 132.817 154.532 135.018 156.255 135.866L155.599 136.727C154.259 136.023 153.138 134.588 152.604 132.899C152.058 134.697 150.909 136.228 149.542 136.96L148.858 136.098C150.636 135.223 152.044 132.886 152.058 130.671V128.456H153.11V130.671ZM158.442 127.403V132.339H160.479V133.268H158.442V139.557H157.376V127.403H158.442ZM165.511 130.014C165.511 131.655 166.81 133.132 168.628 133.706L168.081 134.567C166.666 134.089 165.538 133.091 164.991 131.805C164.458 133.193 163.316 134.287 161.874 134.813L161.313 133.952C163.132 133.309 164.431 131.737 164.431 130.014V129.304H161.587V128.429H168.313V129.304H165.511V130.014ZM171.171 127.417V136.331H170.104V127.417H171.171ZM171.554 138.395V139.298H163.323V135.483H164.39V138.395H171.554ZM179.169 134.54V136.057H181.384V134.54H182.382V139.393H178.157V134.54H179.169ZM179.169 138.546H181.384V136.878H179.169V138.546ZM185.854 135.497C185.841 136.782 186.606 138.122 188.097 138.669L187.536 139.489C186.415 139.038 185.677 138.183 185.308 137.165C184.918 138.163 184.18 139.024 183.106 139.489L182.546 138.669C184.009 138.067 184.788 136.727 184.788 135.497V134.458H185.854V135.497ZM180.099 127.95C181.726 127.95 182.97 128.873 183.202 130.274H185.745V127.403H186.825V133.843H185.745V131.163H183.216C182.997 132.598 181.746 133.542 180.099 133.542C178.253 133.542 176.94 132.407 176.94 130.739C176.94 129.085 178.253 127.95 180.099 127.95ZM180.099 128.852C178.854 128.852 177.966 129.632 177.966 130.739C177.966 131.86 178.854 132.653 180.099 132.653C181.329 132.653 182.204 131.86 182.204 130.739C182.204 129.632 181.329 128.852 180.099 128.852ZM194.386 127.677C197.024 127.677 198.679 128.524 198.679 129.987C198.679 131.423 197.024 132.257 194.386 132.257C191.747 132.257 190.079 131.423 190.079 129.987C190.079 128.524 191.747 127.677 194.386 127.677ZM194.386 128.538C192.417 128.538 191.173 129.085 191.187 129.987C191.173 130.876 192.417 131.395 194.386 131.409C196.327 131.395 197.585 130.876 197.585 129.987C197.585 129.085 196.327 128.538 194.386 128.538ZM198.569 135.401V139.393H190.202V135.401H198.569ZM191.269 136.263V138.518H197.517V136.263H191.269ZM199.923 133.309V134.198H188.849V133.309H199.923Z" fill="#8E8E8E"/>
<path d="M153.11 130.671C153.11 132.817 154.532 135.018 156.255 135.866L155.599 136.727C154.259 136.023 153.138 134.588 152.604 132.899C152.058 134.697 150.909 136.228 149.542 136.96L148.858 136.098C150.636 135.223 152.044 132.886 152.058 130.671V128.456H153.11V130.671ZM158.442 127.403V132.339H160.479V133.268H158.442V139.557H157.376V127.403H158.442ZM165.511 130.014C165.511 131.655 166.81 133.132 168.628 133.706L168.081 134.567C166.666 134.089 165.538 133.091 164.991 131.805C164.458 133.193 163.316 134.287 161.874 134.813L161.313 133.952C163.132 133.309 164.431 131.737 164.431 130.014V129.304H161.587V128.429H168.313V129.304H165.511V130.014ZM171.171 127.417V136.331H170.104V127.417H171.171ZM171.554 138.395V139.298H163.323V135.483H164.39V138.395H171.554ZM179.169 134.54V136.057H181.384V134.54H182.382V139.393H178.157V134.54H179.169ZM179.169 138.546H181.384V136.878H179.169V138.546ZM185.854 135.497C185.841 136.782 186.606 138.122 188.097 138.669L187.536 139.489C186.415 139.038 185.677 138.183 185.308 137.165C184.918 138.163 184.18 139.024 183.106 139.489L182.546 138.669C184.009 138.067 184.788 136.727 184.788 135.497V134.458H185.854V135.497ZM180.099 127.95C181.726 127.95 182.97 128.873 183.202 130.274H185.745V127.403H186.825V133.843H185.745V131.163H183.216C182.997 132.598 181.746 133.542 180.099 133.542C178.253 133.542 176.94 132.407 176.94 130.739C176.94 129.085 178.253 127.95 180.099 127.95ZM180.099 128.852C178.854 128.852 177.966 129.632 177.966 130.739C177.966 131.86 178.854 132.653 180.099 132.653C181.329 132.653 182.204 131.86 182.204 130.739C182.204 129.632 181.329 128.852 180.099 128.852ZM194.386 127.677C197.024 127.677 198.679 128.524 198.679 129.987C198.679 131.423 197.024 132.257 194.386 132.257C191.747 132.257 190.079 131.423 190.079 129.987C190.079 128.524 191.747 127.677 194.386 127.677ZM194.386 128.538C192.417 128.538 191.173 129.085 191.187 129.987C191.173 130.876 192.417 131.395 194.386 131.409C196.327 131.395 197.585 130.876 197.585 129.987C197.585 129.085 196.327 128.538 194.386 128.538ZM198.569 135.401V139.393H190.202V135.401H198.569ZM191.269 136.263V138.518H197.517V136.263H191.269ZM199.923 133.309V134.198H188.849V133.309H199.923Z" fill="black" fill-opacity="0.2"/>
</svg>
