<?xml version="1.0" encoding="utf-8"?>
<!-- Generator: Adobe Illustrator 16.0.0, SVG Export Plug-In . SVG Version: 6.00 Build 0)  -->
<!DOCTYPE svg PUBLIC "-//W3C//DTD SVG 1.1//EN" "http://www.w3.org/Graphics/SVG/1.1/DTD/svg11.dtd">
<svg version="1.1" id="레이어_1" xmlns="http://www.w3.org/2000/svg" xmlns:xlink="http://www.w3.org/1999/xlink" x="0px"
	 y="0px" width="3300px" height="2200px" viewBox="0 0 3300 2200" enable-background="new 0 0 3300 2200" xml:space="preserve">
<g id="Notes">
	<rect id="artboard" x="-0.499" fill="#FFFFFF" width="3300" height="2200"/>
	<line fill="none" stroke="#000000" stroke-width="0.5" x1="262.501" y1="292" x2="3035.5" y2="292"/>
	<text transform="matrix(1 0 0 1 262.5002 322)" font-family="'Arial-BoldMT'" font-size="12">Weight/Scale Variations</text>
	<text transform="matrix(1 0 0 1 535.5364 322)" font-family="'ArialMT'" font-size="12">Ultralight</text>
	<text transform="matrix(1 0 0 1 844.2502 322)" font-family="'ArialMT'" font-size="12">Thin</text>
	<text transform="matrix(1 0 0 1 1139.6194 322)" font-family="'ArialMT'" font-size="12">Light</text>
	<text transform="matrix(1 0 0 1 1428.3284 322)" font-family="'ArialMT'" font-size="12">Regular</text>
	<text transform="matrix(1 0 0 1 1724.7209 322)" font-family="'ArialMT'" font-size="12">Medium</text>
	<text transform="matrix(1 0 0 1 2017.7561 322)" font-family="'ArialMT'" font-size="12">Semibold</text>
	<text transform="matrix(1 0 0 1 2327.4709 322)" font-family="'ArialMT'" font-size="12">Bold</text>
	<text transform="matrix(1 0 0 1 2619.1838 322)" font-family="'ArialMT'" font-size="12">Heavy</text>
	<text transform="matrix(1 0 0 1 2918.2288 322)" font-family="'ArialMT'" font-size="12">Black</text>
	<line fill="none" stroke="#000000" stroke-width="0.5" x1="262.501" y1="1903" x2="3035.5" y2="1903"/>
	<g transform="matrix(1 0 0 1 263 1933)">
		<path d="M8.749,0.83c4.307,0,7.891-3.574,7.891-7.881s-3.594-7.881-7.9-7.881c-4.297,0-7.871,3.574-7.871,7.881
			S4.452,0.83,8.749,0.83z M8.749-0.654c-3.545,0-6.377-2.842-6.377-6.396s2.822-6.396,6.367-6.396c3.555,0,6.396,2.842,6.406,6.396
			S12.303-0.654,8.749-0.654z M8.729-3.428c0.469,0,0.742-0.313,0.742-0.83v-2.061h2.227c0.498,0,0.84-0.254,0.84-0.723
			c0-0.479-0.322-0.742-0.84-0.742H9.471v-2.227c0-0.518-0.273-0.84-0.742-0.84s-0.723,0.342-0.723,0.84v2.227H5.8
			c-0.518,0-0.85,0.264-0.85,0.742c0,0.469,0.352,0.723,0.85,0.723h2.207v2.061C8.007-3.76,8.26-3.428,8.729-3.428z"/>
	</g>
	<g transform="matrix(1 0 0 1 281.506 1933)">
		<path d="M11.21,2.91c5.449,0,9.961-4.512,9.961-9.961c0-5.439-4.521-9.961-9.971-9.961c-5.439,0-9.951,4.521-9.951,9.961
			C1.249-1.602,5.77,2.91,11.21,2.91z M11.21,1.25c-4.609,0-8.291-3.691-8.291-8.301c0-4.6,3.672-8.301,8.281-8.301
			s8.301,3.701,8.311,8.301C19.52-2.441,15.819,1.25,11.21,1.25z M11.19-2.412c0.518,0,0.83-0.361,0.83-0.928V-6.23h3.057
			c0.547,0,0.928-0.283,0.928-0.801c0-0.527-0.361-0.83-0.928-0.83H12.02v-3.066c0-0.576-0.313-0.928-0.83-0.928
			s-0.811,0.371-0.811,0.928v3.066H7.333c-0.566,0-0.938,0.303-0.938,0.83c0,0.518,0.391,0.801,0.938,0.801h3.047v2.891
			C10.38-2.793,10.672-2.412,11.19-2.412z"/>
	</g>
	<g transform="matrix(1 0 0 1 304.924 1933)">
		<path d="M14.471,5.674c6.963,0,12.725-5.752,12.725-12.715s-5.771-12.715-12.734-12.715c-6.953,0-12.705,5.752-12.705,12.715
			S7.518,5.674,14.471,5.674z M14.471,3.857c-6.035,0-10.889-4.863-10.889-10.898s4.844-10.898,10.879-10.898
			c6.045,0,10.898,4.863,10.908,10.898S20.516,3.857,14.471,3.857z M14.452-1.064c0.566,0,0.918-0.391,0.918-0.996v-4.072h4.238
			c0.586,0,1.006-0.332,1.006-0.889c0-0.576-0.391-0.918-1.006-0.918H15.37v-4.248c0-0.615-0.352-1.006-0.918-1.006
			s-0.889,0.41-0.889,1.006v4.248H9.334c-0.615,0-1.025,0.342-1.025,0.918c0,0.557,0.43,0.889,1.025,0.889h4.229v4.072
			C13.563-1.475,13.885-1.064,14.452-1.064z"/>
	</g>
	<text transform="matrix(1 0 0 1 262.5002 1953)" font-family="'Arial-BoldMT'" font-size="12">Design Variations</text>
	<text transform="matrix(1 0 0 1 262.5002 1971)" font-family="'ArialMT'" font-size="12">Symbols are supported in up to nine weights and three scales.</text>
	<text transform="matrix(1 0 0 1 262.5002 1989)" font-family="'ArialMT'" font-size="12">For optimal layout with text and other symbols, vertically align</text>
	<text transform="matrix(1 0 0 1 262.5002 2007)" font-family="'ArialMT'" font-size="12">symbols with the adjacent text.</text>
	<rect x="775.501" y="1919" opacity="0.4" fill="#00AEEF" enable-background="new    " width="3" height="14"/>
	<g transform="matrix(1 0 0 1 779 1933)">
		<path d="M10.027,0h1.846L6.678-14.092H4.94L-0.255,0h1.846l1.416-4.033h5.605L10.027,0z M5.78-11.953h0.059l2.256,6.426h-4.57
			L5.78-11.953z"/>
	</g>
	<rect x="791.117" y="1919" opacity="0.4" fill="#00AEEF" enable-background="new    " width="3" height="14"/>
	<text transform="matrix(1 0 0 1 775.5002 1953)" font-family="'Arial-BoldMT'" font-size="12">Margins</text>
	<text transform="matrix(1 0 0 1 775.5002 1971)" font-family="'ArialMT'" font-size="12">Leading and trailing margins on the left and right side of each symbol</text>
	<text transform="matrix(1 0 0 1 775.5002 1989)" font-family="'ArialMT'" font-size="12">can be adjusted by modifying the width of the blue rectangles.</text>
	<text transform="matrix(1 0 0 1 775.5002 2007)" font-family="'ArialMT'" font-size="12">Modifications are automatically applied proportionally to all</text>
	<text transform="matrix(1 0 0 1 775.5002 2025)" font-family="'ArialMT'" font-size="12">scales and weights.</text>
	<g transform="matrix(1 0 0 1 1289 1933)">
		<path d="M2.333,3.115l1.543,1.543c0.85,0.83,1.816,0.762,2.686-0.195L16.776-6.66c0.43,0.293,0.82,0.283,1.289,0.186l1.045-0.215
			l0.693,0.693l-0.049,0.518c-0.068,0.527,0.098,0.947,0.596,1.445l0.811,0.811c0.508,0.508,1.162,0.537,1.641,0.059l3.252-3.252
			c0.479-0.479,0.459-1.133-0.049-1.641l-0.82-0.82c-0.498-0.498-0.908-0.674-1.445-0.596l-0.527,0.059l-0.654-0.664l0.283-1.143
			c0.146-0.566,0-1.035-0.625-1.641l-2.412-2.393c-3.545-3.525-8.076-3.418-11.191-0.283c-0.42,0.43-0.469,1.016-0.195,1.445
			c0.234,0.371,0.713,0.596,1.357,0.43c1.514-0.381,3.027-0.264,4.512,0.742l-0.625,1.582c-0.234,0.586-0.215,1.064,0.02,1.504
			L2.518,0.439C1.581,1.309,1.473,2.256,2.333,3.115z M10.175-15.146c2.666-1.992,5.977-1.68,8.379,0.732l2.627,2.607
			c0.234,0.234,0.264,0.42,0.205,0.713l-0.381,1.563l1.572,1.572l0.967-0.088c0.283-0.029,0.371-0.01,0.596,0.215l0.625,0.625
			L22.01-4.463l-0.625-0.615c-0.225-0.225-0.244-0.322-0.215-0.605l0.088-0.957l-1.563-1.563l-1.621,0.313
			c-0.283,0.059-0.43,0.059-0.664-0.186l-2.178-2.178c-0.225-0.234-0.254-0.371-0.127-0.693l0.947-2.275
			c-1.602-1.533-3.711-2.383-5.752-1.729c-0.088,0.029-0.156,0.01-0.186-0.029C10.087-15.029,10.087-15.078,10.175-15.146z
			 M3.602,2.412C3.114,1.914,3.29,1.611,3.622,1.309L14.579-8.809l1.23,1.23L5.653,3.35C5.35,3.682,4.969,3.779,4.569,3.379
			L3.602,2.412z"/>
	</g>
	<text transform="matrix(1 0 0 1 1288.5002 1953)" font-family="'Arial-BoldMT'" font-size="12">Exporting</text>
	<text transform="matrix(1 0 0 1 1288.5002 1971)" font-family="'ArialMT'" font-size="12">Symbols should be outlined when exporting to ensure the</text>
	<text transform="matrix(1 0 0 1 1288.5002 1989)" font-family="'ArialMT'" font-size="12">design is preserved when submitting to Xcode.</text>
	<text id="template-version" transform="matrix(1 0 0 1 2958.3499 1933)" font-family="'ArialMT'" font-size="12">Template v.1.0</text>
	<text transform="matrix(1 0 0 1 2900.7639 1951)" font-family="'ArialMT'" font-size="12">Generated from house.fill</text>
	<text transform="matrix(1 0 0 1 2921.4241 1969)" font-family="'ArialMT'" font-size="12">Typeset at 100 points</text>
	<text transform="matrix(1 0 0 1 262.5002 726)" font-family="'ArialMT'" font-size="12">Small</text>
	<text transform="matrix(1 0 0 1 262.5002 1156)" font-family="'ArialMT'" font-size="12">Medium</text>
	<text transform="matrix(1 0 0 1 262.5002 1586)" font-family="'ArialMT'" font-size="12">Large</text>
</g>
<g id="Guides">
	<g id="H-reference" transform="matrix(1 0 0 1 339 696)">
		<path fill="#27AAE1" d="M54.931,0h2.735l-27.1-70.459h-2.49L0.977,0h2.686l9.277-24.463h32.763L54.931,0z M29.198-67.09h0.245
			l15.38,40.381H13.819L29.198-67.09z"/>
	</g>
	<line id="Baseline-S" fill="none" stroke="#27AAE1" stroke-width="0.577" x1="263" y1="696" x2="3036" y2="696"/>
	<line id="Capline-S" fill="none" stroke="#27AAE1" stroke-width="0.577" x1="263" y1="625.541" x2="3036" y2="625.541"/>
	<g id="H-reference_1_" transform="matrix(1 0 0 1 339 1126)">
		<path fill="#27AAE1" d="M54.931,0h2.735l-27.1-70.459h-2.49L0.977,0h2.686l9.277-24.463h32.763L54.931,0z M29.198-67.09h0.245
			l15.38,40.381H13.819L29.198-67.09z"/>
	</g>
	<line id="Baseline-M" fill="none" stroke="#27AAE1" stroke-width="0.577" x1="263" y1="1126" x2="3036" y2="1126"/>
	<line id="Capline-M" fill="none" stroke="#27AAE1" stroke-width="0.577" x1="263" y1="1055.54" x2="3036" y2="1055.54"/>
	<g id="H-reference_2_" transform="matrix(1 0 0 1 339 1556)">
		<path fill="#27AAE1" d="M54.931,0h2.735l-27.1-70.459h-2.49L0.977,0h2.686l9.277-24.463h32.763L54.931,0z M29.198-67.09h0.245
			l15.38,40.381H13.819L29.198-67.09z"/>
	</g>
	<line id="Baseline-L" fill="none" stroke="#27AAE1" stroke-width="0.577" x1="263" y1="1556" x2="3036" y2="1556"/>
	<line id="Capline-L" fill="none" stroke="#27AAE1" stroke-width="0.577" x1="263" y1="1485.54" x2="3036" y2="1485.54"/>
	
		<rect id="left-margin" x="1380.36" y="1030.79" opacity="0.4" fill="#00AEEF" enable-background="new    " width="12.451" height="119.336"/>
	
		<rect id="right-margin" x="1506.88" y="1030.79" opacity="0.4" fill="#00AEEF" enable-background="new    " width="12.451" height="119.336"/>
</g>
<g id="Symbols">
	<g id="Black-L" transform="matrix(1 0 0 1 2831.86 1556)">
		<path d="M16.064-39.795c0,5.322,4.346,9.473,10.107,9.473c2.979,0,5.664-1.221,7.861-3.223l66.358-60.938
			c0.293-0.293,0.634-0.488,1.122-0.488c0.391,0,0.88,0.146,1.173,0.439l66.356,60.986c2.197,2.002,4.883,3.223,7.861,3.223
			c5.762,0,10.107-4.15,10.107-9.473c0-2.686-0.586-5.322-3.809-8.252l-26.074-23.779v-39.99c0-3.125-2.002-5.127-5.127-5.127
			h-16.406c-3.125,0-5.225,2.002-5.225,5.127v15.576l-15.674-14.307c-4.052-3.711-8.35-5.469-13.232-5.469
			c-4.785,0-9.082,1.855-13.086,5.469l-68.506,62.5C16.65-45.117,16.064-42.48,16.064-39.795z M42.773,13.623
			c0,10.156,7.129,16.748,18.066,16.748h23.34V-17.09c0-3.125,2.1-5.176,5.225-5.176h24.366c3.125,0,5.126,2.051,5.126,5.176v47.461
			h23.389c10.986,0,18.067-6.592,18.067-16.748v-43.896l-57.666-52.783c-0.293-0.342-0.733-0.488-1.124-0.488
			c-0.439,0-0.83,0.146-1.171,0.488L42.773-30.273V13.623z"/>
	</g>
	<g id="Heavy-L" transform="matrix(1 0 0 1 2538.25 1556)">
		<path d="M16.065-39.941c0,4.639,3.809,8.203,8.789,8.203c2.637,0,4.98-1.123,6.885-2.881l65.283-59.814
			c0.391-0.391,0.83-0.586,1.416-0.586c0.488,0,1.025,0.146,1.465,0.537l65.234,59.863c1.904,1.758,4.248,2.881,6.884,2.881
			c4.981,0,8.79-3.564,8.79-8.203c0-2.441-0.586-4.688-3.321-7.129l-24.804-22.656v-39.502c0-2.979-1.905-4.883-4.883-4.883h-14.209
			c-2.979,0-4.981,1.904-4.981,4.883v17.578l-18.457-16.895c-3.563-3.271-7.47-4.834-11.767-4.834c-4.248,0-8.154,1.611-11.67,4.834
			L19.385-47.07C16.651-44.629,16.065-42.383,16.065-39.941z M40.576,13.428c0,9.717,6.592,15.918,16.943,15.918h23.926V-17.48
			c0-3.027,2.051-4.98,5.078-4.98h23.925c3.028,0,4.981,1.953,4.981,4.98v46.826h23.974c10.353,0,16.944-6.201,16.944-15.918
			v-44.971L99.854-83.008c-0.391-0.391-0.928-0.635-1.416-0.635c-0.537,0-1.025,0.244-1.514,0.684L40.576-31.396V13.428z"/>
	</g>
	<g id="Bold-L" transform="matrix(1 0 0 1 2245.01 1556)">
		<path d="M16.064-40.088c0,3.906,3.174,6.787,7.324,6.787c2.246,0,4.199-1.025,5.859-2.539l63.965-58.545
			c0.537-0.488,1.123-0.732,1.758-0.732c0.586,0,1.221,0.195,1.807,0.732l63.916,58.545c1.66,1.514,3.613,2.539,5.859,2.539
			c4.15,0,7.324-2.881,7.324-6.787c0-2.148-0.586-3.955-2.734-5.908l-23.438-21.436v-38.965c0-2.783-1.808-4.59-4.59-4.59h-11.768
			c-2.784,0-4.639,1.807-4.639,4.59v19.873l-21.631-19.775c-3.076-2.832-6.445-4.199-10.156-4.199
			c-3.662,0-7.031,1.416-10.059,4.199L18.799-45.996C16.65-44.043,16.064-42.236,16.064-40.088z M38.086,13.232
			c0,9.18,6.055,14.941,15.723,14.941h24.561V-17.92c0-2.93,1.953-4.834,4.883-4.834h23.535c2.93,0,4.785,1.904,4.785,4.834v46.094
			h24.609c9.668,0,15.673-5.762,15.673-14.941V-32.91l-55.126-50c-0.537-0.537-1.221-0.781-1.807-0.781
			c-0.635,0-1.27,0.244-1.855,0.83l-54.98,50.244V13.232z"/>
	</g>
	<g id="Semibold-L" transform="matrix(1 0 0 1 1950.69 1556)">
		<path d="M16.064-40.186c0,3.369,2.734,5.762,6.299,5.762c2.002,0,3.711-0.879,5.127-2.246l63.086-57.666
			c0.635-0.586,1.27-0.879,2.002-0.879c0.684,0,1.416,0.293,2.051,0.879l63.037,57.666c1.465,1.367,3.125,2.246,5.127,2.246
			c3.564,0,6.299-2.393,6.299-5.762c0-1.953-0.586-3.516-2.295-5.078L144.238-65.82v-38.623c0-2.637-1.709-4.395-4.346-4.395
			h-10.059c-2.637,0-4.443,1.758-4.443,4.395v21.436l-23.828-21.729c-2.686-2.539-5.762-3.76-9.033-3.76
			c-3.223,0-6.25,1.27-8.936,3.76L18.359-45.264C16.65-43.701,16.064-42.139,16.064-40.186z M36.377,13.037
			c0,8.887,5.664,14.307,14.893,14.307h25v-45.557c0-2.881,1.904-4.688,4.785-4.688h23.145c2.881,0,4.736,1.807,4.736,4.688v45.557
			h25c9.18,0,14.844-5.42,14.844-14.307v-46.924L94.58-82.861c-0.684-0.586-1.416-0.879-2.1-0.879s-1.416,0.293-2.1,0.928
			L36.377-33.447V13.037z"/>
	</g>
	<g id="Medium-L" transform="matrix(1 0 0 1 1655.78 1556)">
		<path d="M16.064-40.283c0,2.979,2.441,5.029,5.518,5.029c1.807,0,3.32-0.83,4.59-2.051l62.451-56.982
			c0.684-0.684,1.367-0.977,2.148-0.977s1.514,0.293,2.197,0.928l62.402,57.031c1.271,1.221,2.783,2.051,4.59,2.051
			c3.076,0,5.519-2.051,5.519-5.029c0-1.807-0.636-3.125-2.002-4.395L141.65-64.6v-38.33c0-2.588-1.66-4.248-4.248-4.248h-8.74
			c-2.539,0-4.297,1.66-4.297,4.248v22.607l-25.439-23.242c-2.441-2.295-5.273-3.369-8.203-3.369c-2.881,0-5.664,1.123-8.105,3.369
			L18.066-44.678C16.65-43.408,16.064-42.09,16.064-40.283z M35.107,12.939c0,8.643,5.371,13.818,14.209,13.818h25.342v-45.215
			c0-2.783,1.855-4.59,4.688-4.59h22.949c2.783,0,4.59,1.807,4.59,4.59v45.215h25.343c8.837,0,14.209-5.176,14.209-13.818v-47.51
			L92.919-82.813c-0.732-0.635-1.514-0.977-2.246-0.977c-0.781,0-1.563,0.342-2.295,1.025L35.107-34.082V12.939z"/>
	</g>
	<g id="Regular-L" transform="matrix(1 0 0 1 1361.44 1556)">
		<path d="M16.064-40.381c0,2.49,2.002,4.053,4.492,4.053c1.563,0,2.783-0.732,3.906-1.807l61.572-56.152
			c0.732-0.732,1.563-1.025,2.393-1.025s1.611,0.342,2.393,1.025l61.523,56.152c1.123,1.074,2.344,1.807,3.906,1.807
			c2.49,0,4.492-1.563,4.492-4.053c0-1.611-0.586-2.637-1.611-3.564l-20.898-19.043v-37.988c0-2.49-1.611-4.053-4.004-4.053h-7.08
			c-2.441,0-4.102,1.563-4.102,4.053v24.17l-27.588-25.244c-2.1-1.953-4.59-2.93-7.08-2.93s-4.932,0.977-7.031,2.93L17.676-43.945
			C16.65-43.018,16.064-41.992,16.064-40.381z M33.398,12.793c0,8.301,4.98,13.184,13.379,13.184h25.83V-18.75
			c0-2.734,1.807-4.492,4.541-4.492h22.607c2.734,0,4.492,1.758,4.492,4.492v44.727h25.781c8.398,0,13.379-4.883,13.379-13.184
			v-48.34L90.771-82.715c-0.83-0.781-1.709-1.123-2.49-1.123c-0.879,0-1.709,0.342-2.539,1.172L33.398-34.912V12.793z"/>
	</g>
	<g id="Light-L" transform="matrix(1 0 0 1 1066.44 1556)">
		<path d="M16.064-39.844c0,1.807,1.465,3.027,3.369,3.027c1.221,0,2.1-0.586,2.979-1.367l61.67-56.299
			c0.879-0.781,1.758-1.123,2.686-1.123c0.879,0,1.758,0.391,2.588,1.123l61.67,56.299c0.83,0.781,1.709,1.367,2.93,1.367
			c1.904,0,3.369-1.221,3.369-3.027c0-1.221-0.439-2.002-1.172-2.734l-19.678-17.92v-39.063c0-2.051-1.367-3.369-3.32-3.369h-5.469
			c-2.002,0-3.418,1.318-3.418,3.369v27.93l-31.201-28.564c-1.904-1.758-4.15-2.637-6.396-2.637c-2.197,0-4.443,0.879-6.348,2.637
			L17.285-42.578C16.504-41.846,16.064-41.064,16.064-39.844z M32.47,13.77c0,7.666,4.59,12.207,12.354,12.207h26.172v-44.58
			c0-2.49,1.66-4.102,4.15-4.102H98.34c2.49,0,4.102,1.611,4.102,4.102v44.58h26.123c7.764,0,12.354-4.541,12.354-12.207V-37.5
			L89.551-83.35c-1.025-0.928-2.051-1.367-3.027-1.367c-1.025,0-2.002,0.439-3.027,1.416L32.47-36.523V13.77z"/>
	</g>
	<g id="Thin-L" transform="matrix(1 0 0 1 771.974 1556)">
		<path d="M16.064-39.16c0,0.977,0.732,1.709,1.855,1.709c0.83,0,1.27-0.342,1.758-0.83l61.865-56.494
			c0.977-0.879,1.953-1.27,2.979-1.27c0.977,0,1.953,0.488,2.832,1.27l61.865,56.494c0.488,0.488,0.927,0.83,1.758,0.83
			c1.123,0,1.855-0.732,1.855-1.709c0-0.684-0.195-1.123-0.685-1.563L134.18-57.227v-40.479c0-1.514-1.075-2.49-2.491-2.49h-3.319
			c-1.416,0-2.49,0.977-2.49,2.49v32.959L89.941-97.754c-1.709-1.514-3.613-2.295-5.566-2.295c-1.855,0-3.711,0.781-5.371,2.295
			L16.748-40.723C16.26-40.283,16.064-39.844,16.064-39.16z M31.25,15.039c0,6.885,4.102,10.986,10.986,10.986h26.66v-44.385
			c0-2.197,1.416-3.613,3.613-3.613h23.926c2.148,0,3.564,1.416,3.564,3.613v44.385h26.66c6.885,0,10.985-4.102,10.985-10.986
			v-55.176L87.891-84.18c-1.27-1.172-2.49-1.709-3.662-1.709c-1.221,0-2.441,0.537-3.711,1.709L31.25-38.623V15.039z"/>
	</g>
	<g id="Ultralight-L" transform="matrix(1 0 0 1 476.41 1556)">
		<path d="M16.064-38.77c0,0.488,0.391,1.025,1.074,1.025c0.635,0,0.83-0.293,1.172-0.586l61.963-56.592
			c0.977-0.928,2.051-1.318,3.125-1.318c0.977,0,2.051,0.488,2.93,1.318L148.34-38.33c0.293,0.293,0.487,0.586,1.122,0.586
			c0.684,0,1.074-0.537,1.074-1.025c0-0.439-0.098-0.684-0.438-1.025l-17.09-15.723v-41.211c0-1.221-0.929-2.051-2.052-2.051h-2.196
			c-1.173,0-2.052,0.83-2.052,2.051v35.498L88.329-96.484c-1.563-1.416-3.32-2.1-5.127-2.1c-1.66,0-3.369,0.684-4.883,2.1
			L16.503-39.795C16.161-39.453,16.064-39.209,16.064-38.77z M30.663,15.723c0,6.445,3.809,10.303,10.254,10.303h26.904v-44.287
			c0-2.002,1.318-3.32,3.32-3.32h24.316c2.002,0,3.32,1.318,3.32,3.32v44.287h26.905c6.444,0,10.302-3.857,10.302-10.303v-57.178
			L87.06-84.619c-1.416-1.27-2.734-1.855-4.004-1.855c-1.367,0-2.686,0.586-4.053,1.855l-48.34,44.873V15.723z"/>
	</g>
	<g id="Black-M" transform="matrix(1 0 0 1 2851.44 1126)">
		<path fill="none" stroke="#060001" stroke-width="14" stroke-miterlimit="10" d="M81.957-91.171L36.024-45.238v57.417h34.451
			v-22.966c0-6.343,5.141-11.485,11.481-11.485c6.343,0,11.484,5.143,11.484,11.485v22.966h34.45v-57.417L81.957-91.171z"/>
	</g>
	<g id="Heavy-M" transform="matrix(1 0 0 1 2557.69 1126)">
		<path fill="none" stroke="#060001" stroke-width="12" stroke-miterlimit="10" d="M79.003-91.171L33.07-45.238v57.417h34.451
			v-22.966c0-6.343,5.141-11.485,11.481-11.485c6.343,0,11.484,5.143,11.484,11.485v22.966h34.45v-57.417L79.003-91.171z"/>
	</g>
	<g id="Bold-M" transform="matrix(1 0 0 1 2264.25 1126)">
		<path fill="none" stroke="#060001" stroke-width="10" stroke-miterlimit="10" d="M75.732-91.171L29.799-45.238v57.417H64.25
			v-22.966c0-6.343,5.141-11.485,11.481-11.485c6.343,0,11.484,5.143,11.484,11.485v22.966h34.45v-57.417L75.732-91.171z"/>
	</g>
	<g id="Semibold-M" transform="matrix(1 0 0 1 1969.83 1126)">
		<path fill="none" stroke="#060001" stroke-width="9" stroke-miterlimit="10" d="M73.437-91.171L27.504-45.238v57.417h34.451
			v-22.966c0-6.343,5.141-11.485,11.481-11.485c6.343,0,11.484,5.143,11.484,11.485v22.966h34.45v-57.417L73.437-91.171z"/>
	</g>
	<g id="Medium-M" transform="matrix(1 0 0 1 1674.83 1126)">
		<path fill="none" stroke="#060001" stroke-width="8" stroke-miterlimit="10" d="M71.728-91.171L25.795-45.238v57.417h34.451
			v-22.966c0-6.343,5.141-11.485,11.481-11.485c6.343,0,11.484,5.143,11.484,11.485v22.966h34.45v-57.417L71.728-91.171z"/>
	</g>
	<g id="Regular-M" transform="matrix(1 0 0 1 1380.36 1126)">
		<path fill="none" stroke="#060001" stroke-width="7" stroke-miterlimit="10" d="M69.715-91.171L23.782-45.238v57.417h34.451
			v-22.966c0-6.343,5.142-11.485,11.482-11.485c6.342,0,11.484,5.143,11.484,11.485v22.966h34.45v-57.417L69.715-91.171z"/>
	</g>
	<g id="Light-M" transform="matrix(1 0 0 1 1085.19 1126)">
		<path fill="none" stroke="#060001" stroke-width="6" stroke-miterlimit="10" d="M67.944-91.171L22.01-45.238v57.417h34.451
			v-22.966c0-6.343,5.142-11.485,11.482-11.485c6.342,0,11.484,5.143,11.484,11.485v22.966h34.45v-57.417L67.944-91.171z"/>
	</g>
	<g id="Thin-M" transform="matrix(1 0 0 1 790.48 1126)">
		<path fill="none" stroke="#060001" stroke-width="4" stroke-miterlimit="10" d="M65.941-91.171L20.008-45.238v57.417h34.451
			v-22.966c0-6.343,5.142-11.485,11.482-11.485c6.342,0,11.484,5.143,11.484,11.485v22.966h34.45v-57.417L65.941-91.171z"/>
	</g>
	<g id="Ultralight-M" transform="matrix(1 0 0 1 494.794 1126)">
		<path fill="none" stroke="#060001" stroke-width="2" stroke-miterlimit="10" d="M64.386-91.171L18.453-45.238v57.417h34.451
			v-22.966c0-6.343,5.142-11.485,11.482-11.485c6.342,0,11.484,5.143,11.484,11.485v22.966h34.45v-57.417L64.386-91.171z"/>
	</g>
	<g id="Black-S" transform="matrix(1 0 0 1 2869.39 696)">
		<path fill="none" stroke="#060001" stroke-width="14" stroke-miterlimit="10" d="M64.013-91.691L22.415-50.094V1.904h31.199
			v-20.799c0-5.744,4.656-10.4,10.398-10.4c5.743,0,10.4,4.656,10.4,10.4V1.904h31.197v-51.998L64.013-91.691z"/>
	</g>
	<g id="Bold-S" transform="matrix(1 0 0 1 2280.38 696)">
		<path fill="none" stroke="#060001" stroke-width="10" stroke-miterlimit="10" d="M59.603-91.691L18.005-50.094V1.904h31.199
			v-20.799c0-5.744,4.656-10.4,10.398-10.4c5.743,0,10.4,4.656,10.4,10.4V1.904H101.2v-51.998L59.603-91.691z"/>
	</g>
	<g id="Heavy-S_1_" transform="matrix(1 0 0 1 2574.75 696)">
		<path fill="none" stroke="#060001" stroke-width="12" stroke-miterlimit="10" d="M61.944-91.691L20.346-50.094V1.904h31.199
			v-20.799c0-5.744,4.656-10.4,10.398-10.4c5.743,0,10.4,4.656,10.4,10.4V1.904h31.197v-51.998L61.944-91.691z"/>
	</g>
	<g id="Semibold-S" transform="matrix(1 0 0 1 1985.28 696)">
		<path fill="none" stroke="#060001" stroke-width="9" stroke-miterlimit="10" d="M57.987-91.691L16.389-50.094V1.904h31.199
			v-20.799c0-5.744,4.656-10.4,10.398-10.4c5.743,0,10.4,4.656,10.4,10.4V1.904h31.198v-51.998L57.987-91.691z"/>
	</g>
	<g id="Medium-S" transform="matrix(1 0 0 1 1689.79 696)">
		<path fill="none" stroke="#060001" stroke-width="8" stroke-miterlimit="10" d="M56.769-91.691L15.171-50.094V1.904H46.37v-20.799
			c0-5.744,4.656-10.4,10.398-10.4c5.743,0,10.4,4.656,10.4,10.4V1.904h31.197v-51.998L56.769-91.691z"/>
	</g>
	<g id="Regular-S_2_" transform="matrix(1 0 0 1 1394.67 696)">
		<path fill="none" stroke="#060001" stroke-width="7" stroke-miterlimit="10" d="M55.405-91.925L13.808-50.328V1.67h31.199v-20.799
			c0-5.744,4.656-10.4,10.398-10.4c5.744,0,10.4,4.656,10.4,10.4V1.67h31.198v-51.998L55.405-91.925z"/>
	</g>
	<g id="Light-S_1_" transform="matrix(1 0 0 1 1099.3 696)">
		<path fill="none" stroke="#060001" stroke-width="6" stroke-miterlimit="10" d="M52.389-91.691L10.791-50.094V1.904H41.99v-20.799
			c0-5.744,4.656-10.4,10.398-10.4c5.744,0,10.4,4.656,10.4,10.4V1.904h31.198v-51.998L52.389-91.691z"/>
	</g>
	<g id="Thin-S_2_" transform="matrix(1 0 0 1 804.371 696)">
		<path fill="none" stroke="#060001" stroke-width="4" stroke-miterlimit="10" d="M52.05-91.691L10.452-50.094V1.904h31.199v-20.799
			c0-5.744,4.656-10.4,10.398-10.4c5.744,0,10.4,4.656,10.4,10.4V1.904h31.198v-51.998L52.05-91.691z"/>
	</g>
	<g id="Ultralight-S_1_" transform="matrix(1 0 0 1 508.564 696)">
		<path fill="none" stroke="#060001" stroke-width="2" stroke-miterlimit="10" d="M50.437-91.691L8.84-50.094V1.904h31.199v-20.799
			c0-5.744,4.656-10.4,10.398-10.4c5.744,0,10.4,4.656,10.4,10.4V1.904h31.198v-51.998L50.437-91.691z"/>
	</g>
</g>
</svg>
