<?xml version="1.0" encoding="utf-8" standalone="yes"?><!-- Generator: Adobe Illustrator 22.0.1, SVG Export Plug-In . SVG Version: 6.00 Build 0)  --><svg xmlns="http://www.w3.org/2000/svg" xmlns:xlink="http://www.w3.org/1999/xlink" version="1.1" id="레이어_1" x="0px" y="0px" viewBox="0 0 3300 2200" style="enable-background:new 0 0 3300 2200;zoom: 2;" xml:space="preserve" visibility="visible"><style type="text/css" visibility="visible">
        .st0{fill:#FFFFFF;}
        .st1{fill:none;stroke:#000000;stroke-width:0.5;}
        .st2{font-family:'Arial-BoldMT';}
        .st3{font-size:12px;}
        .st4{font-family:'ArialMT';}
        .st5{opacity:0.4;fill:#00AEEF;enable-background:new    ;}
        .st6{fill:#27AAE1;}
        .st7{fill:none;stroke:#27AAE1;stroke-width:0.577;}
        .st8{fill:#195E89;}
        .st9{fill:#175C8E;}
</style><g id="Notes"><rect x="33.367279px" height="2200" y="58.446899px" id="artboard" width="3300" class="st0"></rect><line class="st1" x1="260.4" y1="292" x2="3033.4" y2="292"></line><text transform="matrix(1 0 0 1 260.3538 322.0433)" class="st2 st3">Weight/Scale Variations</text><text transform="matrix(1 0 0 1 533.3898 322.0433)" class="st4 st3">Ultralight</text><text transform="matrix(1 0 0 1 842.1036 322.0433)" class="st4 st3">Thin</text><text transform="matrix(1 0 0 1 1137.4728 322.0433)" class="st4 st3">Light</text><text transform="matrix(1 0 0 1 1426.1818 322.0433)" class="st4 st3">Regular</text><text transform="matrix(1 0 0 1 1722.5745 322.0433)" class="st4 st3">Medium</text><text transform="matrix(1 0 0 1 2015.6095 322.0433)" class="st4 st3">Semibold</text><text transform="matrix(1 0 0 1 2325.3242 322.0433)" class="st4 st3">Bold</text><text transform="matrix(1 0 0 1 2617.0374 322.0433)" class="st4 st3">Heavy</text><text transform="matrix(1 0 0 1 2916.0823 322.0433)" class="st4 st3">Black</text><line class="st1" x1="260.4" y1="1903" x2="3033.4" y2="1903"></line><g transform="matrix(1 0 0 1 263 1933)"><path d="M6.6,0.9c4.3,0,7.9-3.6,7.9-7.9s-3.6-7.9-7.9-7.9c-4.3,0-7.9,3.6-7.9,7.9S2.3,0.9,6.6,0.9z M6.6-0.6 C3.1-0.6,0.2-3.5,0.2-7s2.8-6.4,6.4-6.4c3.6,0,6.4,2.8,6.4,6.4S10.2-0.6,6.6-0.6z M6.6-3.4c0.5,0,0.7-0.3,0.7-0.8v-2.1h2.2 c0.5,0,0.8-0.3,0.8-0.7c0-0.5-0.3-0.7-0.8-0.7H7.3V-10c0-0.5-0.3-0.8-0.7-0.8S5.9-10.5,5.9-10v2.2H3.7C3.1-7.7,2.8-7.5,2.8-7 c0,0.5,0.4,0.7,0.8,0.7h2.2v2.1C5.9-3.7,6.1-3.4,6.6-3.4z"></path></g><g transform="matrix(1 0 0 1 281.506 1933)"><path d="M9.1,3c5.4,0,10-4.5,10-10c0-5.4-4.5-10-10-10c-5.4,0-10,4.5-10,10C-0.9-1.6,3.6,3,9.1,3z M9.1,1.3C4.5,1.3,0.8-2.4,0.8-7 c0-4.6,3.7-8.3,8.3-8.3s8.3,3.7,8.3,8.3C17.4-2.4,13.7,1.3,9.1,1.3z M9-2.4c0.5,0,0.8-0.4,0.8-0.9v-2.9h3.1c0.5,0,0.9-0.3,0.9-0.8 c0-0.5-0.4-0.8-0.9-0.8H9.9v-3.1c0-0.6-0.3-0.9-0.8-0.9s-0.8,0.4-0.8,0.9v3.1h-3C4.6-7.8,4.2-7.5,4.2-7c0,0.5,0.4,0.8,0.9,0.8h3 v2.9C8.2-2.7,8.5-2.4,9-2.4z"></path></g><g transform="matrix(1 0 0 1 304.924 1933)"><path d="M12.3,5.7C19.3,5.7,25,0,25-7s-5.8-12.7-12.7-12.7C5.4-19.7-0.4-14-0.4-7S5.4,5.7,12.3,5.7z M12.3,3.9 C6.3,3.9,1.4-1,1.4-7s4.8-10.9,10.9-10.9c6,0,10.9,4.9,10.9,10.9S18.4,3.9,12.3,3.9z M12.3-1c0.6,0,0.9-0.4,0.9-1v-4.1h4.2 c0.6,0,1-0.3,1-0.9c0-0.6-0.4-0.9-1-0.9h-4.2v-4.2c0-0.6-0.4-1-0.9-1s-0.9,0.4-0.9,1v4.2H7.2c-0.6,0-1,0.3-1,0.9 c0,0.6,0.4,0.9,1,0.9h4.2V-2C11.4-1.4,11.7-1,12.3-1z"></path></g><text transform="matrix(1 0 0 1 260.3538 1953.0435)" class="st2 st3">Design Variations</text><text transform="matrix(1 0 0 1 260.3538 1971.0435)" class="st4 st3">Symbols are supported in up to nine weights and three scales.</text><text transform="matrix(1 0 0 1 260.3538 1989.0435)" class="st4 st3">For optimal layout with text and other symbols, vertically align</text><text transform="matrix(1 0 0 1 260.3538 2007.0435)" class="st4 st3">symbols with the adjacent text.</text><rect x="773.4" y="1919" class="st5" width="3" height="14"></rect><g transform="matrix(1 0 0 1 779 1933)"><path d="M7.9,0h1.8L4.5-14H2.8L-2.4,0h1.8l1.4-4h5.6L7.9,0z M3.6-11.9L3.6-11.9l2.3,6.4H1.4L3.6-11.9z"></path></g><rect x="789" y="1919" class="st5" width="3" height="14"></rect><text transform="matrix(1 0 0 1 773.3536 1953.0435)" class="st2 st3">Margins</text><text transform="matrix(1 0 0 1 773.3536 1971.0435)" class="st4 st3">Leading and trailing margins on the left and right side of each symbol</text><text transform="matrix(1 0 0 1 773.3536 1989.0435)" class="st4 st3">can be adjusted by modifying the width of the blue rectangles.</text><text transform="matrix(1 0 0 1 773.3536 2007.0435)" class="st4 st3">Modifications are automatically applied proportionally to all</text><text transform="matrix(1 0 0 1 773.3536 2025.0435)" class="st4 st3">scales and weights.</text><g transform="matrix(1 0 0 1 1289 1933)"><path d="M0.2,3.2l1.5,1.5c0.9,0.8,1.8,0.8,2.7-0.2L14.6-6.6c0.4,0.3,0.8,0.3,1.3,0.2l1-0.2L17.7-6l0,0.5c-0.1,0.5,0.1,0.9,0.6,1.4 L19-3.2c0.5,0.5,1.2,0.5,1.6,0.1l3.3-3.3c0.5-0.5,0.5-1.1,0-1.6L23-8.8c-0.5-0.5-0.9-0.7-1.4-0.6l-0.5,0.1L20.4-10l0.3-1.1 c0.1-0.6,0-1-0.6-1.6l-2.4-2.4c-3.5-3.5-8.1-3.4-11.2-0.3C6-15.1,6-14.5,6.3-14c0.2,0.4,0.7,0.6,1.4,0.4c1.5-0.4,3-0.3,4.5,0.7 l-0.6,1.6c-0.2,0.6-0.2,1.1,0,1.5L0.4,0.5C-0.6,1.4-0.7,2.3,0.2,3.2z M8-15.1c2.7-2,6-1.7,8.4,0.7l2.6,2.6 c0.2,0.2,0.3,0.4,0.2,0.7l-0.4,1.6l1.6,1.6l1-0.1c0.3,0,0.4,0,0.6,0.2l0.6,0.6l-2.8,2.7L19.2-5C19-5.3,19-5.4,19-5.6l0.1-1 l-1.6-1.6l-1.6,0.3c-0.3,0.1-0.4,0.1-0.7-0.2l-2.2-2.2c-0.2-0.2-0.3-0.4-0.1-0.7l0.9-2.3c-1.6-1.5-3.7-2.4-5.8-1.7 c-0.1,0-0.2,0-0.2,0C7.9-15,7.9-15,8-15.1z M1.5,2.5C1,2,1.1,1.7,1.5,1.4l11-10.1l1.2,1.2L3.5,3.4c-0.3,0.3-0.7,0.4-1.1,0L1.5,2.5 z"></path></g><text transform="matrix(1 0 0 1 1286.3536 1953.0435)" class="st2 st3">Exporting</text><text transform="matrix(1 0 0 1 1286.3536 1971.0435)" class="st4 st3">Symbols should be outlined when exporting to ensure the</text><text transform="matrix(1 0 0 1 1286.3536 1989.0435)" class="st4 st3">design is preserved when submitting to Xcode.</text><text id="template-version" transform="matrix(1 0 0 1 2956.2034 1933.0435)" class="st4 st3">Template v.1.0</text><text transform="matrix(1 0 0 1 2898.6174 1951.0435)" class="st4 st3">Generated from house.fill</text><text transform="matrix(1 0 0 1 2919.2776 1969.0435)" class="st4 st3">Typeset at 100 points</text><text y="0px" transform="matrix(1 0 0 1 260.3538 726.0434)" class="st4 st3" x="-3.82387px">Small</text><text transform="matrix(1 0 0 1 260.3538 1156.0433)" class="st4 st3">Medium</text><text transform="matrix(1 0 0 1 260.3538 1586.0433)" class="st4 st3">Large</text></g><g id="Guides"><g id="H-reference" transform="matrix(1 0 0 1 339 696)"><path class="st6" d="M54.9,0h2.7L30.6-70.5h-2.5L1,0h2.7l9.3-24.5h32.8L54.9,0z M29.2-67.1h0.2l15.4,40.4h-31L29.2-67.1z"></path></g><line id="Baseline-S" class="st7" x1="263" y1="696" x2="3036" y2="696"></line><line id="Capline-S" class="st7" x1="263" y1="625.5" x2="3036" y2="625.5"></line><g id="H-reference_1_" transform="matrix(1 0 0 1 339 1126)"><path class="st6" d="M54.9,0h2.7L30.6-70.5h-2.5L1,0h2.7l9.3-24.5h32.8L54.9,0z M29.2-67.1h0.2l15.4,40.4h-31L29.2-67.1z"></path></g><line id="Baseline-M" class="st7" x1="263" y1="1126" x2="3036" y2="1126"></line><line id="Capline-M" class="st7" x1="263" y1="1055.5" x2="3036" y2="1055.5"></line><g id="H-reference_2_" transform="matrix(1 0 0 1 339 1556)"><path class="st6" d="M54.9,0h2.7L30.6-70.5h-2.5L1,0h2.7l9.3-24.5h32.8L54.9,0z M29.2-67.1h0.2l15.4,40.4h-31L29.2-67.1z"></path></g><line id="Baseline-L" class="st7" x1="263" y1="1556" x2="3036" y2="1556"></line><line id="Capline-L" class="st7" x1="263" y1="1485.5" x2="3036" y2="1485.5"></line><rect id="left-margin" x="1380.4" y="1030.8" class="st5" width="12.5" height="119.3"></rect><rect id="right-margin" x="1506.9" y="1030.8" class="st5" width="12.5" height="119.3"></rect></g><g id="Black-L" transform="matrix(1 0 0 1 2831.86 1556)"><path d="M16.1-39.8c0,5.3,4.3,9.5,10.1,9.5c3,0,5.7-1.2,7.9-3.2l66.4-60.9c0.3-0.3,0.6-0.5,1.1-0.5c0.4,0,0.9,0.1,1.2,0.4l66.4,61 c2.2,2,4.9,3.2,7.9,3.2c5.8,0,10.1-4.2,10.1-9.5c0-2.7-0.6-5.3-3.8-8.3l-26.1-23.8v-40c0-3.1-2-5.1-5.1-5.1h-16.4 c-3.1,0-5.2,2-5.2,5.1v15.6l-15.7-14.3c-4.1-3.7-8.3-5.5-13.2-5.5c-4.8,0-9.1,1.9-13.1,5.5L19.9-48C16.6-45.1,16.1-42.5,16.1-39.8z M42.8,13.6c0,10.2,7.1,16.7,18.1,16.7h23.3v-47.5c0-3.1,2.1-5.2,5.2-5.2h24.4c3.1,0,5.1,2.1,5.1,5.2v47.5h23.4 c11,0,18.1-6.6,18.1-16.7v-43.9l-57.7-52.8c-0.3-0.3-0.7-0.5-1.1-0.5c-0.4,0-0.8,0.1-1.2,0.5L42.8-30.3V13.6z"></path></g><g id="Heavy-L" transform="matrix(1 0 0 1 2538.25 1556)"><path d="M16.1-39.9c0,4.6,3.8,8.2,8.8,8.2c2.6,0,5-1.1,6.9-2.9L97-94.4c0.4-0.4,0.8-0.6,1.4-0.6c0.5,0,1,0.1,1.5,0.5l65.2,59.9 c1.9,1.8,4.2,2.9,6.9,2.9c5,0,8.8-3.6,8.8-8.2c0-2.4-0.6-4.7-3.3-7.1l-24.8-22.7v-39.5c0-3-1.9-4.9-4.9-4.9h-14.2c-3,0-5,1.9-5,4.9 v17.6l-18.5-16.9c-3.6-3.3-7.5-4.8-11.8-4.8c-4.2,0-8.2,1.6-11.7,4.8L19.4-47.1C16.7-44.6,16.1-42.4,16.1-39.9z M40.6,13.4 c0,9.7,6.6,15.9,16.9,15.9h23.9v-46.8c0-3,2.1-5,5.1-5h23.9c3,0,5,2,5,5v46.8h24c10.4,0,16.9-6.2,16.9-15.9v-45L99.9-83 c-0.4-0.4-0.9-0.6-1.4-0.6c-0.5,0-1,0.2-1.5,0.7L40.6-31.4V13.4z"></path></g><g id="Bold-L" transform="matrix(1 0 0 1 2245.01 1556)" visibility="visible"><path d="M16.1-40.1c0,3.9,3.2,6.8,7.3,6.8c2.2,0,4.2-1,5.9-2.5l64-58.5c0.5-0.5,1.1-0.7,1.8-0.7c0.6,0,1.2,0.2,1.8,0.7l63.9,58.5 c1.7,1.5,3.6,2.5,5.9,2.5c4.1,0,7.3-2.9,7.3-6.8c0-2.1-0.6-4-2.7-5.9l-23.4-21.4v-39c0-2.8-1.8-4.6-4.6-4.6h-11.8 c-2.8,0-4.6,1.8-4.6,4.6v19.9l-21.6-19.8c-3.1-2.8-6.4-4.2-10.2-4.2c-3.7,0-7,1.4-10.1,4.2L18.8-46C16.6-44,16.1-42.2,16.1-40.1z M38.1,13.2c0,9.2,6.1,14.9,15.7,14.9h24.6v-46.1c0-2.9,2-4.8,4.9-4.8h23.5c2.9,0,4.8,1.9,4.8,4.8v46.1h24.6 c9.7,0,15.7-5.8,15.7-14.9v-46.1l-55.1-50c-0.5-0.5-1.2-0.8-1.8-0.8c-0.6,0-1.3,0.2-1.9,0.8l-55,50.2L38.1,13.2L38.1,13.2z"></path></g><g id="Semibold-L" transform="matrix(1 0 0 1 1950.69 1556)"><path d="M16.1-40.2c0,3.4,2.7,5.8,6.3,5.8c2,0,3.7-0.9,5.1-2.2l63.1-57.7c0.6-0.6,1.3-0.9,2-0.9c0.7,0,1.4,0.3,2.1,0.9l63,57.7 c1.5,1.4,3.1,2.2,5.1,2.2c3.6,0,6.3-2.4,6.3-5.8c0-2-0.6-3.5-2.3-5.1l-22.6-20.6v-38.6c0-2.6-1.7-4.4-4.3-4.4h-10.1 c-2.6,0-4.4,1.8-4.4,4.4V-83l-23.8-21.7c-2.7-2.5-5.8-3.8-9-3.8c-3.2,0-6.3,1.3-8.9,3.8L18.4-45.3C16.6-43.7,16.1-42.1,16.1-40.2z M36.4,13c0,8.9,5.7,14.3,14.9,14.3h25v-45.6c0-2.9,1.9-4.7,4.8-4.7h23.1c2.9,0,4.7,1.8,4.7,4.7v45.6h25c9.2,0,14.8-5.4,14.8-14.3 v-46.9l-54.2-49c-0.7-0.6-1.4-0.9-2.1-0.9s-1.4,0.3-2.1,0.9l-54,49.4V13z"></path></g><g id="Medium-L" transform="matrix(1 0 0 1 1655.78 1556)"><path d="M16.1-40.3c0,3,2.4,5,5.5,5c1.8,0,3.3-0.8,4.6-2.1l62.5-57c0.7-0.7,1.4-1,2.1-1s1.5,0.3,2.2,0.9l62.4,57 c1.3,1.2,2.8,2.1,4.6,2.1c3.1,0,5.5-2.1,5.5-5c0-1.8-0.6-3.1-2-4.4l-21.8-19.9v-38.3c0-2.6-1.7-4.2-4.2-4.2h-8.7 c-2.5,0-4.3,1.7-4.3,4.2v22.6l-25.4-23.2c-2.4-2.3-5.3-3.4-8.2-3.4c-2.9,0-5.7,1.1-8.1,3.4L18.1-44.7 C16.6-43.4,16.1-42.1,16.1-40.3z M35.1,12.9c0,8.6,5.4,13.8,14.2,13.8h25.3v-45.2c0-2.8,1.9-4.6,4.7-4.6h22.9 c2.8,0,4.6,1.8,4.6,4.6v45.2h25.3c8.8,0,14.2-5.2,14.2-13.8v-47.5L92.9-82.8c-0.7-0.6-1.5-1-2.2-1c-0.8,0-1.6,0.3-2.3,1L35.1-34.1 V12.9z"></path></g><g id="Regular-L" transform="matrix(1 0 0 1 1361.44 1556)"><path d="M16.1,-40.400002 c0,2.5 2,4.1 4.5,4.1 c1.6,0 2.8,-0.7 3.9,-1.8 L86,-94.300003 c0.7,-0.7 1.6,-1 2.4,-1 s1.6,0.3 2.4,1 l61.5,56.2 c1.1,1.1 2.3,1.8 3.9,1.8 c2.5,0 4.5,-1.6 4.5,-4.1 c0,-1.6 -0.6,-2.6 -1.6,-3.6 l-20.9,-19 v-38 c0,-2.5 -1.6,-4.1 -4,-4.1 h-7.1 c-2.4,0 -4.1,1.6 -4.1,4.1 v24.2 l-27.6,-25.2 c-2.1,-2 -4.6,-2.9 -7.1,-2.9 s-4.9,1 -7,2.9 L17.700001,-43.900002 C16.6,-43 16.1,-42 16.1,-40.400002  z M33.400002,12.8 c0,8.3 5,13.2 13.4,13.2 h25.8 v-44.7 c0,-2.7 1.8,-4.5 4.5,-4.5 h22.6 c2.7,0 4.5,1.8 4.5,4.5 V26 H130 c8.4,0 13.4,-4.9 13.4,-13.2 v-48.3 L90.800003,-82.699997 c-0.8,-0.8 -1.7,-1.1 -2.5,-1.1 c-0.9,0 -1.7,0.3 -2.5,1.2 L33.400002,-34.900002 V12.8  z "></path></g><g id="Light-L" transform="matrix(1 0 0 1 1066.44 1556)"><path d="M16.1-39.8c0,1.8,1.5,3,3.4,3c1.2,0,2.1-0.6,3-1.4l61.7-56.3c0.9-0.8,1.8-1.1,2.7-1.1c0.9,0,1.8,0.4,2.6,1.1L151-38.2 c0.8,0.8,1.7,1.4,2.9,1.4c1.9,0,3.4-1.2,3.4-3c0-1.2-0.4-2-1.2-2.7l-19.7-17.9v-39.1c0-2.1-1.4-3.4-3.3-3.4h-5.5 c-2,0-3.4,1.3-3.4,3.4v27.9l-31.2-28.6c-1.9-1.8-4.2-2.6-6.4-2.6c-2.2,0-4.4,0.9-6.3,2.6l-63,57.6C16.5-41.8,16.1-41.1,16.1-39.8z M32.5,13.8c0,7.7,4.6,12.2,12.4,12.2H71v-44.6c0-2.5,1.7-4.1,4.2-4.1h23.2c2.5,0,4.1,1.6,4.1,4.1V26h26.1 c7.8,0,12.4-4.5,12.4-12.2v-51.3L89.6-83.3c-1-0.9-2.1-1.4-3-1.4c-1,0-2,0.4-3,1.4l-51,46.8V13.8z"></path></g><g id="Thin-L" transform="matrix(1 0 0 1 771.974 1556)"><path d="M16.1-39.2c0,1,0.7,1.7,1.9,1.7c0.8,0,1.3-0.3,1.8-0.8l61.9-56.5c1-0.9,2-1.3,3-1.3c1,0,2,0.5,2.8,1.3l61.9,56.5 c0.5,0.5,0.9,0.8,1.8,0.8c1.1,0,1.9-0.7,1.9-1.7c0-0.7-0.2-1.1-0.7-1.6l-18-16.5v-40.5c0-1.5-1.1-2.5-2.5-2.5h-3.3 c-1.4,0-2.5,1-2.5,2.5v33l-35.9-33c-1.7-1.5-3.6-2.3-5.6-2.3c-1.9,0-3.7,0.8-5.4,2.3l-62.3,57C16.3-40.3,16.1-39.8,16.1-39.2z M31.3,15c0,6.9,4.1,11,11,11h26.7v-44.4c0-2.2,1.4-3.6,3.6-3.6h23.9c2.1,0,3.6,1.4,3.6,3.6V26h26.7c6.9,0,11-4.1,11-11v-55.2 l-49.8-44c-1.3-1.2-2.5-1.7-3.7-1.7c-1.2,0-2.4,0.5-3.7,1.7L31.3-38.6V15z"></path></g><g id="Ultralight-L" transform="matrix(1 0 0 1 476.41 1556)"><path d="M16.1-38.8c0,0.5,0.4,1,1.1,1c0.6,0,0.8-0.3,1.2-0.6l62-56.6c1-0.9,2.1-1.3,3.1-1.3c1,0,2.1,0.5,2.9,1.3l62,56.6 c0.3,0.3,0.5,0.6,1.1,0.6c0.7,0,1.1-0.5,1.1-1c0-0.4-0.1-0.7-0.4-1L133-55.5v-41.2c0-1.2-0.9-2.1-2.1-2.1h-2.2 c-1.2,0-2.1,0.8-2.1,2.1v35.5L88.3-96.5c-1.6-1.4-3.3-2.1-5.1-2.1c-1.7,0-3.4,0.7-4.9,2.1L16.5-39.8C16.2-39.5,16.1-39.2,16.1-38.8 z M30.7,15.7c0,6.4,3.8,10.3,10.3,10.3h26.9v-44.3c0-2,1.3-3.3,3.3-3.3h24.3c2,0,3.3,1.3,3.3,3.3V26h26.9c6.4,0,10.3-3.9,10.3-10.3 v-57.2L87.1-84.6c-1.4-1.3-2.7-1.9-4-1.9c-1.4,0-2.7,0.6-4.1,1.9L30.7-39.7C30.7-39.7,30.7,15.7,30.7,15.7z"></path></g><g id="Regular-M"><path class="st8" d="M1496.300049,1142 h-34.7 c-1.5,0 -2.8,-1.2 -2.8,-2.8 v-23.6 c0,-2.4 -0.9,-4.7 -2.6,-6.4 c-3.3,-3.4 -9.1,-3.4 -12.4,0 c-1.6,1.7 -2.6,4 -2.6,6.4 v23.6 c0,1.5 -1.2,2.8 -2.8,2.8 h-34.7 c-1.5,0 -2.8,-1.2 -2.8,-2.8 v-59 c0,-0.7 0.3,-1.4 0.8,-1.9 l46.2,-47.2 c1,-1.1 2.9,-1.1 4,0 l46.2,47.2 c0.5,0.5 0.8,1.2 0.8,1.9 v59 C1499.099976,1140.800049 1497.800049,1142 1496.300049,1142  z M1464.400024,1136.400024 h29.1 v-55 l-43.5,-44.3 l-43.5,44.3 v55 h29.1 v-20.8 c0,-3.8 1.5,-7.6 4.2,-10.3 c5.4,-5.5 14.9,-5.5 20.3,0 c2.7,2.7 4.2,6.5 4.2,10.3 V1136.400024  z "></path></g><g id="Light-M"><path class="st9" d="M1198.4,1142h-35c-1.2,0-2.2-1-2.2-2.2v-23.8c0-2.6-1-5-2.8-6.9c-3.5-3.6-9.8-3.6-13.3,0 c-1.8,1.8-2.8,4.3-2.8,6.9v23.8c0,1.2-1,2.2-2.2,2.2h-35c-1.2,0-2.2-1-2.2-2.2v-59.6c0-0.6,0.2-1.2,0.6-1.6l46.7-47.6 c0.8-0.9,2.4-0.9,3.2,0l46.7,47.6c0.4,0.4,0.6,1,0.6,1.6v59.6C1200.6,1141,1199.6,1142,1198.4,1142z M1165.6,1137.5h30.5v-56.4 l-44.5-45.4l-44.5,45.4v56.4h30.5v-21.6c0-3.8,1.4-7.3,4.1-10c5.2-5.3,14.5-5.3,19.7,0c2.6,2.7,4.1,6.2,4.1,10V1137.5z"></path></g><g id="Thin-M"><path class="st9" d="M903.6,1142h-35.4c-0.9,0-1.7-0.8-1.7-1.7v-24.1c0-2.8-1.1-5.4-3-7.3c-3.8-3.8-10.5-3.8-14.3,0 c-1.9,2-3,4.6-3,7.3v24.1c0,0.9-0.8,1.7-1.7,1.7h-35.4c-0.9,0-1.7-0.8-1.7-1.7v-60.2c0-0.4,0.2-0.9,0.5-1.2l47.2-48.1 c0.6-0.7,1.8-0.7,2.4,0l47.2,48.1c0.3,0.3,0.5,0.7,0.5,1.2v60.2C905.3,1141.2,904.5,1142,903.6,1142z M869.9,1138.6h32v-57.8 l-45.5-46.4l-45.5,46.4v57.8h32v-22.4c0-3.7,1.4-7.1,3.9-9.7c5-5.1,14.1-5.1,19.1,0c2.5,2.6,3.9,6,3.9,9.7V1138.6z"></path></g><g id="Ultralight-M"><path class="st9" d="M606.7,1142h-35.7c-0.6,0-1.1-0.5-1.1-1.1v-24.3c0-2.9-1.1-5.7-3.2-7.8c-4.1-4.2-11.1-4.2-15.2,0 c-2,2.1-3.2,4.8-3.2,7.8v24.3c0,0.6-0.5,1.1-1.1,1.1h-35.7c-0.6,0-1.1-0.5-1.1-1.1v-60.8c0-0.3,0.1-0.6,0.3-0.8l47.7-48.6 c0.4-0.4,1.2-0.4,1.6,0l47.7,48.6c0.2,0.2,0.3,0.5,0.3,0.8v60.8C607.8,1141.5,607.3,1142,606.7,1142z M572.1,1139.7h33.5v-59.2 l-46.5-47.4l-46.5,47.4v59.2H546v-23.2c0-3.5,1.4-6.9,3.8-9.4c2.5-2.5,5.8-3.9,9.2-3.9c3.4,0,6.8,1.4,9.2,3.9 c2.5,2.5,3.8,5.9,3.8,9.4V1139.7z"></path></g><g id="Medium-M"><path class="st9" d="M1792.4,1142h-34.3c-1.8,0-3.3-1.5-3.3-3.3v-23.3c0-2.2-0.9-4.4-2.4-5.9c-3-3.1-8.4-3.1-11.5,0 c-1.5,1.6-2.4,3.7-2.4,5.9v23.3c0,1.8-1.5,3.3-3.3,3.3h-34.3c-1.8,0-3.3-1.5-3.3-3.3v-58.4c0-0.9,0.3-1.7,0.9-2.3l45.8-46.7 c0.6-0.6,1.5-1,2.4-1l0,0c0.9,0,1.7,0.4,2.4,1l45.8,46.7c0.6,0.6,0.9,1.4,0.9,2.3v58.4C1795.7,1140.5,1794.2,1142,1792.4,1142z M1761.4,1135.4h27.7v-53.7l-42.5-43.3l-42.5,43.3v53.7h27.7v-20c0-4,1.5-7.7,4.3-10.6c5.5-5.6,15.4-5.6,20.9,0 c2.8,2.8,4.3,6.6,4.3,10.6V1135.4z"></path></g><g visibility="visible" id="Semibold-M"><path class="st9" d="M2088.6,1142h-34c-2.1,0-3.8-1.7-3.8-3.8v-23.1c0-2.1-0.8-4-2.2-5.5c-2.8-2.9-7.7-2.9-10.6,0 c-1.4,1.4-2.2,3.5-2.2,5.5v23.1c0,2.1-1.7,3.8-3.8,3.8h-34c-2.1,0-3.8-1.7-3.8-3.8v-57.8c0-1,0.4-2,1.1-2.7l45.4-46.3 c1.4-1.5,4-1.5,5.4,0l45.4,46.3c0.7,0.7,1.1,1.7,1.1,2.7v57.8C2092.4,1140.3,2090.7,1142,2088.6,1142z M2058.4,1134.4h26.4v-52.4 l-41.5-42.4l-41.5,42.4v52.4h26.4v-19.3c0-4.1,1.6-7.9,4.4-10.8c5.7-5.8,15.8-5.8,21.5,0c2.8,2.9,4.4,6.8,4.4,10.8V1134.4z"></path></g><g visibility="visible" id="Bold-M"><path class="st9" d="M2384.9,1142h-33.7c-2.4,0-4.3-1.9-4.3-4.3v-22.9c0-1.9-0.8-3.7-2.1-5.1c-2.6-2.7-7.1-2.7-9.7,0 c-1.3,1.3-2.1,3.2-2.1,5.1v22.9c0,2.4-1.9,4.3-4.3,4.3h-33.7c-2.4,0-4.3-1.9-4.3-4.3v-57.2c0-1.1,0.4-2.2,1.2-3l44.9-45.8 c0.8-0.8,1.9-1.3,3.1-1.3l0,0c1.2,0,2.3,0.5,3.1,1.3l44.9,45.8c0.8,0.8,1.2,1.9,1.2,3v57.2C2389.3,1140.1,2387.3,1142,2384.9,1142z M2355.6,1133.4h25v-51.2l-40.6-41.4l-40.6,41.4v51.2h25.1v-18.6c0-4.2,1.6-8.1,4.5-11.1c5.8-6,16.2-5.9,22,0 c2.9,3,4.5,6.9,4.5,11.1V1133.4z"></path></g><g visibility="visible" id="Heavy-M"><path class="st9" d="M2681.2,1142 h-33.3 c-2.7,0 -4.8,-2.2 -4.8,-4.8 v-22.7 c0,-1.7 -0.7,-3.4 -1.9,-4.7 c-2.4,-2.4 -6.5,-2.4 -8.9,0 c-1.2,1.2 -1.9,2.9 -1.9,4.7 v22.7 c0,2.7 -2.2,4.8 -4.8,4.8 h-33.4 c-2.7,0 -4.8,-2.2 -4.8,-4.8 v-56.7 c0,-1.3 0.5,-2.5 1.4,-3.4 l44.5,-45.4 c0.9,-0.9 2.1,-1.4 3.4,-1.4 l0,0 c1.3,0 2.5,0.5 3.4,1.4 l44.5,45.4 c0.9,0.9 1.4,2.1 1.4,3.4 v56.7 C2686,1139.8 2683.8,1142 2681.2,1142  z M2652.6,1132.4 h23.7 v-49.9 l-39.7,-40.5 l-39.7,40.5 v49.9 h23.7 v-17.9 c0,-4.3 1.6,-8.3 4.6,-11.4 c6,-6.1 16.6,-6.1 22.6,0 c3,3.1 4.6,7.1 4.6,11.4 V1132.4  z "></path></g><g id="Black-M"><path class="st9" d="M2977.5,1142h-33c-2.9,0-5.3-2.4-5.3-5.3v-22.5c0-1.6-0.6-3.1-1.7-4.2c-2.2-2.2-5.9-2.2-8,0 c-1.1,1.1-1.7,2.7-1.7,4.2v22.5c0,2.9-2.4,5.3-5.3,5.3h-33c-2.9,0-5.3-2.4-5.3-5.3v-56.2c0-1.4,0.5-2.7,1.5-3.7l44-44.9 c1-1,2.4-1.6,3.8-1.6l0,0c1.4,0,2.8,0.6,3.8,1.6l44,44.9c1,1,1.5,2.3,1.5,3.7v56.2C2982.8,1139.6,2980.4,1142,2977.5,1142z M2949.8,1131.4h22.5v-48.7l-38.8-39.5l-38.8,39.5v48.7h22.5v-17.2c0-4.4,1.7-8.5,4.7-11.6c6.1-6.2,17-6.2,23.1,0 c3.1,3.1,4.7,7.3,4.7,11.6V1131.4z"></path></g><g id="Regular-S"><path class="st8" d="M1486,704 h-27 c-1.2,0 -2.2,-1 -2.2,-2.2 v-18.3 c0,-1.9 -0.7,-3.7 -2,-5 c-2.6,-2.6 -7.1,-2.6 -9.6,0 c-1.3,1.3 -2,3.1 -2,5 v18.3 c0,1.2 -1,2.2 -2.2,2.2 h-27 c-1.2,0 -2.2,-1 -2.2,-2.2 V656 c0,-0.6 0.2,-1.1 0.6,-1.5 l35.9,-36.7 c0.8,-0.8 2.3,-0.8 3.1,0 l35.9,36.7 c0.4,0.4 0.6,0.9 0.6,1.5 v45.8 C1488.2,703 1487.2,704 1486,704  z M1461.2,699.7 h22.6 v-42.8 l-33.8,-34.5 l-33.8,34.5 v42.8 h22.6 v-16.2 c0,-3 1.2,-5.9 3.3,-8 c4.2,-4.3 11.6,-4.3 15.8,0 c2.1,2.1 3.2,5 3.2,8 V699.7  z "></path></g><g id="Light-S"><path class="st9" d="M1189.5,704h-27.2c-1,0-1.7-0.8-1.7-1.7v-18.5c0-2-0.8-3.9-2.2-5.3c-2.7-2.8-7.6-2.8-10.3,0 c-1.4,1.4-2.2,3.3-2.2,5.3v18.5c0,1-0.8,1.7-1.7,1.7h-27.2c-1,0-1.7-0.8-1.7-1.7V656c0-0.5,0.2-0.9,0.5-1.2l36.3-37 c0.7-0.7,1.8-0.7,2.5,0l36.3,37c0.3,0.3,0.5,0.8,0.5,1.2v46.3C1191.2,703.2,1190.4,704,1189.5,704z M1164,700.5h23.7v-43.8 l-34.6-35.2l-34.6,35.2v43.8h23.7v-16.8c0-2.9,1.1-5.7,3.2-7.8c4-4.1,11.3-4.1,15.3,0c2,2.1,3.2,4.8,3.2,7.8V700.5z"></path></g><g id="Thin-S"><path class="st9" d="M893.1,704h-27.5c-0.7,0-1.3-0.6-1.3-1.3V684c0-2.1-0.8-4.2-2.3-5.7c-2.9-3-8.2-3-11.1,0 c-1.5,1.5-2.3,3.5-2.3,5.7v18.7c0,0.7-0.6,1.3-1.3,1.3h-27.5c-0.7,0-1.3-0.6-1.3-1.3v-46.8c0-0.3,0.1-0.7,0.4-0.9l36.7-37.4 c0.5-0.5,1.4-0.5,1.9,0L894,655c0.2,0.2,0.4,0.6,0.4,0.9v46.8C894.4,703.4,893.8,704,893.1,704z M866.9,701.4h24.9v-44.9 l-35.3-36.1l-35.3,36.1v44.9h24.9V684c0-2.8,1.1-5.5,3.1-7.5c3.9-4,10.9-4,14.9,0c2,2,3.1,4.7,3.1,7.5V701.4z"></path></g><g id="Ultralight-S"><path class="st9" d="M596.4,704h-27.8c-0.5,0-0.9-0.4-0.9-0.9v-18.9c0-2.3-0.9-4.4-2.5-6.1c-3.2-3.2-8.7-3.2-11.8,0 c-1.6,1.6-2.5,3.8-2.5,6.1v18.9c0,0.5-0.4,0.9-0.9,0.9h-27.8c-0.5,0-0.9-0.4-0.9-0.9v-47.2c0-0.2,0.1-0.5,0.3-0.6l37-37.8 c0.3-0.3,0.9-0.3,1.3,0l37,37.8c0.2,0.2,0.3,0.4,0.3,0.6v47.2C597.3,703.6,596.9,704,596.4,704z M569.5,702.2h26v-46l-36.2-36.9 l-36.2,36.9v46h26v-18c0-2.8,1.1-5.4,3-7.3c1.9-2,4.5-3,7.2-3c2.7,0,5.3,1.1,7.2,3c1.9,2,3,4.5,3,7.3V702.2z"></path></g><g id="Medium-S"><path class="st9" d="M1782.2,704h-26.7c-1.4,0-2.6-1.1-2.6-2.6v-18.1c0-1.7-0.7-3.4-1.9-4.6c-2.4-2.4-6.5-2.4-8.9,0 c-1.2,1.2-1.9,2.9-1.9,4.6v18.1c0,1.4-1.1,2.6-2.6,2.6H1711c-1.4,0-2.6-1.1-2.6-2.6v-45.4c0-0.7,0.3-1.3,0.7-1.8l35.6-36.3 c0.5-0.5,1.1-0.8,1.8-0.8l0,0c0.7,0,1.3,0.3,1.8,0.8l35.6,36.3c0.5,0.5,0.7,1.1,0.7,1.8v45.4C1784.8,702.9,1783.6,704,1782.2,704z M1758.1,698.9h21.6v-41.7l-33-33.7l-33,33.7v41.7h21.6v-15.6c0-3.1,1.2-6,3.3-8.2c4.3-4.4,11.9-4.4,16.2,0 c2.2,2.2,3.3,5.1,3.3,8.2V698.9z"></path></g><g id="Semibold-S"><path class="st9" d="M2078.5,704 H2052 c-1.6,0 -3,-1.3 -3,-3 v-18 c0,-1.6 -0.6,-3.1 -1.7,-4.3 c-2.2,-2.2 -6,-2.2 -8.2,0 c-1.1,1.1 -1.7,2.7 -1.7,4.3 v18 c0,1.6 -1.3,3 -3,3 H2008 c-1.6,0 -3,-1.3 -3,-3 v-44.9 c0,-0.8 0.3,-1.5 0.8,-2.1 l35.2,-35.9 c1.1,-1.1 3.1,-1.1 4.2,0 l35.2,35.9 c0.5,0.6 0.8,1.3 0.8,2.1 V701 C2081.4,702.7 2080.1,704 2078.5,704  z M2055,698.1 h20.5 v-40.8 l-32.3,-32.9 l-32.3,32.9 v40.8 h20.5 v-15 c0,-3.2 1.2,-6.2 3.4,-8.4 c4.4,-4.5 12.3,-4.5 16.7,0 c2.2,2.3 3.4,5.2 3.4,8.4 V698.1  z "></path></g><g id="Bold-S"><path class="st9" d="M2375,704h-26.2c-1.8,0-3.4-1.5-3.4-3.4v-17.8c0-1.5-0.6-2.9-1.6-3.9c-2-2.1-5.5-2.1-7.5,0 c-1,1-1.6,2.4-1.6,3.9v17.8c0,1.9-1.5,3.4-3.4,3.4h-26.2c-1.8,0-3.4-1.5-3.4-3.4v-44.5c0-0.9,0.3-1.7,1-2.3l34.9-35.6 c0.6-0.6,1.5-1,2.4-1l0,0c0.9,0,1.8,0.4,2.4,1l34.9,35.6c0.6,0.6,1,1.5,1,2.3v44.5C2378.3,702.5,2376.8,704,2375,704z M2352.1,697.3h19.5v-39.8l-31.5-32.2l-31.5,32.2v39.8h19.5v-14.4c0-3.3,1.2-6.3,3.5-8.6c4.5-4.6,12.6-4.6,17.1,0 c2.3,2.3,3.5,5.4,3.5,8.6V697.3z"></path></g><g id="Heavy-S"><path class="st9" d="M2671.2,704h-25.9c-2.1,0-3.7-1.7-3.7-3.7v-17.6c0-1.3-0.5-2.7-1.5-3.6c-1.8-1.9-5-1.9-6.9,0 c-0.9,0.9-1.5,2.3-1.5,3.6v17.6c0,2.1-1.7,3.7-3.7,3.7h-25.9c-2.1,0-3.7-1.7-3.7-3.7v-44.1c0-1,0.4-1.9,1.1-2.6l34.6-35.2 c0.7-0.7,1.7-1.1,2.7-1.1l0,0c1,0,2,0.4,2.7,1.1l34.6,35.2c0.7,0.7,1.1,1.6,1.1,2.6v44.1C2675,702.3,2673.3,704,2671.2,704z M2649.1,696.5h18.4v-38.8l-30.8-31.4l-30.8,31.4v38.8h18.4v-13.9c0-3.3,1.3-6.5,3.6-8.8c4.6-4.7,12.9-4.7,17.6,0 c2.3,2.4,3.6,5.5,3.6,8.8V696.5z"></path></g><g id="Black-S"><path class="st9" d="M2967.7,704 H2942 c-2.3,0 -4.1,-1.8 -4.1,-4.1 v-17.5 c0,-1.2 -0.5,-2.4 -1.3,-3.3 c-1.7,-1.7 -4.6,-1.7 -6.2,0 c-0.8,0.9 -1.3,2.1 -1.3,3.3 v17.5 c0,2.3 -1.8,4.1 -4.1,4.1 h-25.7 c-2.3,0 -4.1,-1.8 -4.1,-4.1 v-43.6 c0,-1.1 0.4,-2.1 1.2,-2.9 l34.2,-34.9 c0.8,-0.8 1.8,-1.2 2.9,-1.2 l0,0 c1.1,0 2.2,0.4 2.9,1.2 l34.2,34.9 c0.8,0.8 1.2,1.8 1.2,2.9 v43.6 C2971.8,702.2 2970,704 2967.7,704  z M2946.1,695.8 h17.5 v-37.9 l-30.1,-30.7 l-30.1,30.7 v37.9 h17.5 v-13.3 c0,-3.4 1.3,-6.6 3.7,-9.1 c4.8,-4.9 13.2,-4.9 18,0 c2.4,2.4 3.7,5.6 3.7,9.1 V695.8  z "></path></g></svg>