<svg width="17" height="18" viewBox="0 0 17 18" fill="none" xmlns="http://www.w3.org/2000/svg">
<g clip-path="url(#clip0_28960_140863)">
<path d="M12.845 6.07957C12.7965 6.07957 12.7474 6.06629 12.7032 6.03807C12.5794 5.95971 12.5425 5.79535 12.6212 5.6715C12.6763 5.58484 12.7271 5.48523 12.774 5.375C12.684 5.38928 12.5983 5.43045 12.5293 5.49951C12.4449 5.58385 12.3984 5.69574 12.3984 5.81428C12.3984 5.93314 12.4449 6.04504 12.5293 6.12938C12.7032 6.30303 12.9865 6.30303 13.1608 6.12938C13.2448 6.04504 13.2913 5.93314 13.2913 5.81428C13.2913 5.74588 13.276 5.6798 13.2468 5.62004C13.1927 5.74289 13.1336 5.85545 13.0698 5.95605C13.019 6.03607 12.933 6.07957 12.845 6.07957Z" fill="#CACACA"/>
<path d="M6.81635 10.7942L6.4043 11.2059L6.90135 11.703L7.31473 11.2909C7.38047 11.2252 7.41699 11.1372 7.41699 11.0429C7.41699 10.9486 7.3808 10.8606 7.31473 10.7945C7.17693 10.6571 6.95381 10.6571 6.81635 10.7942Z" fill="#CACACA"/>
<path d="M14.8938 3.46584L13.6271 3.46551C13.6274 3.48211 13.6274 3.49838 13.6274 3.51498C13.6274 4.06184 13.562 4.58811 13.4435 5.04232C13.4757 5.06689 13.5065 5.09412 13.5358 5.12334C13.7207 5.30795 13.8223 5.55332 13.8223 5.81397C13.8223 6.07494 13.7207 6.32031 13.5358 6.50492C13.3452 6.69518 13.0952 6.79014 12.8448 6.79014C12.5945 6.79014 12.3441 6.69518 12.1535 6.50492C11.9689 6.32031 11.867 6.07494 11.867 5.81397C11.867 5.55332 11.9689 5.30795 12.1535 5.12334C12.3697 4.90752 12.6629 4.81389 12.9457 4.84311C13.042 4.44732 13.0962 3.98746 13.0962 3.51498C13.0962 3.49838 13.0962 3.48178 13.0958 3.46551L10.1321 3.46484C9.95547 3.46484 9.80938 3.52527 9.6852 3.64979L1.53383 11.7899C1.45215 11.8719 1.45215 12.006 1.5345 12.0887L6.89282 17.4394C6.93266 17.4792 6.98579 17.5008 7.04256 17.5008H7.0429C7.09934 17.5008 7.15213 17.4792 7.19098 17.44L15.3423 9.29996C15.4665 9.17578 15.527 9.02969 15.527 8.85338V4.09703C15.527 3.74906 15.2431 3.46584 14.8938 3.46584ZM6.35725 14.7429C6.30545 14.7951 6.23739 14.821 6.16932 14.821C6.10125 14.821 6.03352 14.7951 5.98139 14.7433L4.23458 12.9995C4.18444 12.9496 4.15655 12.8819 4.15655 12.8115C4.15655 12.7411 4.18444 12.6734 4.23424 12.6236L5.0962 11.7626C5.20012 11.659 5.36813 11.659 5.47206 11.763C5.57565 11.8669 5.57532 12.0349 5.47172 12.1388L4.79803 12.8115L5.29542 13.3079L5.96977 12.6342C6.0737 12.5306 6.2417 12.5306 6.3453 12.6346C6.44922 12.7381 6.44889 12.9065 6.3453 13.0101L5.67127 13.6831L6.35692 14.3674C6.46051 14.471 6.46084 14.6394 6.35725 14.7429ZM8.92352 12.1322C8.89032 12.2491 8.78407 12.3251 8.66819 12.3251C8.64428 12.3251 8.61971 12.3218 8.59547 12.3151L7.38622 11.9708L7.27665 12.0801L7.96196 12.7644C8.06588 12.868 8.06588 13.0363 7.96229 13.1402C7.91016 13.192 7.84209 13.2179 7.77436 13.2179C7.70629 13.2179 7.63823 13.192 7.58643 13.1402L5.84028 11.3954C5.79047 11.3456 5.76258 11.2779 5.76258 11.2075C5.76258 11.1371 5.79047 11.0694 5.84028 11.0196L6.44059 10.4202C6.78491 10.0763 7.34538 10.0763 7.68969 10.4202C7.85604 10.5863 7.94768 10.808 7.94768 11.0445C7.94768 11.2224 7.89555 11.3921 7.7986 11.5359L8.7409 11.8041C8.88202 11.8443 8.9637 11.9911 8.92352 12.1322ZM10.7557 10.3492L9.78116 11.3234C9.72936 11.3752 9.66129 11.4014 9.59323 11.4014C9.52549 11.4014 9.45743 11.3755 9.40563 11.3234L7.65948 9.57854C7.60967 9.52873 7.58145 9.46133 7.58145 9.39061C7.58145 9.32021 7.60967 9.25248 7.65948 9.20268L8.63432 8.22949C8.73791 8.12557 8.90625 8.1259 9.00985 8.22949C9.11344 8.33342 9.11344 8.50143 9.00952 8.60535L8.22293 9.39094L8.72032 9.88799L9.4737 9.13494C9.57729 9.03135 9.74563 9.03135 9.84922 9.13494C9.95282 9.23854 9.95282 9.40688 9.84922 9.51047L9.09618 10.2635L9.59323 10.7599L10.3801 9.97332C10.4841 9.86973 10.6521 9.86973 10.7557 9.97332C10.8596 10.0772 10.8596 10.2453 10.7557 10.3492ZM12.6174 8.4908L11.6419 9.46432C11.5901 9.51578 11.522 9.54168 11.4543 9.54168C11.3862 9.54168 11.3185 9.51578 11.2663 9.46398L9.52051 7.72016C9.47038 7.67035 9.44249 7.60262 9.44249 7.53223C9.44249 7.46184 9.47038 7.3941 9.52051 7.3443L10.495 6.37078C10.599 6.26719 10.767 6.26719 10.8706 6.37111C10.9745 6.47471 10.9741 6.64305 10.8706 6.74664L10.084 7.53223L10.5817 8.02928L11.3354 7.27623C11.4393 7.17264 11.6073 7.17264 11.7113 7.27656C11.8148 7.38016 11.8148 7.5485 11.7109 7.65209L10.9575 8.4048L11.4543 8.90086L12.2422 8.11461C12.3461 8.01102 12.5144 8.01135 12.618 8.11494C12.7216 8.21887 12.7213 8.38721 12.6174 8.4908Z" fill="#CACACA"/>
<path d="M12.2182 0.5C11.5083 0.5 10.9552 1.48746 10.834 2.93279H11.3676C11.4745 1.79891 11.8815 1.03125 12.2182 1.03125C12.5718 1.03125 13.0842 1.97754 13.0951 3.46471H13.6264C13.6154 2.01805 13.1227 0.5 12.2182 0.5Z" fill="#CACACA"/>
</g>
<defs>
<clipPath id="clip0_28960_140863">
<rect width="17" height="17" fill="white" transform="translate(0 0.5)"/>
</clipPath>
</defs>
</svg>
