<svg width="22" height="22" viewBox="0 0 22 22" fill="none" xmlns="http://www.w3.org/2000/svg">
<path d="M17.1501 6.61099C17.0649 6.52507 16.9635 6.45688 16.8518 6.41034C16.7401 6.3638 16.6203 6.33984 16.4993 6.33984C16.3783 6.33984 16.2584 6.3638 16.1467 6.41034C16.035 6.45688 15.9336 6.52507 15.8484 6.61099L9.01926 13.4493L6.1501 10.571C6.06162 10.4855 5.95717 10.4183 5.84272 10.3732C5.72827 10.3281 5.60606 10.306 5.48306 10.3081C5.36006 10.3102 5.23868 10.3366 5.12586 10.3856C5.01304 10.4347 4.91098 10.5054 4.82551 10.5939C4.74004 10.6824 4.67284 10.7868 4.62774 10.9013C4.58263 11.0157 4.56051 11.1379 4.56264 11.2609C4.56477 11.3839 4.5911 11.5053 4.64014 11.6181C4.68917 11.731 4.75995 11.833 4.84843 11.9185L8.36843 15.4385C8.45364 15.5244 8.55503 15.5926 8.66673 15.6391C8.77844 15.6857 8.89825 15.7096 9.01926 15.7096C9.14027 15.7096 9.26009 15.6857 9.37179 15.6391C9.4835 15.5926 9.58488 15.5244 9.6701 15.4385L17.1501 7.95849C17.2431 7.87265 17.3174 7.76847 17.3682 7.65251C17.419 7.53656 17.4452 7.41134 17.4452 7.28474C17.4452 7.15815 17.419 7.03293 17.3682 6.91697C17.3174 6.80101 17.2431 6.69683 17.1501 6.61099Z" fill="#727272"/>
</svg>
