<svg width="19" height="18" viewBox="0 0 19 18" fill="none" xmlns="http://www.w3.org/2000/svg">
<path d="M14.0003 6.0002H13.2506V4.5008C13.2353 3.51634 12.8336 2.57736 12.132 1.88657C11.4304 1.19578 10.4853 0.808594 9.50075 0.808594C8.51617 0.808594 7.57108 1.19578 6.86951 1.88657C6.16793 2.57736 5.76615 3.51634 5.7509 4.5008V6.0002H5.0003C4.60276 6.00139 4.22184 6.15983 3.94074 6.44094C3.65963 6.72204 3.50119 7.10296 3.5 7.5005V15.0002C3.50119 15.3977 3.65963 15.7787 3.94074 16.0598C4.22184 16.3409 4.60276 16.4993 5.0003 16.5005H14.0003C14.3978 16.4993 14.7788 16.3409 15.0599 16.0598C15.341 15.7787 15.4994 15.3977 15.5006 15.0002V7.5005C15.4994 7.10296 15.341 6.72204 15.0599 6.44094C14.7788 6.15983 14.3978 6.00139 14.0003 6.0002ZM9.5003 12.7502C9.20357 12.7502 8.9135 12.6622 8.66678 12.4974C8.42006 12.3325 8.22776 12.0982 8.1142 11.824C8.00065 11.5499 7.97094 11.2482 8.02883 10.9572C8.08672 10.6662 8.22961 10.3988 8.43943 10.189C8.64925 9.97921 8.91658 9.83632 9.20761 9.77843C9.49864 9.72054 9.8003 9.75025 10.0744 9.8638C10.3486 9.97736 10.5829 10.1697 10.7478 10.4164C10.9126 10.6631 11.0006 10.9532 11.0006 11.2499C10.9994 11.6474 10.841 12.0284 10.5599 12.3095C10.2788 12.5906 9.89784 12.749 9.5003 12.7502ZM7.2503 6.0002V4.5008C7.2503 3.90406 7.48735 3.33177 7.90931 2.90981C8.33127 2.48785 8.90356 2.2508 9.5003 2.2508C10.097 2.2508 10.6693 2.48785 11.0913 2.90981C11.5132 3.33177 11.7503 3.90406 11.7503 4.5008V6.0002H7.2503Z" fill="#727272"/>
</svg>
