<svg width="21" height="20" viewBox="0 0 21 20" fill="none" xmlns="http://www.w3.org/2000/svg">
<path d="M15.499 6.66591H14.666V4.99991C14.6491 3.90606 14.2027 2.86276 13.4231 2.09521C12.6436 1.32767 11.5935 0.897461 10.4995 0.897461C9.40555 0.897461 8.35546 1.32767 7.57593 2.09521C6.7964 2.86276 6.34998 3.90606 6.33303 4.99991V6.66591H5.49903C5.05732 6.66723 4.63408 6.84328 4.32174 7.15562C4.0094 7.46796 3.83335 7.8912 3.83203 8.33291V16.6659C3.83335 17.1076 4.0094 17.5309 4.32174 17.8432C4.63408 18.1555 5.05732 18.3316 5.49903 18.3329H15.499C15.9407 18.3316 16.364 18.1555 16.6763 17.8432C16.9887 17.5309 17.1647 17.1076 17.166 16.6659V8.33291C17.1647 7.8912 16.9887 7.46796 16.6763 7.15562C16.364 6.84328 15.9407 6.66723 15.499 6.66591ZM10.499 14.1659C10.1693 14.1659 9.84703 14.0681 9.5729 13.885C9.29876 13.7018 9.0851 13.4414 8.95892 13.1368C8.83275 12.8322 8.79974 12.4971 8.86406 12.1737C8.92838 11.8503 9.08715 11.5533 9.32028 11.3202C9.55342 11.087 9.85045 10.9283 10.1738 10.8639C10.4972 10.7996 10.8324 10.8326 11.137 10.9588C11.4416 11.085 11.7019 11.2986 11.8851 11.5728C12.0683 11.8469 12.166 12.1692 12.166 12.4989C12.1647 12.9406 11.9887 13.3639 11.6763 13.6762C11.364 13.9885 10.9407 14.1646 10.499 14.1659ZM7.99903 6.66591V4.99991C7.99903 4.33687 8.26242 3.70098 8.73126 3.23214C9.20011 2.7633 9.83599 2.49991 10.499 2.49991C11.1621 2.49991 11.798 2.7633 12.2668 3.23214C12.7356 3.70098 12.999 4.33687 12.999 4.99991V6.66591H7.99903Z" fill="#A1A1A1"/>
</svg>
