<svg width="24" height="24" viewBox="0 0 24 24" fill="none" xmlns="http://www.w3.org/2000/svg">
<path d="M21.5049 3.92884V16.2173C21.5049 16.4298 21.4329 16.6079 21.2891 16.7516C21.1453 16.8953 20.9671 16.9671 20.7546 16.9671C20.5419 16.9671 20.3638 16.8953 20.2201 16.7516C20.0766 16.6079 20.0049 16.4298 20.0049 16.2173V5.62109H9.82785C9.58402 5.62109 9.3516 5.57426 9.1306 5.48059C8.9096 5.38709 8.71735 5.25859 8.55385 5.09509L6.6586 3.19984C6.79193 2.86401 7.0086 2.60026 7.3086 2.40859C7.6086 2.21693 7.94327 2.12109 8.3126 2.12109H19.6971C20.1943 2.12109 20.6199 2.29809 20.9739 2.65209C21.3279 3.00609 21.5049 3.43168 21.5049 3.92884ZM8.3126 17.1211C7.81543 17.1211 7.38985 16.9441 7.03585 16.5901C6.68185 16.2361 6.50485 15.8105 6.50485 15.3133V7.97884L2.2126 3.68634C2.0741 3.54801 2.00327 3.37401 2.0001 3.16434C1.99693 2.95468 2.06777 2.77743 2.2126 2.63259C2.35743 2.48776 2.5331 2.41534 2.7396 2.41534C2.94594 2.41534 3.12152 2.48776 3.26635 2.63259L21.2434 20.6096C21.3819 20.7481 21.4527 20.9221 21.4559 21.1316C21.459 21.3413 21.3882 21.5185 21.2434 21.6633C21.0985 21.8082 20.9229 21.8806 20.7164 21.8806C20.51 21.8806 20.3344 21.8082 20.1896 21.6633L15.6471 17.1211H8.3126ZM8.3126 15.6211H14.1471L8.00485 9.47859V15.3133C8.00485 15.4032 8.03368 15.4769 8.09135 15.5346C8.14902 15.5923 8.22277 15.6211 8.3126 15.6211ZM4.8126 20.6211C4.31544 20.6211 3.88985 20.4441 3.53585 20.0901C3.18185 19.7361 3.00485 19.3105 3.00485 18.8133V6.67884C3.00485 6.46634 3.07677 6.28818 3.2206 6.14434C3.36443 6.00068 3.5426 5.92884 3.7551 5.92884C3.96777 5.92884 4.14594 6.00068 4.2896 6.14434C4.4331 6.28818 4.50485 6.46634 4.50485 6.67884V18.8133C4.50485 18.903 4.53369 18.9768 4.59135 19.0346C4.64902 19.0923 4.72277 19.1211 4.8126 19.1211H16.9471C17.1596 19.1211 17.3378 19.193 17.4816 19.3368C17.6253 19.4807 17.6971 19.6588 17.6971 19.8713C17.6971 20.084 17.6253 20.2621 17.4816 20.4056C17.3378 20.5493 17.1596 20.6211 16.9471 20.6211H4.8126Z" fill="#727272"/>
</svg>
