<svg width="222" height="63" viewBox="0 0 222 63" fill="none" xmlns="http://www.w3.org/2000/svg">
<g filter="url(#filter0_dd_18172_29560)">
<path d="M109.448 6.7388L104.5 12.8284L117.5 12.8284L112.552 6.7388C111.752 5.75372 110.248 5.75372 109.448 6.7388Z" fill="#4B4B4B"/>
<rect x="10" y="12.8284" width="202" height="36" rx="8" fill="#4B4B4B"/>
<path d="M26.207 27.3362C26.1953 28.7893 27.1914 30.1135 28.8086 30.6526L28.2461 31.5315C27.0332 31.1038 26.1191 30.2483 25.6445 29.1526C25.1758 30.3303 24.2559 31.262 23.0078 31.7073L22.4453 30.8401C24.0859 30.2542 25.0703 28.8362 25.0703 27.3362V26.3284H26.207V27.3362ZM31.0938 32.6331V36.3245H29.9805V33.5354H23.9805V32.6331H31.0938ZM31.0938 25.8245V32.1292H29.9805V25.8245H31.0938ZM41.0078 25.8127V28.8596H42.543V29.7854H41.0078V33.4182H39.8945V25.8127H41.0078ZM37.9141 26.7151V27.6174H34.3281V30.676C36.373 30.6819 37.5273 30.6174 38.8398 30.3479L38.9688 31.2502C37.5508 31.5315 36.3086 31.6018 34.0586 31.6018H33.2266V26.7151H37.9141ZM41.4531 35.1995V36.1018H34.3516V32.6331H35.4648V35.1995H41.4531ZM51.8242 25.8245V36.3479H50.7109V25.8245H51.8242ZM46.2109 26.6096C47.7695 26.6096 48.918 28.0393 48.918 30.2893C48.918 32.551 47.7695 33.9807 46.2109 33.9807C44.6289 33.9807 43.4922 32.551 43.4922 30.2893C43.4922 28.0393 44.6289 26.6096 46.2109 26.6096ZM46.2109 27.6057C45.2383 27.6057 44.5703 28.637 44.5703 30.2893C44.5703 31.9534 45.2383 32.9846 46.2109 32.9846C47.1719 32.9846 47.8398 31.9534 47.8398 30.2893C47.8398 28.637 47.1719 27.6057 46.2109 27.6057ZM61.7383 26.8674V33.6877H56.8281V26.8674H61.7383ZM57.918 27.7463V32.7854H60.6367V27.7463H57.918ZM64.6094 25.8245V29.9377H66.2969V30.8752H64.6094V36.3245H63.4961V25.8245H64.6094ZM71.582 26.0471C73.8906 26.0471 75.332 26.7971 75.332 28.0627C75.332 29.3049 73.8906 30.0432 71.582 30.0432C69.2852 30.0432 67.832 29.3049 67.832 28.0627C67.832 26.7971 69.2852 26.0471 71.582 26.0471ZM71.582 26.926C69.9648 26.926 68.9688 27.3362 68.9805 28.0627C68.9688 28.7659 69.9648 29.1643 71.582 29.176C73.1875 29.1643 74.1836 28.7659 74.1836 28.0627C74.1836 27.3362 73.1875 26.926 71.582 26.926ZM75.2031 32.6917V36.1956H67.9492V32.6917H75.2031ZM69.0508 33.5823V35.2932H74.125V33.5823H69.0508ZM76.375 30.8518V31.7542H66.8008V30.8518H76.375ZM86.207 25.8245V36.3245H85.1406V25.8245H86.207ZM84.0742 26.0237V35.8088H83.0078V30.7463H81.8242C81.7305 32.7971 80.8516 34.0745 79.5508 34.0627C78.1797 34.0745 77.2891 32.6331 77.2891 30.3596C77.2891 28.0862 78.1797 26.6565 79.5508 26.6682C80.8281 26.6565 81.6953 27.8694 81.8242 29.844H83.0078V26.0237H84.0742ZM79.5508 27.7112C78.7891 27.7112 78.3203 28.6838 78.3203 30.3596C78.3203 32.0354 78.7891 33.0081 79.5508 33.0081C80.3242 33.0081 80.8047 32.0354 80.8047 30.3596C80.8047 28.6838 80.3242 27.7112 79.5508 27.7112ZM100.059 30.1252V31.0159H90.4727V30.1252H100.059ZM98.9219 28.4729V29.3635H91.7266V26.1292H98.8164V27.0315H92.8398V28.4729H98.9219ZM98.8398 31.8479V34.3909H92.7227V35.3284H99.1328V36.2073H91.6328V33.5706H97.7383V32.7034H91.6211V31.8479H98.8398ZM104.57 32.7502C104.57 33.6584 105.016 34.6135 105.977 35.1995C106.938 34.5667 107.395 33.5471 107.395 32.7502V32.1877H108.484V32.7502C108.484 33.8401 109.199 34.9065 110.594 35.3518L110.02 36.1838C108.988 35.8147 108.285 35.1116 107.922 34.2385C107.594 35.094 106.961 35.8733 105.988 36.2776C104.992 35.8967 104.359 35.1526 104.031 34.2854C103.65 35.1174 102.959 35.8147 101.969 36.1838L101.43 35.3518C102.766 34.8831 103.492 33.7698 103.504 32.7502V32.1877H104.57V32.7502ZM103.75 26.3987C105.104 26.3987 106.188 27.2014 106.434 28.3909H108.484V25.8245H109.598V31.7776H108.484V29.3049H106.445C106.229 30.5295 105.133 31.3557 103.75 31.3557C102.168 31.3557 101.008 30.3362 101.008 28.8831C101.008 27.4299 102.168 26.3987 103.75 26.3987ZM103.75 27.3362C102.777 27.3362 102.062 27.9573 102.074 28.8831C102.062 29.7854 102.777 30.4299 103.75 30.4299C104.699 30.4299 105.414 29.7854 105.414 28.8831C105.414 27.9573 104.699 27.3362 103.75 27.3362ZM119.395 25.8245V29.8909H121.082V30.8049H119.395V36.3479H118.281V25.8245H119.395ZM116.57 26.8323V27.7346H112.773V32.8088C114.537 32.803 115.861 32.7268 117.355 32.4573L117.496 33.3948C115.855 33.6877 114.461 33.7463 112.504 33.7346H111.66V26.8323H116.57ZM126.941 26.7151V27.6057H129.227V25.8362H130.34V33.4885H129.227V30.7698H126.941V31.6838H122.066V26.7151H126.941ZM123.168 27.6174V30.8049H125.852V27.6174H123.168ZM130.574 35.1995V36.1018H123.484V32.7854H124.609V35.1995H130.574ZM126.941 29.8557H129.227V28.5198H126.941V29.8557ZM139.621 32.4221C141.895 32.4221 143.324 33.137 143.336 34.3674C143.324 35.5862 141.895 36.3127 139.621 36.301C137.371 36.3127 135.93 35.5862 135.93 34.3674C135.93 33.137 137.371 32.4221 139.621 32.4221ZM139.621 33.2659C138.027 33.2659 137.031 33.676 137.043 34.3674C137.031 35.0471 138.027 35.4456 139.621 35.4456C141.227 35.4456 142.223 35.0471 142.234 34.3674C142.223 33.676 141.227 33.2659 139.621 33.2659ZM143.254 26.3401V27.219C143.254 28.0627 143.254 28.9299 142.961 30.0081L141.871 29.8909C142.152 28.8186 142.152 28.0452 142.152 27.2307H136.012V26.3401H143.254ZM144.449 30.6526V31.5549H134.898V30.6526H138.73V28.6838H139.82V30.6526H144.449ZM154.855 31.7542V32.6682H152.418V36.3245H151.293V32.6682H148.785V36.3245H147.637V32.6682H145.246V31.7542H154.855ZM150.027 26.2229C152.242 26.2229 153.766 27.1252 153.766 28.5432C153.766 29.9377 152.242 30.8284 150.027 30.8167C147.801 30.8284 146.289 29.9377 146.289 28.5432C146.289 27.1252 147.801 26.2229 150.027 26.2229ZM150.027 27.1135C148.469 27.1252 147.426 27.6643 147.438 28.5432C147.426 29.3987 148.469 29.9377 150.027 29.9377C151.586 29.9377 152.629 29.3987 152.629 28.5432C152.629 27.6643 151.586 27.1252 150.027 27.1135ZM163.809 25.8245V30.0784H165.496V31.0042H163.809V36.3245H162.707V25.8245H163.809ZM161.793 27.4651V28.3792H155.57V27.4651H158.16V25.9651H159.273V27.4651H161.793ZM158.723 29.1526C160.223 29.1526 161.324 30.1604 161.336 31.5901C161.324 33.0315 160.223 34.0276 158.723 34.0393C157.211 34.0276 156.109 33.0315 156.109 31.5901C156.109 30.1604 157.211 29.1526 158.723 29.1526ZM158.723 30.0667C157.832 30.0667 157.164 30.6877 157.176 31.5901C157.164 32.5042 157.832 33.1135 158.723 33.1018C159.613 33.1135 160.27 32.5042 160.27 31.5901C160.27 30.6877 159.613 30.0667 158.723 30.0667ZM174.73 25.8245V36.3245H173.605V25.8245H174.73ZM171.602 26.9495C171.602 30.0198 170.289 32.6917 166.691 34.4143L166.105 33.512C168.9 32.1819 170.26 30.2893 170.477 27.8401H166.609V26.9495H171.602ZM178.305 26.844L178.199 32.8792H177.039L176.934 26.844H178.305ZM177.625 35.4104C177.168 35.4104 176.781 35.0354 176.793 34.5784C176.781 34.1213 177.168 33.7463 177.625 33.7463C178.07 33.7463 178.457 34.1213 178.457 34.5784C178.457 35.0354 178.07 35.4104 177.625 35.4104Z" fill="#F8F8FA"/>
<path d="M26.207 27.3362C26.1953 28.7893 27.1914 30.1135 28.8086 30.6526L28.2461 31.5315C27.0332 31.1038 26.1191 30.2483 25.6445 29.1526C25.1758 30.3303 24.2559 31.262 23.0078 31.7073L22.4453 30.8401C24.0859 30.2542 25.0703 28.8362 25.0703 27.3362V26.3284H26.207V27.3362ZM31.0938 32.6331V36.3245H29.9805V33.5354H23.9805V32.6331H31.0938ZM31.0938 25.8245V32.1292H29.9805V25.8245H31.0938ZM41.0078 25.8127V28.8596H42.543V29.7854H41.0078V33.4182H39.8945V25.8127H41.0078ZM37.9141 26.7151V27.6174H34.3281V30.676C36.373 30.6819 37.5273 30.6174 38.8398 30.3479L38.9688 31.2502C37.5508 31.5315 36.3086 31.6018 34.0586 31.6018H33.2266V26.7151H37.9141ZM41.4531 35.1995V36.1018H34.3516V32.6331H35.4648V35.1995H41.4531ZM51.8242 25.8245V36.3479H50.7109V25.8245H51.8242ZM46.2109 26.6096C47.7695 26.6096 48.918 28.0393 48.918 30.2893C48.918 32.551 47.7695 33.9807 46.2109 33.9807C44.6289 33.9807 43.4922 32.551 43.4922 30.2893C43.4922 28.0393 44.6289 26.6096 46.2109 26.6096ZM46.2109 27.6057C45.2383 27.6057 44.5703 28.637 44.5703 30.2893C44.5703 31.9534 45.2383 32.9846 46.2109 32.9846C47.1719 32.9846 47.8398 31.9534 47.8398 30.2893C47.8398 28.637 47.1719 27.6057 46.2109 27.6057ZM61.7383 26.8674V33.6877H56.8281V26.8674H61.7383ZM57.918 27.7463V32.7854H60.6367V27.7463H57.918ZM64.6094 25.8245V29.9377H66.2969V30.8752H64.6094V36.3245H63.4961V25.8245H64.6094ZM71.582 26.0471C73.8906 26.0471 75.332 26.7971 75.332 28.0627C75.332 29.3049 73.8906 30.0432 71.582 30.0432C69.2852 30.0432 67.832 29.3049 67.832 28.0627C67.832 26.7971 69.2852 26.0471 71.582 26.0471ZM71.582 26.926C69.9648 26.926 68.9688 27.3362 68.9805 28.0627C68.9688 28.7659 69.9648 29.1643 71.582 29.176C73.1875 29.1643 74.1836 28.7659 74.1836 28.0627C74.1836 27.3362 73.1875 26.926 71.582 26.926ZM75.2031 32.6917V36.1956H67.9492V32.6917H75.2031ZM69.0508 33.5823V35.2932H74.125V33.5823H69.0508ZM76.375 30.8518V31.7542H66.8008V30.8518H76.375ZM86.207 25.8245V36.3245H85.1406V25.8245H86.207ZM84.0742 26.0237V35.8088H83.0078V30.7463H81.8242C81.7305 32.7971 80.8516 34.0745 79.5508 34.0627C78.1797 34.0745 77.2891 32.6331 77.2891 30.3596C77.2891 28.0862 78.1797 26.6565 79.5508 26.6682C80.8281 26.6565 81.6953 27.8694 81.8242 29.844H83.0078V26.0237H84.0742ZM79.5508 27.7112C78.7891 27.7112 78.3203 28.6838 78.3203 30.3596C78.3203 32.0354 78.7891 33.0081 79.5508 33.0081C80.3242 33.0081 80.8047 32.0354 80.8047 30.3596C80.8047 28.6838 80.3242 27.7112 79.5508 27.7112ZM100.059 30.1252V31.0159H90.4727V30.1252H100.059ZM98.9219 28.4729V29.3635H91.7266V26.1292H98.8164V27.0315H92.8398V28.4729H98.9219ZM98.8398 31.8479V34.3909H92.7227V35.3284H99.1328V36.2073H91.6328V33.5706H97.7383V32.7034H91.6211V31.8479H98.8398ZM104.57 32.7502C104.57 33.6584 105.016 34.6135 105.977 35.1995C106.938 34.5667 107.395 33.5471 107.395 32.7502V32.1877H108.484V32.7502C108.484 33.8401 109.199 34.9065 110.594 35.3518L110.02 36.1838C108.988 35.8147 108.285 35.1116 107.922 34.2385C107.594 35.094 106.961 35.8733 105.988 36.2776C104.992 35.8967 104.359 35.1526 104.031 34.2854C103.65 35.1174 102.959 35.8147 101.969 36.1838L101.43 35.3518C102.766 34.8831 103.492 33.7698 103.504 32.7502V32.1877H104.57V32.7502ZM103.75 26.3987C105.104 26.3987 106.188 27.2014 106.434 28.3909H108.484V25.8245H109.598V31.7776H108.484V29.3049H106.445C106.229 30.5295 105.133 31.3557 103.75 31.3557C102.168 31.3557 101.008 30.3362 101.008 28.8831C101.008 27.4299 102.168 26.3987 103.75 26.3987ZM103.75 27.3362C102.777 27.3362 102.062 27.9573 102.074 28.8831C102.062 29.7854 102.777 30.4299 103.75 30.4299C104.699 30.4299 105.414 29.7854 105.414 28.8831C105.414 27.9573 104.699 27.3362 103.75 27.3362ZM119.395 25.8245V29.8909H121.082V30.8049H119.395V36.3479H118.281V25.8245H119.395ZM116.57 26.8323V27.7346H112.773V32.8088C114.537 32.803 115.861 32.7268 117.355 32.4573L117.496 33.3948C115.855 33.6877 114.461 33.7463 112.504 33.7346H111.66V26.8323H116.57ZM126.941 26.7151V27.6057H129.227V25.8362H130.34V33.4885H129.227V30.7698H126.941V31.6838H122.066V26.7151H126.941ZM123.168 27.6174V30.8049H125.852V27.6174H123.168ZM130.574 35.1995V36.1018H123.484V32.7854H124.609V35.1995H130.574ZM126.941 29.8557H129.227V28.5198H126.941V29.8557ZM139.621 32.4221C141.895 32.4221 143.324 33.137 143.336 34.3674C143.324 35.5862 141.895 36.3127 139.621 36.301C137.371 36.3127 135.93 35.5862 135.93 34.3674C135.93 33.137 137.371 32.4221 139.621 32.4221ZM139.621 33.2659C138.027 33.2659 137.031 33.676 137.043 34.3674C137.031 35.0471 138.027 35.4456 139.621 35.4456C141.227 35.4456 142.223 35.0471 142.234 34.3674C142.223 33.676 141.227 33.2659 139.621 33.2659ZM143.254 26.3401V27.219C143.254 28.0627 143.254 28.9299 142.961 30.0081L141.871 29.8909C142.152 28.8186 142.152 28.0452 142.152 27.2307H136.012V26.3401H143.254ZM144.449 30.6526V31.5549H134.898V30.6526H138.73V28.6838H139.82V30.6526H144.449ZM154.855 31.7542V32.6682H152.418V36.3245H151.293V32.6682H148.785V36.3245H147.637V32.6682H145.246V31.7542H154.855ZM150.027 26.2229C152.242 26.2229 153.766 27.1252 153.766 28.5432C153.766 29.9377 152.242 30.8284 150.027 30.8167C147.801 30.8284 146.289 29.9377 146.289 28.5432C146.289 27.1252 147.801 26.2229 150.027 26.2229ZM150.027 27.1135C148.469 27.1252 147.426 27.6643 147.438 28.5432C147.426 29.3987 148.469 29.9377 150.027 29.9377C151.586 29.9377 152.629 29.3987 152.629 28.5432C152.629 27.6643 151.586 27.1252 150.027 27.1135ZM163.809 25.8245V30.0784H165.496V31.0042H163.809V36.3245H162.707V25.8245H163.809ZM161.793 27.4651V28.3792H155.57V27.4651H158.16V25.9651H159.273V27.4651H161.793ZM158.723 29.1526C160.223 29.1526 161.324 30.1604 161.336 31.5901C161.324 33.0315 160.223 34.0276 158.723 34.0393C157.211 34.0276 156.109 33.0315 156.109 31.5901C156.109 30.1604 157.211 29.1526 158.723 29.1526ZM158.723 30.0667C157.832 30.0667 157.164 30.6877 157.176 31.5901C157.164 32.5042 157.832 33.1135 158.723 33.1018C159.613 33.1135 160.27 32.5042 160.27 31.5901C160.27 30.6877 159.613 30.0667 158.723 30.0667ZM174.73 25.8245V36.3245H173.605V25.8245H174.73ZM171.602 26.9495C171.602 30.0198 170.289 32.6917 166.691 34.4143L166.105 33.512C168.9 32.1819 170.26 30.2893 170.477 27.8401H166.609V26.9495H171.602ZM178.305 26.844L178.199 32.8792H177.039L176.934 26.844H178.305ZM177.625 35.4104C177.168 35.4104 176.781 35.0354 176.793 34.5784C176.781 34.1213 177.168 33.7463 177.625 33.7463C178.07 33.7463 178.457 34.1213 178.457 34.5784C178.457 35.0354 178.07 35.4104 177.625 35.4104Z" fill="white"/>
<mask id="mask0_18172_29560" style="mask-type:alpha" maskUnits="userSpaceOnUse" x="180" y="20" width="20" height="21">
<rect x="180" y="20.8284" width="20" height="20" fill="#D9D9D9"/>
</mask>
<g mask="url(#mask0_18172_29560)">
<path d="M190 31.6105L187.276 34.3155C187.154 34.4363 187.028 34.4954 186.898 34.4926C186.767 34.4899 186.642 34.4283 186.521 34.3076C186.4 34.1869 186.34 34.06 186.34 33.927C186.34 33.7939 186.4 33.6665 186.521 33.5447L189.218 30.8284L186.513 28.1251C186.392 28.0031 186.333 27.8756 186.336 27.7426C186.339 27.6097 186.4 27.4829 186.521 27.3622C186.642 27.2413 186.769 27.1809 186.902 27.1809C187.035 27.1809 187.162 27.2413 187.284 27.3622L190 30.0672L192.704 27.3622C192.825 27.2413 192.952 27.1809 193.082 27.1809C193.212 27.1809 193.338 27.2413 193.459 27.3622C193.574 27.4774 193.632 27.6029 193.632 27.7386C193.632 27.8743 193.574 28.0031 193.459 28.1251L190.761 30.8284L193.466 33.5526C193.587 33.6745 193.648 33.8006 193.648 33.9309C193.648 34.0613 193.587 34.1869 193.466 34.3076C193.351 34.423 193.226 34.4807 193.09 34.4807C192.954 34.4807 192.825 34.423 192.704 34.3076L190 31.6105Z" fill="#F8F8FA"/>
<path d="M190 31.6105L187.276 34.3155C187.154 34.4363 187.028 34.4954 186.898 34.4926C186.767 34.4899 186.642 34.4283 186.521 34.3076C186.4 34.1869 186.34 34.06 186.34 33.927C186.34 33.7939 186.4 33.6665 186.521 33.5447L189.218 30.8284L186.513 28.1251C186.392 28.0031 186.333 27.8756 186.336 27.7426C186.339 27.6097 186.4 27.4829 186.521 27.3622C186.642 27.2413 186.769 27.1809 186.902 27.1809C187.035 27.1809 187.162 27.2413 187.284 27.3622L190 30.0672L192.704 27.3622C192.825 27.2413 192.952 27.1809 193.082 27.1809C193.212 27.1809 193.338 27.2413 193.459 27.3622C193.574 27.4774 193.632 27.6029 193.632 27.7386C193.632 27.8743 193.574 28.0031 193.459 28.1251L190.761 30.8284L193.466 33.5526C193.587 33.6745 193.648 33.8006 193.648 33.9309C193.648 34.0613 193.587 34.1869 193.466 34.3076C193.351 34.423 193.226 34.4807 193.09 34.4807C192.954 34.4807 192.825 34.423 192.704 34.3076L190 31.6105Z" fill="white"/>
</g>
</g>
<defs>
<filter id="filter0_dd_18172_29560" x="0" y="-1.17163" width="222" height="64" filterUnits="userSpaceOnUse" color-interpolation-filters="sRGB">
<feFlood flood-opacity="0" result="BackgroundImageFix"/>
<feColorMatrix in="SourceAlpha" type="matrix" values="0 0 0 0 0 0 0 0 0 0 0 0 0 0 0 0 0 0 127 0" result="hardAlpha"/>
<feOffset dy="4"/>
<feGaussianBlur stdDeviation="5"/>
<feColorMatrix type="matrix" values="0 0 0 0 0 0 0 0 0 0 0 0 0 0 0 0 0 0 0.08 0"/>
<feBlend mode="normal" in2="BackgroundImageFix" result="effect1_dropShadow_18172_29560"/>
<feColorMatrix in="SourceAlpha" type="matrix" values="0 0 0 0 0 0 0 0 0 0 0 0 0 0 0 0 0 0 127 0" result="hardAlpha"/>
<feOffset dy="1"/>
<feGaussianBlur stdDeviation="2"/>
<feColorMatrix type="matrix" values="0 0 0 0 0 0 0 0 0 0 0 0 0 0 0 0 0 0 0.04 0"/>
<feBlend mode="normal" in2="effect1_dropShadow_18172_29560" result="effect2_dropShadow_18172_29560"/>
<feBlend mode="normal" in="SourceGraphic" in2="effect2_dropShadow_18172_29560" result="shape"/>
</filter>
</defs>
</svg>
