<svg width="15" height="12" viewBox="0 0 15 12" fill="none" xmlns="http://www.w3.org/2000/svg">
<path d="M1.89685 4.75573C1.75518 4.75573 1.6364 4.70778 1.54052 4.6119C1.44474 4.51601 1.39685 4.39717 1.39685 4.2554C1.39685 4.11373 1.44474 3.99501 1.54052 3.89923C1.6364 3.80356 1.75518 3.75573 1.89685 3.75573H3.93518C4.22496 3.75573 4.4769 3.85206 4.69102 4.04473C4.90513 4.23751 5.02924 4.47451 5.06335 4.75573H1.89685ZM3.24285 10.7429C3.81985 10.7429 4.31024 10.541 4.71402 10.1371C5.1179 9.73317 5.31985 9.24278 5.31985 8.6659C5.31985 8.08901 5.1179 7.59862 4.71402 7.19473C4.31024 6.79084 3.81985 6.5889 3.24285 6.5889C2.66596 6.5889 2.17563 6.79084 1.77185 7.19473C1.36796 7.59862 1.16602 8.08901 1.16602 8.6659C1.16602 9.24278 1.36796 9.73317 1.77185 10.1371C2.17563 10.541 2.66596 10.7429 3.24285 10.7429ZM12.3327 10.7429C12.6532 10.7429 12.9278 10.6286 13.1563 10.3999C13.385 10.1712 13.4993 9.89662 13.4993 9.57606C13.4993 9.25562 13.385 8.98106 13.1563 8.7524C12.9278 8.52373 12.6532 8.4094 12.3327 8.4094C12.0121 8.4094 11.7376 8.52373 11.509 8.7524C11.2803 8.98106 11.166 9.25562 11.166 9.57606C11.166 9.89662 11.2803 10.1712 11.509 10.3999C11.7376 10.6286 12.0121 10.7429 12.3327 10.7429ZM3.24135 9.53773C2.99879 9.53773 2.79313 9.45278 2.62435 9.2829C2.45557 9.11312 2.37118 8.90695 2.37118 8.6644C2.37118 8.42184 2.45607 8.21617 2.62585 8.0474C2.79563 7.87851 3.00185 7.79406 3.24452 7.79406C3.48707 7.79406 3.69274 7.87901 3.86152 8.0489C4.03029 8.21867 4.11468 8.42484 4.11468 8.6674C4.11468 8.90995 4.02979 9.11562 3.86002 9.2844C3.69024 9.45328 3.48402 9.53773 3.24135 9.53773ZM12.6532 7.42623C12.8652 7.4689 13.0421 7.52251 13.184 7.58706C13.3258 7.65162 13.4822 7.7574 13.6532 7.9044V4.1274C13.6532 3.79606 13.5352 3.5124 13.2992 3.2764C13.0632 3.0404 12.7795 2.9224 12.448 2.9224H8.63268L7.93268 2.18906L8.86602 1.25573L8.39935 0.789062L6.03268 3.15573L6.53268 3.6224L7.46601 2.68906L8.16602 3.38906V4.6659C8.16602 5.10312 8.01035 5.4774 7.69902 5.78873C7.38768 6.10006 7.0134 6.25573 6.57618 6.25573H5.14285C5.33429 6.40606 5.48857 6.55562 5.60568 6.7044C5.72279 6.85306 5.84418 7.03678 5.96985 7.25556H6.57618C7.29251 7.25556 7.90324 7.00301 8.40835 6.4979C8.91346 5.99278 9.16601 5.38212 9.16601 4.6659V3.92223H12.448C12.5079 3.92223 12.5571 3.94151 12.5955 3.98006C12.634 4.01851 12.6532 4.06762 12.6532 4.1274V7.42623ZM10.2018 9.1659C10.2557 8.94712 10.317 8.76801 10.3855 8.62856C10.454 8.48912 10.5607 8.3349 10.7057 8.1659H6.27235C6.30402 8.35767 6.31985 8.5244 6.31985 8.66606C6.31985 8.80784 6.30402 8.97445 6.27235 9.1659H10.2018ZM12.3327 11.7427C11.731 11.7427 11.2195 11.5321 10.798 11.1107C10.3767 10.6894 10.166 10.1778 10.166 9.57606C10.166 8.9744 10.3767 8.4629 10.798 8.04156C11.2195 7.62023 11.731 7.40956 12.3327 7.40956C12.9343 7.40956 13.4459 7.62023 13.8673 8.04156C14.2887 8.4629 14.4993 8.9744 14.4993 9.57606C14.4993 10.1778 14.2887 10.6894 13.8673 11.1107C13.4459 11.5321 12.9343 11.7427 12.3327 11.7427ZM3.24285 11.7427C2.39163 11.7427 1.66602 11.4427 1.06602 10.8427C0.466016 10.2427 0.166016 9.51712 0.166016 8.6659C0.166016 7.81467 0.466016 7.08906 1.06602 6.48906C1.66602 5.88906 2.39163 5.58906 3.24285 5.58906C4.09418 5.58906 4.81985 5.88906 5.41985 6.48906C6.01985 7.08906 6.31985 7.81484 6.31985 8.66606C6.31985 9.51729 6.01985 10.2427 5.41985 10.8427C4.81985 11.4427 4.09418 11.7427 3.24285 11.7427Z" fill="#B611F5"/>
</svg>
