<svg width="22" height="22" viewBox="0 0 22 22" fill="none" xmlns="http://www.w3.org/2000/svg">
<path d="M9.9502 11.7001L8.5002 10.2751C8.31686 10.0918 8.0877 10.0001 7.8127 10.0001C7.5377 10.0001 7.3002 10.1001 7.1002 10.3001C6.91686 10.4835 6.8252 10.7168 6.8252 11.0001C6.8252 11.2835 6.91686 11.5168 7.1002 11.7001L9.2502 13.8501C9.4502 14.0501 9.68353 14.1501 9.9502 14.1501C10.2169 14.1501 10.4502 14.0501 10.6502 13.8501L14.9002 9.60012C15.1002 9.40012 15.196 9.16679 15.1877 8.90012C15.1794 8.63345 15.0835 8.40012 14.9002 8.20012C14.7002 8.00012 14.4627 7.89595 14.1877 7.88762C13.9127 7.87928 13.6752 7.97512 13.4752 8.17512L9.9502 11.7001ZM7.1502 20.7501L5.7002 18.3001L2.9502 17.7001C2.7002 17.6501 2.5002 17.521 2.3502 17.3126C2.2002 17.1043 2.14186 16.8751 2.1752 16.6251L2.4502 13.8001L0.575195 11.6501C0.408529 11.4668 0.325195 11.2501 0.325195 11.0001C0.325195 10.7501 0.408529 10.5335 0.575195 10.3501L2.4502 8.20012L2.1752 5.37512C2.14186 5.12512 2.2002 4.89595 2.3502 4.68762C2.5002 4.47929 2.7002 4.35012 2.9502 4.30012L5.7002 3.70012L7.1502 1.25012C7.28353 1.03345 7.46686 0.887619 7.7002 0.812619C7.93353 0.737619 8.16686 0.750119 8.4002 0.850119L11.0002 1.95012L13.6002 0.850119C13.8335 0.750119 14.0669 0.737619 14.3002 0.812619C14.5335 0.887619 14.7169 1.03345 14.8502 1.25012L16.3002 3.70012L19.0502 4.30012C19.3002 4.35012 19.5002 4.47929 19.6502 4.68762C19.8002 4.89595 19.8585 5.12512 19.8252 5.37512L19.5502 8.20012L21.4252 10.3501C21.5919 10.5335 21.6752 10.7501 21.6752 11.0001C21.6752 11.2501 21.5919 11.4668 21.4252 11.6501L19.5502 13.8001L19.8252 16.6251C19.8585 16.8751 19.8002 17.1043 19.6502 17.3126C19.5002 17.521 19.3002 17.6501 19.0502 17.7001L16.3002 18.3001L14.8502 20.7501C14.7169 20.9668 14.5335 21.1126 14.3002 21.1876C14.0669 21.2626 13.8335 21.2501 13.6002 21.1501L11.0002 20.0501L8.4002 21.1501C8.16686 21.2501 7.93353 21.2626 7.7002 21.1876C7.46686 21.1126 7.28353 20.9668 7.1502 20.7501ZM8.4502 18.9501L11.0002 17.8501L13.6002 18.9501L15.0002 16.5501L17.7502 15.9001L17.5002 13.1001L19.3502 11.0001L17.5002 8.85012L17.7502 6.05012L15.0002 5.45012L13.5502 3.05012L11.0002 4.15012L8.4002 3.05012L7.0002 5.45012L4.2502 6.05012L4.5002 8.85012L2.6502 11.0001L4.5002 13.1001L4.2502 15.9501L7.0002 16.5501L8.4502 18.9501Z" fill="#4590BB"/>
</svg>
