<svg width="18" height="18" viewBox="0 0 18 18" fill="none" xmlns="http://www.w3.org/2000/svg">
<mask id="mask0_310_5075" style="mask-type:alpha" maskUnits="userSpaceOnUse" x="1" y="1" width="16" height="16">
<rect x="1" y="1" width="16" height="16" fill="#D9D9D9"/>
</mask>
<g mask="url(#mask0_310_5075)">
<path d="M9.00003 9.93337L5.73337 13.2C5.61114 13.3223 5.45559 13.3834 5.2667 13.3834C5.07781 13.3834 4.92225 13.3223 4.80003 13.2C4.67781 13.0778 4.6167 12.9223 4.6167 12.7334C4.6167 12.5445 4.67781 12.3889 4.80003 12.2667L8.0667 9.00003L4.80003 5.73337C4.67781 5.61114 4.6167 5.45559 4.6167 5.2667C4.6167 5.07781 4.67781 4.92225 4.80003 4.80003C4.92225 4.67781 5.07781 4.6167 5.2667 4.6167C5.45559 4.6167 5.61114 4.67781 5.73337 4.80003L9.00003 8.0667L12.2667 4.80003C12.3889 4.67781 12.5445 4.6167 12.7334 4.6167C12.9223 4.6167 13.0778 4.67781 13.2 4.80003C13.3223 4.92225 13.3834 5.07781 13.3834 5.2667C13.3834 5.45559 13.3223 5.61114 13.2 5.73337L9.93337 9.00003L13.2 12.2667C13.3223 12.3889 13.3834 12.5445 13.3834 12.7334C13.3834 12.9223 13.3223 13.0778 13.2 13.2C13.0778 13.3223 12.9223 13.3834 12.7334 13.3834C12.5445 13.3834 12.3889 13.3223 12.2667 13.2L9.00003 9.93337Z" fill="#727272"/>
</g>
</svg>
