<svg width="68" height="68" viewBox="0 0 68 68" fill="none" xmlns="http://www.w3.org/2000/svg">
<rect width="68" height="68" rx="5" fill="#F5F5F5"/>
<mask id="mask0_1315_2001" style="mask-type:alpha" maskUnits="userSpaceOnUse" x="14" y="14" width="40" height="40">
<rect x="14" y="14" width="40" height="40" fill="#D9D9D9"/>
</mask>
<g mask="url(#mask0_1315_2001)">
<path d="M48.1661 22.8462V40.8269C48.1661 41.2435 48.0352 41.556 47.7734 41.7644C47.5117 41.9727 47.2259 42.0769 46.9161 42.0769C46.6063 42.0769 46.3205 41.9684 46.0587 41.7515C45.797 41.5347 45.6661 41.2179 45.6661 40.8012V22.8462C45.6661 22.7179 45.6127 22.6004 45.5059 22.4935C45.399 22.3867 45.2815 22.3333 45.1532 22.3333H27.1565C26.7398 22.3333 26.4273 22.2024 26.219 21.9407C26.0107 21.6789 25.9065 21.3931 25.9065 21.0833C25.9065 20.7735 26.0107 20.4877 26.219 20.226C26.4273 19.9642 26.7398 19.8333 27.1565 19.8333H45.1532C45.9951 19.8333 46.7077 20.125 47.2911 20.7083C47.8744 21.2917 48.1661 22.0043 48.1661 22.8462ZM22.8456 48.1666C22.0038 48.1666 21.2911 47.8749 20.7078 47.2916C20.1245 46.7082 19.8328 45.9956 19.8328 45.1537V23.3461L17.7879 21.3012C17.5572 21.0704 17.4391 20.7804 17.4338 20.431C17.4284 20.0817 17.5465 19.7863 17.7879 19.5448C18.0294 19.3033 18.3221 19.1826 18.6661 19.1826C19.0101 19.1826 19.3028 19.3033 19.5443 19.5448L48.4546 48.4551C48.6854 48.6859 48.8034 48.9759 48.8087 49.3253C48.8141 49.6746 48.696 49.97 48.4546 50.2115C48.2131 50.4529 47.9204 50.5737 47.5764 50.5737C47.2324 50.5737 46.9397 50.4529 46.6982 50.2115L44.6533 48.1666L22.8456 48.1666ZM38.3777 41.9166H26.7559C26.4547 41.9166 26.2314 41.7798 26.0861 41.5063C25.9408 41.2328 25.9685 40.9679 26.1694 40.7115L28.7976 37.2147C28.9535 37.0139 29.1517 36.9135 29.3921 36.9135C29.6325 36.9135 29.8307 37.0085 29.9866 37.1987L32.7174 40.6987L34.6694 38.2082L22.3328 25.8717V45.1537C22.3328 45.282 22.3862 45.3995 22.493 45.5064C22.5999 45.6132 22.7174 45.6666 22.8456 45.6666H42.1277L38.3777 41.9166Z" fill="#8E8E8E"/>
<path d="M48.1661 22.8462V40.8269C48.1661 41.2435 48.0352 41.556 47.7734 41.7644C47.5117 41.9727 47.2259 42.0769 46.9161 42.0769C46.6063 42.0769 46.3205 41.9684 46.0587 41.7515C45.797 41.5347 45.6661 41.2179 45.6661 40.8012V22.8462C45.6661 22.7179 45.6127 22.6004 45.5059 22.4935C45.399 22.3867 45.2815 22.3333 45.1532 22.3333H27.1565C26.7398 22.3333 26.4273 22.2024 26.219 21.9407C26.0107 21.6789 25.9065 21.3931 25.9065 21.0833C25.9065 20.7735 26.0107 20.4877 26.219 20.226C26.4273 19.9642 26.7398 19.8333 27.1565 19.8333H45.1532C45.9951 19.8333 46.7077 20.125 47.2911 20.7083C47.8744 21.2917 48.1661 22.0043 48.1661 22.8462ZM22.8456 48.1666C22.0038 48.1666 21.2911 47.8749 20.7078 47.2916C20.1245 46.7082 19.8328 45.9956 19.8328 45.1537V23.3461L17.7879 21.3012C17.5572 21.0704 17.4391 20.7804 17.4338 20.431C17.4284 20.0817 17.5465 19.7863 17.7879 19.5448C18.0294 19.3033 18.3221 19.1826 18.6661 19.1826C19.0101 19.1826 19.3028 19.3033 19.5443 19.5448L48.4546 48.4551C48.6854 48.6859 48.8034 48.9759 48.8087 49.3253C48.8141 49.6746 48.696 49.97 48.4546 50.2115C48.2131 50.4529 47.9204 50.5737 47.5764 50.5737C47.2324 50.5737 46.9397 50.4529 46.6982 50.2115L44.6533 48.1666L22.8456 48.1666ZM38.3777 41.9166H26.7559C26.4547 41.9166 26.2314 41.7798 26.0861 41.5063C25.9408 41.2328 25.9685 40.9679 26.1694 40.7115L28.7976 37.2147C28.9535 37.0139 29.1517 36.9135 29.3921 36.9135C29.6325 36.9135 29.8307 37.0085 29.9866 37.1987L32.7174 40.6987L34.6694 38.2082L22.3328 25.8717V45.1537C22.3328 45.282 22.3862 45.3995 22.493 45.5064C22.5999 45.6132 22.7174 45.6666 22.8456 45.6666H42.1277L38.3777 41.9166Z" fill="black" fill-opacity="0.2"/>
</g>
</svg>
