<svg width="10" height="16" viewBox="0 0 10 16" fill="none" xmlns="http://www.w3.org/2000/svg">
<g clip-path="url(#clip0_28960_140849)">
<path d="M5.07671 10.2031C4.74845 10.2038 4.4338 10.3426 4.20163 10.5892C3.96945 10.8357 3.83867 11.17 3.83789 11.5188V14.2094C3.83789 14.5585 3.96841 14.8933 4.20073 15.1401C4.43306 15.3869 4.74816 15.5256 5.07671 15.5256C5.40527 15.5256 5.72037 15.3869 5.95269 15.1401C6.18502 14.8933 6.31554 14.5585 6.31554 14.2094V14.1825V14.1838V11.5194C6.31492 11.1707 6.18436 10.8365 5.95242 10.5898C5.72049 10.3431 5.40605 10.2041 5.07789 10.2031H5.07671Z" fill="#CACACA"/>
<path d="M9.56647 2.14438H7.18235C6.89353 1.18375 6.06059 0.5 5.07706 0.5C4.09353 0.5 3.26118 1.18375 2.97647 2.1275L2.97235 2.14438H0.619412C0.455134 2.14438 0.297584 2.21371 0.181422 2.33714C0.0652593 2.46056 0 2.62795 0 2.8025C0 2.97705 0.0652593 3.14444 0.181422 3.26786C0.297584 3.39129 0.455134 3.46062 0.619412 3.46062H3.00353C3.16118 4.0225 3.50353 4.4825 3.95353 4.77063L3.96294 4.77625C2.27412 5.31812 1.06353 6.95125 1.05294 8.88688V12.3419C1.05539 12.6289 1.16375 12.9034 1.35471 13.1064C1.54568 13.3094 1.80399 13.4247 2.07412 13.4275H2.91059V11.5525C2.91059 10.9331 3.14219 10.339 3.55444 9.90096C3.96669 9.46295 4.52582 9.21688 5.10882 9.21688C5.69183 9.21688 6.25096 9.46295 6.66321 9.90096C7.07546 10.339 7.30706 10.9331 7.30706 11.5525V13.4275H8.14294C8.41341 13.4255 8.67229 13.3105 8.86361 13.1074C9.05492 12.9042 9.16329 12.6293 9.1653 12.3419V8.92062C9.16491 7.99801 8.88424 7.10018 8.36502 6.36068C7.84579 5.62117 7.11577 5.07951 6.28353 4.81625L6.25529 4.80875C6.7154 4.51728 7.05634 4.05361 7.21118 3.50875L7.21529 3.4925H9.59941C9.76355 3.49201 9.92083 3.42251 10.0369 3.29919C10.153 3.17588 10.2184 3.00877 10.2188 2.83437C10.2123 2.65353 10.1418 2.48197 10.0214 2.35394C9.90102 2.22592 9.73961 2.15086 9.56941 2.14375H9.56824L9.56647 2.14438ZM5.07706 4.15C4.83204 4.15 4.59253 4.0728 4.38881 3.92817C4.18508 3.78354 4.0263 3.57797 3.93254 3.33746C3.83877 3.09694 3.81424 2.83229 3.86204 2.57696C3.90984 2.32163 4.02783 2.0871 4.20108 1.90302C4.37433 1.71894 4.59507 1.59358 4.83538 1.54279C5.07569 1.492 5.32477 1.51807 5.55114 1.61769C5.7775 1.71732 5.97098 1.88602 6.1071 2.10248C6.24323 2.31894 6.31588 2.57342 6.31588 2.83375L6.31647 2.87125C6.31647 3.5775 5.77765 4.15 5.11294 4.15L5.07588 4.14938H5.07765L5.07706 4.15Z" fill="#CACACA"/>
</g>
<defs>
<clipPath id="clip0_28960_140849">
<rect width="10" height="15" fill="white" transform="translate(0 0.5)"/>
</clipPath>
</defs>
</svg>
