<svg width="18" height="21" viewBox="0 0 18 21" fill="none" xmlns="http://www.w3.org/2000/svg">
<path d="M0 19.2V7.90071C0 7.56792 0.0737142 7.2529 0.221143 6.95564C0.368571 6.65838 0.571714 6.41355 0.830571 6.22116L7.75414 0.91989C8.11671 0.639964 8.53071 0.5 8.99614 0.5C9.46157 0.5 9.87814 0.639964 10.2459 0.91989L17.1694 6.21986C17.4291 6.41225 17.6323 6.65751 17.7789 6.95564C17.9263 7.2529 18 7.56792 18 7.90071V19.2C18 19.5484 17.8719 19.8522 17.6156 20.1113C17.3593 20.3704 17.0589 20.5 16.7143 20.5H12.3634C12.0686 20.5 11.8217 20.3995 11.6229 20.1984C11.424 19.9965 11.3246 19.7469 11.3246 19.4496V13.2501C11.3246 12.9528 11.2251 12.7037 11.0263 12.5026C10.8266 12.3007 10.5797 12.1997 10.2857 12.1997H7.71429C7.42029 12.1997 7.17386 12.3007 6.975 12.5026C6.77529 12.7037 6.67543 12.9528 6.67543 13.2501V19.4509C6.67543 19.7482 6.576 19.9973 6.37714 20.1984C6.17829 20.3995 5.93186 20.5 5.63786 20.5H1.28571C0.941143 20.5 0.640714 20.3704 0.384428 20.1113C0.128143 19.8522 0 19.5484 0 19.2Z" fill="black"/>
</svg>
