<svg width="228" height="24" viewBox="0 0 228 24" fill="none" xmlns="http://www.w3.org/2000/svg">
<path d="M41.898 5.45H43.074V14.718H41.898V5.45ZM34.94 16.86H43.452V17.812H34.94V16.86ZM34.94 13.864H36.088V17.308H34.94V13.864ZM35.99 6.136H36.956V7.424C36.956 9.888 35.556 12.044 33.428 12.912L32.826 11.974C34.73 11.232 35.99 9.384 35.99 7.424V6.136ZM36.2 6.136H37.152V7.424C37.152 9.328 38.426 11.05 40.316 11.736L39.7 12.674C37.6 11.862 36.2 9.832 36.2 7.424V6.136ZM46.7829 6.696H54.9309V7.662H46.7829V6.696ZM45.5789 15.362H57.0169V16.328H45.5789V15.362ZM50.0169 10.84H51.1789V15.838H50.0169V10.84ZM54.4969 6.696H55.6449V7.956C55.6449 9.524 55.6449 11.26 55.1829 13.822L54.0209 13.668C54.4969 11.246 54.4969 9.468 54.4969 7.956V6.696ZM63.5818 10.35H65.9758V11.316H63.5818V10.35ZM68.0898 5.436H69.2098V18.092H68.0898V5.436ZM65.5838 5.702H66.6898V17.462H65.5838V5.702ZM61.2998 6.486C62.9378 6.486 64.0018 8.18 64.0018 10.896C64.0018 13.612 62.9378 15.306 61.2998 15.306C59.6618 15.306 58.6118 13.612 58.6118 10.896C58.6118 8.18 59.6618 6.486 61.2998 6.486ZM61.2998 7.564C60.3058 7.564 59.6758 8.852 59.6758 10.896C59.6758 12.94 60.3058 14.228 61.2998 14.228C62.3078 14.228 62.9378 12.94 62.9378 10.896C62.9378 8.852 62.3078 7.564 61.2998 7.564ZM79.3762 6.346C81.3502 6.346 82.7642 7.564 82.7642 9.328C82.7642 11.106 81.3502 12.324 79.3762 12.324C77.4022 12.324 75.9742 11.106 75.9742 9.328C75.9742 7.564 77.4022 6.346 79.3762 6.346ZM79.3762 7.354C78.0602 7.354 77.1082 8.152 77.1082 9.328C77.1082 10.504 78.0602 11.316 79.3762 11.316C80.6782 11.316 81.6302 10.504 81.6302 9.328C81.6302 8.152 80.6782 7.354 79.3762 7.354ZM84.4162 5.422H85.5782V18.106H84.4162V5.422ZM75.4982 15.334L75.3302 14.368C77.6402 14.368 80.8322 14.354 83.5902 13.92L83.6882 14.774C80.8462 15.32 77.7522 15.334 75.4982 15.334ZM88.1251 7.592H94.3971V8.544H88.1251V7.592ZM91.2611 9.384C92.8431 9.384 93.9911 10.574 93.9911 12.282C93.9911 13.976 92.8431 15.166 91.2611 15.166C89.6931 15.166 88.5451 13.976 88.5451 12.282C88.5451 10.574 89.6931 9.384 91.2611 9.384ZM91.2611 10.378C90.2951 10.378 89.5951 11.162 89.5951 12.282C89.5951 13.402 90.2951 14.186 91.2611 14.186C92.2411 14.186 92.9551 13.402 92.9551 12.282C92.9551 11.162 92.2411 10.378 91.2611 10.378ZM97.7431 5.436H98.8631V18.092H97.7431V5.436ZM95.7271 10.756H98.1211V11.722H95.7271V10.756ZM95.0411 5.716H96.1331V17.476H95.0411V5.716ZM90.7011 5.8H91.8491V8.18H90.7011V5.8ZM110.108 11.82H111.256V14.004H110.108V11.82ZM106.356 13.752H114.994V17.924H106.356V13.752ZM113.86 14.69H107.504V16.986H113.86V14.69ZM104.956 11.26H116.394V12.212H104.956V11.26ZM110.094 5.562H111.088V6.122C111.088 8.334 108.638 9.93 106.034 10.322L105.614 9.398C107.882 9.104 110.094 7.732 110.094 6.122V5.562ZM110.276 5.562H111.27V6.122C111.27 7.704 113.51 9.104 115.75 9.398L115.316 10.322C112.74 9.93 110.276 8.306 110.276 6.122V5.562ZM123.252 6.248H124.47C124.47 9.468 122.16 11.736 118.436 12.73L117.988 11.806C121.278 10.938 123.252 9.104 123.252 6.766V6.248ZM118.646 6.248H123.924V7.186H118.646V6.248ZM127.046 5.436H128.222V12.576H127.046V5.436ZM120.032 13.192H128.222V17.924H120.032V13.192ZM127.074 14.13H121.18V16.972H127.074V14.13ZM143.919 5.422H145.067V18.106H143.919V5.422ZM141.189 10.504H144.255V11.47H141.189V10.504ZM137.885 8.446H138.809V9.524C138.809 12.198 137.339 14.662 135.337 15.656L134.679 14.76C136.541 13.864 137.885 11.708 137.885 9.524V8.446ZM138.109 8.446H139.019V9.524C139.019 11.61 140.405 13.668 142.267 14.522L141.623 15.418C139.593 14.48 138.109 12.114 138.109 9.524V8.446ZM135.029 7.634H141.833V8.572H135.029V7.634ZM137.871 5.66H139.033V8.152H137.871V5.66ZM156.756 5.422H157.918V18.106H156.756V5.422ZM148.272 14.088H149.322C151.436 14.088 153.326 14.004 155.566 13.64L155.692 14.592C153.396 14.97 151.492 15.054 149.322 15.054H148.272V14.088ZM148.244 6.612H154.096V11.134H149.434V14.452H148.272V10.182H152.92V7.564H148.244V6.612ZM161.417 10.882H167.899V11.834H161.417V10.882ZM164.007 11.638H165.183V14.55H164.007V11.638ZM161.417 6.626H167.829V7.578H162.579V11.218H161.417V6.626ZM169.565 5.422H170.727V18.106H169.565V5.422ZM160.647 15.362L160.479 14.396C162.957 14.382 166.065 14.354 168.739 14.032L168.837 14.9C166.065 15.32 163.041 15.376 160.647 15.362ZM176.522 13.15H177.432V13.878C177.432 15.558 176.396 17.238 174.576 17.938L173.988 17.07C175.584 16.482 176.522 15.11 176.522 13.878V13.15ZM176.788 13.15H177.656V13.878C177.656 15.166 178.398 16.552 179.924 17.168L179.434 18.05C177.6 17.336 176.788 15.572 176.788 13.878V13.15ZM181.212 13.15H182.066V13.878C182.066 15.376 181.24 17.28 179.434 18.05L178.93 17.168C180.442 16.468 181.212 14.984 181.212 13.878V13.15ZM181.436 13.15H182.346V13.878C182.346 15.208 183.27 16.524 184.894 17.07L184.292 17.938C182.458 17.266 181.436 15.642 181.436 13.878V13.15ZM179.518 8.6H182.864V9.566H179.518V8.6ZM176.746 6.15C178.608 6.15 179.994 7.368 179.994 9.118C179.994 10.854 178.608 12.072 176.746 12.072C174.884 12.072 173.512 10.854 173.512 9.118C173.512 7.368 174.884 6.15 176.746 6.15ZM176.746 7.116C175.514 7.116 174.618 7.956 174.618 9.118C174.618 10.28 175.514 11.106 176.746 11.106C177.964 11.106 178.874 10.28 178.874 9.118C178.874 7.956 177.964 7.116 176.746 7.116ZM182.542 5.436H183.704V12.646H182.542V5.436ZM187.622 13.024H188.77V14.494H194.958V13.024H196.12V17.924H187.622V13.024ZM188.77 15.39V16.986H194.958V15.39H188.77ZM186.166 11.204H197.604V12.142H186.166V11.204ZM191.304 5.576H192.298V6.136C192.298 8.334 189.848 9.916 187.244 10.308L186.824 9.398C189.106 9.09 191.304 7.732 191.304 6.136V5.576ZM191.486 5.576H192.48V6.136C192.48 7.704 194.706 9.09 196.96 9.398L196.526 10.308C193.95 9.916 191.486 8.306 191.486 6.136V5.576ZM208.257 5.436H209.419V18.092H208.257V5.436ZM199.857 6.668H201.005V14.508H199.857V6.668ZM199.857 13.822H200.893C202.811 13.822 204.813 13.682 206.955 13.234L207.095 14.228C204.897 14.676 202.895 14.83 200.893 14.83H199.857V13.822ZM220.492 5.422H221.668V18.106H220.492V5.422ZM221.388 10.42H223.74V11.4H221.388V10.42ZM212.47 13.976H213.464C215.802 13.976 217.44 13.892 219.33 13.542L219.456 14.522C217.51 14.886 215.844 14.956 213.464 14.956H212.47V13.976ZM212.47 6.654H218.35V7.606H213.618V14.41H212.47V6.654ZM226.046 17.0795C225.801 17.0795 225.59 16.9917 225.415 16.8161C225.239 16.6404 225.151 16.4299 225.151 16.1847C225.151 15.9394 225.239 15.7289 225.415 15.5533C225.59 15.3776 225.801 15.2898 226.046 15.2898C226.291 15.2898 226.502 15.3776 226.678 15.5533C226.853 15.7289 226.941 15.9394 226.941 16.1847C226.941 16.3471 226.9 16.4962 226.817 16.6321C226.737 16.768 226.629 16.8774 226.494 16.9602C226.361 17.0398 226.212 17.0795 226.046 17.0795Z" fill="#CACACA"/>
<mask id="mask0_11943_23547" style="mask-type:alpha" maskUnits="userSpaceOnUse" x="0" y="0" width="24" height="24">
<rect width="24" height="24" fill="#D9D9D9"/>
</mask>
<g mask="url(#mask0_11943_23547)">
<path d="M12 16.7308C12.2288 16.7308 12.4207 16.6533 12.5755 16.4985C12.7303 16.3437 12.8077 16.1518 12.8077 15.923C12.8077 15.6942 12.7303 15.5023 12.5755 15.3475C12.4207 15.1928 12.2288 15.1155 12 15.1155C11.7712 15.1155 11.5793 15.1928 11.4245 15.3475C11.2697 15.5023 11.1923 15.6942 11.1923 15.923C11.1923 16.1518 11.2697 16.3437 11.4245 16.4985C11.5793 16.6533 11.7712 16.7308 12 16.7308ZM12.0003 13.077C12.2129 13.077 12.391 13.0051 12.5345 12.8613C12.6782 12.7176 12.75 12.5395 12.75 12.327V7.827C12.75 7.6145 12.6781 7.43633 12.5343 7.2925C12.3904 7.14883 12.2122 7.077 11.9998 7.077C11.7871 7.077 11.609 7.14883 11.4655 7.2925C11.3218 7.43633 11.25 7.6145 11.25 7.827V12.327C11.25 12.5395 11.3219 12.7176 11.4658 12.8613C11.6096 13.0051 11.7878 13.077 12.0003 13.077ZM12.0017 21.5C10.6877 21.5 9.45267 21.2507 8.2965 20.752C7.14033 20.2533 6.13467 19.5766 5.2795 18.7218C4.42433 17.8669 3.74725 16.8617 3.24825 15.706C2.74942 14.5503 2.5 13.3156 2.5 12.0017C2.5 10.6877 2.74933 9.45267 3.248 8.2965C3.74667 7.14033 4.42342 6.13467 5.27825 5.2795C6.13308 4.42433 7.13833 3.74725 8.294 3.24825C9.44967 2.74942 10.6844 2.5 11.9983 2.5C13.3123 2.5 14.5473 2.74933 15.7035 3.248C16.8597 3.74667 17.8653 4.42342 18.7205 5.27825C19.5757 6.13308 20.2528 7.13833 20.7518 8.294C21.2506 9.44967 21.5 10.6844 21.5 11.9983C21.5 13.3123 21.2507 14.5473 20.752 15.7035C20.2533 16.8597 19.5766 17.8653 18.7218 18.7205C17.8669 19.5757 16.8617 20.2528 15.706 20.7518C14.5503 21.2506 13.3156 21.5 12.0017 21.5ZM12 20C14.2333 20 16.125 19.225 17.675 17.675C19.225 16.125 20 14.2333 20 12C20 9.76667 19.225 7.875 17.675 6.325C16.125 4.775 14.2333 4 12 4C9.76667 4 7.875 4.775 6.325 6.325C4.775 7.875 4 9.76667 4 12C4 14.2333 4.775 16.125 6.325 17.675C7.875 19.225 9.76667 20 12 20Z" fill="#CACACA"/>
</g>
</svg>
