<svg width="117" height="121" viewBox="0 0 117 121" fill="none" xmlns="http://www.w3.org/2000/svg">
<path d="M58.7748 18.9032L57.1884 19.6892L54.5833 10.6073C53.839 8.0389 50.9471 4.74419 48.2586 3.42386L46.8057 2.7038C46.0689 2.33783 44.77 2.33783 44.0331 2.7038L39.6064 4.8752C39.1853 5.08508 38.6519 4.95902 38.406 4.59899C38.1674 4.2449 38.3076 3.7829 38.7291 3.57896L43.1553 1.40162C44.426 0.777586 46.4124 0.777586 47.6758 1.40162L49.1356 2.12168C52.2244 3.64595 55.4321 7.28882 56.2886 10.2473L58.7748 18.9032Z" fill="#263238"/>
<path d="M6.67226 23.3833L3.81934 19.1586L39.3638 1.60557L39.3634 1.60491C39.7332 1.35378 40.2925 1.36005 40.9116 1.66596C42.0264 2.2164 42.9292 3.55356 42.9292 4.65312C42.9296 5.26428 42.6563 5.68173 42.2171 5.8299L6.67226 23.3833Z" fill="#CE86FD"/>
<path opacity="0.1" d="M4.99475 20.8991L42.072 2.6029C41.7995 2.27851 41.4775 1.99438 41.1282 1.78516L4.34473 19.9365L4.99475 20.8991Z" fill="white"/>
<path d="M3.81978 19.1591C4.57016 18.7889 5.81694 19.4343 6.60476 20.6009C7.39259 21.7674 7.42309 23.0135 6.67309 23.3838C5.9227 23.754 4.67592 23.1086 3.8881 21.942C3.09988 20.7755 3.06939 19.5294 3.81978 19.1591Z" fill="#CE86FD"/>
<path opacity="0.3" d="M3.81978 19.1591C4.57016 18.7889 5.81694 19.4343 6.60476 20.6009C7.39259 21.7674 7.42309 23.0135 6.67309 23.3838C5.9227 23.754 4.67592 23.1086 3.8881 21.942C3.09988 20.7755 3.06939 19.5294 3.81978 19.1591Z" fill="black"/>
<path d="M13.2701 41.6417L11.6837 42.4222L9.07856 33.3402C8.33435 30.7715 5.43549 27.4831 2.75395 26.1627L1.29371 25.4367C0.535606 25.0648 0.100586 24.5005 0.100586 23.8884C0.100586 23.2762 0.535606 22.7123 1.29371 22.34L4.45621 20.7979C4.68781 20.6837 5.07381 20.8817 5.31274 21.2421C5.55824 21.6021 5.56519 21.9863 5.33359 22.1004H5.32664L2.17147 23.6429C1.91903 23.763 1.86267 23.8709 1.85573 23.8887C1.86267 23.9128 1.91903 24.0148 2.17147 24.1408L3.63171 24.8609C6.7201 26.3852 9.9212 30.0277 10.7773 32.9802L13.2701 41.6417Z" fill="#263238"/>
<path d="M61.0296 112.578C61.0516 112.589 61.074 112.596 61.1006 112.604C58.6932 115.276 54.7648 116.042 53.8824 115.689C53.173 115.409 52.7519 114.685 53.2926 114.253C53.5408 114.056 53.9708 113.851 54.3746 113.563C55.5538 112.725 55.9441 111.266 56.0548 110.129L61.0296 112.578Z" fill="#E0E0E0"/>
<g opacity="0.2">
<path d="M61.0296 112.578C61.0516 112.589 61.074 112.596 61.1006 112.604C58.6932 115.276 54.7648 116.042 53.8824 115.689C53.173 115.409 52.7519 114.685 53.2926 114.253C53.5408 114.056 53.9708 113.851 54.3746 113.563C55.5538 112.725 55.9441 111.266 56.0548 110.129L61.0296 112.578Z" fill="black"/>
</g>
<path d="M58.5518 116.705C58.568 114.553 56.8198 111.926 54.6478 110.838C53.5076 110.267 52.482 110.239 51.7578 110.647L49.0859 111.933L54.6864 120.188L57.3348 118.904L57.3313 118.899C58.074 118.56 58.5433 117.803 58.5518 116.705Z" fill="#37474F"/>
<path d="M51.8745 112.185C54.0469 113.273 55.7943 115.9 55.7781 118.052C55.7623 120.204 53.9886 121.067 51.8162 119.979C49.6442 118.891 47.8964 116.265 47.9122 114.113C47.9284 111.96 49.7025 111.097 51.8745 112.185Z" fill="#455A64"/>
<path d="M50.5147 115.414C50.5209 114.573 51.1223 114.19 51.8576 114.558C52.5929 114.926 53.1839 115.907 53.1773 116.748C53.1708 117.589 52.5698 117.973 51.8348 117.605C51.0991 117.236 50.5081 116.255 50.5147 115.414Z" fill="#263238"/>
<path d="M54.196 109.215C54.196 109.215 54.455 113.188 52.3262 114.705C51.9252 114.991 51.4921 115.196 51.2427 115.396C50.7023 115.826 51.1269 116.55 51.8364 116.832C52.8682 117.243 58.1564 116.08 60.2172 112.178L54.196 109.215Z" fill="#F5F5F5"/>
<path d="M51.9394 115.655C52.1629 115.751 52.3555 116.003 52.3698 116.216C52.3837 116.43 52.2143 116.525 51.9908 116.429C51.7673 116.333 51.5746 116.081 51.5604 115.868C51.5465 115.653 51.7159 115.558 51.9394 115.655Z" fill="#263238"/>
<path d="M34.0023 101.359C34.0243 101.37 34.0675 101.39 34.0675 101.39C31.6596 104.062 27.7371 104.823 26.8551 104.471C26.1456 104.19 25.7245 103.466 26.2653 103.034C26.5135 102.837 26.9439 102.633 27.3472 102.344C28.5265 101.507 28.9167 100.047 29.0275 98.9102L34.0023 101.359Z" fill="#E0E0E0"/>
<g opacity="0.2">
<path d="M34.0023 101.359C34.0243 101.37 34.0675 101.39 34.0675 101.39C31.6596 104.062 27.7371 104.823 26.8551 104.471C26.1456 104.19 25.7245 103.466 26.2653 103.034C26.5135 102.837 26.9439 102.633 27.3472 102.344C28.5265 101.507 28.9167 100.047 29.0275 98.9102L34.0023 101.359Z" fill="black"/>
</g>
<path d="M31.526 105.486C31.5423 103.334 29.7941 100.708 27.622 99.6197C26.4822 99.0485 25.4562 99.0204 24.7324 99.429L22.0605 100.714L27.661 108.969L30.3098 107.686L30.3063 107.68C31.0482 107.341 31.5175 106.585 31.526 105.486Z" fill="#37474F"/>
<path d="M24.8478 100.967C27.0198 102.055 28.7676 104.682 28.7514 106.833C28.7356 108.985 26.9619 109.848 24.7895 108.76C22.6175 107.672 20.8696 105.046 20.8859 102.893C20.9017 100.741 22.6757 99.8787 24.8478 100.967Z" fill="#455A64"/>
<path d="M23.4874 104.196C23.4935 103.355 24.0945 102.971 24.8303 103.339C25.5656 103.707 26.1562 104.688 26.15 105.529C26.1438 106.371 25.5424 106.754 24.8075 106.386C24.0718 106.018 23.4808 105.037 23.4874 104.196Z" fill="#263238"/>
<path d="M27.1685 97.9961C27.1685 97.9961 27.4275 101.969 25.2987 103.486C24.8977 103.772 24.465 103.978 24.2152 104.177C23.6752 104.608 24.0994 105.331 24.8089 105.613C25.8407 106.024 31.1289 104.861 33.1897 100.959L27.1685 97.9961Z" fill="#F5F5F5"/>
<path d="M24.9131 104.436C25.1365 104.533 25.3292 104.784 25.3434 104.998C25.3577 105.211 25.1879 105.307 24.9644 105.21C24.7409 105.114 24.5483 104.862 24.534 104.648C24.5201 104.435 24.6896 104.34 24.9131 104.436Z" fill="#263238"/>
<path d="M99.6693 93.6232C97.2571 96.288 93.3381 97.0536 92.4557 96.7011C91.7462 96.4206 91.3251 95.6966 91.8659 95.2646C92.1141 95.0676 92.5445 94.8627 92.9478 94.5746C94.1271 93.7371 94.5173 92.2775 94.6281 91.1406L99.3056 93.4414L99.6029 93.5892L99.6693 93.6232Z" fill="#E0E0E0"/>
<g opacity="0.2">
<path d="M99.6693 93.6232C97.2571 96.288 93.3381 97.0536 92.4557 96.7011C91.7462 96.4206 91.3251 95.6966 91.8659 95.2646C92.1141 95.0676 92.5445 94.8627 92.9478 94.5746C94.1271 93.7371 94.5173 92.2775 94.6281 91.1406L99.3056 93.4414L99.6029 93.5892L99.6693 93.6232Z" fill="black"/>
</g>
<path d="M97.1241 97.7167C97.1403 95.5648 95.3921 92.9376 93.2201 91.85C92.0802 91.2791 91.0542 91.251 90.3301 91.6592L87.6582 92.9442L93.2587 101.2L95.907 99.9161L95.9035 99.9105C96.6466 99.5713 97.116 98.8149 97.1241 97.7167Z" fill="#37474F"/>
<path d="M90.4458 93.197C92.6178 94.285 94.3656 96.9118 94.3494 99.0637C94.3336 101.216 92.5595 102.079 90.3875 100.991C88.2155 99.9026 86.4677 97.2761 86.4835 95.1238C86.5001 92.9719 88.2738 92.1093 90.4458 93.197Z" fill="#455A64"/>
<path d="M89.086 96.426C89.0922 95.5848 89.6932 95.2014 90.4289 95.5697C91.1642 95.9379 91.7552 96.9187 91.749 97.7599C91.7428 98.601 91.1414 98.9848 90.4065 98.6162C89.6708 98.2479 89.0798 97.2675 89.086 96.426Z" fill="#263238"/>
<path d="M92.7673 90.2266C92.7673 90.2266 93.0263 94.1994 90.8975 95.7168C90.4965 96.0029 90.0638 96.2081 89.814 96.4075C89.2736 96.8381 89.6982 97.5615 90.4077 97.844C91.4395 98.2545 96.728 97.0916 98.7885 93.19L92.7673 90.2266Z" fill="#F5F5F5"/>
<path d="M90.5111 96.6665C90.7346 96.7629 90.9272 97.0144 90.9411 97.2282C90.9554 97.4417 90.7855 97.5371 90.562 97.4404C90.3385 97.344 90.1459 97.0926 90.1317 96.8791C90.1178 96.6652 90.2876 96.5702 90.5111 96.6665Z" fill="#263238"/>
<path d="M76.3939 80.4372C76.4159 80.4484 76.4591 80.4682 76.4591 80.4682C74.0516 83.1406 70.1291 83.9015 69.2467 83.5491C68.5372 83.2686 68.1161 82.5446 68.6569 82.1126C68.9055 81.9156 69.3355 81.7107 69.7389 81.4226C70.9181 80.585 71.3083 79.1255 71.4191 77.9883L76.3939 80.4372Z" fill="#E0E0E0"/>
<g opacity="0.2">
<path d="M76.3939 80.4372C76.4159 80.4484 76.4591 80.4682 76.4591 80.4682C74.0516 83.1406 70.1291 83.9015 69.2467 83.5491C68.5372 83.2686 68.1161 82.5446 68.6569 82.1126C68.9055 81.9156 69.3355 81.7107 69.7389 81.4226C70.9181 80.585 71.3083 79.1255 71.4191 77.9883L76.3939 80.4372Z" fill="black"/>
</g>
<path d="M73.9161 84.5645C73.9323 82.4125 72.1845 79.7857 70.0121 78.6977C68.8718 78.1265 67.8462 78.0988 67.1221 78.507L64.4502 79.792L70.0507 88.0476L72.699 86.7639L72.6955 86.758C73.4382 86.4194 73.908 85.6627 73.9161 84.5645Z" fill="#37474F"/>
<path d="M67.2388 80.0448C69.4108 81.1328 71.1586 83.7596 71.1424 85.9116C71.1266 88.0638 69.3525 88.9264 67.1805 87.8384C65.0084 86.7504 63.2606 84.1236 63.2765 81.9714C63.2927 79.8194 65.0667 78.9568 67.2388 80.0448Z" fill="#455A64"/>
<path d="M65.879 83.2737C65.8851 82.4325 66.4865 82.049 67.2219 82.4173C67.9572 82.7856 68.5482 83.7664 68.5416 84.6075C68.5354 85.4487 67.934 85.8322 67.1991 85.4639C66.4634 85.0956 65.8724 84.1148 65.879 83.2737Z" fill="#263238"/>
<path d="M69.5597 77.0742C69.5597 77.0742 69.8187 81.0471 67.6895 82.5644C67.2884 82.8502 66.8558 83.0558 66.606 83.2551C66.0656 83.6858 66.4902 84.4091 67.1997 84.6916C68.2315 85.1021 73.5197 83.9392 75.5805 80.0376L69.5597 77.0742Z" fill="#F5F5F5"/>
<path d="M67.3037 83.5142C67.5272 83.6106 67.7198 83.862 67.7341 84.0759C67.7484 84.2897 67.5785 84.3847 67.3551 84.2881C67.1316 84.1917 66.939 83.9402 66.9247 83.7264C66.9104 83.5129 67.0798 83.4178 67.3037 83.5142Z" fill="#263238"/>
<path d="M74.614 117.608C72.9005 117.608 71.2064 117.332 69.8449 116.769L22.587 97.2601C17.7627 95.2686 14.5088 91.1947 14.0953 86.6279L9.37109 34.4601L11.5068 34.3189L16.2311 86.4866C16.5862 90.4057 19.3785 93.9017 23.5188 95.6111L70.7767 115.12C73.1132 116.085 76.9871 115.963 79.2355 114.854L105.477 101.9C106.38 101.454 106.894 100.878 106.921 100.279C106.948 99.679 106.49 99.0705 105.629 98.5653L65.8124 75.1709C62.0323 72.95 59.6615 69.4339 59.3071 65.5247L54.4922 12.3561L56.6279 12.2148L61.4425 65.3835C61.7463 68.7382 63.7813 71.7558 67.0252 73.6615L106.842 97.0559C108.309 97.9175 109.117 99.118 109.061 100.351C109.004 101.582 108.088 102.726 106.547 103.486L80.3059 116.439C78.7395 117.213 76.6629 117.608 74.614 117.608Z" fill="#455A64"/>
<path d="M109.571 80.7949L60.738 52.1037C60.1382 51.7526 59.2242 51.5391 58.2958 51.5391C57.5034 51.5391 56.7677 51.6856 56.2288 51.9542L13.7329 72.9293C13.4152 73.0851 13.2689 73.2253 13.2188 73.2956C13.2759 73.3597 13.433 73.491 13.7615 73.6253L72.5948 97.912C73.1804 98.1532 73.9763 98.2875 74.8406 98.2875C75.8723 98.2875 76.8933 98.0892 77.568 97.7565L109.518 81.9855C109.882 81.8053 110.121 81.5796 110.128 81.4087C110.139 81.2374 109.918 80.9965 109.571 80.7949ZM93.6484 87.6503L87.7646 90.5559C86.9112 90.977 85.5189 90.9892 84.655 90.5863L69.7708 83.6088C69.6886 83.5692 69.6137 83.5293 69.5458 83.4837C69.6064 83.4408 69.6778 83.4012 69.7527 83.3646L76.4077 80.0775C77.2608 79.6564 78.6392 79.6653 79.4853 80.0989L93.6627 87.3573C93.7519 87.4031 93.8306 87.4487 93.8981 87.5008C93.8267 87.5556 93.7411 87.6044 93.6484 87.6503ZM82.4274 93.19L76.5328 96.0986C75.6793 96.5197 74.2727 96.5596 73.3873 96.1871L57.6462 89.5544C57.5713 89.524 57.5034 89.4874 57.4393 89.4505C57.4856 89.4201 57.5393 89.3924 57.5929 89.365L64.2229 86.093C65.0759 85.672 66.4721 85.6535 67.3433 86.0501L82.4023 92.9574C82.4845 92.994 82.5559 93.0336 82.6235 93.0765C82.5629 93.1167 82.4988 93.1534 82.4274 93.19ZM19.7059 73.3996L27.8207 69.395C28.6742 68.9706 30.07 68.9525 30.9412 69.3521L43.7224 75.2156C43.8046 75.2522 43.876 75.2918 43.944 75.3347C43.8834 75.3743 43.8189 75.4109 43.7475 75.4476L36.2822 79.1347C35.4288 79.5557 34.0187 79.5957 33.1333 79.2231L19.763 73.5857C19.6881 73.5553 19.6167 73.5187 19.5522 73.4821C19.5989 73.4544 19.6526 73.427 19.7059 73.3996ZM33.7262 66.4798L41.9271 62.4327C42.7802 62.0116 44.1586 62.0205 45.0047 62.4541L57.029 68.6073C57.1181 68.6532 57.1969 68.6987 57.2648 68.7538C57.1934 68.8086 57.1077 68.8575 57.0147 68.9033L49.4888 72.6148C48.6354 73.0359 47.2396 73.0514 46.3758 72.6452L33.7443 66.7237C33.6621 66.6841 33.5872 66.6445 33.5196 66.5986C33.5799 66.5564 33.6513 66.5168 33.7262 66.4798ZM74.2515 77.7246L67.5004 81.0576C66.6469 81.4786 65.2546 81.4942 64.3908 81.0879L51.7593 75.1667C51.6771 75.1271 51.6022 75.0872 51.5343 75.0417C51.5949 74.9991 51.6628 74.9592 51.7377 74.9225L59.167 71.2569C60.0205 70.8358 61.3985 70.8447 62.2446 71.275L74.2654 77.4282C74.3546 77.4741 74.4333 77.5196 74.5009 77.5747C74.4299 77.6299 74.3442 77.6787 74.2515 77.7246ZM86.59 71.6351L79.8103 74.9833C78.9569 75.4043 77.5823 75.3891 76.7401 74.9496L64.8729 68.7354C64.7837 68.6895 64.7015 68.6377 64.6336 68.5859C64.7084 68.5278 64.7976 68.476 64.8976 68.4271L72.3806 64.7341C73.234 64.313 74.5904 64.3526 75.408 64.8196L86.6541 71.2721C86.7471 71.3239 86.8255 71.382 86.8969 71.443C86.8116 71.5133 86.7081 71.5773 86.59 71.6351ZM70.3494 62.3169L62.7665 66.062C61.913 66.4831 60.5385 66.4679 59.6958 66.0284L47.8287 59.8171C47.736 59.7683 47.6573 59.7194 47.5859 59.6676C47.6642 59.6095 47.7538 59.5548 47.8538 59.5059L56.1439 55.4159C56.9973 54.9948 58.3537 55.0344 59.1713 55.5043L70.4139 61.9568C70.5065 62.0086 70.5853 62.0638 70.6567 62.1248C70.5706 62.1948 70.4672 62.2588 70.3494 62.3169ZM38.6496 81.3839L46.0257 77.7427C46.8787 77.3216 48.2749 77.3032 49.1422 77.6998L61.9269 83.5633C62.0091 83.5999 62.0806 83.6395 62.1485 83.6854C62.0879 83.725 62.0234 83.7616 61.952 83.7952L55.2186 87.119C54.3652 87.5401 52.9551 87.58 52.0696 87.2074L38.7029 81.5704C38.628 81.54 38.56 81.5064 38.496 81.4668C38.5423 81.439 38.5959 81.4117 38.6496 81.3839ZM81.6739 77.5078C81.7488 77.4497 81.838 77.3979 81.9379 77.349L88.6177 74.0527C89.4746 73.6316 90.8275 73.6682 91.6489 74.1381L104.923 81.7565C105.016 81.8083 105.094 81.8664 105.166 81.9274C105.08 81.9977 104.977 82.0617 104.859 82.1198L98.9822 85.0195C98.1287 85.4406 96.758 85.4254 95.9154 84.9859L81.9167 77.6576C81.8241 77.6084 81.7453 77.5596 81.6739 77.5078Z" fill="#CE86FD"/>
<g opacity="0.7">
<path d="M109.571 80.7949L60.738 52.1037C60.1382 51.7526 59.2242 51.5391 58.2958 51.5391C57.5034 51.5391 56.7677 51.6856 56.2288 51.9542L13.7329 72.9293C13.4152 73.0851 13.2689 73.2253 13.2188 73.2956C13.2759 73.3597 13.433 73.491 13.7615 73.6253L72.5948 97.912C73.1804 98.1532 73.9763 98.2875 74.8406 98.2875C75.8723 98.2875 76.8933 98.0892 77.568 97.7565L109.518 81.9855C109.882 81.8053 110.121 81.5796 110.128 81.4087C110.139 81.2374 109.918 80.9965 109.571 80.7949ZM93.6484 87.6503L87.7646 90.5559C86.9112 90.977 85.5189 90.9892 84.655 90.5863L69.7708 83.6088C69.6886 83.5692 69.6137 83.5293 69.5458 83.4837C69.6064 83.4408 69.6778 83.4012 69.7527 83.3646L76.4077 80.0775C77.2608 79.6564 78.6392 79.6653 79.4853 80.0989L93.6627 87.3573C93.7519 87.4031 93.8306 87.4487 93.8981 87.5008C93.8267 87.5556 93.7411 87.6044 93.6484 87.6503ZM82.4274 93.19L76.5328 96.0986C75.6793 96.5197 74.2727 96.5596 73.3873 96.1871L57.6462 89.5544C57.5713 89.524 57.5034 89.4874 57.4393 89.4505C57.4856 89.4201 57.5393 89.3924 57.5929 89.365L64.2229 86.093C65.0759 85.672 66.4721 85.6535 67.3433 86.0501L82.4023 92.9574C82.4845 92.994 82.5559 93.0336 82.6235 93.0765C82.5629 93.1167 82.4988 93.1534 82.4274 93.19ZM19.7059 73.3996L27.8207 69.395C28.6742 68.9706 30.07 68.9525 30.9412 69.3521L43.7224 75.2156C43.8046 75.2522 43.876 75.2918 43.944 75.3347C43.8834 75.3743 43.8189 75.4109 43.7475 75.4476L36.2822 79.1347C35.4288 79.5557 34.0187 79.5957 33.1333 79.2231L19.763 73.5857C19.6881 73.5553 19.6167 73.5187 19.5522 73.4821C19.5989 73.4544 19.6526 73.427 19.7059 73.3996ZM33.7262 66.4798L41.9271 62.4327C42.7802 62.0116 44.1586 62.0205 45.0047 62.4541L57.029 68.6073C57.1181 68.6532 57.1969 68.6987 57.2648 68.7538C57.1934 68.8086 57.1077 68.8575 57.0147 68.9033L49.4888 72.6148C48.6354 73.0359 47.2396 73.0514 46.3758 72.6452L33.7443 66.7237C33.6621 66.6841 33.5872 66.6445 33.5196 66.5986C33.5799 66.5564 33.6513 66.5168 33.7262 66.4798ZM74.2515 77.7246L67.5004 81.0576C66.6469 81.4786 65.2546 81.4942 64.3908 81.0879L51.7593 75.1667C51.6771 75.1271 51.6022 75.0872 51.5343 75.0417C51.5949 74.9991 51.6628 74.9592 51.7377 74.9225L59.167 71.2569C60.0205 70.8358 61.3985 70.8447 62.2446 71.275L74.2654 77.4282C74.3546 77.4741 74.4333 77.5196 74.5009 77.5747C74.4299 77.6299 74.3442 77.6787 74.2515 77.7246ZM86.59 71.6351L79.8103 74.9833C78.9569 75.4043 77.5823 75.3891 76.7401 74.9496L64.8729 68.7354C64.7837 68.6895 64.7015 68.6377 64.6336 68.5859C64.7084 68.5278 64.7976 68.476 64.8976 68.4271L72.3806 64.7341C73.234 64.313 74.5904 64.3526 75.408 64.8196L86.6541 71.2721C86.7471 71.3239 86.8255 71.382 86.8969 71.443C86.8116 71.5133 86.7081 71.5773 86.59 71.6351ZM70.3494 62.3169L62.7665 66.062C61.913 66.4831 60.5385 66.4679 59.6958 66.0284L47.8287 59.8171C47.736 59.7683 47.6573 59.7194 47.5859 59.6676C47.6642 59.6095 47.7538 59.5548 47.8538 59.5059L56.1439 55.4159C56.9973 54.9948 58.3537 55.0344 59.1713 55.5043L70.4139 61.9568C70.5065 62.0086 70.5853 62.0638 70.6567 62.1248C70.5706 62.1948 70.4672 62.2588 70.3494 62.3169ZM38.6496 81.3839L46.0257 77.7427C46.8787 77.3216 48.2749 77.3032 49.1422 77.6998L61.9269 83.5633C62.0091 83.5999 62.0806 83.6395 62.1485 83.6854C62.0879 83.725 62.0234 83.7616 61.952 83.7952L55.2186 87.119C54.3652 87.5401 52.9551 87.58 52.0696 87.2074L38.7029 81.5704C38.628 81.54 38.56 81.5064 38.496 81.4668C38.5423 81.439 38.5959 81.4117 38.6496 81.3839ZM81.6739 77.5078C81.7488 77.4497 81.838 77.3979 81.9379 77.349L88.6177 74.0527C89.4746 73.6316 90.8275 73.6682 91.6489 74.1381L104.923 81.7565C105.016 81.8083 105.094 81.8664 105.166 81.9274C105.08 81.9977 104.977 82.0617 104.859 82.1198L98.9822 85.0195C98.1287 85.4406 96.758 85.4254 95.9154 84.9859L81.9167 77.6576C81.8241 77.6084 81.7453 77.5596 81.6739 77.5078Z" fill="white"/>
</g>
<path d="M61.9269 82.3105L49.1422 76.4471C48.2744 76.0501 46.8787 76.0686 46.0256 76.4897L38.6495 80.1309C37.8675 80.5153 37.8246 81.0862 38.4959 81.4647C38.5422 81.4374 38.5959 81.4096 38.6495 81.3822L46.0256 77.741C46.8787 77.3199 48.2748 77.3015 49.1422 77.6981L61.9269 83.5616C62.0091 83.5982 62.0805 83.6378 62.1484 83.6837C62.8015 83.2629 62.7228 82.6739 61.9269 82.3105ZM104.923 80.5038L91.6485 72.8854C90.8274 72.4184 89.4741 72.3789 88.6172 72.7999L81.9375 76.0963C81.1771 76.4718 81.0844 77.0668 81.6735 77.5064C81.7484 77.4483 81.8375 77.3965 81.9375 77.3477L88.6172 74.0513C89.4741 73.6302 90.8271 73.6668 91.6485 74.1368L104.923 81.7551C105.016 81.807 105.094 81.865 105.165 81.9261C105.705 81.5017 105.626 80.9097 104.923 80.5038ZM43.7223 73.9629L30.9411 68.0994C30.0699 67.6995 28.6741 67.7209 27.8207 68.142L19.7058 72.1465C18.9276 72.531 18.8813 73.1019 19.5522 73.4804C19.5985 73.453 19.6521 73.4253 19.7058 73.3979L27.8207 69.3933C28.6741 68.969 30.0699 68.9508 30.9411 69.3504L43.7223 75.2139C43.8045 75.2505 43.876 75.2901 43.9439 75.333C44.5935 74.9149 44.5183 74.3259 43.7223 73.9629ZM82.4018 91.7053L67.3428 84.801C66.4716 84.4011 65.0759 84.4196 64.2224 84.8406L57.5925 88.1126C56.8104 88.5003 56.7641 89.0709 57.4388 89.4494C57.4852 89.4191 57.5388 89.3913 57.5925 89.364L64.2224 86.092C65.0755 85.6709 66.4716 85.6524 67.3428 86.0491L82.4018 92.9563C82.4841 92.993 82.5555 93.0326 82.623 93.0755C83.273 92.6577 83.1982 92.0686 82.4018 91.7053ZM93.6622 86.1045L79.4848 78.8462C78.6387 78.4159 77.2607 78.4037 76.4073 78.828L69.7522 82.1122C68.981 82.4937 68.9131 83.0798 69.5453 83.4827C69.6059 83.4398 69.6774 83.4002 69.7522 83.3636L76.4073 80.0764C77.2603 79.6554 78.6387 79.6643 79.4848 80.0979L93.6622 87.3562C93.7514 87.4021 93.8301 87.4476 93.8977 87.4998C94.4941 87.0784 94.4157 86.486 93.6622 86.1045ZM57.0285 67.3546L45.0042 61.2014C44.1581 60.7681 42.7801 60.7589 41.9267 61.18L33.7257 65.2271C32.9545 65.6086 32.8865 66.1917 33.5188 66.5976C33.5794 66.5547 33.6508 66.5151 33.7257 66.4785L41.9267 62.4313C42.7797 62.0103 44.1581 62.0192 45.0042 62.4528L57.0285 68.606C57.1177 68.6518 57.1964 68.6974 57.2644 68.7525C57.8604 68.3314 57.7816 67.7391 57.0285 67.3546ZM70.4131 60.7038L59.1704 54.2513C58.3529 53.7814 56.9961 53.7414 56.143 54.1629L47.8529 58.2558C47.089 58.6314 46.996 59.2264 47.585 59.6659C47.6634 59.6079 47.7529 59.5531 47.8529 59.5042L56.143 55.4142C56.9965 54.9931 58.3529 55.0327 59.1704 55.5027L70.4131 61.9551C70.5057 62.007 70.5845 62.0621 70.6559 62.1231C71.1986 61.6987 71.1198 61.1067 70.4131 60.7038ZM74.2654 76.1755L62.2445 70.0253C61.3984 69.592 60.0204 69.5828 59.167 70.0038L51.7376 73.6695C50.9664 74.051 50.9023 74.637 51.5342 75.04C51.5948 74.9974 51.6627 74.9575 51.7376 74.9208L59.167 71.2552C60.0204 70.8341 61.3984 70.843 62.2445 71.2734L74.2654 77.4265C74.3545 77.4724 74.4333 77.5179 74.5008 77.5731C75.0972 77.1553 75.0188 76.5632 74.2654 76.1755ZM86.654 70.0223L75.4079 63.5698C74.5904 63.0999 73.2336 63.06 72.3805 63.4814L64.8975 67.1748C64.1336 67.5503 64.0406 68.1486 64.6335 68.5848C64.7084 68.5268 64.7976 68.4749 64.8975 68.4261L72.3805 64.7331C73.234 64.312 74.5904 64.3516 75.4079 64.8186L86.654 71.271C86.747 71.3228 86.8254 71.3809 86.8968 71.442C87.4357 71.0173 87.3573 70.4252 86.654 70.0223Z" fill="#CE86FD"/>
<path opacity="0.3" d="M43.9439 75.333C44.5935 74.9149 44.5187 74.3259 43.7223 73.9625L30.9411 68.0991C30.0699 67.6991 28.6741 67.7206 27.8207 68.1417L19.7058 72.1462C18.9276 72.5307 18.8813 73.1016 19.5522 73.4801C19.5985 73.4527 19.6521 73.425 19.7058 73.3976L27.8207 69.393C28.6741 68.9686 30.0699 68.9505 30.9411 69.3501L43.7223 75.2136C43.8049 75.2508 43.8763 75.2904 43.9439 75.333ZM33.5192 66.5976C33.5798 66.5547 33.6512 66.5151 33.7261 66.4785L41.9271 62.4313C42.7801 62.0103 44.1585 62.0192 45.0046 62.4528L57.0289 68.606C57.1181 68.6518 57.1968 68.6974 57.2648 68.7525C57.8607 68.3314 57.7824 67.7391 57.0289 67.3546L45.0046 61.2014C44.1585 60.7681 42.7805 60.7589 41.9271 61.18L33.7261 65.2271C32.9549 65.6086 32.8869 66.1917 33.5192 66.5976ZM64.6331 68.5845C64.708 68.5264 64.7976 68.4746 64.8975 68.4258L72.3805 64.7324C73.234 64.3113 74.5904 64.3509 75.4083 64.8179L86.6544 71.2704C86.7471 71.3222 86.8258 71.3803 86.8972 71.4413C87.4361 71.0169 87.3577 70.4249 86.6544 70.022L75.4083 63.5695C74.5908 63.0996 73.234 63.0597 72.3805 63.4811L64.8975 67.1744C64.1336 67.55 64.0406 68.1483 64.6331 68.5845ZM62.2449 70.0253C61.3988 69.592 60.0208 69.5828 59.1674 70.0038L51.738 73.6695C50.9668 74.051 50.9027 74.637 51.5346 75.04C51.5952 74.9974 51.6631 74.9575 51.738 74.9208L59.1674 71.2552C60.0208 70.8341 61.3988 70.843 62.2449 71.2734L74.2657 77.4265C74.3549 77.4724 74.4337 77.5179 74.5012 77.5731C75.0976 77.1549 75.0188 76.5629 74.2657 76.1752L62.2449 70.0253ZM47.8533 59.5042L56.1434 55.4142C56.9969 54.9931 58.3533 55.0327 59.1708 55.5027L70.4135 61.9551C70.5061 62.007 70.5849 62.0621 70.6563 62.1231C71.199 61.6987 71.1202 61.1067 70.4135 60.7038L59.1708 54.2513C58.3533 53.7814 56.9965 53.7414 56.1434 54.1629L47.8533 58.2558C47.0894 58.6314 46.9964 59.2264 47.5854 59.6659C47.6642 59.6082 47.7533 59.5531 47.8533 59.5042ZM93.6626 86.1045L79.4852 78.8462C78.6391 78.4159 77.2611 78.4037 76.4077 78.8277L69.753 82.1119C68.9818 82.4934 68.9139 83.0794 69.5457 83.4824C69.6063 83.4395 69.6777 83.3999 69.753 83.3632L76.4077 80.0761C77.2611 79.655 78.6391 79.6639 79.4852 80.0976L93.6626 87.3559C93.7518 87.4018 93.8305 87.4473 93.8981 87.4995C94.4945 87.078 94.4157 86.486 93.6626 86.1045ZM62.1484 83.684C62.8015 83.2629 62.7232 82.6735 61.9269 82.3105L49.1422 76.4471C48.2744 76.0501 46.8787 76.0686 46.0256 76.4897L38.6495 80.1309C37.8675 80.5153 37.8246 81.0862 38.4959 81.4647C38.5422 81.4374 38.5959 81.4096 38.6495 81.3822L46.0256 77.741C46.8787 77.3199 48.2748 77.3015 49.1422 77.6981L61.9269 83.5616C62.0095 83.5985 62.0805 83.6385 62.1484 83.684ZM104.923 80.5038L91.6489 72.8854C90.8278 72.4185 89.4745 72.3789 88.6176 72.7999L81.9379 76.0963C81.1775 76.4718 81.0848 77.0668 81.6739 77.5064C81.7487 77.4483 81.8379 77.3965 81.9379 77.3477L88.6176 74.0513C89.4745 73.6302 90.8275 73.6668 91.6489 74.1368L104.923 81.7551C105.016 81.807 105.094 81.865 105.166 81.9261C105.705 81.5017 105.626 80.9097 104.923 80.5038ZM82.4022 91.7053L67.3432 84.801C66.472 84.4011 65.0759 84.4196 64.2228 84.8407L57.5929 88.1126C56.8108 88.5003 56.7645 89.0709 57.4392 89.4494C57.4855 89.4191 57.5392 89.3913 57.5929 89.364L64.2228 86.092C65.0759 85.6709 66.472 85.6524 67.3432 86.0494L82.4022 92.9567C82.4845 92.9933 82.5559 93.0329 82.6234 93.0758C83.2734 92.6577 83.1986 92.0686 82.4022 91.7053Z" fill="white"/>
<path d="M58.6849 50.9129L58.6563 50.3268L56.739 11.893C56.5391 11.8716 56.3357 11.8594 56.1323 11.8594C55.4182 11.8594 54.7469 11.9937 54.247 12.2409L10.2338 33.9667C9.78754 34.1835 9.68023 34.3756 9.67676 34.4093L13.04 71.8633L13.2183 73.2948C13.2685 73.2245 13.4148 73.0843 13.7325 72.9285L56.2284 51.9534C56.7676 51.6848 57.5029 51.5382 58.2954 51.5382C58.4382 51.5382 58.5776 51.5445 58.7165 51.5534L58.6849 50.9129ZM52.3336 37.4218L43.9115 41.5821C43.7687 41.6524 43.6293 41.7013 43.4973 41.7287C43.4722 41.6402 43.4545 41.5396 43.4471 41.4327L43.0117 34.6168C42.9619 33.7743 43.6081 32.752 44.4612 32.3306L52.9867 28.1214C53.1261 28.0541 53.2581 28.0053 53.3866 27.9779C53.4152 28.0663 53.4295 28.164 53.4364 28.2709L53.8004 35.1353C53.844 35.9781 53.1867 37.0008 52.3336 37.4218ZM52.7872 15.8761L53.1477 22.7405C53.1905 23.583 52.5336 24.6086 51.6805 25.0297L43.1298 29.251C42.987 29.3213 42.8477 29.3702 42.7157 29.3976C42.6906 29.3091 42.6728 29.2081 42.6655 29.1015L42.2301 22.2861C42.1803 21.4465 42.8261 20.4212 43.6795 19.9998L52.3371 15.7266C52.4726 15.6597 52.6085 15.6105 52.737 15.5831C52.7656 15.6715 52.7798 15.7692 52.7872 15.8761ZM29.9414 39.4972L38.467 35.2881C38.6098 35.2178 38.7526 35.1689 38.8846 35.1415C38.9132 35.23 38.9309 35.331 38.9383 35.4375L39.3845 42.2412C39.4416 43.0836 38.7954 44.106 37.9385 44.5274L29.5094 48.6877C29.3631 48.761 29.2169 48.8098 29.081 48.8372C29.0524 48.7488 29.0312 48.6481 29.0239 48.5412L28.5132 41.7834C28.4491 40.941 29.0879 39.9186 29.9414 39.4972ZM38.1242 23.1219L38.5739 29.9252C38.6275 30.7677 37.9814 31.7934 37.1279 32.2144L28.5807 36.4325C28.4344 36.5058 28.2916 36.5546 28.1523 36.579C28.1237 36.4906 28.1021 36.3929 28.0951 36.286L27.581 29.5253C27.5169 28.6857 28.1557 27.6604 29.0127 27.239L37.6525 22.9751C37.7953 22.9048 37.9381 22.856 38.0702 22.8286C38.0991 22.9177 38.1172 23.0154 38.1242 23.1219ZM15.4251 46.6641L23.9472 42.455C24.0935 42.3817 24.2398 42.3329 24.3791 42.3055C24.4077 42.3969 24.4289 42.4946 24.4362 42.6048L24.9647 49.3503C25.0291 50.1928 24.3899 51.2152 23.5365 51.6366L15.1001 55.8028C14.9503 55.8761 14.8036 55.9279 14.6608 55.9523C14.6288 55.8609 14.6106 55.7629 14.6002 55.6563L14.0112 48.9474C13.9363 48.1079 14.5716 47.0852 15.4251 46.6641ZM23.4759 30.3618L24.0043 37.1103C24.0722 37.9498 23.433 38.9722 22.5796 39.3966L14.0328 43.6116C13.883 43.6849 13.7328 43.7367 13.5935 43.7611C13.5615 43.6727 13.5437 43.572 13.5329 43.4651L12.9439 36.7592C12.869 35.9197 13.5043 34.8973 14.3578 34.473L22.9872 30.215C23.137 30.1417 23.2798 30.0899 23.4191 30.0622C23.4473 30.1546 23.4685 30.2523 23.4759 30.3618ZM15.664 67.8435L15.0784 61.1379C15.0036 60.2955 15.6389 59.2731 16.4924 58.8517L24.9072 54.6977C25.0535 54.6244 25.1963 54.5756 25.3356 54.5511C25.3642 54.6396 25.3858 54.7373 25.3928 54.8442L25.9212 61.5927C25.9891 62.4352 25.3499 63.4575 24.4968 63.8789L16.1673 67.9904C16.0137 68.0637 15.8674 68.1155 15.7246 68.1399C15.6926 68.0481 15.6748 67.9505 15.664 67.8435ZM29.9557 60.799L29.4415 54.0383C29.3774 53.1988 30.0201 52.1735 30.8732 51.7521L39.281 47.604C39.4239 47.5337 39.5632 47.4849 39.6952 47.4604C39.7238 47.5489 39.7415 47.6466 39.7489 47.7505L40.1986 54.5571C40.2522 55.3966 39.606 56.4219 38.7526 56.8433L30.4412 60.9456C30.2949 61.0188 30.1521 61.0677 30.0128 61.095C29.9842 61.0033 29.9626 60.9056 29.9557 60.799ZM44.2292 53.7634L43.7938 46.9446C43.7436 46.1051 44.3901 45.0798 45.2432 44.6584L53.6402 40.5133C53.7761 40.4463 53.9116 40.3971 54.0401 40.3697C54.0687 40.4582 54.083 40.5558 54.0899 40.6628L54.4539 47.5274C54.4968 48.3699 53.8398 49.3956 52.9867 49.8166L44.6931 53.9096C44.5503 53.9799 44.411 54.0288 44.279 54.0532C44.2508 53.9651 44.2365 53.8674 44.2292 53.7634Z" fill="#CE86FD"/>
<path opacity="0.3" d="M58.6849 50.9129L58.6563 50.3268L56.739 11.893C56.5391 11.8716 56.3357 11.8594 56.1323 11.8594C55.4182 11.8594 54.7469 11.9937 54.247 12.2409L10.2338 33.9667C9.78754 34.1835 9.68023 34.3756 9.67676 34.4093L13.04 71.8633L13.2183 73.2948C13.2685 73.2245 13.4148 73.0843 13.7325 72.9285L56.2284 51.9534C56.7676 51.6848 57.5029 51.5382 58.2954 51.5382C58.4382 51.5382 58.5776 51.5445 58.7165 51.5534L58.6849 50.9129ZM52.3336 37.4218L43.9115 41.5821C43.7687 41.6524 43.6293 41.7013 43.4973 41.7287C43.4722 41.6402 43.4545 41.5396 43.4471 41.4327L43.0117 34.6168C42.9619 33.7743 43.6081 32.752 44.4612 32.3306L52.9867 28.1214C53.1261 28.0541 53.2581 28.0053 53.3866 27.9779C53.4152 28.0663 53.4295 28.164 53.4364 28.2709L53.8004 35.1353C53.844 35.9781 53.1867 37.0008 52.3336 37.4218ZM52.7872 15.8761L53.1477 22.7405C53.1905 23.583 52.5336 24.6086 51.6805 25.0297L43.1298 29.251C42.987 29.3213 42.8477 29.3702 42.7157 29.3976C42.6906 29.3091 42.6728 29.2081 42.6655 29.1015L42.2301 22.2861C42.1803 21.4465 42.8261 20.4212 43.6795 19.9998L52.3371 15.7266C52.4726 15.6597 52.6085 15.6105 52.737 15.5831C52.7656 15.6715 52.7798 15.7692 52.7872 15.8761ZM29.9414 39.4972L38.467 35.2881C38.6098 35.2178 38.7526 35.1689 38.8846 35.1415C38.9132 35.23 38.9309 35.331 38.9383 35.4375L39.3845 42.2412C39.4416 43.0836 38.7954 44.106 37.9385 44.5274L29.5094 48.6877C29.3631 48.761 29.2169 48.8098 29.081 48.8372C29.0524 48.7488 29.0312 48.6481 29.0239 48.5412L28.5132 41.7834C28.4491 40.941 29.0879 39.9186 29.9414 39.4972ZM38.1242 23.1219L38.5739 29.9252C38.6275 30.7677 37.9814 31.7934 37.1279 32.2144L28.5807 36.4325C28.4344 36.5058 28.2916 36.5546 28.1523 36.579C28.1237 36.4906 28.1021 36.3929 28.0951 36.286L27.581 29.5253C27.5169 28.6857 28.1557 27.6604 29.0127 27.239L37.6525 22.9751C37.7953 22.9048 37.9381 22.856 38.0702 22.8286C38.0991 22.9177 38.1172 23.0154 38.1242 23.1219ZM15.4251 46.6641L23.9472 42.455C24.0935 42.3817 24.2398 42.3329 24.3791 42.3055C24.4077 42.3969 24.4289 42.4946 24.4362 42.6048L24.9647 49.3503C25.0291 50.1928 24.3899 51.2152 23.5365 51.6366L15.1001 55.8028C14.9503 55.8761 14.8036 55.9279 14.6608 55.9523C14.6288 55.8609 14.6106 55.7629 14.6002 55.6563L14.0112 48.9474C13.9363 48.1079 14.5716 47.0852 15.4251 46.6641ZM23.4759 30.3618L24.0043 37.1103C24.0722 37.9498 23.433 38.9722 22.5796 39.3966L14.0328 43.6116C13.883 43.6849 13.7328 43.7367 13.5935 43.7611C13.5615 43.6727 13.5437 43.572 13.5329 43.4651L12.9439 36.7592C12.869 35.9197 13.5043 34.8973 14.3578 34.473L22.9872 30.215C23.137 30.1417 23.2798 30.0899 23.4191 30.0622C23.4473 30.1546 23.4685 30.2523 23.4759 30.3618ZM15.664 67.8435L15.0784 61.1379C15.0036 60.2955 15.6389 59.2731 16.4924 58.8517L24.9072 54.6977C25.0535 54.6244 25.1963 54.5756 25.3356 54.5511C25.3642 54.6396 25.3858 54.7373 25.3928 54.8442L25.9212 61.5927C25.9891 62.4352 25.3499 63.4575 24.4968 63.8789L16.1673 67.9904C16.0137 68.0637 15.8674 68.1155 15.7246 68.1399C15.6926 68.0481 15.6748 67.9505 15.664 67.8435ZM29.9557 60.799L29.4415 54.0383C29.3774 53.1988 30.0201 52.1735 30.8732 51.7521L39.281 47.604C39.4239 47.5337 39.5632 47.4849 39.6952 47.4604C39.7238 47.5489 39.7415 47.6466 39.7489 47.7505L40.1986 54.5571C40.2522 55.3966 39.606 56.4219 38.7526 56.8433L30.4412 60.9456C30.2949 61.0188 30.1521 61.0677 30.0128 61.095C29.9842 61.0033 29.9626 60.9056 29.9557 60.799ZM44.2292 53.7634L43.7938 46.9446C43.7436 46.1051 44.3901 45.0798 45.2432 44.6584L53.6402 40.5133C53.7761 40.4463 53.9116 40.3971 54.0401 40.3697C54.0687 40.4582 54.083 40.5558 54.0899 40.6628L54.4539 47.5274C54.4968 48.3699 53.8398 49.3956 52.9867 49.8166L44.6931 53.9096C44.5503 53.9799 44.411 54.0288 44.279 54.0532C44.2508 53.9651 44.2365 53.8674 44.2292 53.7634Z" fill="white"/>
<path d="M40.9272 48.3638C40.8809 47.6619 40.3594 47.3108 39.6955 47.4603C39.724 47.5487 39.7418 47.6464 39.7491 47.7504L40.1988 54.5569C40.2525 55.3965 39.6063 56.4218 38.7528 56.8432L30.4415 60.9454C30.2952 61.0187 30.1524 61.0675 30.013 61.0949C30.213 61.7113 30.8734 61.9252 31.6196 61.5589L39.9309 57.4567C40.784 57.0323 41.4305 56.0099 41.3734 55.1674L40.9272 48.3638ZM54.6151 28.8816C54.5796 28.1734 54.0616 27.8223 53.3869 27.9781C53.4154 28.0665 53.4297 28.1642 53.4367 28.2711L53.8007 35.1355C53.8435 35.9779 53.1865 37.0003 52.3335 37.4217L43.9113 41.582C43.7685 41.6523 43.6292 41.7011 43.4972 41.7285C43.6863 42.3483 44.3433 42.5588 45.0894 42.1925L53.5116 38.0355C54.3646 37.6144 55.0216 36.5917 54.9753 35.7493L54.6151 28.8816ZM40.1131 36.0482C40.0703 35.3493 39.5526 34.9982 38.8849 35.1417C38.9134 35.2302 38.9312 35.3311 38.9385 35.4377L39.3847 42.2413C39.4419 43.0838 38.7957 44.1062 37.9388 44.5276L29.5097 48.6879C29.3634 48.7612 29.2171 48.81 29.0812 48.8374C29.2812 49.4571 29.9416 49.6677 30.6878 49.3014L39.1168 45.1411C39.9699 44.72 40.6165 43.6943 40.5628 42.8548L40.1131 36.0482ZM53.962 16.4895C53.9261 15.7843 53.4085 15.4272 52.7372 15.583C52.7658 15.6714 52.7801 15.7691 52.7874 15.876L53.1479 22.7403C53.1908 23.5828 52.5338 24.6085 51.6808 25.0295L43.1301 29.2509C42.9873 29.3212 42.8479 29.37 42.7159 29.3974C42.905 30.0172 43.562 30.2307 44.3082 29.8644L52.8588 25.643C53.7119 25.2219 54.3689 24.1963 54.3225 23.3538L53.962 16.4895ZM39.299 23.7356C39.2562 23.0337 38.7347 22.6826 38.0708 22.8291C38.0993 22.9175 38.1171 23.0152 38.1244 23.1221L38.5741 29.9254C38.6278 30.7679 37.9816 31.7935 37.1282 32.2146L28.581 36.4327C28.4347 36.5059 28.2919 36.5548 28.1525 36.5792C28.3486 37.1989 29.0094 37.4154 29.7556 37.0462L38.3028 32.8248C39.1597 32.4037 39.8059 31.381 39.7487 30.5386L39.299 23.7356ZM24.6542 30.9722C24.5971 30.2792 24.0794 29.9251 23.419 30.0627C23.4476 30.1544 23.4688 30.2521 23.4761 30.3617L24.0046 37.1102C24.0725 37.9497 23.4333 38.972 22.5798 39.3964L14.033 43.6115C13.8833 43.6848 13.7331 43.7366 13.5938 43.761C13.7972 44.3807 14.465 44.5913 15.2111 44.225L23.7544 40.0069C24.6075 39.5858 25.2467 38.5632 25.1826 37.7207L24.6542 30.9722ZM55.2686 41.2768C55.2293 40.5719 54.7116 40.2145 54.0404 40.3702C54.0689 40.4587 54.0832 40.5564 54.0902 40.6633L54.4542 47.5279C54.497 48.3704 53.84 49.3961 52.987 49.8172L44.6934 53.9101C44.5506 53.9804 44.4112 54.0293 44.2792 54.0537C44.4649 54.6764 45.1218 54.8932 45.8715 54.5236L54.1651 50.4306C55.0185 50.0095 55.6751 48.9839 55.6288 48.1414L55.2686 41.2768ZM26.5715 55.4575C26.5178 54.7615 25.9967 54.4104 25.3363 54.551C25.3648 54.6394 25.3864 54.7371 25.3934 54.844L25.9218 61.5925C25.9898 62.435 25.3505 63.4574 24.4975 63.8788L16.168 67.9902C16.0144 68.0635 15.8681 68.1153 15.7252 68.1397C15.9321 68.7562 16.5999 68.97 17.3461 68.6037L25.6717 64.4923C26.5286 64.0712 27.164 63.0485 27.0999 62.206L26.5715 55.4575ZM25.6111 43.2148C25.5574 42.5218 25.0398 42.1678 24.3794 42.3054C24.4079 42.3968 24.4292 42.4945 24.4365 42.6047L24.9649 49.3502C25.0294 50.1927 24.3902 51.215 23.5367 51.6364L15.1003 55.8027C14.9505 55.876 14.8039 55.9278 14.661 55.9522C14.8645 56.5686 15.5322 56.7795 16.2784 56.4132L24.7148 52.2499C25.5682 51.8288 26.2071 50.8062 26.1395 49.9637L25.6111 43.2148Z" fill="#CE86FD"/>
<path d="M114.077 48.9974L58.5851 12.4866C58.1211 12.1813 57.4568 11.9708 56.7393 11.8945L58.6851 50.8959L58.7171 51.5552C59.4525 51.6133 60.1415 51.7658 60.7378 52.1047L110.189 81.1589L114.619 49.7115V49.6901C114.62 49.4795 114.423 49.2202 114.077 48.9974ZM92.5307 55.7278C92.5272 55.7674 92.5234 55.807 92.5164 55.8439C92.4593 55.8165 92.4022 55.7859 92.3451 55.7492L80.5493 48.4942C79.7495 48.0028 79.1211 46.9191 79.1462 46.0769L79.3318 40.0488C79.3318 40.0274 79.3318 40.0059 79.3353 39.9878C79.3673 40.0062 79.3959 40.0244 79.4279 40.0429L91.6738 47.7926C92.4663 48.2962 93.0518 49.3829 92.9839 50.2253L92.5307 55.7278ZM109.621 66.3554C109.543 66.3218 109.464 66.2792 109.382 66.2303L97.6823 59.033C96.8825 58.5384 96.2934 57.458 96.3722 56.6188L96.8578 51.1919C96.8612 51.1583 96.8651 51.1249 96.8721 51.0942C96.9292 51.1216 96.9863 51.1553 97.0434 51.1919L109.082 58.8103C109.874 59.3139 110.428 60.3976 110.314 61.2368L109.646 66.2181C109.639 66.267 109.632 66.3128 109.621 66.3554ZM97.9753 40.6342L110.439 48.7839C111.221 49.2967 111.763 50.3894 111.653 51.2289L110.989 56.201C110.985 56.2406 110.978 56.2802 110.967 56.3168C110.892 56.2832 110.817 56.2436 110.742 56.1947L98.6141 48.4664C97.8251 47.9629 97.2469 46.8732 97.3218 46.0337L97.8073 40.619C97.8108 40.5917 97.8108 40.5672 97.8143 40.5428C97.8683 40.5672 97.9216 40.6006 97.9753 40.6342ZM79.7564 28.7212L92.5628 37.0966C93.3483 37.6095 93.9265 38.7051 93.8551 39.5475L93.4054 45.0417C93.4019 45.0721 93.3984 45.1028 93.3946 45.1331C93.3409 45.1057 93.2911 45.075 93.2375 45.0417L80.8774 37.1669C80.0884 36.6633 79.4673 35.5707 79.4959 34.7282L79.6777 28.7094C79.6777 28.6971 79.6777 28.6849 79.6816 28.6757C79.7066 28.6909 79.7317 28.706 79.7564 28.7212ZM75.2866 45.1698C75.2866 45.1971 75.2866 45.2216 75.2831 45.246C75.2511 45.2308 75.2225 45.2123 75.1939 45.1942L63.2623 37.8537C62.4625 37.3593 61.7878 36.2786 61.7557 35.4364L61.4917 28.6909L74.0158 36.6175C74.8083 37.1181 75.4367 38.2077 75.419 39.0502L75.2866 45.1698ZM74.2764 25.1411C75.0619 25.6509 75.6795 26.7495 75.6618 27.592L75.5332 33.7085V33.7544C75.5081 33.7422 75.4796 33.7237 75.4548 33.7085L62.7697 25.6262C61.9773 25.1226 61.3095 24.03 61.2775 23.1875L61.0169 16.4664L74.2764 25.1411ZM74.9295 56.6861L63.7583 50.0689C62.9477 49.5898 62.2625 48.5183 62.2301 47.6761L61.9696 40.9335V40.9062C61.973 40.9062 61.973 40.9091 61.9765 40.9091L73.7545 48.1031C74.5578 48.5945 75.1931 49.6749 75.1754 50.5174L75.0434 56.6402C75.0434 56.6768 75.0399 56.7105 75.0364 56.7442C75.0009 56.7257 74.9654 56.7072 74.9295 56.6861ZM91.4526 66.4716L80.2208 59.8208C79.4102 59.3416 78.7748 58.2671 78.7999 57.4246L78.9856 51.3932C78.9856 51.3629 78.9891 51.3351 78.9925 51.3048C79.0284 51.3262 79.0605 51.3444 79.096 51.3658L90.7814 58.5021C91.5812 58.9935 92.1775 60.0709 92.1096 60.9134L91.656 66.4287C91.6526 66.4775 91.6452 66.5234 91.6383 66.566C91.5773 66.5415 91.5132 66.5082 91.4526 66.4716ZM108.018 76.2845L96.7505 69.6092C95.9399 69.1301 95.3439 68.0585 95.4188 67.2194L95.9009 61.7773C95.9044 61.7344 95.9117 61.6919 95.9186 61.6523C95.9792 61.6829 96.0399 61.7163 96.1005 61.7529L107.721 68.8525C108.525 69.3409 109.085 70.4184 108.971 71.2546L108.303 76.2482C108.296 76.3062 108.286 76.358 108.271 76.4099C108.19 76.3759 108.104 76.3363 108.018 76.2845Z" fill="#CE86FD"/>
<path opacity="0.5" d="M114.077 48.9974L58.5851 12.4866C58.1211 12.1813 57.4568 11.9708 56.7393 11.8945L58.6851 50.8959L58.7171 51.5552C59.4525 51.6133 60.1415 51.7658 60.7378 52.1047L110.189 81.1589L114.619 49.7115V49.6901C114.62 49.4795 114.423 49.2202 114.077 48.9974ZM92.5307 55.7278C92.5272 55.7674 92.5234 55.807 92.5164 55.8439C92.4593 55.8165 92.4022 55.7859 92.3451 55.7492L80.5493 48.4942C79.7495 48.0028 79.1211 46.9191 79.1462 46.0769L79.3318 40.0488C79.3318 40.0274 79.3318 40.0059 79.3353 39.9878C79.3673 40.0062 79.3959 40.0244 79.4279 40.0429L91.6738 47.7926C92.4663 48.2962 93.0518 49.3829 92.9839 50.2253L92.5307 55.7278ZM109.621 66.3554C109.543 66.3218 109.464 66.2792 109.382 66.2303L97.6823 59.033C96.8825 58.5384 96.2934 57.458 96.3722 56.6188L96.8578 51.1919C96.8612 51.1583 96.8651 51.1249 96.8721 51.0942C96.9292 51.1216 96.9863 51.1553 97.0434 51.1919L109.082 58.8103C109.874 59.3139 110.428 60.3976 110.314 61.2368L109.646 66.2181C109.639 66.267 109.632 66.3128 109.621 66.3554ZM97.9753 40.6342L110.439 48.7839C111.221 49.2967 111.763 50.3894 111.653 51.2289L110.989 56.201C110.985 56.2406 110.978 56.2802 110.967 56.3168C110.892 56.2832 110.817 56.2436 110.742 56.1947L98.6141 48.4664C97.8251 47.9629 97.2469 46.8732 97.3218 46.0337L97.8073 40.619C97.8108 40.5917 97.8108 40.5672 97.8143 40.5428C97.8683 40.5672 97.9216 40.6006 97.9753 40.6342ZM79.7564 28.7212L92.5628 37.0966C93.3483 37.6095 93.9265 38.7051 93.8551 39.5475L93.4054 45.0417C93.4019 45.0721 93.3984 45.1028 93.3946 45.1331C93.3409 45.1057 93.2911 45.075 93.2375 45.0417L80.8774 37.1669C80.0884 36.6633 79.4673 35.5707 79.4959 34.7282L79.6777 28.7094C79.6777 28.6971 79.6777 28.6849 79.6816 28.6757C79.7066 28.6909 79.7317 28.706 79.7564 28.7212ZM75.2866 45.1698C75.2866 45.1971 75.2866 45.2216 75.2831 45.246C75.2511 45.2308 75.2225 45.2123 75.1939 45.1942L63.2623 37.8537C62.4625 37.3593 61.7878 36.2786 61.7557 35.4364L61.4917 28.6909L74.0158 36.6175C74.8083 37.1181 75.4367 38.2077 75.419 39.0502L75.2866 45.1698ZM74.2764 25.1411C75.0619 25.6509 75.6795 26.7495 75.6618 27.592L75.5332 33.7085V33.7544C75.5081 33.7422 75.4796 33.7237 75.4548 33.7085L62.7697 25.6262C61.9773 25.1226 61.3095 24.03 61.2775 23.1875L61.0169 16.4664L74.2764 25.1411ZM74.9295 56.6861L63.7583 50.0689C62.9477 49.5898 62.2625 48.5183 62.2301 47.6761L61.9696 40.9335V40.9062C61.973 40.9062 61.973 40.9091 61.9765 40.9091L73.7545 48.1031C74.5578 48.5945 75.1931 49.6749 75.1754 50.5174L75.0434 56.6402C75.0434 56.6768 75.0399 56.7105 75.0364 56.7442C75.0009 56.7257 74.9654 56.7072 74.9295 56.6861ZM91.4526 66.4716L80.2208 59.8208C79.4102 59.3416 78.7748 58.2671 78.7999 57.4246L78.9856 51.3932C78.9856 51.3629 78.9891 51.3351 78.9925 51.3048C79.0284 51.3262 79.0605 51.3444 79.096 51.3658L90.7814 58.5021C91.5812 58.9935 92.1775 60.0709 92.1096 60.9134L91.656 66.4287C91.6526 66.4775 91.6452 66.5234 91.6383 66.566C91.5773 66.5415 91.5132 66.5082 91.4526 66.4716ZM108.018 76.2845L96.7505 69.6092C95.9399 69.1301 95.3439 68.0585 95.4188 67.2194L95.9009 61.7773C95.9044 61.7344 95.9117 61.6919 95.9186 61.6523C95.9792 61.6829 96.0399 61.7163 96.1005 61.7529L107.721 68.8525C108.525 69.3409 109.085 70.4184 108.971 71.2546L108.303 76.2482C108.296 76.3062 108.286 76.358 108.271 76.4099C108.19 76.3759 108.104 76.3363 108.018 76.2845Z" fill="white"/>
<path d="M62.7698 25.6247C61.9774 25.1212 61.3096 24.0285 61.2775 23.186L61.017 16.4649L60.9884 16.4464C60.2029 15.9366 59.5961 16.2022 59.6282 17.0447L59.8922 23.7992C59.9242 24.6417 60.592 25.7313 61.381 26.2349L74.0696 34.3202C74.8443 34.8146 75.4905 34.5582 75.5333 33.7526C75.5082 33.7404 75.4796 33.7219 75.4549 33.7068L62.7698 25.6247ZM63.2627 37.8519C62.4629 37.3576 61.7882 36.2768 61.7562 35.4346L61.4922 28.6891L61.4813 28.6828C60.6889 28.1793 60.0748 28.4571 60.1068 29.2993L60.3674 36.0448C60.4033 36.8873 61.078 37.9707 61.8774 38.4621L73.809 45.8026C74.5837 46.2817 75.2299 46.0283 75.2836 45.2439C75.2515 45.2287 75.2229 45.2102 75.1944 45.1921L63.2627 37.8519ZM80.2213 59.819C79.4107 59.3398 78.7753 58.2654 78.8004 57.4229L78.9861 51.3915C78.9861 51.3611 78.9895 51.3334 78.993 51.303C78.2395 50.9001 77.6254 51.1961 77.6007 52.0049L77.4151 58.0363C77.39 58.8788 78.0257 59.95 78.8359 60.4292L90.0643 67.08C90.8282 67.5347 91.5068 67.2998 91.6388 66.5642C91.5782 66.5398 91.5137 66.5061 91.4531 66.4695L80.2213 59.819ZM63.7591 50.0668C62.9485 49.5877 62.2634 48.5162 62.231 47.674L61.9704 40.9315V40.9041C61.1706 40.4186 60.5495 40.7057 60.5816 41.5449L60.8456 48.2842C60.8777 49.1267 61.5597 50.1979 62.3699 50.677L73.5446 57.2942C74.3193 57.7552 74.969 57.5047 75.0369 56.7418C75.0014 56.7233 74.9655 56.7051 74.93 56.6837L63.7591 50.0668ZM110.743 56.193L98.6146 48.4647C97.8256 47.9611 97.2473 46.8715 97.3222 46.0319L97.8078 40.6173C97.8113 40.5899 97.8113 40.5655 97.8148 40.5411C97.1007 40.1626 96.4939 40.4464 96.4225 41.2278L95.9334 46.6424C95.8585 47.4849 96.4406 48.5746 97.2296 49.0782L109.354 56.8035C110.107 57.2826 110.807 57.0628 110.968 56.3151C110.893 56.2814 110.818 56.2418 110.743 56.193ZM80.5497 48.4921C79.75 48.0007 79.1216 46.917 79.1466 46.0748L79.3323 40.0467C79.3323 40.0253 79.3323 40.0038 79.3358 39.9857C78.5862 39.5613 77.972 39.8484 77.947 40.6572L77.7613 46.6883C77.7362 47.5308 78.3646 48.6112 79.1644 49.1026L90.9602 56.3576C91.7206 56.8246 92.3953 56.5926 92.5169 55.8418C92.4598 55.8145 92.4027 55.7838 92.3455 55.7471L80.5497 48.4921ZM97.6831 59.0316C96.8833 58.537 96.2943 57.4565 96.373 56.6173L96.8586 51.1905C96.8621 51.1568 96.866 51.1235 96.8729 51.0928C96.1519 50.7295 95.5412 51.0225 95.4733 51.804L94.9842 57.2278C94.9093 58.0703 95.4984 59.1508 96.2982 59.6421L107.998 66.8424C108.751 67.3064 109.451 67.0836 109.622 66.354C109.544 66.3203 109.465 66.2778 109.383 66.2289L97.6831 59.0316ZM96.7509 69.6075C95.9403 69.1283 95.3444 68.0568 95.4192 67.2176L95.9014 61.7756C95.9048 61.7327 95.9122 61.6901 95.9191 61.6505C95.1942 61.3086 94.5839 61.6109 94.516 62.3861L94.0304 67.8281C93.9555 68.6706 94.5515 69.7388 95.3621 70.2209L106.633 76.8932C107.39 77.342 108.09 77.1222 108.272 76.4078C108.19 76.3741 108.104 76.3345 108.018 76.2827L96.7509 69.6075ZM80.8782 37.1652C80.0893 36.6616 79.4682 35.569 79.4967 34.7265L79.6785 28.7076C79.6785 28.6954 79.6786 28.6832 79.6824 28.6739C78.9324 28.2284 78.3187 28.503 78.2936 29.3181L78.1079 35.3373C78.0828 36.1798 78.7043 37.2724 79.4933 37.776L91.8534 45.6508C92.6138 46.1362 93.285 45.9009 93.3958 45.132C93.3422 45.1046 93.2924 45.0739 93.2387 45.0406L80.8782 37.1652Z" fill="#CE86FD"/>
<path opacity="0.2" d="M62.7698 25.6247C61.9774 25.1212 61.3096 24.0285 61.2775 23.186L61.017 16.4649L60.9884 16.4464C60.2029 15.9366 59.5961 16.2022 59.6282 17.0447L59.8922 23.7992C59.9242 24.6417 60.592 25.7313 61.381 26.2349L74.0696 34.3202C74.8443 34.8146 75.4905 34.5582 75.5333 33.7526C75.5082 33.7404 75.4796 33.7219 75.4549 33.7068L62.7698 25.6247ZM63.2627 37.8519C62.4629 37.3576 61.7882 36.2768 61.7562 35.4346L61.4922 28.6891L61.4813 28.6828C60.6889 28.1793 60.0748 28.4571 60.1068 29.2993L60.3674 36.0448C60.4033 36.8873 61.078 37.9707 61.8774 38.4621L73.809 45.8026C74.5837 46.2817 75.2299 46.0283 75.2836 45.2439C75.2515 45.2287 75.2229 45.2102 75.1944 45.1921L63.2627 37.8519ZM80.2213 59.819C79.4107 59.3398 78.7753 58.2654 78.8004 57.4229L78.9861 51.3915C78.9861 51.3611 78.9895 51.3334 78.993 51.303C78.2395 50.9001 77.6254 51.1961 77.6007 52.0049L77.4151 58.0363C77.39 58.8788 78.0257 59.95 78.8359 60.4292L90.0643 67.08C90.8282 67.5347 91.5068 67.2998 91.6388 66.5642C91.5782 66.5398 91.5137 66.5061 91.4531 66.4695L80.2213 59.819ZM63.7591 50.0668C62.9485 49.5877 62.2634 48.5162 62.231 47.674L61.9704 40.9315V40.9041C61.1706 40.4186 60.5495 40.7057 60.5816 41.5449L60.8456 48.2842C60.8777 49.1267 61.5597 50.1979 62.3699 50.677L73.5446 57.2942C74.3193 57.7552 74.969 57.5047 75.0369 56.7418C75.0014 56.7233 74.9655 56.7051 74.93 56.6837L63.7591 50.0668ZM110.743 56.193L98.6146 48.4647C97.8256 47.9611 97.2473 46.8715 97.3222 46.0319L97.8078 40.6173C97.8113 40.5899 97.8113 40.5655 97.8148 40.5411C97.1007 40.1626 96.4939 40.4464 96.4225 41.2278L95.9334 46.6424C95.8585 47.4849 96.4406 48.5746 97.2296 49.0782L109.354 56.8035C110.107 57.2826 110.807 57.0628 110.968 56.3151C110.893 56.2814 110.818 56.2418 110.743 56.193ZM80.5497 48.4921C79.75 48.0007 79.1216 46.917 79.1466 46.0748L79.3323 40.0467C79.3323 40.0253 79.3323 40.0038 79.3358 39.9857C78.5862 39.5613 77.972 39.8484 77.947 40.6572L77.7613 46.6883C77.7362 47.5308 78.3646 48.6112 79.1644 49.1026L90.9602 56.3576C91.7206 56.8246 92.3953 56.5926 92.5169 55.8418C92.4598 55.8145 92.4027 55.7838 92.3455 55.7471L80.5497 48.4921ZM97.6831 59.0316C96.8833 58.537 96.2943 57.4565 96.373 56.6173L96.8586 51.1905C96.8621 51.1568 96.866 51.1235 96.8729 51.0928C96.1519 50.7295 95.5412 51.0225 95.4733 51.804L94.9842 57.2278C94.9093 58.0703 95.4984 59.1508 96.2982 59.6421L107.998 66.8424C108.751 67.3064 109.451 67.0836 109.622 66.354C109.544 66.3203 109.465 66.2778 109.383 66.2289L97.6831 59.0316ZM96.7509 69.6075C95.9403 69.1283 95.3444 68.0568 95.4192 67.2176L95.9014 61.7756C95.9048 61.7327 95.9122 61.6901 95.9191 61.6505C95.1942 61.3086 94.5839 61.6109 94.516 62.3861L94.0304 67.8281C93.9555 68.6706 94.5515 69.7388 95.3621 70.2209L106.633 76.8932C107.39 77.342 108.09 77.1222 108.272 76.4078C108.19 76.3741 108.104 76.3345 108.018 76.2827L96.7509 69.6075ZM80.8782 37.1652C80.0893 36.6616 79.4682 35.569 79.4967 34.7265L79.6785 28.7076C79.6785 28.6954 79.6786 28.6832 79.6824 28.6739C78.9324 28.2284 78.3187 28.503 78.2936 29.3181L78.1079 35.3373C78.0828 36.1798 78.7043 37.2724 79.4933 37.776L91.8534 45.6508C92.6138 46.1362 93.285 45.9009 93.3958 45.132C93.3422 45.1046 93.2924 45.0739 93.2387 45.0406L80.8782 37.1652Z" fill="white"/>
<path d="M114.948 48.0288L59.4564 11.5179C57.8927 10.4893 55.2436 10.3398 53.5336 11.1823L9.5203 32.9082C8.67265 33.3267 8.24882 33.8695 8.24805 34.4101H9.6774C9.68088 34.3764 9.78819 34.1843 10.2344 33.9675L54.2477 12.2416C54.7475 11.9945 55.4188 11.8602 56.1325 11.8602C57.0717 11.8602 57.9892 12.0951 58.5852 12.4858L114.077 48.9964C114.434 49.2284 114.634 49.497 114.62 49.7105H116.048C116.059 49.1228 115.696 48.5195 114.948 48.0288Z" fill="#CE86FD"/>
<path opacity="0.7" d="M114.948 48.0288L59.4564 11.5179C57.8927 10.4893 55.2436 10.3398 53.5336 11.1823L9.5203 32.9082C8.67265 33.3267 8.24882 33.8695 8.24805 34.4101H9.6774C9.68088 34.3764 9.78819 34.1843 10.2344 33.9675L54.2477 12.2416C54.7475 11.9945 55.4188 11.8602 56.1325 11.8602C57.0717 11.8602 57.9892 12.0951 58.5852 12.4858L114.077 48.9964C114.434 49.2284 114.634 49.497 114.62 49.7105H116.048C116.059 49.1228 115.696 48.5195 114.948 48.0288Z" fill="white"/>
<path d="M76.0692 67.4547L9.54905 35.9159C8.77088 35.5466 8.34589 35.0734 8.26367 34.582L11.7767 73.3762C11.7767 73.3884 11.7767 73.4036 11.7801 73.4158C11.8407 73.9042 12.2943 74.3771 13.1404 74.7252L71.9737 99.0119C72.8986 99.3934 74.1052 99.5521 75.2941 99.4973L79.3035 68.0533C78.1397 68.0774 76.9616 67.879 76.0692 67.4547ZM57.7863 60.4283L75.1517 68.6143C76.0155 69.0231 76.6335 70.0336 76.537 70.8698L75.8303 76.8798C75.816 76.9989 75.7874 77.1088 75.7481 77.2065C75.6446 77.1821 75.5338 77.1425 75.4265 77.0936L58.7181 69.4874C57.8469 69.0908 57.1722 68.0896 57.2116 67.2471L57.508 60.6266C57.5115 60.523 57.5296 60.4253 57.5543 60.3366C57.6292 60.3613 57.7076 60.3917 57.7863 60.4283ZM52.92 78.4334L36.9863 71.5047C36.1082 71.1233 35.3763 70.1313 35.3582 69.2888L35.176 61.9879C35.1725 61.8843 35.1833 61.7862 35.2011 61.6978C35.2547 61.7193 35.308 61.7407 35.3651 61.7651L51.945 69.2644C52.8162 69.6581 53.4979 70.6623 53.4658 71.5047L53.2161 78.1892C53.2126 78.3083 53.191 78.4182 53.1589 78.5189C53.0806 78.4978 53.0022 78.4671 52.92 78.4334ZM75.291 81.4249L74.5804 87.4286C74.5661 87.5566 74.5341 87.6728 74.4878 87.7764C74.3808 87.752 74.2701 87.7153 74.1593 87.6665L58.2256 80.7411C57.3474 80.3596 56.6654 79.3647 56.7047 78.5252L57.0008 71.908C57.0047 71.7951 57.0224 71.6912 57.0545 71.5968C57.1332 71.6183 57.2116 71.6486 57.2938 71.6853L73.8918 79.1937C74.7661 79.5874 75.391 80.5854 75.291 81.4249ZM35.0405 49.703L52.3846 57.883C53.2485 58.2889 53.9232 59.3023 53.8912 60.1448L53.6414 66.8293C53.638 66.9392 53.6202 67.0431 53.5951 67.1375C53.5168 67.1161 53.438 67.0857 53.3593 67.0491L36.6686 59.4522C35.7974 59.0585 35.0764 58.0543 35.0552 57.2118L34.8695 49.9046C34.8656 49.8099 34.873 49.7214 34.8873 49.6389C34.937 49.6571 34.9868 49.6785 35.0405 49.703ZM31.6807 69.2007L15.7471 62.272C14.8689 61.8905 14.0977 60.8985 14.0263 60.059L13.3481 52.0684C13.3411 51.9767 13.3411 51.8915 13.3481 51.812C13.3766 51.8212 13.4087 51.8334 13.4411 51.8486L30.0248 59.3508C30.896 59.7445 31.6244 60.7458 31.6491 61.5882L31.8741 68.9532C31.8776 69.066 31.8668 69.17 31.8456 69.2644C31.7915 69.2462 31.7379 69.2248 31.6807 69.2007ZM12.334 38.9988L29.6461 47.1603C30.51 47.5662 31.2314 48.5796 31.2561 49.4221L31.4881 56.7963C31.4916 56.897 31.4847 56.9917 31.4669 57.0771C31.4167 57.062 31.3669 57.0405 31.3133 57.0161L14.6369 49.4251C13.7657 49.0284 13.0018 48.0272 12.9304 47.1847L12.2522 39.1938C12.2453 39.1113 12.2453 39.0351 12.2487 38.9618C12.2769 38.971 12.3055 38.9862 12.334 38.9988ZM31.9915 79.6422L16.6966 73.2782C15.8111 72.9089 15.033 71.9291 14.9615 71.0896L14.4404 64.9424C14.4331 64.8387 14.4331 64.744 14.4478 64.6556C14.4798 64.6648 14.5157 64.68 14.5512 64.6952L30.378 71.5292C31.26 71.9077 31.9953 72.8997 32.0204 73.7421L32.1988 79.3736C32.2022 79.4927 32.1918 79.6026 32.1629 79.7033C32.1057 79.6881 32.0486 79.6666 31.9915 79.6422ZM52.5417 88.1915L37.2577 81.8337C36.3722 81.4645 35.6369 80.4817 35.6152 79.6392L35.4759 74.0659C35.4724 73.953 35.4828 73.8461 35.5045 73.7514C35.5616 73.7728 35.6222 73.7939 35.6797 73.8187L51.5026 80.6497C52.3846 81.0282 53.0736 82.0202 53.0416 82.8627L52.8525 87.9232C52.849 88.0513 52.8274 88.1704 52.788 88.2743C52.7058 88.2555 52.6236 88.2252 52.5417 88.1915ZM73.0738 96.7349L57.8041 90.3801C56.9186 90.0138 56.2296 89.031 56.2689 88.1886L56.494 83.1861C56.5009 83.064 56.5191 82.9511 56.5546 82.8505C56.6368 82.8686 56.719 82.8993 56.8047 82.9359L72.6276 89.7669C73.5058 90.1484 74.1415 91.1345 74.0415 91.9736L73.5062 96.4725C73.4919 96.6069 73.456 96.7289 73.4062 96.8388C73.295 96.8174 73.1842 96.7808 73.0738 96.7349Z" fill="#CE86FD"/>
<path opacity="0.5" d="M76.0692 67.4547L9.54905 35.9159C8.77088 35.5466 8.34589 35.0734 8.26367 34.582L11.7767 73.3762C11.7767 73.3884 11.7767 73.4036 11.7801 73.4158C11.8407 73.9042 12.2943 74.3771 13.1404 74.7252L71.9737 99.0119C72.8986 99.3934 74.1052 99.5521 75.2941 99.4973L79.3035 68.0533C78.1397 68.0774 76.9616 67.879 76.0692 67.4547ZM57.7863 60.4283L75.1517 68.6143C76.0155 69.0231 76.6335 70.0336 76.537 70.8698L75.8303 76.8798C75.816 76.9989 75.7874 77.1088 75.7481 77.2065C75.6446 77.1821 75.5338 77.1425 75.4265 77.0936L58.7181 69.4875C57.8469 69.0908 57.1722 68.0896 57.2116 67.2471L57.508 60.6266C57.5115 60.523 57.5296 60.4253 57.5543 60.3366C57.6292 60.3613 57.7076 60.3917 57.7863 60.4283ZM52.92 78.4334L36.9863 71.5047C36.1082 71.1233 35.3763 70.1313 35.3582 69.2888L35.176 61.9879C35.1725 61.8843 35.1833 61.7862 35.2011 61.6978C35.2547 61.7193 35.308 61.7407 35.3651 61.7651L51.945 69.2644C52.8162 69.6581 53.4979 70.6623 53.4658 71.5047L53.2161 78.1892C53.2126 78.3084 53.191 78.4183 53.1589 78.5189C53.0806 78.4978 53.0022 78.4671 52.92 78.4334ZM75.291 81.4249L74.5804 87.4286C74.5661 87.5566 74.5341 87.6728 74.4878 87.7764C74.3808 87.752 74.2701 87.7153 74.1593 87.6665L58.2256 80.7411C57.3474 80.3596 56.6654 79.3647 56.7047 78.5252L57.0008 71.908C57.0047 71.7951 57.0224 71.6912 57.0545 71.5968C57.1332 71.6183 57.2116 71.6486 57.2938 71.6853L73.8918 79.1937C74.7661 79.5874 75.391 80.5854 75.291 81.4249ZM35.0405 49.703L52.3846 57.883C53.2485 58.2889 53.9232 59.3023 53.8912 60.1448L53.6414 66.8293C53.638 66.9392 53.6202 67.0431 53.5951 67.1375C53.5168 67.1161 53.438 67.0857 53.3593 67.0491L36.6686 59.4522C35.7974 59.0585 35.0764 58.0543 35.0552 57.2118L34.8695 49.9046C34.8656 49.8099 34.873 49.7214 34.8873 49.6389C34.937 49.6571 34.9868 49.6785 35.0405 49.703ZM31.6807 69.2007L15.7471 62.272C14.8689 61.8905 14.0977 60.8985 14.0263 60.059L13.3481 52.0684C13.3411 51.9767 13.3411 51.8915 13.3481 51.812C13.3766 51.8212 13.4087 51.8334 13.4411 51.8486L30.0248 59.3508C30.896 59.7445 31.6244 60.7458 31.6491 61.5882L31.8741 68.9532C31.8776 69.0661 31.8668 69.17 31.8456 69.2644C31.7915 69.2462 31.7379 69.2248 31.6807 69.2007ZM12.334 38.9988L29.6461 47.1603C30.51 47.5662 31.2314 48.5796 31.2561 49.4221L31.4881 56.7963C31.4916 56.897 31.4847 56.9917 31.4669 57.0771C31.4167 57.062 31.3669 57.0405 31.3133 57.0161L14.6369 49.4251C13.7657 49.0284 13.0018 48.0272 12.9304 47.1847L12.2522 39.1938C12.2453 39.1113 12.2453 39.0351 12.2487 38.9618C12.2769 38.971 12.3055 38.9862 12.334 38.9988ZM31.9915 79.6422L16.6966 73.2782C15.8111 72.9089 15.033 71.9291 14.9615 71.0896L14.4404 64.9424C14.4331 64.8387 14.4331 64.744 14.4478 64.6556C14.4798 64.6648 14.5157 64.68 14.5512 64.6952L30.378 71.5292C31.26 71.9077 31.9953 72.8997 32.0204 73.7421L32.1988 79.3736C32.2022 79.4927 32.1918 79.6026 32.1629 79.7033C32.1057 79.6881 32.0486 79.6666 31.9915 79.6422ZM52.5417 88.1915L37.2577 81.8337C36.3722 81.4645 35.6369 80.4817 35.6152 79.6392L35.4759 74.0659C35.4724 73.953 35.4828 73.8461 35.5045 73.7514C35.5616 73.7728 35.6222 73.794 35.6797 73.8187L51.5026 80.6497C52.3846 81.0282 53.0736 82.0202 53.0416 82.8627L52.8525 87.9232C52.849 88.0513 52.8274 88.1704 52.788 88.2744C52.7058 88.2555 52.6236 88.2252 52.5417 88.1915ZM73.0738 96.7349L57.8041 90.3801C56.9186 90.0138 56.2296 89.031 56.2689 88.1886L56.494 83.1861C56.5009 83.064 56.5191 82.9511 56.5546 82.8505C56.6368 82.8686 56.719 82.8993 56.8047 82.9359L72.6276 89.7669C73.5058 90.1484 74.1415 91.1345 74.0415 91.9737L73.5062 96.4725C73.4919 96.6069 73.456 96.729 73.4062 96.8388C73.295 96.8174 73.1842 96.7808 73.0738 96.7349Z" fill="white"/>
<path d="M73.0744 96.7344L57.8046 90.3796C56.9191 90.0133 56.2301 89.0306 56.2695 88.1881L56.4945 83.1856C56.5015 83.0635 56.5196 82.9506 56.5551 82.85C55.7877 82.6332 55.1771 83.0117 55.1412 83.7717L54.9162 88.7774C54.8806 89.6199 55.5662 90.5997 56.4551 90.969L71.7214 97.3238C72.4676 97.632 73.1531 97.4122 73.4067 96.8384C73.2955 96.8169 73.1848 96.7803 73.0744 96.7344ZM75.427 77.0931L58.7186 69.487C57.8474 69.0903 57.1727 68.0891 57.2121 67.2466L57.5085 60.6261C57.512 60.5225 57.5301 60.4248 57.5549 60.3361C56.7979 60.0889 56.1911 60.4489 56.1552 61.2152L55.8588 67.8357C55.8194 68.6752 56.4941 69.6794 57.3653 70.076L74.0737 77.6822C74.8199 78.0211 75.5054 77.8043 75.7482 77.206C75.6447 77.1816 75.5343 77.142 75.427 77.0931ZM74.1594 87.666L58.2257 80.7406C57.3476 80.3591 56.6655 79.3642 56.7049 78.5247L57.0009 71.9075C57.0048 71.7947 57.0226 71.6907 57.0546 71.5963C56.2907 71.3614 55.6835 71.7336 55.648 72.4966L55.3516 79.1108C55.3122 79.9533 55.9943 80.9452 56.8724 81.3297L72.81 88.2551C73.5561 88.5785 74.2382 88.362 74.4879 87.7759C74.381 87.7515 74.2702 87.7149 74.1594 87.666ZM52.9205 78.4329L36.9868 71.5043C36.1087 71.1228 35.3768 70.1308 35.3587 69.2883L35.1765 61.9874C35.173 61.8838 35.1838 61.7858 35.2016 61.6973C34.4091 61.4195 33.8058 61.7887 33.8236 62.5764L34.0058 69.8774C34.0274 70.7199 34.7554 71.7118 35.6339 72.0933L51.5676 79.022C52.3207 79.3487 52.9707 79.1226 53.1599 78.5184C53.0811 78.4973 53.0028 78.4666 52.9205 78.4329ZM53.3594 67.0483L36.6688 59.4513C35.7976 59.0577 35.0765 58.0535 35.0553 57.211L34.8696 49.9038C34.8658 49.8091 34.8731 49.7206 34.8874 49.6381C34.0984 49.3421 33.4951 49.7022 33.5167 50.4928L33.7024 57.7967C33.7236 58.6392 34.4485 59.6434 35.3162 60.0401L52.0103 67.637C52.7638 67.9818 53.4135 67.7528 53.5956 67.1364C53.5169 67.1153 53.4382 67.0849 53.3594 67.0483ZM31.6813 69.2002L15.7476 62.2715C14.8694 61.89 14.0982 60.8981 14.0268 60.0585L13.3486 52.0679C13.3416 51.9762 13.3416 51.891 13.3486 51.8115C12.5237 51.4818 11.9277 51.8481 11.9957 52.657L12.6739 60.6476C12.7453 61.4871 13.5165 62.4788 14.3946 62.8606L30.3283 69.786C31.0888 70.1186 31.7098 69.8807 31.8457 69.2639C31.792 69.2457 31.7384 69.2243 31.6813 69.2002ZM52.5423 88.191L37.2582 81.8333C36.3727 81.464 35.6374 80.4813 35.6158 79.6388L35.4764 74.0654C35.4729 73.9525 35.4834 73.8456 35.505 73.7509C34.7087 73.4886 34.1019 73.8671 34.1235 74.6544L34.2628 80.2278C34.2845 81.0703 35.0198 82.053 35.9053 82.4223L51.1893 88.7801C51.9389 89.0946 52.589 88.8656 52.7889 88.2735C52.7063 88.2551 52.6241 88.2247 52.5423 88.191ZM31.3138 57.0156L14.6374 49.4246C13.7662 49.028 13.0023 48.0267 12.9309 47.1843L12.2527 39.1933C12.2458 39.1108 12.2458 39.0346 12.2493 38.9613C11.4282 38.6135 10.8319 38.9676 10.8998 39.7824L11.578 47.773C11.6494 48.6155 12.4133 49.6167 13.2845 50.0133L29.9609 57.6043C30.7286 57.9522 31.3497 57.7142 31.4674 57.0763C31.4172 57.0612 31.3671 57.04 31.3138 57.0156ZM31.992 79.6417L16.6971 73.2777C15.8117 72.9084 15.0335 71.9286 14.9621 71.0891L14.441 64.9419C14.4336 64.8383 14.4336 64.7436 14.4483 64.6551C13.6234 64.3469 13.0201 64.7221 13.088 65.528L13.613 71.6782C13.6844 72.5177 14.4591 73.4975 15.3446 73.8667L30.6395 80.2308C31.4033 80.5482 32.0248 80.3103 32.1638 79.7028C32.1063 79.6876 32.0491 79.6662 31.992 79.6417Z" fill="#CE86FD"/>
<path opacity="0.2" d="M73.0744 96.7344L57.8046 90.3796C56.9191 90.0133 56.2301 89.0306 56.2695 88.1881L56.4945 83.1856C56.5015 83.0635 56.5196 82.9506 56.5551 82.85C55.7877 82.6332 55.1771 83.0117 55.1412 83.7717L54.9162 88.7774C54.8806 89.6199 55.5662 90.5997 56.4551 90.969L71.7214 97.3238C72.4676 97.632 73.1531 97.4122 73.4067 96.8384C73.2955 96.8169 73.1848 96.7803 73.0744 96.7344ZM75.427 77.0931L58.7186 69.487C57.8474 69.0903 57.1727 68.0891 57.2121 67.2466L57.5085 60.6261C57.512 60.5225 57.5301 60.4248 57.5549 60.3361C56.7979 60.0889 56.1911 60.4489 56.1552 61.2152L55.8588 67.8357C55.8194 68.6752 56.4941 69.6794 57.3653 70.076L74.0737 77.6822C74.8199 78.0211 75.5054 77.8043 75.7482 77.206C75.6447 77.1816 75.5343 77.142 75.427 77.0931ZM74.1594 87.666L58.2257 80.7406C57.3476 80.3591 56.6655 79.3642 56.7049 78.5247L57.0009 71.9075C57.0048 71.7947 57.0226 71.6907 57.0546 71.5963C56.2907 71.3614 55.6835 71.7336 55.648 72.4966L55.3516 79.1108C55.3122 79.9533 55.9943 80.9452 56.8724 81.3297L72.81 88.2551C73.5561 88.5785 74.2382 88.362 74.4879 87.7759C74.381 87.7515 74.2702 87.7149 74.1594 87.666ZM52.9205 78.4329L36.9868 71.5043C36.1087 71.1228 35.3768 70.1308 35.3587 69.2883L35.1765 61.9874C35.173 61.8838 35.1838 61.7858 35.2016 61.6973C34.4091 61.4195 33.8058 61.7887 33.8236 62.5764L34.0058 69.8774C34.0274 70.7199 34.7554 71.7118 35.6339 72.0933L51.5676 79.022C52.3207 79.3487 52.9707 79.1226 53.1599 78.5184C53.0811 78.4973 53.0028 78.4666 52.9205 78.4329ZM53.3594 67.0483L36.6688 59.4513C35.7976 59.0577 35.0765 58.0535 35.0553 57.211L34.8696 49.9038C34.8658 49.8091 34.8731 49.7206 34.8874 49.6381C34.0984 49.3421 33.4951 49.7022 33.5167 50.4928L33.7024 57.7967C33.7236 58.6392 34.4485 59.6434 35.3162 60.0401L52.0103 67.637C52.7638 67.9818 53.4135 67.7528 53.5956 67.1364C53.5169 67.1153 53.4382 67.0849 53.3594 67.0483ZM31.6813 69.2002L15.7476 62.2715C14.8694 61.89 14.0982 60.8981 14.0268 60.0585L13.3486 52.0679C13.3416 51.9762 13.3416 51.891 13.3486 51.8115C12.5237 51.4818 11.9277 51.8481 11.9957 52.657L12.6739 60.6476C12.7453 61.4871 13.5165 62.4788 14.3946 62.8606L30.3283 69.786C31.0888 70.1186 31.7098 69.8807 31.8457 69.2639C31.792 69.2457 31.7384 69.2243 31.6813 69.2002ZM52.5423 88.191L37.2582 81.8333C36.3727 81.464 35.6374 80.4813 35.6158 79.6388L35.4764 74.0654C35.4729 73.9525 35.4834 73.8456 35.505 73.7509C34.7087 73.4886 34.1019 73.8671 34.1235 74.6544L34.2628 80.2278C34.2845 81.0703 35.0198 82.053 35.9053 82.4223L51.1893 88.7801C51.9389 89.0946 52.589 88.8656 52.7889 88.2735C52.7063 88.2551 52.6241 88.2247 52.5423 88.191ZM31.3138 57.0156L14.6374 49.4246C13.7662 49.028 13.0023 48.0267 12.9309 47.1843L12.2527 39.1933C12.2458 39.1108 12.2458 39.0346 12.2493 38.9613C11.4282 38.6135 10.8319 38.9676 10.8998 39.7824L11.578 47.773C11.6494 48.6155 12.4133 49.6167 13.2845 50.0133L29.9609 57.6043C30.7286 57.9522 31.3497 57.7142 31.4674 57.0763C31.4172 57.0612 31.3671 57.04 31.3138 57.0156ZM31.992 79.6417L16.6971 73.2777C15.8117 72.9084 15.0335 71.9286 14.9621 71.0891L14.441 64.9419C14.4336 64.8383 14.4336 64.7436 14.4483 64.6551C13.6234 64.3469 13.0201 64.7221 13.088 65.528L13.613 71.6782C13.6844 72.5177 14.4591 73.4975 15.3446 73.8667L30.6395 80.2308C31.4033 80.5482 32.0248 80.3103 32.1638 79.7028C32.1063 79.6876 32.0491 79.6662 31.992 79.6417Z" fill="white"/>
<path d="M114.689 51.4149L82.2854 67.4087C81.4609 67.8146 80.3897 68.0314 79.3043 68.0529L75.2949 99.4969C76.3873 99.4481 77.4654 99.2191 78.2829 98.8132L110.233 83.0421C111.022 82.6514 111.457 82.1327 111.543 81.5924L111.553 81.5129L116.009 50.0078C115.884 50.5421 115.442 51.0427 114.689 51.4149ZM110.69 64.9304L109.843 70.9371C109.726 71.7733 108.94 72.793 108.087 73.2141L96.4624 78.9521C96.3373 79.0132 96.2196 79.0561 96.1088 79.0864C96.098 78.9917 96.098 78.8881 96.1123 78.7782L96.855 72.8811C96.9584 72.0419 97.7366 71.0192 98.59 70.5982L110.365 64.7624C110.482 64.7044 110.593 64.6618 110.7 64.6311C110.708 64.7228 110.704 64.8205 110.69 64.9304ZM93.6315 73.3636L92.871 79.3032C92.7641 80.1424 91.9856 81.1621 91.1325 81.5832L79.3367 87.4037C79.2155 87.4618 79.1013 87.5074 78.9905 87.5381C78.9797 87.4433 78.9797 87.3427 78.994 87.2328L79.7544 81.2902C79.8652 80.451 80.6433 79.4313 81.4968 79.0102L93.2856 73.1896C93.4072 73.1286 93.5249 73.0857 93.6353 73.0583C93.6458 73.153 93.6457 73.254 93.6315 73.3636ZM112.171 54.3909L111.329 60.3946C111.211 61.2308 110.422 62.2505 109.569 62.6745L97.769 68.498C97.6513 68.5561 97.537 68.5987 97.4297 68.6294C97.4228 68.538 97.4262 68.437 97.4401 68.3271L98.2862 62.3234C98.404 61.4839 99.1895 60.4645 100.043 60.0434L111.846 54.2196C111.964 54.1615 112.075 54.119 112.181 54.0883C112.189 54.1803 112.186 54.281 112.171 54.3909ZM95.0952 62.8151L94.2348 68.834C94.1136 69.6702 93.3246 70.6899 92.4712 71.111L80.6823 76.9315C80.5611 76.9926 80.443 77.0351 80.3326 77.0629C80.3218 76.9681 80.3218 76.8675 80.3361 76.7576L81.1 70.815C81.2069 69.9788 81.9889 68.9561 82.8424 68.535L94.774 62.6471C94.8883 62.5891 95.0025 62.5465 95.106 62.5188C95.1129 62.6105 95.1095 62.7085 95.0952 62.8151ZM77.8402 96.2098L78.4115 91.7627C78.5184 90.9265 79.297 89.9038 80.15 89.4827L91.9709 83.65C92.096 83.586 92.2172 83.5401 92.3314 83.5127C92.3457 83.6074 92.3457 83.7081 92.3314 83.8209L91.8138 88.2254C91.7138 89.0617 90.9426 90.0843 90.0895 90.5054L78.1864 96.3811C78.0649 96.4421 77.9471 96.4847 77.8367 96.5154C77.8259 96.4203 77.8259 96.3197 77.8402 96.2098ZM94.9095 87.7763L95.4665 83.3474C95.57 82.5079 96.3481 81.4885 97.2016 81.0674L108.88 75.3016C108.997 75.2436 109.112 75.201 109.219 75.1703C109.226 75.2617 109.222 75.3627 109.208 75.4726L108.573 79.9715C108.455 80.8077 107.67 81.8274 106.816 82.2485L95.2592 87.9469C95.1342 88.008 95.0164 88.0538 94.9056 88.0842C94.8952 87.9902 94.8952 87.8892 94.9095 87.7763Z" fill="#CE86FD"/>
<path opacity="0.3" d="M114.689 51.4149L82.2854 67.4087C81.4609 67.8146 80.3897 68.0314 79.3043 68.0529L75.2949 99.4969C76.3873 99.4481 77.4654 99.2191 78.2829 98.8132L110.233 83.0421C111.022 82.6514 111.457 82.1327 111.543 81.5924L111.553 81.5129L116.009 50.0078C115.884 50.5421 115.442 51.0427 114.689 51.4149ZM110.69 64.9304L109.843 70.9371C109.726 71.7733 108.94 72.793 108.087 73.2141L96.4624 78.9521C96.3373 79.0132 96.2196 79.0561 96.1088 79.0864C96.098 78.9917 96.098 78.8881 96.1123 78.7782L96.855 72.8811C96.9584 72.0419 97.7366 71.0192 98.59 70.5982L110.365 64.7624C110.482 64.7044 110.593 64.6618 110.7 64.6311C110.708 64.7228 110.704 64.8205 110.69 64.9304ZM93.6315 73.3636L92.871 79.3032C92.7641 80.1424 91.9856 81.1621 91.1325 81.5832L79.3367 87.4037C79.2155 87.4618 79.1013 87.5074 78.9905 87.5381C78.9797 87.4433 78.9797 87.3427 78.994 87.2328L79.7544 81.2902C79.8652 80.451 80.6433 79.4313 81.4968 79.0102L93.2856 73.1896C93.4072 73.1286 93.5249 73.0857 93.6353 73.0583C93.6458 73.153 93.6457 73.254 93.6315 73.3636ZM112.171 54.3909L111.329 60.3946C111.211 61.2308 110.422 62.2505 109.569 62.6745L97.769 68.498C97.6513 68.5561 97.537 68.5987 97.4297 68.6294C97.4228 68.538 97.4262 68.437 97.4401 68.3271L98.2862 62.3234C98.404 61.4839 99.1895 60.4645 100.043 60.0434L111.846 54.2196C111.964 54.1615 112.075 54.119 112.181 54.0883C112.189 54.1803 112.186 54.281 112.171 54.3909ZM95.0952 62.8151L94.2348 68.834C94.1136 69.6702 93.3246 70.6899 92.4712 71.111L80.6823 76.9315C80.5611 76.9926 80.443 77.0351 80.3326 77.0629C80.3218 76.9681 80.3218 76.8675 80.3361 76.7576L81.1 70.815C81.2069 69.9788 81.9889 68.9561 82.8424 68.535L94.774 62.6471C94.8883 62.5891 95.0025 62.5465 95.106 62.5188C95.1129 62.6105 95.1095 62.7085 95.0952 62.8151ZM77.8402 96.2098L78.4115 91.7627C78.5184 90.9265 79.297 89.9038 80.15 89.4827L91.9709 83.65C92.096 83.586 92.2172 83.5401 92.3314 83.5127C92.3457 83.6074 92.3457 83.7081 92.3314 83.8209L91.8138 88.2254C91.7138 89.0617 90.9426 90.0843 90.0895 90.5054L78.1864 96.3811C78.0649 96.4421 77.9471 96.4847 77.8367 96.5154C77.8259 96.4203 77.8259 96.3197 77.8402 96.2098ZM94.9095 87.7763L95.4665 83.3474C95.57 82.5079 96.3481 81.4885 97.2016 81.0674L108.88 75.3016C108.997 75.2436 109.112 75.201 109.219 75.1703C109.226 75.2617 109.222 75.3627 109.208 75.4726L108.573 79.9715C108.455 80.8077 107.67 81.8274 106.816 82.2485L95.2592 87.9469C95.1342 88.008 95.0164 88.0538 94.9056 88.0842C94.8952 87.9902 94.8952 87.8892 94.9095 87.7763Z" fill="white"/>
<path d="M95.1058 62.52C95.1127 62.6114 95.1093 62.7094 95.095 62.816L94.2346 68.8349C94.1134 69.6711 93.3244 70.6908 92.471 71.1119L80.6821 76.9324C80.5609 76.9935 80.4428 77.036 80.3324 77.0637C80.393 77.6742 80.9465 77.8789 81.6892 77.5126L93.478 71.695C94.3311 71.2739 95.1201 70.2542 95.2417 69.418L96.102 63.3991C96.2051 62.6757 95.7732 62.3276 95.1058 62.52ZM112.182 54.0898C112.189 54.1815 112.186 54.2822 112.171 54.3921L111.329 60.3958C111.211 61.232 110.422 62.2517 109.568 62.6757L97.7688 68.4993C97.6511 68.5573 97.5368 68.5999 97.4295 68.6306C97.4832 69.2411 98.0293 69.4457 98.7755 69.0794L110.575 63.2559C111.428 62.8348 112.214 61.8151 112.331 60.9789L113.178 54.9722C113.278 54.2515 112.849 53.9004 112.182 54.0898ZM93.6347 73.0595C93.6455 73.1542 93.6455 73.2549 93.6313 73.3648L92.8708 79.3044C92.7639 80.1436 91.9854 81.1633 91.1323 81.5844L79.3365 87.405C79.2153 87.463 79.1011 87.5086 78.9903 87.5393C79.0509 88.1468 79.6044 88.3544 80.3432 87.9881L92.1355 82.1675C92.989 81.7464 93.7706 80.7238 93.8779 79.8876L94.6383 73.9449C94.731 73.2272 94.2987 72.8764 93.6347 73.0595ZM110.7 64.6323C110.708 64.7237 110.704 64.8214 110.689 64.9313L109.843 70.938C109.726 71.7742 108.94 72.7939 108.087 73.215L96.4622 78.953C96.3371 79.014 96.2194 79.057 96.1086 79.0873C96.1692 79.6948 96.7262 79.9021 97.4654 79.5361L109.09 73.7981C109.943 73.377 110.732 72.3573 110.85 71.5181L111.696 65.5144C111.796 64.794 111.368 64.4429 110.7 64.6323ZM92.3316 83.5133C92.3459 83.608 92.3459 83.7086 92.3316 83.8215L91.814 88.226C91.714 89.0622 90.9428 90.0849 90.0897 90.506L78.1866 96.3816C78.065 96.4427 77.9473 96.4852 77.8369 96.5159C77.8975 97.1235 78.451 97.331 79.1937 96.9647L91.0968 91.0891C91.9502 90.668 92.7211 89.6453 92.821 88.8061L93.3387 84.4049C93.424 83.6905 92.992 83.3364 92.3316 83.5133ZM109.219 75.1715C109.226 75.2629 109.222 75.3639 109.208 75.4738L108.573 79.9727C108.455 80.8089 107.669 81.8286 106.816 82.2497L95.259 87.9481C95.134 88.0092 95.0162 88.0551 94.9054 88.0854C94.9695 88.6897 95.5231 88.8972 96.2622 88.5309L107.819 82.8325C108.673 82.4114 109.462 81.3917 109.579 80.5555L110.211 76.0566C110.311 75.3332 109.886 74.9854 109.219 75.1715Z" fill="#CE86FD"/>
<path d="M114.62 49.7109C114.602 49.9244 114.363 50.1657 113.974 50.3581L81.5709 66.3518C80.9498 66.6571 80.0535 66.834 79.1148 66.834C78.2185 66.834 77.3619 66.6723 76.7621 66.3885L10.2423 34.8468C9.79611 34.6362 9.68185 34.4468 9.67838 34.4102H8.24902C8.24825 34.958 8.68211 35.5031 9.54984 35.915L76.07 67.4537C77.7946 68.2718 80.5792 68.2533 82.2857 67.4078L114.689 51.4141C115.579 50.9748 116.037 50.3518 116.05 49.7109H114.62Z" fill="#CE86FD"/>
<path opacity="0.7" d="M114.62 49.7109C114.602 49.9244 114.363 50.1657 113.974 50.3581L81.5709 66.3518C80.9498 66.6571 80.0535 66.834 79.1148 66.834C78.2185 66.834 77.3619 66.6723 76.7621 66.3885L10.2423 34.8468C9.79611 34.6362 9.68185 34.4468 9.67838 34.4102H8.24902C8.24825 34.958 8.68211 35.5031 9.54984 35.915L76.07 67.4537C77.7946 68.2718 80.5792 68.2533 82.2857 67.4078L114.689 51.4141C115.579 50.9748 116.037 50.3518 116.05 49.7109H114.62Z" fill="white"/>
</svg>
