<svg width="62" height="62" viewBox="0 0 62 62" fill="none" xmlns="http://www.w3.org/2000/svg">
<g opacity="0.6">
<rect width="62" height="62" rx="31" fill="#F5F5F5"/>
<path d="M35.25 14.8407C34.25 11.846 31.25 12.9624 31.25 14.9569V40.9514L41.75 50.8407L47.25 45.3407L38.75 36.8407L35.25 14.8407Z" fill="#FFAF93"/>
<path d="M31.5 15.2069C31.5 15.0688 31.3881 14.9569 31.25 14.9569C31.1119 14.9569 31 15.0688 31 15.2069V40.7069C31 40.845 31.1119 40.9569 31.25 40.9569C31.3881 40.9569 31.5 40.8449 31.5 40.7069V15.2069Z" fill="#EE8778"/>
<path d="M32.4105 22.9107C32.4105 22.9107 29.7514 23.458 32.4145 23.4117C35.0776 23.3655 35.494 31.0004 34.6869 36.0841L35.0181 36.0937C35.7724 27.9695 35.25 23.4569 32.4105 22.9107Z" fill="#EE8778"/>
<path d="M34.4477 45.085C34.0343 44.682 34.0259 44.0202 34.4289 43.6069L39.9538 37.9401C40.3568 37.5268 41.0186 37.5184 41.432 37.9214C41.8453 38.3244 41.8537 38.9862 41.4507 39.3995L35.9258 45.0663C35.5228 45.4796 34.861 45.488 34.4477 45.085Z" fill="#65B9FF"/>
<path d="M35.9465 46.4733C35.551 46.0878 35.543 45.4547 35.9286 45.0592L41.5167 39.3276C41.9022 38.9322 42.5354 38.9241 42.9308 39.3097C43.3262 39.6952 43.3343 40.3283 42.9487 40.7238L37.3606 46.4554C36.975 46.8508 36.3419 46.8589 35.9465 46.4733Z" fill="#65B9FF"/>
<path d="M27 14.8407C28 11.846 31 12.9624 31 14.9569V40.9514L20.5 50.8407L15 45.3407L23.5 36.8407L27 14.8407Z" fill="#FFAF93"/>
<path d="M30.75 15.2069C30.75 15.0688 30.8619 14.9569 31 14.9569C31.1381 14.9569 31.25 15.0688 31.25 15.2069V40.7069C31.25 40.845 31.1381 40.9569 31 40.9569C30.8619 40.9569 30.75 40.8449 30.75 40.7069V15.2069Z" fill="#EE8778"/>
<path d="M29.8395 22.9107C29.8395 22.9107 32.4986 23.458 29.8355 23.4117C27.1724 23.3655 26.756 31.0004 27.5631 36.0841L27.2319 36.0937C26.4776 27.9695 27 23.4569 29.8395 22.9107Z" fill="#EE8778"/>
<path d="M27.8023 45.085C28.2157 44.682 28.2241 44.0202 27.8211 43.6069L22.2962 37.9401C21.8932 37.5268 21.2314 37.5184 20.818 37.9214C20.4047 38.3244 20.3963 38.9862 20.7993 39.3995L26.3242 45.0663C26.7272 45.4796 27.389 45.488 27.8023 45.085Z" fill="#65B9FF"/>
<path d="M26.3035 46.4733C26.699 46.0878 26.707 45.4547 26.3214 45.0592L20.7333 39.3276C20.3478 38.9322 19.7146 38.9241 19.3192 39.3097C18.9238 39.6952 18.9157 40.3283 19.3013 40.7238L24.8894 46.4554C25.275 46.8508 25.9081 46.8589 26.3035 46.4733Z" fill="#65B9FF"/>
</g>
</svg>
