<svg width="16" height="16" viewBox="0 0 16 16" fill="none" xmlns="http://www.w3.org/2000/svg">
<path d="M10.9846 8.34915C12.352 8.34915 13.4663 7.13115 13.4663 5.64915C13.4663 4.18401 12.3577 3.02344 10.9846 3.02344C9.62286 3.02344 8.50257 4.20115 8.50257 5.66058C8.50829 7.13687 9.62286 8.34915 10.9846 8.34915ZM4.36629 8.47544C5.54971 8.47544 6.52057 7.41258 6.52057 6.10858C6.52057 4.83315 5.56114 3.80487 4.36629 3.80487C3.18286 3.80487 2.20629 4.85058 2.212 6.12001C2.21771 7.41858 3.18286 8.47544 4.36629 8.47544ZM10.9846 7.48172C10.1457 7.48172 9.42743 6.67744 9.42743 5.66058C9.42743 4.66058 10.1343 3.89115 10.9846 3.89115C11.8406 3.89115 12.5414 4.64944 12.5414 5.64887C12.5414 6.66601 11.8349 7.48172 10.9846 7.48172ZM4.36629 7.61944C3.66543 7.61944 3.068 6.94744 3.068 6.12001C3.068 5.31001 3.65943 4.66087 4.36629 4.66087C5.09 4.66087 5.67029 5.29858 5.67029 6.10858C5.67029 6.94744 5.07286 7.61944 4.36629 7.61944ZM1.172 13.7437H5.682C5.406 13.5886 5.19343 13.2437 5.23371 12.8934H1.02857C0.913714 12.8934 0.856286 12.8477 0.856286 12.7383C0.856286 11.3137 2.482 9.98087 4.36086 9.98087C5.08457 9.98087 5.73371 10.1532 6.29114 10.4806C6.47605 10.2465 6.69484 10.0413 6.94029 9.87172C6.19914 9.38315 5.30886 9.13058 4.36086 9.13058C1.95343 9.13058 0 10.8769 0 12.79C0 13.4277 0.390572 13.7437 1.172 13.7437ZM7.37657 13.7437H14.5926C15.546 13.7437 16 13.4566 16 12.8246C16 11.3194 14.0983 9.14172 10.9846 9.14172C7.86486 9.14172 5.96343 11.3194 5.96343 12.8246C5.96343 13.4566 6.41714 13.7437 7.37657 13.7437ZM7.10086 12.8763C6.95143 12.8763 6.88829 12.8363 6.88829 12.7154C6.88829 11.7732 8.34743 10.0097 10.9846 10.0097C13.616 10.0097 15.0749 11.7732 15.0749 12.7154C15.0749 12.836 15.0177 12.8763 14.868 12.8763H7.10086Z" fill="#4B4B4B"/>
</svg>
