<svg width="20" height="20" viewBox="0 0 20 20" fill="none" xmlns="http://www.w3.org/2000/svg">
<mask id="mask0_12789_34729" style="mask-type:alpha" maskUnits="userSpaceOnUse" x="0" y="0" width="20" height="20">
<rect width="20" height="20" fill="#D9D9D9"/>
</mask>
<g mask="url(#mask0_12789_34729)">
<path d="M12.4798 7.52214C12.7715 7.8138 13.0076 8.1645 13.1882 8.57422C13.3687 8.98394 13.4729 9.41102 13.5007 9.85547C13.5007 10.0638 13.4263 10.2409 13.2777 10.3867C13.129 10.5326 12.9533 10.6055 12.7507 10.6055C12.5365 10.6055 12.3545 10.5326 12.2046 10.3867C12.0547 10.2409 11.9798 10.0638 11.9798 9.85547C12.0076 9.57769 11.9763 9.32075 11.8861 9.08464C11.7958 8.84852 11.6673 8.64366 11.5007 8.47005C11.334 8.29644 11.1361 8.16797 10.9069 8.08464C10.6777 8.0013 10.4243 7.97352 10.1465 8.0013C9.93815 8.0013 9.76107 7.927 9.61523 7.77839C9.4694 7.62964 9.39648 7.45394 9.39648 7.2513C9.39648 7.04297 9.4694 6.86589 9.61523 6.72005C9.76107 6.57422 9.93815 6.5013 10.1465 6.5013C10.5909 6.52908 11.0145 6.62977 11.4173 6.80339C11.8201 6.977 12.1743 7.21658 12.4798 7.52214ZM10.0007 5.5013C9.76898 5.5013 9.54343 5.50859 9.32398 5.52318C9.10454 5.53776 8.8851 5.5645 8.66565 5.60339C8.45843 5.63255 8.26107 5.59505 8.07357 5.49089C7.88607 5.38672 7.76454 5.23394 7.70898 5.03255C7.65343 4.83116 7.67773 4.64019 7.7819 4.45964C7.88607 4.27908 8.04072 4.17318 8.24586 4.14193C8.54072 4.08984 8.83294 4.05339 9.12253 4.03255C9.41211 4.01172 9.70482 4.0013 10.0007 4.0013C11.8618 4.0013 13.5736 4.477 15.1361 5.42839C16.6986 6.37977 17.8835 7.68964 18.6909 9.35797C18.7446 9.46741 18.7819 9.57436 18.8027 9.6788C18.8236 9.78325 18.834 9.89075 18.834 10.0013C18.834 10.1119 18.8236 10.2194 18.8027 10.3238C18.7819 10.4282 18.7507 10.536 18.709 10.6471C18.4625 11.1724 18.1578 11.6648 17.795 12.1244C17.4321 12.584 17.0354 13.0152 16.6048 13.418C16.452 13.5569 16.275 13.6194 16.0736 13.6055C15.8722 13.5916 15.702 13.5002 15.5632 13.3313C15.4243 13.1623 15.3652 12.9782 15.3861 12.7792C15.4069 12.5801 15.4937 12.4041 15.6465 12.2513C16.0076 11.9319 16.3295 11.5846 16.6123 11.2096C16.8952 10.8346 17.1427 10.4319 17.3548 10.0013C16.6743 8.59852 15.6708 7.49783 14.3444 6.69922C13.018 5.90061 11.5701 5.5013 10.0007 5.5013ZM10.0007 16.0013C8.18121 16.0013 6.5076 15.5187 4.97982 14.5534C3.45204 13.5881 2.25016 12.3055 1.37419 10.7057C1.30572 10.5972 1.26107 10.4837 1.24023 10.3653C1.2194 10.2469 1.20898 10.1254 1.20898 10.0007C1.20898 9.87609 1.2194 9.75477 1.24023 9.63672C1.26107 9.51866 1.30621 9.40408 1.37565 9.29297C1.6951 8.66797 2.06843 8.08477 2.49565 7.54339C2.92301 7.002 3.41079 6.5088 3.95898 6.0638L2.39648 4.5013C2.24371 4.34852 2.16732 4.17491 2.16732 3.98047C2.16732 3.78602 2.24371 3.61241 2.39648 3.45964C2.54926 3.30686 2.72635 3.23047 2.92773 3.23047C3.12912 3.23047 3.30621 3.30686 3.45898 3.45964L16.5423 16.543C16.6951 16.6957 16.7715 16.8694 16.7715 17.0638C16.7715 17.2582 16.6951 17.4319 16.5423 17.5846C16.3895 17.7374 16.2125 17.8138 16.0111 17.8138C15.8097 17.8138 15.6326 17.7374 15.4798 17.5846L13.2923 15.418C12.759 15.6124 12.218 15.7582 11.6694 15.8555C11.1208 15.9527 10.5645 16.0013 10.0007 16.0013ZM5.02148 7.14714C4.53537 7.53602 4.08398 7.96311 3.66732 8.42839C3.25065 8.89366 2.91037 9.41797 2.64648 10.0013C3.32704 11.4041 4.33051 12.5048 5.6569 13.3034C6.98329 14.102 8.43121 14.5013 10.0007 14.5013C10.3647 14.5013 10.7195 14.477 11.0652 14.4284C11.4111 14.3798 11.7576 14.3138 12.1048 14.2305L11.1673 13.293C10.9729 13.3624 10.7784 13.4145 10.584 13.4492C10.3895 13.4839 10.1951 13.5013 10.0007 13.5013C9.02843 13.5013 8.20204 13.161 7.52148 12.4805C6.84093 11.7999 6.50065 10.9735 6.50065 10.0013C6.50065 9.80686 6.52496 9.61241 6.57357 9.41797C6.62218 9.22352 6.66732 9.02908 6.70898 8.83464L5.02148 7.14714Z" fill="#8E8E8E"/>
</g>
</svg>
