<svg width="44" height="44" viewBox="0 0 44 44" fill="none" xmlns="http://www.w3.org/2000/svg">
<circle cx="22" cy="22" r="22" fill="#EEEEEE"/>
<circle cx="22" cy="22" r="22" fill="#EEEEEE"/>
<circle cx="22.0004" cy="21.9999" r="17.6" fill="#F5F5F5"/>
<mask id="mask0_23162_3998" style="mask-type:alpha" maskUnits="userSpaceOnUse" x="4" y="4" width="36" height="36">
<circle cx="22.0004" cy="21.9999" r="17.6" fill="#FAFAFA"/>
</mask>
<g mask="url(#mask0_23162_3998)">
<line x1="10.6666" y1="4.3999" x2="10.6666" y2="39.5999" stroke="#CACACA" stroke-width="0.8"/>
<line x1="16.5338" y1="4.3999" x2="16.5338" y2="39.5999" stroke="#CACACA" stroke-width="0.8"/>
<line x1="28.2672" y1="4.3999" x2="28.2672" y2="39.5999" stroke="#CACACA" stroke-width="0.8"/>
<line x1="34.1334" y1="4.3999" x2="34.1334" y2="39.5999" stroke="#CACACA" stroke-width="0.8"/>
<line x1="22.4" y1="4.3999" x2="22.4" y2="39.5999" stroke="#CACACA" stroke-width="0.8"/>
<line x1="39.6006" y1="10.6666" x2="4.40059" y2="10.6666" stroke="#CACACA" stroke-width="0.8"/>
<line x1="39.6006" y1="16.5333" x2="4.40059" y2="16.5333" stroke="#CACACA" stroke-width="0.8"/>
<line x1="39.6006" y1="28.2667" x2="4.40059" y2="28.2667" stroke="#CACACA" stroke-width="0.8"/>
<line x1="39.6006" y1="34.1332" x2="4.40059" y2="34.1332" stroke="#CACACA" stroke-width="0.8"/>
<line x1="39.6006" y1="22.4" x2="4.40059" y2="22.4" stroke="#CACACA" stroke-width="0.8"/>
<path fill-rule="evenodd" clip-rule="evenodd" d="M23.8152 17.9985C20.9622 17.1663 18.9218 14.8643 19.0995 12.4854C19.2991 9.81361 22.2212 8.05664 25.6262 8.56109C28.2788 8.95407 30.4419 10.6035 31.174 12.5764C34.8547 14.3923 37.0722 17.1311 36.2265 18.9991C35.2974 21.0512 31.0233 21.2752 26.68 19.4994C25.6212 19.0665 24.656 18.5547 23.8152 17.9985Z" fill="#D68C8C"/>
<path fill-rule="evenodd" clip-rule="evenodd" d="M22.4511 16.0908C20.3859 15.1202 19.0264 13.4638 19.1511 11.7943C19.3222 9.5042 22.2212 8.05664 25.6262 8.56109C28.4349 8.97719 30.7105 10.5915 31.3254 12.4294C34.4164 14.0295 36.1903 16.1353 35.4426 17.5735C34.5366 19.3162 30.2715 19.4191 25.9163 17.8033C24.5988 17.3145 23.4239 16.7244 22.4511 16.0908Z" fill="white"/>
<path fill-rule="evenodd" clip-rule="evenodd" d="M30.9801 11.7986C30.9984 11.792 31.0164 11.7854 31.0341 11.7787C30.1564 10.2211 28.0977 8.92723 25.6262 8.56109C23.1975 8.20127 21.0262 8.83459 19.9187 10.0584C20.3205 10.234 20.7357 10.4036 21.1629 10.5658C23.9133 11.6101 26.5566 12.1181 28.5835 12.1246C29.6 12.1278 30.4069 12.0047 30.9801 11.7986ZM19.1511 11.7943C19.175 11.4746 19.2521 11.1713 19.3763 10.8874C19.8197 11.0829 20.2777 11.2709 20.7488 11.4497C24.5652 12.8987 28.2623 13.3823 30.582 12.8965C30.2378 13.2119 29.9908 13.5775 29.8581 13.9909C29.3695 15.5127 30.5417 17.335 32.7447 18.898C30.9191 19.0967 28.4327 18.7369 25.9163 17.8033C24.5988 17.3145 23.4239 16.7244 22.4511 16.0908C20.3859 15.1202 19.0264 13.4638 19.1511 11.7943ZM32.3186 12.988C34.7842 14.4957 36.106 16.2974 35.4426 17.5735C35.2054 18.0297 34.7381 18.3735 34.0992 18.6036C33.4553 18.208 32.8891 17.7918 32.4132 17.3688C30.9566 16.0742 30.6029 14.9746 30.8269 14.2767C30.9762 13.8116 31.4426 13.3372 32.3186 12.988Z" fill="#F7B1B1"/>
<path fill-rule="evenodd" clip-rule="evenodd" d="M15.0486 31.8262C11.0876 31.7266 7.67305 29.1824 7.09162 25.6667C6.43858 21.7179 9.60679 18.0389 14.168 17.4494C17.7214 16.9901 21.0719 18.5413 22.6879 21.1162C28.0513 22.3199 31.843 25.4284 31.3892 28.463C30.8907 31.7968 25.4573 33.7789 19.2534 32.8902C17.7408 32.6735 16.3221 32.3062 15.0486 31.8262Z" fill="#D68C8C"/>
<path fill-rule="evenodd" clip-rule="evenodd" d="M12.6389 29.5907C9.64678 28.9849 7.33069 27.1123 6.9227 24.6453C6.36295 21.2606 9.6068 18.0389 14.168 17.4494C17.9306 16.963 21.4143 18.4197 22.8331 20.8446C27.3625 21.9645 30.3665 24.3276 29.8927 26.7015C29.3186 29.5779 23.8556 31.381 17.6908 30.7288C15.8252 30.5314 14.1092 30.1318 12.6389 29.5907Z" fill="white"/>
<path fill-rule="evenodd" clip-rule="evenodd" d="M22.3185 20.456C22.376 20.4112 22.4312 20.3663 22.484 20.3214C20.8959 18.2143 17.6515 16.9991 14.168 17.4494C10.6975 17.8979 7.98959 19.8704 7.13961 22.279C7.75148 22.3854 8.38001 22.4761 9.02279 22.5497C12.9466 22.9987 16.5621 22.7105 19.2213 21.9207C20.5523 21.5254 21.5962 21.0185 22.3185 20.456ZM6.9227 24.6453C6.84455 24.1727 6.84054 23.7034 6.90391 23.2439C7.54224 23.3552 8.19685 23.4499 8.86509 23.5264C14.2782 24.1459 19.2086 23.413 22.0335 21.8096C21.6973 22.4002 21.5035 23.0257 21.4733 23.6759C21.3621 26.0705 23.4939 28.2564 26.8664 29.6667C24.5807 30.6628 21.2529 31.1056 17.6908 30.7288C15.8252 30.5314 14.1092 30.1318 12.6389 29.5907C9.64678 28.9849 7.33069 27.1123 6.9227 24.6453ZM23.8466 21.1234C27.8024 22.3267 30.3302 24.5095 29.8927 26.7015C29.7126 27.6042 29.0509 28.4012 28.0371 29.0498C27.2113 28.7515 26.4567 28.4083 25.7872 28.0298C23.4763 26.7232 22.4113 25.1491 22.4784 23.7047C22.5186 22.8385 22.9692 21.9492 23.8466 21.1234Z" fill="#F7B1B1"/>
</g>
<circle cx="22" cy="22" r="22" fill="#EEEEEE"/>
<circle cx="22" cy="22" r="22" fill="#EEEEEE"/>
<circle cx="22.0004" cy="21.9999" r="17.6" fill="#F5F5F5"/>
<rect x="15.7305" y="11.5769" width="5.33827" height="8.81166" fill="#F7941E"/>
<rect x="15.7305" y="11.0271" width="5.33827" height="8.81166" fill="#FAB655"/>
<rect x="23.7363" y="11.5769" width="5.33827" height="8.81166" fill="#F7941E"/>
<rect x="23.042" y="11.0271" width="5.33827" height="8.81166" fill="#FAB655"/>
<path fill-rule="evenodd" clip-rule="evenodd" d="M17.4675 6.52154C17.8053 5.82304 18.3097 5.68381 18.7956 5.74167C19.2916 5.80073 19.7504 6.06644 19.9475 6.18053L19.955 6.18488L19.955 6.1848C20.6722 6.60015 21.2068 7.22299 21.5344 7.81172C21.6983 8.10635 21.8066 8.38564 21.8616 8.61873C21.91 8.82346 21.9116 8.96717 21.8946 9.05346C21.7206 9.24677 21.3082 9.44419 20.6759 9.45279C20.0193 9.46172 19.1624 9.26454 18.1913 8.69175L18.0976 8.94617L18.1605 8.67636C17.9094 8.57368 17.6104 8.27912 17.4386 7.8777C17.2731 7.491 17.2293 7.01422 17.4675 6.52154ZM18.0152 9.21763C17.6274 9.0516 17.2323 8.63828 17.0064 8.11045C16.7709 7.55995 16.7153 6.8747 17.0395 6.20434C17.4867 5.27949 18.1887 5.08926 18.8085 5.16306C19.3963 5.23305 19.9247 5.53949 20.1266 5.65655L20.1415 5.66519L20.1415 5.6651C20.9518 6.13426 21.5587 6.83856 21.9358 7.51618C22.1242 7.85479 22.259 8.19353 22.3314 8.50034C22.402 8.799 22.4218 9.10424 22.3384 9.34724L22.3238 9.38968L22.2984 9.42346C22.0233 9.7886 21.4441 10.0244 20.7174 10.0343C19.9795 10.0443 19.0484 9.82395 18.0152 9.21763Z" fill="black"/>
<path fill-rule="evenodd" clip-rule="evenodd" d="M27.0562 6.49932C26.7031 5.81077 26.1961 5.68488 25.7113 5.75578C25.2166 5.82814 24.7637 6.10615 24.5693 6.22551L24.5619 6.23006L24.3625 5.71521L24.3776 5.70594C24.5767 5.58353 25.0978 5.26314 25.6836 5.17746C26.3013 5.08712 27.0078 5.25828 27.4762 6.17156C27.8157 6.8336 27.7755 7.52042 27.5526 8.07678C27.3373 8.61412 26.9479 9.03977 26.5616 9.21363C25.545 9.8447 24.6214 10.089 23.8849 10.0987C23.1584 10.1083 22.5738 9.88818 22.2902 9.53014L22.2639 9.49687L22.2483 9.45461C22.1592 9.21352 22.1723 8.90762 22.236 8.60728C22.3015 8.29866 22.4285 7.95648 22.6091 7.61303C22.9706 6.9257 23.5612 6.20561 24.3604 5.71506L24.5598 6.2299C23.8518 6.66451 23.3311 7.30184 23.0168 7.89947C22.8596 8.1985 22.7576 8.48068 22.7079 8.71521C22.6642 8.92097 22.6659 9.06441 22.6846 9.14998C22.8628 9.33818 23.2793 9.5244 23.9115 9.51606C24.5681 9.5074 25.4205 9.2873 26.3786 8.68855L26.4856 8.959L26.4113 8.67226C26.6604 8.56271 26.9529 8.25985 27.1157 7.85372C27.2724 7.46243 27.3052 6.98491 27.0562 6.49932Z" fill="black"/>
<rect x="15.3486" y="9.72168" width="6.10134" height="1.85523" fill="#4590BB"/>
<rect x="23.3584" y="9.72168" width="6.10134" height="1.85523" fill="#175C8E"/>
<rect x="21.707" y="9.72168" width="6.10134" height="1.85523" fill="#4590BB"/>
<rect x="22.7686" y="9.72168" width="6.10134" height="1.85523" fill="#4590BB"/>
<rect x="21.0684" y="9.2583" width="2.66913" height="11.1305" fill="#4590BB"/>
<rect x="21.0684" y="9.2583" width="2.66913" height="10.5789" fill="#4590BB"/>
<rect x="21.0693" y="9.2583" width="2.31" height="10.5789" fill="#6DBBDD"/>
<path fill-rule="evenodd" clip-rule="evenodd" d="M16.7067 18.4421C17.9223 17.5219 17.6859 15.6308 16.2812 15.0382L14.6642 14.356L14.4467 12.6169C14.2576 11.1041 12.5017 10.3633 11.2861 11.2835L9.88869 12.3414L8.27358 11.66C6.86883 11.0674 5.34933 12.2176 5.53848 13.7305L5.75596 15.4699L4.3567 16.5292C3.1411 17.4494 3.37753 19.3405 4.78227 19.9331L6.39928 20.6153L6.61671 22.3543C6.80586 23.8672 8.56179 24.608 9.77739 23.6877L11.1747 22.6299L12.7898 23.3113C14.1946 23.9039 15.7141 22.7536 15.5249 21.2408L15.3075 19.5014L16.7067 18.4421Z" fill="#F5F51C"/>
<path fill-rule="evenodd" clip-rule="evenodd" d="M16.6648 15.2624C17.7202 16.0077 17.804 17.6255 16.7085 18.4548L15.3093 19.5141L15.5267 21.2535C15.7159 22.7663 14.1964 23.9166 12.7916 23.324L11.1765 22.6426L9.77918 23.7005C8.83754 24.4133 7.57167 24.1294 6.961 23.2621C7.62633 23.7348 8.56866 23.7914 9.31002 23.2302L10.7074 22.1723L12.3228 22.8538C13.7276 23.4464 15.2471 22.2961 15.0579 20.7833L14.8404 19.0436L16.2394 17.9846C17.1403 17.3025 17.2437 16.0871 16.6648 15.2624ZM14.63 14.0812L14.4485 12.6297C14.3748 12.0397 14.0628 11.5672 13.6375 11.2648C13.815 11.517 13.9371 11.8186 13.9797 12.1594L14.1972 13.8986L14.63 14.0812ZM3.93278 19.2637C4.13493 19.5519 4.42033 19.7924 4.78406 19.9458L5.96786 20.4452L5.9319 20.1576L4.31525 19.4756C4.17623 19.417 4.04864 19.3456 3.93278 19.2637Z" fill="#D6DD09"/>
<path d="M11.304 19.2649C11.2218 18.7317 11.5874 18.2328 12.1206 18.1507C12.6538 18.0685 13.1526 18.4341 13.2348 18.9673C13.317 19.5005 12.9514 19.9993 12.4182 20.0815C11.885 20.1637 11.3862 19.7981 11.304 19.2649Z" stroke="white" stroke-width="0.49514"/>
<path d="M7.45534 15.7292C7.37315 15.1961 7.73876 14.6972 8.27194 14.615C8.80513 14.5328 9.30399 14.8984 9.38617 15.4316C9.46836 15.9648 9.10275 16.4637 8.56957 16.5459C8.03638 16.628 7.53753 16.2624 7.45534 15.7292Z" stroke="white" stroke-width="0.49514"/>
<line x1="7.59753" y1="19.6256" x2="13.1215" y2="14.7826" stroke="white" stroke-width="0.49514"/>
<path fill-rule="evenodd" clip-rule="evenodd" d="M14.5225 13.231L14.6641 14.3642L14.2308 14.2029L14.1156 13.2818L14.5225 13.231Z" fill="#D6DD09"/>
<path fill-rule="evenodd" clip-rule="evenodd" d="M5.53079 20.2605L6.39899 20.6268L6.36313 20.3401L5.49494 19.9738L5.53079 20.2605Z" fill="#D6DD09"/>
<path d="M38.7401 18.1594C38.1586 21.0226 35.3662 22.8723 32.503 22.2908C29.6398 21.7094 27.7901 18.9169 28.3716 16.0538C28.9531 13.1906 31.7455 11.3409 34.6087 11.9223C37.4718 12.5038 39.3215 15.2962 38.7401 18.1594Z" fill="#FFFF54" stroke="#FFC62B" stroke-width="0.836809"/>
<mask id="path-45-inside-1_23162_3998" fill="white">
<path fill-rule="evenodd" clip-rule="evenodd" d="M33.17 17.2214L33.4308 16.6917L33.8484 16.7765L33.8819 17.366L33.17 17.2214ZM32.7276 17.1315L32.9884 16.6019L32.227 16.4472L32.2605 17.0367L32.7276 17.1315ZM32.2717 17.2327L32.6408 17.3077L32.3137 17.972L32.2717 17.2327ZM31.8292 17.1429L31.9311 18.9343C31.9381 19.0574 32.0402 19.1309 32.1591 19.0985C32.2615 19.0705 32.3431 18.9732 32.3592 18.8681L33.0833 17.3976L33.8931 17.562L33.9822 19.1294C33.972 19.1781 33.9754 19.2302 33.9908 19.2783C33.9981 19.3719 34.061 19.4358 34.1439 19.4442C34.2241 19.4695 34.3076 19.4351 34.351 19.3511C34.3837 19.3129 34.4071 19.2664 34.4167 19.2178L35.1102 17.8092L36.4636 18.084L36.5014 17.8979L35.197 17.633L35.4578 17.1033L36.6161 17.3386L36.6539 17.1525L35.5445 16.9272L36.1719 15.653C36.2263 15.5424 36.1919 15.391 36.0951 15.3147C35.9982 15.2385 35.8756 15.2663 35.8211 15.3769L35.1021 16.8373L34.2797 16.6703L34.1873 15.045C34.1814 14.9427 34.11 14.8747 34.0177 14.8732C33.9321 14.8383 33.8396 14.8731 33.7943 14.9651L33.0751 16.4257L32.2159 16.2512L32.128 14.7059C32.121 14.5828 32.0189 14.5094 31.8999 14.5418C31.781 14.5742 31.6903 14.7003 31.6973 14.8234L31.7734 16.1613L30.6867 15.9406L30.6489 16.1267L31.7845 16.3574L31.8181 16.9468L30.5342 16.6861L30.4964 16.8722L31.8292 17.1429ZM34.7545 17.5432L35.0153 17.0135L34.2909 16.8664L34.3244 17.4558L34.7545 17.5432ZM34.3355 17.6519L34.3734 18.3172L34.6678 17.7193L34.3355 17.6519ZM33.8008 15.9402L33.8373 16.5805L33.5176 16.5155L33.8008 15.9402Z"/>
</mask>
<path d="M33.4308 16.6917L33.5419 16.145L33.1203 16.0594L32.9303 16.4453L33.4308 16.6917ZM33.17 17.2214L32.6695 16.975L32.3499 17.6241L33.059 17.7681L33.17 17.2214ZM33.8484 16.7765L34.4054 16.7448L34.3809 16.3154L33.9594 16.2298L33.8484 16.7765ZM33.8819 17.366L33.7709 17.9127L34.48 18.0567L34.4389 17.3343L33.8819 17.366ZM32.9884 16.6019L33.4889 16.8483L33.8085 16.1991L33.0994 16.0551L32.9884 16.6019ZM32.7276 17.1315L32.6165 17.6783L33.0381 17.7639L33.2281 17.378L32.7276 17.1315ZM32.227 16.4472L32.338 15.9005L31.6289 15.7565L31.67 16.4789L32.227 16.4472ZM32.2605 17.0367L31.7036 17.0684L31.728 17.4978L32.1495 17.5834L32.2605 17.0367ZM32.6408 17.3077L33.1413 17.5541L33.4609 16.905L32.7518 16.761L32.6408 17.3077ZM32.2717 17.2327L32.3827 16.686L31.6736 16.542L31.7147 17.2644L32.2717 17.2327ZM32.3137 17.972L31.7568 18.0037L31.8772 20.1215L32.8142 18.2184L32.3137 17.972ZM31.9311 18.9343L32.4881 18.9027L31.9311 18.9343ZM31.8292 17.1429L32.3862 17.1112L32.3618 16.6818L31.9403 16.5962L31.8292 17.1429ZM32.1591 19.0985L32.3059 19.6367L32.3059 19.6367L32.1591 19.0985ZM32.3592 18.8681L31.8587 18.6216L31.8209 18.6985L31.8079 18.7831L32.3592 18.8681ZM33.0833 17.3976L33.1943 16.8509L32.7728 16.7653L32.5828 17.1511L33.0833 17.3976ZM33.8931 17.562L34.4501 17.5303L34.4256 17.1009L34.0041 17.0153L33.8931 17.562ZM33.9822 19.1294L34.5282 19.2443L34.5434 19.1717L34.5392 19.0977L33.9822 19.1294ZM33.9908 19.2783L34.5469 19.2349L34.5419 19.1703L34.5222 19.1085L33.9908 19.2783ZM34.1439 19.4442L34.3114 18.9121L34.2572 18.895L34.2007 18.8892L34.1439 19.4442ZM34.351 19.3511L33.9275 18.9879L33.8851 19.0373L33.8553 19.0952L34.351 19.3511ZM34.4167 19.2178L33.9162 18.9713L33.8835 19.0376L33.8693 19.1101L34.4167 19.2178ZM35.1102 17.8092L35.2212 17.2625L34.7997 17.1769L34.6097 17.5628L35.1102 17.8092ZM36.4636 18.084L36.3526 18.6308L36.8993 18.7418L37.0103 18.1951L36.4636 18.084ZM36.5014 17.8979L37.0481 18.009L37.1591 17.4622L36.6124 17.3512L36.5014 17.8979ZM35.197 17.633L34.6965 17.3866L34.3768 18.0357L35.0859 18.1797L35.197 17.633ZM35.4578 17.1033L35.5688 16.5566L35.1473 16.471L34.9573 16.8569L35.4578 17.1033ZM36.6161 17.3386L36.5051 17.8853L37.0518 17.9963L37.1628 17.4496L36.6161 17.3386ZM36.6539 17.1525L37.2006 17.2635L37.3116 16.7168L36.7649 16.6057L36.6539 17.1525ZM35.5445 16.9272L35.044 16.6807L34.7244 17.3299L35.4335 17.4739L35.5445 16.9272ZM36.1719 15.653L35.6714 15.4066L35.6714 15.4066L36.1719 15.653ZM36.0951 15.3147L35.75 15.753L36.0951 15.3147ZM35.8211 15.3769L35.3206 15.1305L35.8211 15.3769ZM35.1021 16.8373L34.991 17.384L35.4125 17.4696L35.6025 17.0837L35.1021 16.8373ZM34.2797 16.6703L33.7227 16.702L33.7472 17.1314L34.1687 17.217L34.2797 16.6703ZM34.1873 15.045L33.6303 15.0767L33.6303 15.0767L34.1873 15.045ZM34.0177 14.8732L33.8072 15.3898L33.9042 15.4294L34.0089 15.431L34.0177 14.8732ZM33.7943 14.9651L34.2948 15.2115L34.2948 15.2115L33.7943 14.9651ZM33.0751 16.4257L32.9641 16.9724L33.3856 17.058L33.5756 16.6721L33.0751 16.4257ZM32.2159 16.2512L31.6589 16.2829L31.6833 16.7123L32.1048 16.7979L32.2159 16.2512ZM32.128 14.7059L31.571 14.7376L31.571 14.7376L32.128 14.7059ZM31.8999 14.5418L32.0467 15.08L32.0467 15.08L31.8999 14.5418ZM31.6973 14.8234L32.2543 14.7917L32.2543 14.7917L31.6973 14.8234ZM31.7734 16.1613L31.6624 16.708L32.3715 16.852L32.3304 16.1296L31.7734 16.1613ZM30.6867 15.9406L30.7977 15.3939L30.251 15.2829L30.14 15.8296L30.6867 15.9406ZM30.6489 16.1267L30.1022 16.0157L29.9911 16.5624L30.5378 16.6735L30.6489 16.1267ZM31.7845 16.3574L32.3415 16.3257L32.3171 15.8963L31.8956 15.8107L31.7845 16.3574ZM31.8181 16.9468L31.707 17.4936L32.4161 17.6376L32.375 16.9152L31.8181 16.9468ZM30.5342 16.6861L30.6452 16.1394L30.0985 16.0284L29.9875 16.5751L30.5342 16.6861ZM30.4964 16.8722L29.9497 16.7612L29.8386 17.3079L30.3853 17.4189L30.4964 16.8722ZM34.7545 17.5432L34.6435 18.0899L35.065 18.1755L35.255 17.7896L34.7545 17.5432ZM35.0153 17.0135L35.5158 17.2599L35.8354 16.6108L35.1263 16.4668L35.0153 17.0135ZM34.2909 16.8664L34.4019 16.3197L33.6928 16.1756L33.7339 16.898L34.2909 16.8664ZM34.3244 17.4558L33.7674 17.4875L33.7918 17.9169L34.2134 18.0025L34.3244 17.4558ZM34.3355 17.6519L34.4466 17.1052L33.7375 16.9612L33.7786 17.6836L34.3355 17.6519ZM34.3734 18.3172L33.8164 18.3489L33.9369 20.4667L34.8739 18.5636L34.3734 18.3172ZM34.6678 17.7193L35.1683 17.9658L35.4879 17.3166L34.7788 17.1726L34.6678 17.7193ZM33.8373 16.5805L33.7262 17.1272L34.4353 17.2712L34.3942 16.5488L33.8373 16.5805ZM33.8008 15.9402L34.3578 15.9086L34.2373 13.7908L33.3003 15.6938L33.8008 15.9402ZM33.5176 16.5155L33.0171 16.2691L32.6975 16.9182L33.4065 17.0622L33.5176 16.5155ZM32.9303 16.4453L32.6695 16.975L33.6705 17.4678L33.9313 16.9381L32.9303 16.4453ZM33.9594 16.2298L33.5419 16.145L33.3198 17.2384L33.7374 17.3232L33.9594 16.2298ZM34.4389 17.3343L34.4054 16.7448L33.2914 16.8082L33.325 17.3977L34.4389 17.3343ZM33.059 17.7681L33.7709 17.9127L33.993 16.8193L33.281 16.6747L33.059 17.7681ZM32.4879 16.3554L32.2271 16.8851L33.2281 17.378L33.4889 16.8483L32.4879 16.3554ZM32.116 16.9939L32.8773 17.1486L33.0994 16.0551L32.338 15.9005L32.116 16.9939ZM32.8175 17.005L32.784 16.4156L31.67 16.4789L31.7036 17.0684L32.8175 17.005ZM32.1495 17.5834L32.6165 17.6783L32.8386 16.5848L32.3716 16.49L32.1495 17.5834ZM32.7518 16.761L32.3827 16.686L32.1607 17.7795L32.5298 17.8544L32.7518 16.761ZM32.1403 17.0613L31.8132 17.7256L32.8142 18.2184L33.1413 17.5541L32.1403 17.0613ZM32.8707 17.9403L32.8287 17.2011L31.7147 17.2644L31.7568 18.0037L32.8707 17.9403ZM32.4881 18.9027L32.3862 17.1112L31.2723 17.1746L31.3741 18.966L32.4881 18.9027ZM32.0123 18.5602C32.0997 18.5364 32.2211 18.5442 32.329 18.6219C32.437 18.6996 32.483 18.8123 32.4881 18.9027L31.3741 18.966C31.3863 19.1795 31.4868 19.3904 31.6773 19.5275C31.8677 19.6646 32.0997 19.6929 32.3059 19.6367L32.0123 18.5602ZM31.8079 18.7831C31.8169 18.7247 31.8411 18.6804 31.8684 18.6486C31.8958 18.6168 31.9421 18.5794 32.0123 18.5602L32.3059 19.6367C32.6368 19.5464 32.8635 19.259 32.9106 18.953L31.8079 18.7831ZM32.5828 17.1511L31.8587 18.6216L32.8597 19.1145L33.5838 17.644L32.5828 17.1511ZM34.0041 17.0153L33.1943 16.8509L32.9723 17.9443L33.7821 18.1087L34.0041 17.0153ZM34.5392 19.0977L34.4501 17.5303L33.3361 17.5937L33.4253 19.1611L34.5392 19.0977ZM34.5222 19.1085C34.5342 19.1462 34.5391 19.1922 34.5282 19.2443L33.4363 19.0145C33.4049 19.164 33.4166 19.3142 33.4593 19.448L34.5222 19.1085ZM34.2007 18.8892C34.2893 18.8983 34.3781 18.9394 34.4454 19.011C34.5124 19.0823 34.5415 19.1656 34.5469 19.2349L33.4346 19.3216C33.4614 19.6658 33.7181 19.9615 34.0872 19.9992L34.2007 18.8892ZM33.8553 19.0952C33.8873 19.0332 33.9469 18.9674 34.0371 18.9278C34.1277 18.888 34.2261 18.8852 34.3114 18.9121L33.9765 19.9764C34.3327 20.0885 34.6874 19.9157 34.8467 19.6069L33.8553 19.0952ZM33.8693 19.1101C33.8795 19.0581 33.9019 19.0178 33.9275 18.9879L34.7744 19.7143C34.8656 19.608 34.9347 19.4747 34.9641 19.3254L33.8693 19.1101ZM34.6097 17.5628L33.9162 18.9713L34.9172 19.4642L35.6107 18.0556L34.6097 17.5628ZM36.5746 17.5373L35.2212 17.2625L34.9992 18.3559L36.3526 18.6308L36.5746 17.5373ZM35.9547 17.7869L35.9169 17.973L37.0103 18.1951L37.0481 18.009L35.9547 17.7869ZM35.0859 18.1797L36.3904 18.4446L36.6124 17.3512L35.308 17.0863L35.0859 18.1797ZM34.9573 16.8569L34.6965 17.3866L35.6975 17.8795L35.9583 17.3498L34.9573 16.8569ZM36.7271 16.7919L35.5688 16.5566L35.3467 17.6501L36.5051 17.8853L36.7271 16.7919ZM36.1072 17.0414L36.0694 17.2275L37.1628 17.4496L37.2006 17.2635L36.1072 17.0414ZM35.4335 17.4739L36.5429 17.6992L36.7649 16.6057L35.6555 16.3805L35.4335 17.4739ZM35.6714 15.4066L35.044 16.6807L36.045 17.1736L36.6724 15.8995L35.6714 15.4066ZM35.75 15.753C35.6842 15.7012 35.6564 15.6396 35.6462 15.5945C35.6359 15.5494 35.6344 15.4818 35.6714 15.4066L36.6724 15.8995C36.8432 15.5526 36.744 15.1156 36.4402 14.8764L35.75 15.753ZM36.3216 15.6233C36.2816 15.7045 36.1954 15.7904 36.0657 15.8198C35.936 15.8492 35.8211 15.809 35.75 15.753L36.4402 14.8764C36.2722 14.7441 36.0476 14.6798 35.8187 14.7317C35.5899 14.7836 35.4151 14.9387 35.3206 15.1305L36.3216 15.6233ZM35.6025 17.0837L36.3216 15.6233L35.3206 15.1305L34.6016 16.5909L35.6025 17.0837ZM34.1687 17.217L34.991 17.384L35.2131 16.2906L34.3907 16.1236L34.1687 17.217ZM33.6303 15.0767L33.7227 16.702L34.8367 16.6386L34.7442 15.0133L33.6303 15.0767ZM34.0089 15.431C33.9162 15.4296 33.8175 15.3925 33.7414 15.3168C33.6656 15.2413 33.6345 15.1504 33.6303 15.0767L34.7442 15.0133C34.7229 14.6375 34.4292 14.3218 34.0266 14.3154L34.0089 15.431ZM34.2948 15.2115C34.2621 15.2779 34.1978 15.3496 34.0983 15.3894C33.9985 15.4294 33.8931 15.4248 33.8072 15.3898L34.2283 14.3566C33.8549 14.2044 33.4604 14.3803 33.2938 14.7187L34.2948 15.2115ZM33.5756 16.6721L34.2948 15.2115L33.2938 14.7187L32.5746 16.1793L33.5756 16.6721ZM32.1048 16.7979L32.9641 16.9724L33.1861 15.879L32.3269 15.7045L32.1048 16.7979ZM31.571 14.7376L31.6589 16.2829L32.7728 16.2195L32.6849 14.6742L31.571 14.7376ZM32.0467 15.08C31.9594 15.1038 31.838 15.096 31.73 15.0183C31.6221 14.9406 31.5761 14.828 31.571 14.7376L32.6849 14.6742C32.6728 14.4608 32.5723 14.2498 32.3818 14.1127C32.1914 13.9757 31.9594 13.9473 31.7532 14.0036L32.0467 15.08ZM32.2543 14.7917C32.259 14.8753 32.2312 14.9369 32.2042 14.9745C32.1772 15.012 32.1276 15.058 32.0467 15.08L31.7532 14.0036C31.3801 14.1053 31.1184 14.469 31.1403 14.855L32.2543 14.7917ZM32.3304 16.1296L32.2543 14.7917L31.1403 14.855L31.2164 16.193L32.3304 16.1296ZM30.5756 16.4874L31.6624 16.708L31.8844 15.6146L30.7977 15.3939L30.5756 16.4874ZM31.1956 16.2378L31.2334 16.0517L30.14 15.8296L30.1022 16.0157L31.1956 16.2378ZM31.8956 15.8107L30.7599 15.58L30.5378 16.6735L31.6735 16.9041L31.8956 15.8107ZM32.375 16.9152L32.3415 16.3257L31.2276 16.3891L31.2611 16.9785L32.375 16.9152ZM30.4231 17.2328L31.707 17.4936L31.9291 16.4001L30.6452 16.1394L30.4231 17.2328ZM31.0431 16.9832L31.0809 16.7971L29.9875 16.5751L29.9497 16.7612L31.0431 16.9832ZM31.9403 16.5962L30.6074 16.3255L30.3853 17.4189L31.7182 17.6896L31.9403 16.5962ZM35.255 17.7896L35.5158 17.2599L34.5148 16.7671L34.254 17.2967L35.255 17.7896ZM35.1263 16.4668L34.4019 16.3197L34.1798 17.4131L34.9043 17.5602L35.1263 16.4668ZM33.7339 16.898L33.7674 17.4875L34.8814 17.4241L34.8478 16.8347L33.7339 16.898ZM34.2134 18.0025L34.6435 18.0899L34.8655 16.9965L34.4354 16.9091L34.2134 18.0025ZM33.7786 17.6836L33.8164 18.3489L34.9304 18.2855L34.8925 17.6202L33.7786 17.6836ZM34.8739 18.5636L35.1683 17.9658L34.1673 17.4729L33.8729 18.0708L34.8739 18.5636ZM34.7788 17.1726L34.4466 17.1052L34.2245 18.1986L34.5567 18.2661L34.7788 17.1726ZM34.3942 16.5488L34.3578 15.9086L33.2439 15.9719L33.2803 16.6121L34.3942 16.5488ZM33.4065 17.0622L33.7262 17.1272L33.9483 16.0337L33.6286 15.9688L33.4065 17.0622ZM33.3003 15.6938L33.0171 16.2691L34.0181 16.762L34.3013 16.1867L33.3003 15.6938Z" fill="#FFC62B" mask="url(#path-45-inside-1_23162_3998)"/>
<rect width="0.171254" height="4.4526" rx="0.085627" transform="matrix(-0.785702 -0.618605 -0.441733 0.897146 36.2412 15.4966)" fill="#CEBA1F"/>
<rect width="0.179324" height="3.50852" rx="0.0896618" transform="matrix(-0.785702 -0.618605 -0.441734 0.897146 33.7822 15.988)" fill="#CEBA1F"/>
<rect width="0.179323" height="3.50852" rx="0.0896616" transform="matrix(0.964763 -0.26312 0.0567878 0.998386 34.0049 14.9504)" fill="#CEBA1F"/>
<rect width="0.179324" height="3.50852" rx="0.0896621" transform="matrix(0.964763 -0.263119 0.0567881 0.998386 31.9473 14.6421)" fill="#CEBA1F"/>
<path d="M30.6562 16.0811L36.6235 17.2929L36.6121 17.3488L30.6449 16.137L30.6562 16.0811Z" fill="#CEBA1F"/>
<path d="M30.5078 16.8254L36.475 18.0373L36.4637 18.0932L30.4965 16.8814L30.5078 16.8254Z" fill="#CEBA1F"/>
<path d="M36.7939 19.8033C36.287 20.8652 34.9977 21.4772 33.8788 21.25" stroke="white" stroke-width="0.390511" stroke-linecap="round"/>
<path d="M31.0339 22.0693C33.705 23.5438 38.0186 22.3811 38.9599 18.32" stroke="#CEA73D" stroke-width="0.278936" stroke-linecap="round"/>
<path fill-rule="evenodd" clip-rule="evenodd" d="M27.1823 23.5352H17.7404H17.4981V23.5451C16.6178 23.6178 15.8488 24.083 15.3665 24.7652L15.3398 24.7458L11.9287 29.4354L19.5746 34.9969L22.6437 30.7776L28.2329 30.7775V30.7569C28.5494 30.7558 28.8468 30.6732 29.1051 30.529L34.1809 28.4578C34.1939 28.4528 34.2069 28.4476 34.2199 28.4423C35.2103 28.0382 35.7417 27.0453 35.4068 26.2246C35.072 25.404 33.9976 25.0663 33.0072 25.4705L33.0071 25.4705L33.007 25.4702L28.7276 27.2164C28.6181 27.1848 28.5043 27.1633 28.3873 27.153C28.9694 26.8189 29.3614 26.1912 29.3614 25.472C29.3614 24.4023 28.4943 23.5352 27.4246 23.5352C27.3425 23.5352 27.2616 23.5403 27.1823 23.5502V23.5352Z" fill="#F6DCCD"/>
<path d="M28.4268 27.1462H21.6061" stroke="#FFBB94" stroke-width="0.337774" stroke-linecap="round"/>
<rect x="10.5898" y="27.9482" width="12.8389" height="5.76318" rx="2.70219" transform="rotate(36.485 10.5898 27.9482)" fill="#4590BB"/>
<mask id="path-58-inside-2_23162_3998" fill="white">
<path fill-rule="evenodd" clip-rule="evenodd" d="M27.7964 27.2173L28.5803 27.2252C28.8756 27.0221 29.118 26.7348 29.267 26.3799C29.5123 25.7954 29.4494 25.1586 29.1521 24.6506C29.2458 25.0382 29.2211 25.4582 29.0549 25.8542C28.8052 26.4491 28.293 26.854 27.7095 26.9907C27.7196 27.0263 27.7181 27.0654 27.7027 27.1022C27.6978 27.1138 27.6918 27.1246 27.6848 27.1345C27.7233 27.1608 27.7605 27.1884 27.7964 27.2173Z"/>
</mask>
<path fill-rule="evenodd" clip-rule="evenodd" d="M27.7964 27.2173L28.5803 27.2252C28.8756 27.0221 29.118 26.7348 29.267 26.3799C29.5123 25.7954 29.4494 25.1586 29.1521 24.6506C29.2458 25.0382 29.2211 25.4582 29.0549 25.8542C28.8052 26.4491 28.293 26.854 27.7095 26.9907C27.7196 27.0263 27.7181 27.0654 27.7027 27.1022C27.6978 27.1138 27.6918 27.1246 27.6848 27.1345C27.7233 27.1608 27.7605 27.1884 27.7964 27.2173Z" fill="#FFB489"/>
<path d="M28.5803 27.2252L28.5736 27.9007L28.7872 27.9028L28.9631 27.7818L28.5803 27.2252ZM27.7964 27.2173L27.3731 27.7438L27.5556 27.8905L27.7897 27.8929L27.7964 27.2173ZM29.267 26.3799L28.6441 26.1184L28.6441 26.1184L29.267 26.3799ZM29.1521 24.6506L29.7351 24.3094L28.4955 24.8094L29.1521 24.6506ZM29.0549 25.8542L29.6778 26.1156L29.6778 26.1156L29.0549 25.8542ZM27.7095 26.9907L27.5553 26.333L26.866 26.4945L27.0597 27.1755L27.7095 26.9907ZM27.7027 27.1022L27.0798 26.8407L27.7027 27.1022ZM27.6848 27.1345L27.1333 26.7444L26.7369 27.3048L27.3035 27.6922L27.6848 27.1345ZM28.5871 26.5497L27.8032 26.5418L27.7897 27.8929L28.5736 27.9007L28.5871 26.5497ZM28.6441 26.1184C28.5467 26.3505 28.3893 26.5367 28.1975 26.6686L28.9631 27.7818C29.3618 27.5076 29.6893 27.1192 29.8899 26.6413L28.6441 26.1184ZM28.569 24.9918C28.7636 25.3243 28.8037 25.7382 28.6441 26.1184L29.8899 26.6413C30.221 25.8526 30.1351 24.9929 29.7351 24.3094L28.569 24.9918ZM29.6778 26.1156C29.9017 25.5823 29.9352 25.0148 29.8087 24.4918L28.4955 24.8094C28.5565 25.0617 28.5406 25.3341 28.432 25.5927L29.6778 26.1156ZM27.8636 27.6485C28.6488 27.4644 29.3408 26.9185 29.6778 26.1156L28.432 25.5927C28.2696 25.9796 27.9373 26.2435 27.5553 26.333L27.8636 27.6485ZM28.3256 27.3637C28.4025 27.1805 28.4098 26.9837 28.3593 26.8059L27.0597 27.1755C27.0294 27.0689 27.0338 26.9504 27.0798 26.8407L28.3256 27.3637ZM28.2363 27.5246C28.2715 27.4748 28.3016 27.4209 28.3256 27.3637L27.0798 26.8407C27.0941 26.8067 27.1121 26.7744 27.1333 26.7444L28.2363 27.5246ZM28.2198 26.6909C28.1703 26.6511 28.119 26.613 28.0661 26.5768L27.3035 27.6922C27.3275 27.7086 27.3507 27.7258 27.3731 27.7438L28.2198 26.6909Z" fill="#FFBB94" mask="url(#path-58-inside-2_23162_3998)"/>
<mask id="path-60-inside-3_23162_3998" fill="white">
<path fill-rule="evenodd" clip-rule="evenodd" d="M19.5573 34.9834C19.4712 34.8006 19.3641 34.6262 19.2363 34.4642L22.2187 30.3641L27.808 30.3641V30.3434C28.1276 30.3423 28.4276 30.2582 28.6876 30.1115L33.744 28.0482C33.7606 28.0418 33.7772 28.0353 33.7938 28.0285C34.7842 27.6244 35.3156 26.6315 34.9808 25.8108C34.9465 25.7267 34.9044 25.6477 34.8554 25.574C35.0929 25.7298 35.2804 25.9459 35.3895 26.2132C35.7243 27.0338 35.1929 28.0267 34.2025 28.4308C34.1834 28.4386 34.1643 28.4462 34.1451 28.4534L29.0867 30.5175C28.8284 30.6617 28.531 30.7443 28.2145 30.7454V30.766L22.625 30.766L19.5573 34.9834Z"/>
</mask>
<path fill-rule="evenodd" clip-rule="evenodd" d="M19.5573 34.9834C19.4712 34.8006 19.3641 34.6262 19.2363 34.4642L22.2187 30.3641L27.808 30.3641V30.3434C28.1276 30.3423 28.4276 30.2582 28.6876 30.1115L33.744 28.0482C33.7606 28.0418 33.7772 28.0353 33.7938 28.0285C34.7842 27.6244 35.3156 26.6315 34.9808 25.8108C34.9465 25.7267 34.9044 25.6477 34.8554 25.574C35.0929 25.7298 35.2804 25.9459 35.3895 26.2132C35.7243 27.0338 35.1929 28.0267 34.2025 28.4308C34.1834 28.4386 34.1643 28.4462 34.1451 28.4534L29.0867 30.5175C28.8284 30.6617 28.531 30.7443 28.2145 30.7454V30.766L22.625 30.766L19.5573 34.9834Z" fill="#FFB489"/>
<path d="M19.2363 34.4642L18.69 34.0669L18.389 34.4807L18.7059 34.8825L19.2363 34.4642ZM19.5573 34.9834L18.9461 35.2711L19.4322 36.3039L20.1036 35.3808L19.5573 34.9834ZM22.2187 30.3641L22.2187 29.6886L21.8747 29.6886L21.6724 29.9667L22.2187 30.3641ZM27.808 30.3641L27.808 31.0396L28.4836 31.0396V30.3641H27.808ZM27.808 30.3434L27.8057 29.6679L27.1325 29.6702V30.3434H27.808ZM28.6876 30.1115L28.4324 29.486L28.3928 29.5021L28.3556 29.5231L28.6876 30.1115ZM33.744 28.0482L33.5029 27.4171L33.4958 27.4198L33.4887 27.4227L33.744 28.0482ZM33.7938 28.0285L33.5386 27.403L33.5386 27.403L33.7938 28.0285ZM34.9808 25.8108L35.6063 25.5556L35.6063 25.5556L34.9808 25.8108ZM34.8554 25.574L35.226 25.0092L34.2928 25.9479L34.8554 25.574ZM35.3895 26.2132L36.0149 25.9579L36.0149 25.9579L35.3895 26.2132ZM34.2025 28.4308L33.9473 27.8054L33.9473 27.8054L34.2025 28.4308ZM34.1451 28.4534L33.9062 27.8215L33.898 27.8246L33.8899 27.8279L34.1451 28.4534ZM29.0867 30.5175L28.8315 29.892L28.7934 29.9076L28.7575 29.9276L29.0867 30.5175ZM28.2145 30.7454L28.2121 30.0698L27.5389 30.0721V30.7454H28.2145ZM28.2145 30.766L28.2145 31.4415L28.89 31.4415V30.766H28.2145ZM22.625 30.766L22.625 30.0905L22.281 30.0905L22.0787 30.3687L22.625 30.766ZM18.7059 34.8825C18.8014 35.0037 18.8816 35.1341 18.9461 35.2711L20.1685 34.6958C20.0609 34.4671 19.9267 34.2488 19.7668 34.046L18.7059 34.8825ZM21.6724 29.9667L18.69 34.0669L19.7826 34.8616L22.765 30.7615L21.6724 29.9667ZM27.808 29.6885L22.2187 29.6886L22.2187 31.0397L27.808 31.0396L27.808 29.6885ZM27.1325 30.3434V30.3641H28.4836V30.3434H27.1325ZM28.3556 29.5231C28.1936 29.6145 28.0067 29.6672 27.8057 29.6679L27.8104 31.019C28.2485 31.0175 28.6616 30.9018 29.0196 30.6998L28.3556 29.5231ZM33.4887 27.4227L28.4324 29.486L28.9429 30.7369L33.9992 28.6737L33.4887 27.4227ZM33.5386 27.403C33.5267 27.4079 33.5148 27.4126 33.5029 27.4171L33.9851 28.6793C34.0064 28.6711 34.0278 28.6627 34.0491 28.654L33.5386 27.403ZM34.3553 26.0661C34.5064 26.4363 34.2988 27.0928 33.5386 27.403L34.0491 28.654C35.2697 28.1559 36.1249 26.8266 35.6063 25.5556L34.3553 26.0661ZM34.2928 25.9479C34.3172 25.9846 34.3381 26.0239 34.3553 26.0661L35.6063 25.5556C35.5548 25.4295 35.4916 25.3107 35.418 25.2L34.2928 25.9479ZM36.0149 25.9579C35.85 25.5537 35.5681 25.2337 35.226 25.0092L34.4847 26.1388C34.6177 26.226 34.7108 26.3381 34.764 26.4684L36.0149 25.9579ZM34.4578 29.0563C35.6784 28.5582 36.5336 27.229 36.0149 25.9579L34.764 26.4684C34.9151 26.8387 34.7075 27.4952 33.9473 27.8054L34.4578 29.0563ZM34.384 29.0853C34.4087 29.076 34.4332 29.0663 34.4578 29.0563L33.9473 27.8054C33.9336 27.811 33.9199 27.8163 33.9062 27.8215L34.384 29.0853ZM29.3419 31.143L34.4003 29.0789L33.8899 27.8279L28.8315 29.892L29.3419 31.143ZM28.2168 31.4209C28.6508 31.4194 29.0603 31.3059 29.4159 31.1074L28.7575 29.9276C28.5966 30.0174 28.4113 30.0691 28.2121 30.0698L28.2168 31.4209ZM28.89 30.766V30.7454H27.5389V30.766H28.89ZM22.625 31.4416L28.2145 31.4415L28.2145 30.0904L22.625 30.0905L22.625 31.4416ZM20.1036 35.3808L23.1713 31.1634L22.0787 30.3687L19.011 34.5861L20.1036 35.3808Z" fill="#FFBB94" mask="url(#path-60-inside-3_23162_3998)"/>
</svg>
