<svg width="24" height="25" viewBox="0 0 24 25" fill="none" xmlns="http://www.w3.org/2000/svg">
<mask id="mask0_6968_7955" style="mask-type:alpha" maskUnits="userSpaceOnUse" x="0" y="0" width="24" height="25">
<rect y="0.5" width="24" height="24" fill="#D9D9D9"/>
</mask>
<g mask="url(#mask0_6968_7955)">
<path d="M9.18459 12.5L16.7173 20.0327C16.916 20.2314 17.0128 20.4654 17.0077 20.7346C17.0025 21.0038 16.9006 21.2378 16.7019 21.4365C16.5032 21.6352 16.2692 21.7346 16 21.7346C15.7308 21.7346 15.4968 21.6352 15.2981 21.4365L7.62694 13.7808C7.44616 13.6 7.31218 13.3974 7.22501 13.1731C7.13783 12.9487 7.09424 12.7244 7.09424 12.5C7.09424 12.2757 7.13783 12.0513 7.22501 11.8269C7.31218 11.6026 7.44616 11.4 7.62694 11.2193L15.2981 3.5481C15.4968 3.34938 15.7333 3.25258 16.0077 3.2577C16.282 3.26283 16.5186 3.36476 16.7173 3.56348C16.916 3.76219 17.0154 3.99616 17.0154 4.26538C17.0154 4.53461 16.916 4.76858 16.7173 4.9673L9.18459 12.5Z" fill="black"/>
</g>
</svg>
