<svg width="20" height="22" viewBox="0 0 20 22" fill="none" xmlns="http://www.w3.org/2000/svg">
<path fill-rule="evenodd" clip-rule="evenodd" d="M9.52686 1.29561C9.52937 1.57164 9.64142 1.83538 9.83838 2.02879C10.0353 2.2222 10.3011 2.32945 10.5771 2.32695L15.3501 2.28363L9.89124 7.84248C9.74705 7.98935 9.64964 8.17568 9.61133 8.37791C9.57302 8.58014 9.59553 8.78918 9.67601 8.97862C9.7565 9.16805 9.89134 9.32937 10.0635 9.44219C10.2356 9.555 10.4374 9.61424 10.6432 9.61241L17.9287 9.54629C18.2047 9.54379 18.4684 9.43173 18.6618 9.23478C18.8552 9.03782 18.9625 8.7721 18.96 8.49607C18.9575 8.22003 18.8454 7.9563 18.6485 7.76289C18.4515 7.56948 18.1858 7.46223 17.9098 7.46473L13.1367 7.50805L18.5956 1.9492C18.7398 1.80232 18.8372 1.616 18.8755 1.41377C18.9138 1.21154 18.8913 1.0025 18.8108 0.813062C18.7304 0.623626 18.5955 0.462305 18.4234 0.349493C18.2512 0.23668 18.0495 0.177441 17.8437 0.179265L10.5582 0.245386C10.2822 0.247891 10.0184 0.359947 9.82502 0.556903C9.63161 0.753858 9.52436 1.01958 9.52686 1.29561ZM1.25728 7.61586C0.981244 7.61837 0.715523 7.51112 0.518567 7.31771C0.321612 7.12429 0.209557 6.86056 0.207052 6.58453C0.204548 6.3085 0.311799 6.04277 0.505212 5.84582C0.698625 5.64886 0.962357 5.53681 1.23839 5.5343L6.44229 5.48707C6.64811 5.48525 6.84984 5.54449 7.022 5.6573C7.19415 5.77011 7.32899 5.93143 7.40947 6.12087C7.48995 6.31031 7.51246 6.51935 7.47415 6.72158C7.43584 6.9238 7.33844 7.11013 7.19425 7.25701L3.79805 10.7154L6.48951 10.691C6.76554 10.6885 7.03127 10.7957 7.22822 10.9891C7.42518 11.1825 7.53723 11.4463 7.53974 11.7223C7.54224 11.9983 7.43499 12.2641 7.24158 12.461C7.04816 12.658 6.78443 12.77 6.5084 12.7725L1.30449 12.8198C1.09868 12.8216 0.896944 12.7624 0.724792 12.6495C0.552639 12.5367 0.4178 12.3754 0.337318 12.186C0.256837 11.9965 0.234328 11.7875 0.272637 11.5853C0.310945 11.383 0.408352 11.1967 0.552542 11.0498L3.94874 7.59144L1.25728 7.61586ZM9.64963 14.8258C9.3736 14.8283 9.10787 14.721 8.91092 14.5276C8.71396 14.3342 8.60191 14.0705 8.5994 13.7944C8.5969 13.5184 8.70415 13.2527 8.89756 13.0557C9.09098 12.8588 9.35471 12.7467 9.63074 12.7442L13.7939 12.7064C13.9997 12.7046 14.2014 12.7638 14.3736 12.8766C14.5457 12.9895 14.6806 13.1508 14.761 13.3402C14.8415 13.5297 14.864 13.7387 14.8257 13.9409C14.7874 14.1431 14.69 14.3295 14.5458 14.4764L12.181 16.8845L13.8316 16.8695C14.1077 16.867 14.3734 16.9743 14.5703 17.1677C14.7673 17.3611 14.8794 17.6248 14.8819 17.9009C14.8844 18.1769 14.7771 18.4426 14.5837 18.6396C14.3903 18.8365 14.1266 18.9486 13.8505 18.9511L9.6874 18.9889C9.48159 18.9907 9.27985 18.9315 9.1077 18.8187C8.93555 18.7058 8.80071 18.5445 8.72023 18.3551C8.63974 18.1657 8.61724 17.9566 8.65554 17.7544C8.69385 17.5522 8.79126 17.3658 8.93545 17.219L11.3003 14.8108L9.64963 14.8258Z" fill="black"/>
</svg>
