<svg width="342" height="222" viewBox="0 0 342 222" fill="none" xmlns="http://www.w3.org/2000/svg">
<rect x="0.5" y="0.5" width="341" height="221" rx="7.5" fill="#FAFAFA"/>
<rect x="0.5" y="0.5" width="341" height="221" rx="7.5" stroke="#CACACA"/>
<path d="M183.17 110.025L180.903 107.794H160.822C160.043 107.794 159.376 107.516 158.821 106.961C158.266 106.407 157.989 105.74 157.989 104.96V87.9604C157.989 87.1813 158.266 86.5142 158.821 85.9594C159.376 85.4045 160.043 85.1271 160.822 85.1271H162.274V89.1646L157.103 83.9938C156.82 83.7104 156.678 83.374 156.678 82.9844C156.678 82.5948 156.82 82.2583 157.103 81.975C157.387 81.6917 157.723 81.55 158.113 81.55C158.502 81.55 158.839 81.6917 159.122 81.975L185.189 108.042C185.472 108.325 185.614 108.656 185.614 109.033C185.614 109.411 185.472 109.742 185.189 110.025C184.905 110.308 184.569 110.45 184.179 110.45C183.79 110.45 183.453 110.308 183.17 110.025ZM185.437 103.013C185.177 103.131 184.917 103.166 184.657 103.119C184.398 103.072 184.15 102.93 183.914 102.694L178.495 97.275C178.613 96.2833 178.513 95.3212 178.194 94.3885C177.875 93.4559 177.362 92.6354 176.653 91.9271C175.969 91.2424 175.16 90.7406 174.227 90.4219C173.295 90.1031 172.332 90.0028 171.341 90.1208L166.737 85.5521C166.595 85.4104 166.495 85.2569 166.436 85.0917C166.376 84.9264 166.347 84.7493 166.347 84.5604C166.347 84.3715 166.376 84.2004 166.436 84.0469C166.495 83.8934 166.583 83.7458 166.701 83.6042L167.055 83.2146C167.315 82.9313 167.628 82.7069 167.994 82.5417C168.36 82.3764 168.744 82.2938 169.145 82.2938H175.166C175.567 82.2938 175.951 82.3764 176.317 82.5417C176.683 82.7069 176.996 82.9313 177.255 83.2146L179.026 85.1271H183.489C184.268 85.1271 184.935 85.4045 185.49 85.9594C186.045 86.5142 186.322 87.1813 186.322 87.9604V101.702C186.322 102.033 186.239 102.304 186.074 102.517C185.909 102.729 185.696 102.894 185.437 103.013ZM172.155 102.835C172.698 102.835 173.224 102.776 173.731 102.658C174.239 102.54 174.729 102.351 175.201 102.092L166.524 93.4146C166.264 93.8868 166.075 94.3767 165.957 94.8844C165.839 95.392 165.78 95.9174 165.78 96.4604C165.78 98.2313 166.4 99.7365 167.64 100.976C168.879 102.216 170.384 102.835 172.155 102.835ZM172.155 100.002C171.164 100.002 170.325 99.6597 169.641 98.975C168.956 98.2903 168.614 97.4521 168.614 96.4604C168.614 95.9882 168.702 95.5337 168.879 95.0969C169.056 94.6601 169.31 94.2764 169.641 93.9458L174.67 98.975C174.339 99.3056 173.956 99.5594 173.519 99.7365C173.082 99.9135 172.628 100.002 172.155 100.002Z" fill="#8E8E8E"/>
<path d="M183.17 110.025L180.903 107.794H160.822C160.043 107.794 159.376 107.516 158.821 106.961C158.266 106.407 157.989 105.74 157.989 104.96V87.9604C157.989 87.1813 158.266 86.5142 158.821 85.9594C159.376 85.4045 160.043 85.1271 160.822 85.1271H162.274V89.1646L157.103 83.9938C156.82 83.7104 156.678 83.374 156.678 82.9844C156.678 82.5948 156.82 82.2583 157.103 81.975C157.387 81.6917 157.723 81.55 158.113 81.55C158.502 81.55 158.839 81.6917 159.122 81.975L185.189 108.042C185.472 108.325 185.614 108.656 185.614 109.033C185.614 109.411 185.472 109.742 185.189 110.025C184.905 110.308 184.569 110.45 184.179 110.45C183.79 110.45 183.453 110.308 183.17 110.025ZM185.437 103.013C185.177 103.131 184.917 103.166 184.657 103.119C184.398 103.072 184.15 102.93 183.914 102.694L178.495 97.275C178.613 96.2833 178.513 95.3212 178.194 94.3885C177.875 93.4559 177.362 92.6354 176.653 91.9271C175.969 91.2424 175.16 90.7406 174.227 90.4219C173.295 90.1031 172.332 90.0028 171.341 90.1208L166.737 85.5521C166.595 85.4104 166.495 85.2569 166.436 85.0917C166.376 84.9264 166.347 84.7493 166.347 84.5604C166.347 84.3715 166.376 84.2004 166.436 84.0469C166.495 83.8934 166.583 83.7458 166.701 83.6042L167.055 83.2146C167.315 82.9313 167.628 82.7069 167.994 82.5417C168.36 82.3764 168.744 82.2938 169.145 82.2938H175.166C175.567 82.2938 175.951 82.3764 176.317 82.5417C176.683 82.7069 176.996 82.9313 177.255 83.2146L179.026 85.1271H183.489C184.268 85.1271 184.935 85.4045 185.49 85.9594C186.045 86.5142 186.322 87.1813 186.322 87.9604V101.702C186.322 102.033 186.239 102.304 186.074 102.517C185.909 102.729 185.696 102.894 185.437 103.013ZM172.155 102.835C172.698 102.835 173.224 102.776 173.731 102.658C174.239 102.54 174.729 102.351 175.201 102.092L166.524 93.4146C166.264 93.8868 166.075 94.3767 165.957 94.8844C165.839 95.392 165.78 95.9174 165.78 96.4604C165.78 98.2313 166.4 99.7365 167.64 100.976C168.879 102.216 170.384 102.835 172.155 102.835ZM172.155 100.002C171.164 100.002 170.325 99.6597 169.641 98.975C168.956 98.2903 168.614 97.4521 168.614 96.4604C168.614 95.9882 168.702 95.5337 168.879 95.0969C169.056 94.6601 169.31 94.2764 169.641 93.9458L174.67 98.975C174.339 99.3056 173.956 99.5594 173.519 99.7365C173.082 99.9135 172.628 100.002 172.155 100.002Z" fill="black" fill-opacity="0.2"/>
<path d="M66.4795 125.126C66.4658 126.753 68.6396 128.134 70.7588 128.448L70.3623 129.296C68.4619 128.974 66.6162 127.963 65.8779 126.493C65.1396 127.963 63.2871 128.974 61.4209 129.296L60.9971 128.448C63.1025 128.134 65.2764 126.753 65.2764 125.126V125.044H61.3799V124.169H70.3623V125.044H66.4795V125.126ZM71.415 130.335V131.223H66.3838V135.557H65.3311V131.223H60.3408V130.335H71.415ZM81.9424 123.403V126.042H83.7744V126.944H81.9424V129.596H80.876V123.403H81.9424ZM78.5791 124.1V128.954H72.96V124.1H78.5791ZM74.0127 124.975V128.093H77.54V124.975H74.0127ZM81.9424 130.171V133.138H75.2705V134.532H82.3936V135.393H74.2178V132.317H80.876V131.032H74.1904V130.171H81.9424ZM95.6143 129.815V130.69H84.54V129.815H95.6143ZM94.3838 134.395V135.298H85.9756V131.757H87.0557V134.395H94.3838ZM90.0771 123.841C92.6885 123.827 94.3701 124.729 94.3701 126.247C94.3701 127.764 92.6885 128.667 90.0771 128.667C87.4385 128.667 85.7705 127.764 85.7705 126.247C85.7705 124.729 87.4385 123.827 90.0771 123.841ZM90.0771 124.702C88.1221 124.702 86.8643 125.29 86.8779 126.247C86.8643 127.204 88.1221 127.792 90.0771 127.792C92.0186 127.792 93.2764 127.204 93.2764 126.247C93.2764 125.29 92.0186 124.702 90.0771 124.702ZM104.46 125.167C104.446 126.944 105.731 128.516 107.536 129.145L106.989 129.993C105.581 129.48 104.467 128.428 103.927 127.081C103.387 128.523 102.259 129.658 100.837 130.212L100.276 129.364C102.095 128.694 103.366 126.999 103.366 125.167V124.005H104.46V125.167ZM110.188 131.333V135.557H109.122V132.221H102.013V131.333H110.188ZM110.188 123.403V130.731H109.122V123.403H110.188ZM121.755 123.403V127.026H123.601V127.929H121.755V132.208H120.688V123.403H121.755ZM118.241 124.456V125.358H113.894V129.145C116.334 129.145 117.722 129.084 119.349 128.749L119.485 129.638C117.776 129.966 116.327 130.048 113.771 130.048H112.827V124.456H118.241ZM122.315 134.395V135.298H114.153V131.319H115.206V134.395H122.315ZM137.888 123.403V135.585H136.808V123.403H137.888ZM131.421 124.346C133.226 124.36 134.524 126.001 134.524 128.585C134.524 131.169 133.226 132.809 131.421 132.809C129.603 132.809 128.317 131.169 128.317 128.585C128.317 126.001 129.603 124.36 131.421 124.346ZM131.421 125.304C130.204 125.317 129.356 126.602 129.356 128.585C129.356 130.567 130.204 131.852 131.421 131.852C132.638 131.852 133.485 130.567 133.485 128.585C133.485 126.602 132.638 125.317 131.421 125.304ZM146.296 124.606V132.509H140.677V124.606H146.296ZM141.729 125.468V131.634H145.243V125.468H141.729ZM149.987 123.403V135.585H148.907V123.403H149.987ZM156.413 127.136C156.413 129.2 157.917 131.292 159.708 132.071L159.106 132.919C157.685 132.269 156.454 130.868 155.894 129.186C155.319 130.971 154.096 132.522 152.708 133.22L152.065 132.372C153.802 131.538 155.319 129.241 155.333 127.136V125.55H152.462V124.661H159.312V125.55H156.413V127.136ZM162.087 123.403V135.557H161.007V123.403H162.087ZM175.28 129.05V129.897H164.151V129.05H175.28ZM173.886 130.868V133.452H166.585V134.614H174.282V135.393H165.505V132.714H172.819V131.675H165.491V130.868H173.886ZM173.845 123.772V126.288H166.667V127.354H174.063V128.134H165.601V125.55H172.765V124.552H165.56V123.772H173.845ZM190.169 123.403V135.557H189.144V123.403H190.169ZM187.708 123.704V134.929H186.696V128.667H184.646V127.792H186.696V123.704H187.708ZM183.347 126.876C183.347 128.981 184.29 131.073 185.972 132.044L185.315 132.837C184.119 132.119 183.271 130.806 182.854 129.255C182.41 130.929 181.528 132.358 180.312 133.124L179.628 132.317C181.323 131.305 182.308 129.091 182.308 126.876V125.727H179.97V124.839H185.575V125.727H183.347V126.876ZM197.374 131.087C199.985 131.087 201.64 131.907 201.64 133.315C201.64 134.71 199.985 135.53 197.374 135.53C194.776 135.53 193.122 134.71 193.122 133.315C193.122 131.907 194.776 131.087 197.374 131.087ZM197.374 131.907C195.433 131.921 194.175 132.454 194.188 133.315C194.175 134.163 195.433 134.682 197.374 134.682C199.315 134.682 200.56 134.163 200.573 133.315C200.56 132.454 199.315 131.921 197.374 131.907ZM201.544 124.032V125.057C201.544 126.042 201.544 127.026 201.202 128.284L200.149 128.161C200.478 126.903 200.478 126.014 200.478 125.057V124.907H193.204V124.032H201.544ZM202.952 129.077V129.952H191.892V129.077H196.472V126.725H197.524V129.077H202.952ZM213.384 123.403V128.421H215.421V129.309H213.384V135.557H212.317V123.403H213.384ZM211.142 125.358V126.247H203.909V125.358H207.04V123.554H208.106V125.358H211.142ZM207.587 127.259C209.31 127.259 210.554 128.407 210.567 130.048C210.554 131.688 209.31 132.837 207.587 132.837C205.851 132.837 204.593 131.688 204.606 130.048C204.593 128.407 205.851 127.259 207.587 127.259ZM207.587 128.161C206.452 128.161 205.618 128.954 205.632 130.048C205.618 131.155 206.452 131.934 207.587 131.921C208.708 131.934 209.528 131.155 209.542 130.048C209.528 128.954 208.708 128.161 207.587 128.161ZM220.425 127.136C220.425 129.2 221.929 131.292 223.72 132.071L223.118 132.919C221.696 132.269 220.466 130.868 219.905 129.186C219.331 130.971 218.107 132.522 216.72 133.22L216.077 132.372C217.813 131.538 219.331 129.241 219.345 127.136V125.55H216.474V124.661H223.323V125.55H220.425V127.136ZM226.099 123.403V135.557H225.019V123.403H226.099ZM235.081 124.1C236.899 124.1 238.239 125.263 238.239 126.903C238.239 128.557 236.899 129.706 235.081 129.72C233.263 129.706 231.909 128.557 231.923 126.903C231.909 125.263 233.263 124.1 235.081 124.1ZM235.081 125.003C233.892 125.003 232.962 125.809 232.976 126.903C232.962 128.024 233.892 128.831 235.081 128.831C236.284 128.831 237.187 128.024 237.187 126.903C237.187 125.809 236.284 125.003 235.081 125.003ZM241.192 123.403V126.151H243.024V127.04H241.192V129.487H240.126V123.403H241.192ZM234.028 130.8V134.341C234.732 134.32 235.669 134.218 236.53 133.93L236.694 134.792C235.505 135.188 234.356 135.229 233.563 135.229H232.989V130.8H234.028ZM242.409 130.854V131.688H236.271V130.854H238.827V129.774H239.88V130.854H242.409ZM239.333 132.098C240.659 132.098 241.603 132.768 241.616 133.821C241.603 134.874 240.659 135.53 239.333 135.53C237.993 135.53 237.063 134.874 237.077 133.821C237.063 132.768 237.993 132.098 239.333 132.098ZM239.333 132.878C238.581 132.878 238.034 133.261 238.034 133.821C238.034 134.395 238.581 134.764 239.333 134.764C240.099 134.764 240.632 134.395 240.632 133.821C240.632 133.261 240.099 132.878 239.333 132.878ZM246.265 130.704V132.126H252.335V130.704H253.415V135.393H245.198V130.704H246.265ZM246.265 134.532H252.335V132.973H246.265V134.532ZM254.864 128.954V129.843H243.79V128.954H254.864ZM249.888 124.114C249.888 125.618 252.103 126.958 254.235 127.231L253.839 128.093C251.952 127.812 250.106 126.848 249.341 125.481C248.562 126.855 246.702 127.812 244.829 128.093L244.419 127.231C246.579 126.944 248.78 125.659 248.78 124.114V123.54H249.888V124.114ZM265.911 123.403V135.557H264.845V123.403H265.911ZM257.735 124.606V131.497C259.588 131.49 261.509 131.34 263.546 130.909L263.696 131.825C261.536 132.276 259.608 132.427 257.667 132.427H256.683V124.606H257.735ZM277.396 123.403V128.216H279.433V129.118H277.396V135.585H276.329V123.403H277.396ZM274.196 124.593V125.481H269.589V131.634C271.79 131.634 273.349 131.531 275.153 131.196L275.29 132.126C273.39 132.468 271.79 132.536 269.479 132.536H268.522V124.593H274.196ZM281.374 134.532C280.896 134.532 280.485 134.136 280.499 133.643C280.485 133.165 280.896 132.768 281.374 132.768C281.853 132.768 282.249 133.165 282.249 133.643C282.249 134.136 281.853 134.532 281.374 134.532Z" fill="#8E8E8E"/>
<path d="M66.4795 125.126C66.4658 126.753 68.6396 128.134 70.7588 128.448L70.3623 129.296C68.4619 128.974 66.6162 127.963 65.8779 126.493C65.1396 127.963 63.2871 128.974 61.4209 129.296L60.9971 128.448C63.1025 128.134 65.2764 126.753 65.2764 125.126V125.044H61.3799V124.169H70.3623V125.044H66.4795V125.126ZM71.415 130.335V131.223H66.3838V135.557H65.3311V131.223H60.3408V130.335H71.415ZM81.9424 123.403V126.042H83.7744V126.944H81.9424V129.596H80.876V123.403H81.9424ZM78.5791 124.1V128.954H72.96V124.1H78.5791ZM74.0127 124.975V128.093H77.54V124.975H74.0127ZM81.9424 130.171V133.138H75.2705V134.532H82.3936V135.393H74.2178V132.317H80.876V131.032H74.1904V130.171H81.9424ZM95.6143 129.815V130.69H84.54V129.815H95.6143ZM94.3838 134.395V135.298H85.9756V131.757H87.0557V134.395H94.3838ZM90.0771 123.841C92.6885 123.827 94.3701 124.729 94.3701 126.247C94.3701 127.764 92.6885 128.667 90.0771 128.667C87.4385 128.667 85.7705 127.764 85.7705 126.247C85.7705 124.729 87.4385 123.827 90.0771 123.841ZM90.0771 124.702C88.1221 124.702 86.8643 125.29 86.8779 126.247C86.8643 127.204 88.1221 127.792 90.0771 127.792C92.0186 127.792 93.2764 127.204 93.2764 126.247C93.2764 125.29 92.0186 124.702 90.0771 124.702ZM104.46 125.167C104.446 126.944 105.731 128.516 107.536 129.145L106.989 129.993C105.581 129.48 104.467 128.428 103.927 127.081C103.387 128.523 102.259 129.658 100.837 130.212L100.276 129.364C102.095 128.694 103.366 126.999 103.366 125.167V124.005H104.46V125.167ZM110.188 131.333V135.557H109.122V132.221H102.013V131.333H110.188ZM110.188 123.403V130.731H109.122V123.403H110.188ZM121.755 123.403V127.026H123.601V127.929H121.755V132.208H120.688V123.403H121.755ZM118.241 124.456V125.358H113.894V129.145C116.334 129.145 117.722 129.084 119.349 128.749L119.485 129.638C117.776 129.966 116.327 130.048 113.771 130.048H112.827V124.456H118.241ZM122.315 134.395V135.298H114.153V131.319H115.206V134.395H122.315ZM137.888 123.403V135.585H136.808V123.403H137.888ZM131.421 124.346C133.226 124.36 134.524 126.001 134.524 128.585C134.524 131.169 133.226 132.809 131.421 132.809C129.603 132.809 128.317 131.169 128.317 128.585C128.317 126.001 129.603 124.36 131.421 124.346ZM131.421 125.304C130.204 125.317 129.356 126.602 129.356 128.585C129.356 130.567 130.204 131.852 131.421 131.852C132.638 131.852 133.485 130.567 133.485 128.585C133.485 126.602 132.638 125.317 131.421 125.304ZM146.296 124.606V132.509H140.677V124.606H146.296ZM141.729 125.468V131.634H145.243V125.468H141.729ZM149.987 123.403V135.585H148.907V123.403H149.987ZM156.413 127.136C156.413 129.2 157.917 131.292 159.708 132.071L159.106 132.919C157.685 132.269 156.454 130.868 155.894 129.186C155.319 130.971 154.096 132.522 152.708 133.22L152.065 132.372C153.802 131.538 155.319 129.241 155.333 127.136V125.55H152.462V124.661H159.312V125.55H156.413V127.136ZM162.087 123.403V135.557H161.007V123.403H162.087ZM175.28 129.05V129.897H164.151V129.05H175.28ZM173.886 130.868V133.452H166.585V134.614H174.282V135.393H165.505V132.714H172.819V131.675H165.491V130.868H173.886ZM173.845 123.772V126.288H166.667V127.354H174.063V128.134H165.601V125.55H172.765V124.552H165.56V123.772H173.845ZM190.169 123.403V135.557H189.144V123.403H190.169ZM187.708 123.704V134.929H186.696V128.667H184.646V127.792H186.696V123.704H187.708ZM183.347 126.876C183.347 128.981 184.29 131.073 185.972 132.044L185.315 132.837C184.119 132.119 183.271 130.806 182.854 129.255C182.41 130.929 181.528 132.358 180.312 133.124L179.628 132.317C181.323 131.305 182.308 129.091 182.308 126.876V125.727H179.97V124.839H185.575V125.727H183.347V126.876ZM197.374 131.087C199.985 131.087 201.64 131.907 201.64 133.315C201.64 134.71 199.985 135.53 197.374 135.53C194.776 135.53 193.122 134.71 193.122 133.315C193.122 131.907 194.776 131.087 197.374 131.087ZM197.374 131.907C195.433 131.921 194.175 132.454 194.188 133.315C194.175 134.163 195.433 134.682 197.374 134.682C199.315 134.682 200.56 134.163 200.573 133.315C200.56 132.454 199.315 131.921 197.374 131.907ZM201.544 124.032V125.057C201.544 126.042 201.544 127.026 201.202 128.284L200.149 128.161C200.478 126.903 200.478 126.014 200.478 125.057V124.907H193.204V124.032H201.544ZM202.952 129.077V129.952H191.892V129.077H196.472V126.725H197.524V129.077H202.952ZM213.384 123.403V128.421H215.421V129.309H213.384V135.557H212.317V123.403H213.384ZM211.142 125.358V126.247H203.909V125.358H207.04V123.554H208.106V125.358H211.142ZM207.587 127.259C209.31 127.259 210.554 128.407 210.567 130.048C210.554 131.688 209.31 132.837 207.587 132.837C205.851 132.837 204.593 131.688 204.606 130.048C204.593 128.407 205.851 127.259 207.587 127.259ZM207.587 128.161C206.452 128.161 205.618 128.954 205.632 130.048C205.618 131.155 206.452 131.934 207.587 131.921C208.708 131.934 209.528 131.155 209.542 130.048C209.528 128.954 208.708 128.161 207.587 128.161ZM220.425 127.136C220.425 129.2 221.929 131.292 223.72 132.071L223.118 132.919C221.696 132.269 220.466 130.868 219.905 129.186C219.331 130.971 218.107 132.522 216.72 133.22L216.077 132.372C217.813 131.538 219.331 129.241 219.345 127.136V125.55H216.474V124.661H223.323V125.55H220.425V127.136ZM226.099 123.403V135.557H225.019V123.403H226.099ZM235.081 124.1C236.899 124.1 238.239 125.263 238.239 126.903C238.239 128.557 236.899 129.706 235.081 129.72C233.263 129.706 231.909 128.557 231.923 126.903C231.909 125.263 233.263 124.1 235.081 124.1ZM235.081 125.003C233.892 125.003 232.962 125.809 232.976 126.903C232.962 128.024 233.892 128.831 235.081 128.831C236.284 128.831 237.187 128.024 237.187 126.903C237.187 125.809 236.284 125.003 235.081 125.003ZM241.192 123.403V126.151H243.024V127.04H241.192V129.487H240.126V123.403H241.192ZM234.028 130.8V134.341C234.732 134.32 235.669 134.218 236.53 133.93L236.694 134.792C235.505 135.188 234.356 135.229 233.563 135.229H232.989V130.8H234.028ZM242.409 130.854V131.688H236.271V130.854H238.827V129.774H239.88V130.854H242.409ZM239.333 132.098C240.659 132.098 241.603 132.768 241.616 133.821C241.603 134.874 240.659 135.53 239.333 135.53C237.993 135.53 237.063 134.874 237.077 133.821C237.063 132.768 237.993 132.098 239.333 132.098ZM239.333 132.878C238.581 132.878 238.034 133.261 238.034 133.821C238.034 134.395 238.581 134.764 239.333 134.764C240.099 134.764 240.632 134.395 240.632 133.821C240.632 133.261 240.099 132.878 239.333 132.878ZM246.265 130.704V132.126H252.335V130.704H253.415V135.393H245.198V130.704H246.265ZM246.265 134.532H252.335V132.973H246.265V134.532ZM254.864 128.954V129.843H243.79V128.954H254.864ZM249.888 124.114C249.888 125.618 252.103 126.958 254.235 127.231L253.839 128.093C251.952 127.812 250.106 126.848 249.341 125.481C248.562 126.855 246.702 127.812 244.829 128.093L244.419 127.231C246.579 126.944 248.78 125.659 248.78 124.114V123.54H249.888V124.114ZM265.911 123.403V135.557H264.845V123.403H265.911ZM257.735 124.606V131.497C259.588 131.49 261.509 131.34 263.546 130.909L263.696 131.825C261.536 132.276 259.608 132.427 257.667 132.427H256.683V124.606H257.735ZM277.396 123.403V128.216H279.433V129.118H277.396V135.585H276.329V123.403H277.396ZM274.196 124.593V125.481H269.589V131.634C271.79 131.634 273.349 131.531 275.153 131.196L275.29 132.126C273.39 132.468 271.79 132.536 269.479 132.536H268.522V124.593H274.196ZM281.374 134.532C280.896 134.532 280.485 134.136 280.499 133.643C280.485 133.165 280.896 132.768 281.374 132.768C281.853 132.768 282.249 133.165 282.249 133.643C282.249 134.136 281.853 134.532 281.374 134.532Z" fill="black" fill-opacity="0.2"/>
</svg>
