<svg width="24" height="24" viewBox="0 0 24 24" fill="none" xmlns="http://www.w3.org/2000/svg">
<path d="M13.325 13C12.7917 12.25 12.0875 11.7292 11.2125 11.4375C10.3375 11.1458 9.43333 11 8.5 11C7.56667 11 6.6625 11.1458 5.7875 11.4375C4.9125 11.7292 4.20833 12.25 3.675 13H13.325ZM8.5 9C9.26667 9 10.0458 9.09583 10.8375 9.2875C11.6292 9.47917 12.3625 9.775 13.0375 10.175C13.7125 10.575 14.2917 11.075 14.775 11.675C15.2583 12.275 15.5833 12.9833 15.75 13.8C15.8167 14.1167 15.75 14.3958 15.55 14.6375C15.35 14.8792 15.0917 15 14.775 15H2.225C1.90833 15 1.65 14.8792 1.45 14.6375C1.25 14.3958 1.18333 14.1167 1.25 13.8C1.41667 12.9833 1.74583 12.275 2.2375 11.675C2.72917 11.075 3.3125 10.575 3.9875 10.175C4.6625 9.775 5.39167 9.47917 6.175 9.2875C6.95833 9.09583 7.73333 9 8.5 9ZM2 19C1.71667 19 1.47917 18.9042 1.2875 18.7125C1.09583 18.5208 1 18.2833 1 18C1 17.7167 1.09583 17.4792 1.2875 17.2875C1.47917 17.0958 1.71667 17 2 17H15C15.2833 17 15.5208 17.0958 15.7125 17.2875C15.9042 17.4792 16 17.7167 16 18C16 18.2833 15.9042 18.5208 15.7125 18.7125C15.5208 18.9042 15.2833 19 15 19H2ZM19.7 23H19C18.7167 23 18.4792 22.9042 18.2875 22.7125C18.0958 22.5208 18 22.2833 18 22C18 21.7167 18.0958 21.4792 18.2875 21.2875C18.4792 21.0958 18.7167 21 19 21H19.4L20.8 7H12.2C11.9167 7 11.6792 6.90417 11.4875 6.7125C11.2958 6.52083 11.2 6.28333 11.2 6C11.2 5.71667 11.2958 5.47917 11.4875 5.2875C11.6792 5.09583 11.9167 5 12.2 5H16V2C16 1.71667 16.0958 1.47917 16.2875 1.2875C16.4792 1.09583 16.7167 1 17 1C17.2833 1 17.5208 1.09583 17.7125 1.2875C17.9042 1.47917 18 1.71667 18 2V5H21.9C22.2 5 22.45 5.10833 22.65 5.325C22.85 5.54167 22.9333 5.8 22.9 6.1L21.35 21.55C21.3 21.9667 21.1167 22.3125 20.8 22.5875C20.4833 22.8625 20.1167 23 19.7 23ZM2 23C1.71667 23 1.47917 22.9042 1.2875 22.7125C1.09583 22.5208 1 22.2833 1 22C1 21.7167 1.09583 21.4792 1.2875 21.2875C1.47917 21.0958 1.71667 21 2 21H15C15.2833 21 15.5208 21.0958 15.7125 21.2875C15.9042 21.4792 16 21.7167 16 22C16 22.2833 15.9042 22.5208 15.7125 22.7125C15.5208 22.9042 15.2833 23 15 23H2Z" fill="#4590BB"/>
</svg>
