<svg width="20" height="20" viewBox="0 0 20 20" fill="none" xmlns="http://www.w3.org/2000/svg">
<mask id="mask0_6669_30195" style="mask-type:alpha" maskUnits="userSpaceOnUse" x="0" y="0" width="20" height="20">
<rect width="20" height="20" fill="#D9D9D9"/>
</mask>
<g mask="url(#mask0_6669_30195)">
<path d="M6.08975 17.0832C5.67549 17.0832 5.32085 16.9356 5.02585 16.6406C4.73084 16.3456 4.58333 15.991 4.58333 15.5767V4.99984H4.375C4.19792 4.99984 4.04948 4.93992 3.92969 4.82007C3.8099 4.70024 3.75 4.55174 3.75 4.37457C3.75 4.19742 3.8099 4.04901 3.92969 3.92936C4.04948 3.8097 4.19792 3.74986 4.375 3.74986H7.49998C7.49998 3.54581 7.57183 3.37193 7.71552 3.22824C7.85922 3.08454 8.03309 3.0127 8.23715 3.0127H11.7628C11.9669 3.0127 12.1407 3.08454 12.2844 3.22824C12.4281 3.37193 12.5 3.54581 12.5 3.74986H15.625C15.802 3.74986 15.9505 3.80979 16.0703 3.92963C16.1901 4.04948 16.25 4.19798 16.25 4.37513C16.25 4.5523 16.1901 4.70071 16.0703 4.82036C15.9505 4.94001 15.802 4.99984 15.625 4.99984H15.4166V15.5767C15.4166 15.991 15.2691 16.3456 14.9741 16.6406C14.6791 16.9356 14.3245 17.0832 13.9102 17.0832H6.08975ZM14.1666 4.99984H5.83331V15.5767C5.83331 15.6515 5.85735 15.713 5.90544 15.7611C5.95352 15.8091 6.01496 15.8332 6.08975 15.8332H13.9102C13.985 15.8332 14.0464 15.8091 14.0945 15.7611C14.1426 15.713 14.1666 15.6515 14.1666 15.5767V4.99984ZM8.46181 14.1665C8.63897 14.1665 8.78737 14.1066 8.90702 13.9868C9.02669 13.867 9.08652 13.7186 9.08652 13.5415V7.29149C9.08652 7.11442 9.0266 6.96599 8.90675 6.84619C8.7869 6.7264 8.6384 6.66651 8.46125 6.66651C8.28408 6.66651 8.13567 6.7264 8.01602 6.84619C7.89637 6.96599 7.83654 7.11442 7.83654 7.29149V13.5415C7.83654 13.7186 7.89647 13.867 8.01631 13.9868C8.13615 14.1066 8.28465 14.1665 8.46181 14.1665ZM11.5387 14.1665C11.7159 14.1665 11.8643 14.1066 11.9839 13.9868C12.1036 13.867 12.1634 13.7186 12.1634 13.5415V7.29149C12.1634 7.11442 12.1035 6.96599 11.9836 6.84619C11.8638 6.7264 11.7153 6.66651 11.5381 6.66651C11.361 6.66651 11.2126 6.7264 11.0929 6.84619C10.9733 6.96599 10.9134 7.11442 10.9134 7.29149V13.5415C10.9134 13.7186 10.9734 13.867 11.0932 13.9868C11.2131 14.1066 11.3616 14.1665 11.5387 14.1665Z" fill="#10477A"/>
</g>
</svg>
