<svg width="16" height="16" viewBox="0 0 16 16" fill="none" xmlns="http://www.w3.org/2000/svg">
<path d="M14.6673 5.21367C14.6705 5.17151 14.6705 5.12916 14.6673 5.087L13.334 1.75367C13.2819 1.6219 13.1892 1.51016 13.0693 1.43464C12.9495 1.35912 12.8087 1.32375 12.6673 1.33367H3.33398C3.20047 1.33354 3.06998 1.3735 2.95944 1.44839C2.8489 1.52327 2.76339 1.62962 2.71398 1.75367L1.38065 5.087C1.37744 5.12916 1.37744 5.17151 1.38065 5.21367C1.3585 5.25078 1.34272 5.29134 1.33398 5.33367C1.3414 5.79449 1.46814 6.24553 1.70181 6.64279C1.93549 7.04004 2.26814 7.36995 2.66732 7.60033V14.0003C2.66732 14.1771 2.73756 14.3467 2.86258 14.4717C2.9876 14.5968 3.15717 14.667 3.33398 14.667H12.6673C12.8441 14.667 13.0137 14.5968 13.1387 14.4717C13.2637 14.3467 13.334 14.1771 13.334 14.0003V7.627C13.737 7.39432 14.0721 7.06022 14.3061 6.65789C14.54 6.25557 14.6645 5.79904 14.6673 5.33367C14.6736 5.29391 14.6736 5.25342 14.6673 5.21367ZM8.66732 13.3337H7.33398V10.667H8.66732V13.3337ZM12.0007 13.3337H10.0007V10.0003C10.0007 9.82352 9.93041 9.65395 9.80539 9.52893C9.68036 9.4039 9.5108 9.33367 9.33398 9.33367H6.66732C6.49051 9.33367 6.32094 9.4039 6.19591 9.52893C6.07089 9.65395 6.00065 9.82352 6.00065 10.0003V13.3337H4.00065V8.00033C4.3803 7.99819 4.75511 7.91501 5.10002 7.75635C5.44493 7.59769 5.75199 7.36722 6.00065 7.08033C6.2509 7.36408 6.55866 7.59134 6.90348 7.747C7.24831 7.90266 7.62232 7.98317 8.00065 7.98317C8.37899 7.98317 8.75299 7.90266 9.09782 7.747C9.44265 7.59134 9.75041 7.36408 10.0007 7.08033C10.2493 7.36722 10.5564 7.59769 10.9013 7.75635C11.2462 7.91501 11.621 7.99819 12.0007 8.00033V13.3337ZM12.0007 6.667C11.647 6.667 11.3079 6.52652 11.0578 6.27648C10.8078 6.02643 10.6673 5.68729 10.6673 5.33367C10.6673 5.15686 10.5971 4.98729 10.4721 4.86226C10.347 4.73724 10.1775 4.667 10.0007 4.667C9.82384 4.667 9.65427 4.73724 9.52925 4.86226C9.40422 4.98729 9.33398 5.15686 9.33398 5.33367C9.33398 5.68729 9.19351 6.02643 8.94346 6.27648C8.69341 6.52652 8.35427 6.667 8.00065 6.667C7.64703 6.667 7.30789 6.52652 7.05784 6.27648C6.80779 6.02643 6.66732 5.68729 6.66732 5.33367C6.66732 5.15686 6.59708 4.98729 6.47206 4.86226C6.34703 4.73724 6.17746 4.667 6.00065 4.667C5.82384 4.667 5.65427 4.73724 5.52925 4.86226C5.40422 4.98729 5.33398 5.15686 5.33398 5.33367C5.34055 5.50876 5.31256 5.68344 5.25162 5.84772C5.19068 6.012 5.09798 6.16267 4.97882 6.29112C4.85965 6.41957 4.71634 6.5233 4.55709 6.59637C4.39783 6.66945 4.22575 6.71043 4.05065 6.717C3.69703 6.73026 3.35262 6.6025 3.0932 6.36183C2.96474 6.24266 2.86102 6.09936 2.78795 5.94011C2.71487 5.78085 2.67388 5.60876 2.66732 5.43367L3.78732 2.667H12.214L13.334 5.43367C13.3087 5.76968 13.1572 6.08366 12.9098 6.31247C12.6624 6.54128 12.3376 6.66795 12.0007 6.667Z" fill="#727272"/>
</svg>
