<svg width="97" height="25" viewBox="0 0 97 25" fill="none" xmlns="http://www.w3.org/2000/svg">
<mask id="mask0_9176_23898" style="mask-type:alpha" maskUnits="userSpaceOnUse" x="0" y="4" width="16" height="17">
<rect y="4.5" width="16" height="16" fill="#D9D9D9"/>
</mask>
<g mask="url(#mask0_9176_23898)">
<path d="M8.00046 18.2056C7.89101 18.2056 7.77884 18.1883 7.66396 18.1536C7.54896 18.1191 7.44234 18.0616 7.34412 17.9811L3.54912 15.0685C3.41068 14.959 3.30684 14.8323 3.23762 14.6883C3.1684 14.5443 3.13379 14.3885 3.13379 14.221V6.70562C3.13379 6.40551 3.2374 6.15185 3.44462 5.94462C3.65184 5.7374 3.90551 5.63379 4.20562 5.63379H11.7953C12.0954 5.63379 12.3491 5.7374 12.5563 5.94462C12.7635 6.15185 12.8671 6.40551 12.8671 6.70562V14.221C12.8671 14.3885 12.8325 14.5443 12.7633 14.6883C12.6941 14.8323 12.5902 14.959 12.4518 15.0685L8.65679 17.9811C8.55857 18.0616 8.45196 18.1191 8.33696 18.1536C8.22207 18.1883 8.1099 18.2056 8.00046 18.2056ZM7.87862 17.294C7.91284 17.324 7.95346 17.339 8.00046 17.339C8.04746 17.339 8.08807 17.324 8.12229 17.294L11.9171 14.3646C11.9428 14.3432 11.9631 14.3186 11.978 14.2908C11.993 14.263 12.0005 14.2321 12.0005 14.198V6.70562C12.0005 6.65429 11.9791 6.60729 11.9363 6.56462C11.8936 6.52184 11.8466 6.50046 11.7953 6.50046H4.20562C4.15429 6.50046 4.10729 6.52184 4.06462 6.56462C4.02184 6.60729 4.00046 6.65429 4.00046 6.70562V14.198C4.00046 14.2321 4.00796 14.263 4.02296 14.2908C4.03784 14.3186 4.05812 14.3432 4.08379 14.3646L7.87862 17.294ZM7.30046 11.8441L6.17229 10.7158C6.08418 10.6278 5.98479 10.5817 5.87412 10.5775C5.76346 10.5731 5.66196 10.6166 5.56962 10.708C5.4774 10.8055 5.43234 10.9103 5.43446 11.0223C5.43657 11.1342 5.48379 11.2363 5.57612 11.3286L6.91196 12.6813C7.0204 12.7906 7.14685 12.8453 7.29129 12.8453C7.43585 12.8453 7.56284 12.7906 7.67229 12.6813L10.4351 9.91846C10.5231 9.83035 10.5692 9.73096 10.5735 9.62029C10.5778 9.50962 10.5343 9.40812 10.443 9.31579C10.3454 9.22357 10.2406 9.17851 10.1286 9.18062C10.0167 9.18273 9.91462 9.22996 9.82229 9.32229L7.30046 11.8441Z" fill="#175C8E"/>
</g>
<path d="M27.5059 17.9492H26.6035V12.5586H25.1035V17.4102H24.2363V7.76562H25.1035V11.7734H26.6035V7.53125H27.5059V17.9492ZM20.0527 14.4336C20.6348 14.4258 21.2012 14.3984 21.752 14.3516C22.3027 14.3008 22.873 14.2148 23.4629 14.0938L23.5801 14.9141C22.8887 15.0352 22.2363 15.123 21.623 15.1777C21.0098 15.2285 20.3965 15.2539 19.7832 15.2539H19.1387V8.80859H20.0527V14.4336ZM37.0449 11.7734H38.7324V12.5469H37.0449V17.9492H36.1309V7.53125H37.0449V11.7734ZM34.3496 8.65625C34.3496 10.207 33.9609 11.6133 33.1836 12.875C32.4062 14.1328 31.2012 15.1641 29.5684 15.9688L29.0527 15.2422C30.3926 14.5742 31.4297 13.75 32.1641 12.7695C32.8984 11.7852 33.3184 10.6719 33.4238 9.42969H29.5332V8.65625H34.3496ZM45.8926 9.46484C45.8926 9.92188 45.998 10.3613 46.209 10.7832C46.4238 11.2012 46.7246 11.5723 47.1113 11.8965C47.498 12.2207 47.9473 12.4727 48.459 12.6523L47.9902 13.3672C47.4004 13.1562 46.8848 12.8477 46.4434 12.4414C46.002 12.0312 45.6699 11.5566 45.4473 11.0176C45.2246 11.6035 44.8848 12.1191 44.4277 12.5645C43.9707 13.0059 43.4355 13.3398 42.8223 13.5664L42.3301 12.8516C42.8457 12.668 43.3047 12.4043 43.707 12.0605C44.1094 11.7168 44.4219 11.3203 44.6445 10.8711C44.8711 10.4219 44.9863 9.95312 44.9902 9.46484V9.01953H42.6113V8.26953H48.2363V9.01953H45.8926V9.46484ZM50.5098 10.2852H52.0801V11.0703H50.5098V13.8125H49.5957V7.53125H50.5098V10.2852ZM50.5098 17.9492H49.5957V15.1133H43.6895V14.3633H50.5098V17.9492ZM56.3223 9.17188C56.3184 9.66016 56.4238 10.127 56.6387 10.5723C56.8535 11.0137 57.1562 11.4004 57.5469 11.7324C57.9414 12.0645 58.3926 12.3164 58.9004 12.4883L58.3848 13.2031C57.8066 12.9844 57.3008 12.6699 56.8672 12.2598C56.4336 11.8496 56.1055 11.3711 55.8828 10.8242C55.6602 11.4492 55.3184 11.9961 54.8574 12.4648C54.3965 12.9297 53.8535 13.2812 53.2285 13.5195L52.7246 12.7695C53.2559 12.582 53.7227 12.3125 54.125 11.9609C54.5312 11.6055 54.8457 11.1914 55.0684 10.7188C55.291 10.2422 55.4043 9.73828 55.4082 9.20703V8.12891H56.3223V9.17188ZM61.373 13.707H60.4473V10.5312H58.127V9.76953H60.4473V7.53125H61.373V13.707ZM57.916 14.0117C58.6387 14.0117 59.2617 14.0898 59.7852 14.2461C60.3086 14.3984 60.709 14.623 60.9863 14.9199C61.2676 15.2129 61.4082 15.5664 61.4082 15.9805C61.4082 16.3906 61.2676 16.7402 60.9863 17.0293C60.709 17.3223 60.3086 17.5449 59.7852 17.6973C59.2617 17.8496 58.6387 17.9258 57.916 17.9258C57.1934 17.9258 56.5703 17.8496 56.0469 17.6973C55.5234 17.5449 55.1211 17.3223 54.8398 17.0293C54.5625 16.7402 54.4238 16.3906 54.4238 15.9805C54.4238 15.5664 54.5625 15.2129 54.8398 14.9199C55.1211 14.623 55.5234 14.3984 56.0469 14.2461C56.5703 14.0898 57.1934 14.0117 57.916 14.0117ZM57.916 14.7383C57.3887 14.7383 56.9297 14.7891 56.5391 14.8906C56.1484 14.9883 55.8496 15.1309 55.6426 15.3184C55.4355 15.5059 55.334 15.7266 55.3379 15.9805C55.334 16.2266 55.4355 16.4414 55.6426 16.625C55.8496 16.8047 56.1484 16.9434 56.5391 17.041C56.9297 17.1387 57.3887 17.1875 57.916 17.1875C58.4434 17.1875 58.9004 17.1387 59.2871 17.041C59.6777 16.9434 59.9766 16.8047 60.1836 16.625C60.3906 16.4414 60.4941 16.2266 60.4941 15.9805C60.4941 15.7266 60.3906 15.5059 60.1836 15.3184C59.9766 15.1309 59.6777 14.9883 59.2871 14.8906C58.9004 14.7891 58.4434 14.7383 57.916 14.7383ZM71.252 10.9766H72.8223V11.75H71.252V15.3477H70.3379V7.54297H71.252V10.9766ZM69.3418 9.57031H63.1309V8.82031H65.7793V7.54297H66.6934V8.82031H69.3418V9.57031ZM66.2363 10.1445C66.7285 10.1445 67.1621 10.2246 67.5371 10.3848C67.916 10.5449 68.2109 10.7715 68.4219 11.0645C68.6328 11.3574 68.7402 11.6992 68.7441 12.0898C68.7402 12.4766 68.6328 12.8145 68.4219 13.1035C68.2109 13.3926 67.916 13.6172 67.5371 13.7773C67.1621 13.9336 66.7285 14.0117 66.2363 14.0117C65.7402 14.0117 65.3008 13.9336 64.918 13.7773C64.5391 13.6172 64.2441 13.3926 64.0332 13.1035C63.8262 12.8145 63.7246 12.4766 63.7285 12.0898C63.7246 11.6992 63.8262 11.3574 64.0332 11.0645C64.2441 10.7715 64.5391 10.5449 64.918 10.3848C65.3008 10.2246 65.7402 10.1445 66.2363 10.1445ZM66.2363 10.8711C65.9121 10.8711 65.625 10.9219 65.375 11.0234C65.1289 11.1211 64.9375 11.2637 64.8008 11.4512C64.668 11.6348 64.6035 11.8477 64.6074 12.0898C64.6035 12.332 64.668 12.5449 64.8008 12.7285C64.9375 12.9082 65.1289 13.0469 65.375 13.1445C65.625 13.2422 65.9121 13.2891 66.2363 13.2852C66.5566 13.2891 66.8398 13.2422 67.0859 13.1445C67.3359 13.0469 67.5293 12.9082 67.666 12.7285C67.8027 12.5449 67.873 12.332 67.877 12.0898C67.873 11.8477 67.8027 11.6348 67.666 11.4512C67.5293 11.2637 67.3359 11.1211 67.0859 11.0234C66.8398 10.9219 66.5566 10.8711 66.2363 10.8711ZM71.7324 17.7266H64.7363V14.7266H65.6387V16.9531H71.7324V17.7266ZM85.0918 17.9727H84.1777V7.53125H85.0918V17.9727ZM81.9277 12.207H78.0371V14.668C78.9707 14.668 79.8379 14.6406 80.6387 14.5859C81.4434 14.5312 82.2871 14.4336 83.1699 14.293L83.2637 15.0664C82.3613 15.2109 81.498 15.3105 80.6738 15.3652C79.8496 15.416 78.9473 15.4414 77.9668 15.4414H77.0996V11.457H81.002V9.26562H77.0762V8.50391H81.9277V12.207ZM96.3887 14.3867H93.9512V17.9492H93.0371V14.3867H90.2012V17.9492H89.2637V14.3867H86.8496V13.6133H96.3887V14.3867ZM88.9824 9.37109H94.2324V7.95312H95.1582V12.3828H88.0684V7.95312H88.9824V9.37109ZM94.2324 11.6328V10.1094H88.9824V11.6328H94.2324Z" fill="#175C8E"/>
</svg>
