<svg width="20" height="20" viewBox="0 0 20 20" fill="none" xmlns="http://www.w3.org/2000/svg">
<mask id="mask0_1_5783" style="mask-type:alpha" maskUnits="userSpaceOnUse" x="0" y="0" width="20" height="20">
<rect width="20" height="20" fill="#D9D9D9"/>
</mask>
<g mask="url(#mask0_1_5783)">
<path d="M15.6426 14.792H12.4999C12.3228 14.792 12.1744 14.7321 12.0547 14.6122C11.9348 14.4923 11.8749 14.3439 11.8749 14.1668C11.8749 13.9896 11.9348 13.8412 12.0547 13.7216C12.1744 13.6019 12.3228 13.542 12.4999 13.542H15.6426L14.5608 12.4522C14.4471 12.3283 14.3878 12.1812 14.3826 12.0107C14.3775 11.8403 14.4369 11.6932 14.5608 11.5693C14.6848 11.4454 14.8307 11.3835 14.9985 11.3835C15.1662 11.3835 15.3131 11.4454 15.4391 11.5693L17.5095 13.6397C17.6602 13.7904 17.7355 13.9662 17.7355 14.167C17.7355 14.3678 17.6602 14.5436 17.5095 14.6943L15.4391 16.7647C15.3131 16.8886 15.1662 16.9505 14.9985 16.9505C14.8307 16.9505 14.6848 16.8886 14.5608 16.7647C14.4369 16.6408 14.3775 16.4937 14.3826 16.3232C14.3878 16.1528 14.4471 16.0057 14.5608 15.8818L15.6426 14.792ZM4.91179 14.792L3.34992 16.3539C3.22881 16.475 3.09159 16.5047 2.93825 16.443C2.78492 16.3814 2.70825 16.2642 2.70825 16.0916V5.04845C2.70825 4.63414 2.85575 4.27949 3.15075 3.98449C3.44575 3.68949 3.8004 3.54199 4.21471 3.54199H14.1185C14.5328 3.54199 14.8874 3.68949 15.1824 3.98449C15.4774 4.27949 15.6249 4.63414 15.6249 5.04845V8.54199C15.6249 8.71908 15.565 8.86755 15.4451 8.98741C15.3253 9.10713 15.1768 9.16699 14.9997 9.16699C14.8225 9.16699 14.6741 9.10713 14.5545 8.98741C14.4348 8.86755 14.3749 8.71908 14.3749 8.54199V5.04845C14.3749 4.97359 14.3509 4.91213 14.3028 4.86408C14.2548 4.81602 14.1933 4.79199 14.1185 4.79199H4.21471C4.13985 4.79199 4.07839 4.81602 4.03034 4.86408C3.98228 4.91213 3.95825 4.97359 3.95825 5.04845V13.542H9.37492C9.552 13.542 9.70047 13.6019 9.82034 13.7218C9.94006 13.8416 9.99992 13.9901 9.99992 14.1672C9.99992 14.3444 9.94006 14.4928 9.82034 14.6124C9.70047 14.7321 9.552 14.792 9.37492 14.792H4.91179ZM6.50638 8.12533H11.8268C12.0039 8.12533 12.1524 8.06539 12.2722 7.94553C12.3919 7.82567 12.4518 7.6772 12.4518 7.50012C12.4518 7.32289 12.3919 7.17449 12.2722 7.05491C12.1524 6.93519 12.0039 6.87533 11.8268 6.87533H6.50638C6.32929 6.87533 6.18082 6.93526 6.06096 7.05512C5.94124 7.17498 5.88138 7.32345 5.88138 7.50053C5.88138 7.67776 5.94124 7.82616 6.06096 7.94574C6.18082 8.06546 6.32929 8.12533 6.50638 8.12533ZM6.50638 11.4587H9.32679C9.50388 11.4587 9.65235 11.3987 9.77221 11.2789C9.89193 11.159 9.95179 11.0105 9.95179 10.8335C9.95179 10.6562 9.89193 10.5078 9.77221 10.3882C9.65235 10.2685 9.50388 10.2087 9.32679 10.2087H6.50638C6.32929 10.2087 6.18082 10.2686 6.06096 10.3885C5.94124 10.5083 5.88138 10.6568 5.88138 10.8339C5.88138 11.0111 5.94124 11.1595 6.06096 11.2791C6.18082 11.3988 6.32929 11.4587 6.50638 11.4587Z" fill="#4B4B4B"/>
</g>
</svg>
