<svg width="20" height="20" viewBox="0 0 20 20" fill="none" xmlns="http://www.w3.org/2000/svg">
<mask id="mask0_9627_11126" style="mask-type:alpha" maskUnits="userSpaceOnUse" x="0" y="0" width="20" height="20">
<rect width="20" height="20" fill="#D9D9D9"/>
</mask>
<g mask="url(#mask0_9627_11126)">
<path d="M9.99241 15.9454C9.82783 15.9454 9.66942 15.9169 9.5172 15.8598C9.36498 15.8026 9.22046 15.7126 9.08366 15.5898L8.09491 14.6892C6.57574 13.342 5.24963 12.0393 4.11658 10.7813C2.98352 9.52321 2.41699 8.19335 2.41699 6.79169C2.41699 5.69238 2.79491 4.77169 3.55074 4.0296C4.30671 3.28766 5.2413 2.91669 6.35449 2.91669C6.99866 2.91669 7.6381 3.06467 8.27283 3.36065C8.90741 3.65662 9.48324 4.15981 10.0003 4.87023C10.5452 4.15981 11.128 3.65662 11.7487 3.36065C12.3695 3.06467 13.002 2.91669 13.6462 2.91669C14.7594 2.91669 15.6939 3.28766 16.4499 4.0296C17.2057 4.77169 17.5837 5.69238 17.5837 6.79169C17.5837 8.20947 17.0038 9.55134 15.8441 10.8173C14.6844 12.0833 13.3716 13.3712 11.9057 14.6811L10.9089 15.5898C10.7722 15.7126 10.6264 15.8026 10.4716 15.8598C10.3166 15.9169 10.1569 15.9454 9.99241 15.9454Z" fill="#4B4B4B"/>
</g>
</svg>
