<svg width="20" height="20" viewBox="0 0 20 20" fill="none" xmlns="http://www.w3.org/2000/svg">
<mask id="mask0_19647_22928" style="mask-type:alpha" maskUnits="userSpaceOnUse" x="0" y="0" width="20" height="20">
<rect x="20" y="20" width="20" height="20" transform="rotate(-180 20 20)" fill="#D9D9D9"/>
</mask>
<g mask="url(#mask0_19647_22928)">
<path d="M12.3548 6.66657L17.5007 6.66657C17.7368 6.66657 17.9347 6.74644 18.0944 6.90616C18.2541 7.06588 18.334 7.2638 18.334 7.49991C18.334 7.73602 18.2541 7.93394 18.0944 8.09366C17.9347 8.25338 17.7368 8.33324 17.5007 8.33324L12.3548 8.33324L13.9173 9.89574C14.0701 10.0485 14.1465 10.2395 14.1465 10.4687C14.1465 10.6978 14.0701 10.8957 13.9173 11.0624C13.7507 11.2291 13.5527 11.3124 13.3236 11.3124C13.0944 11.3124 12.8965 11.2291 12.7298 11.0624L9.75065 8.08324C9.66732 7.99991 9.60829 7.90963 9.57357 7.81241C9.53885 7.71519 9.52149 7.61102 9.52149 7.49991C9.52149 7.3888 9.53885 7.28463 9.57357 7.18741C9.60829 7.09019 9.66732 6.99991 9.75065 6.91657L12.7507 3.91657C12.9173 3.74991 13.1118 3.67005 13.334 3.67699C13.5562 3.68393 13.7507 3.77074 13.9173 3.93741C14.0701 4.10407 14.15 4.29852 14.1569 4.52074C14.1638 4.74296 14.084 4.93741 13.9173 5.10407L12.3548 6.66657ZM7.64648 11.6666L6.08398 10.1041C5.93121 9.9513 5.85482 9.76032 5.85482 9.53116C5.85482 9.30199 5.93121 9.10407 6.08399 8.93741C6.25065 8.77074 6.44857 8.68741 6.67773 8.68741C6.9069 8.68741 7.10482 8.77074 7.27148 8.93741L10.2507 11.9166C10.334 11.9999 10.393 12.0902 10.4277 12.1874C10.4625 12.2846 10.4798 12.3888 10.4798 12.4999C10.4798 12.611 10.4625 12.7152 10.4277 12.8124C10.393 12.9096 10.334 12.9999 10.2507 13.0832L7.25065 16.0832C7.08398 16.2499 6.88954 16.3298 6.66732 16.3228C6.4451 16.3159 6.25065 16.2291 6.08398 16.0624C5.93121 15.8957 5.85135 15.7013 5.8444 15.4791C5.83746 15.2569 5.91732 15.0624 6.08398 14.8957L7.64648 13.3332L2.50065 13.3332C2.26454 13.3332 2.06662 13.2534 1.9069 13.0937C1.74718 12.9339 1.66732 12.736 1.66732 12.4999C1.66732 12.2638 1.74718 12.0659 1.9069 11.9062C2.06662 11.7464 2.26454 11.6666 2.50065 11.6666L7.64648 11.6666Z" fill="#175C8E"/>
</g>
</svg>
