<svg width="12" height="11" viewBox="0 0 12 11" fill="none" xmlns="http://www.w3.org/2000/svg">
<path d="M5.9987 6.66732L1.91536 10.7507C1.76259 10.9034 1.56814 10.9798 1.33203 10.9798C1.09592 10.9798 0.901476 10.9034 0.748698 10.7507C0.59592 10.5979 0.519531 10.4034 0.519531 10.1673C0.519531 9.93121 0.59592 9.73676 0.748698 9.58399L4.83203 5.50065L0.748698 1.41732C0.59592 1.26454 0.519531 1.0701 0.519531 0.833984C0.519531 0.597873 0.59592 0.403429 0.748698 0.250651C0.901476 0.0978733 1.09592 0.0214844 1.33203 0.0214844C1.56814 0.0214844 1.76259 0.0978733 1.91536 0.250651L5.9987 4.33398L10.082 0.250651C10.2348 0.0978733 10.4293 0.0214844 10.6654 0.0214844C10.9015 0.0214844 11.0959 0.0978733 11.2487 0.250651C11.4015 0.403429 11.4779 0.597873 11.4779 0.833984C11.4779 1.0701 11.4015 1.26454 11.2487 1.41732L7.16537 5.50065L11.2487 9.58399C11.4015 9.73676 11.4779 9.93121 11.4779 10.1673C11.4779 10.4034 11.4015 10.5979 11.2487 10.7507C11.0959 10.9034 10.9015 10.9798 10.6654 10.9798C10.4293 10.9798 10.2348 10.9034 10.082 10.7507L5.9987 6.66732Z" fill="#727272"/>
</svg>
