<svg width="30" height="30" viewBox="0 0 30 30" fill="none" xmlns="http://www.w3.org/2000/svg">
<path d="M6 6.6H10L10.5 7.53333H7V26.2H19.5L23 22.9333V7.53333H19.5L20 6.6H24V23.4L20 27.1333H6V6.6Z" fill="#1C1C1C"/>
<path d="M4 4.73333H10V5.66667H5V28.0667H25V5.66667H20V4.73333H26V29H4V4.73333Z" fill="#1C1C1C"/>
<path d="M16 4.73333C16 5.2488 15.5523 5.66667 15 5.66667C14.4477 5.66667 14 5.2488 14 4.73333C14 4.21787 14.4477 3.8 15 3.8C15.5523 3.8 16 4.21787 16 4.73333Z" fill="#1C1C1C"/>
<path d="M8.5 9.86667C8.5 9.60893 8.72386 9.4 9 9.4C9.27614 9.4 9.5 9.60893 9.5 9.86667V10.8C9.5 11.0577 9.27614 11.2667 9 11.2667C8.72386 11.2667 8.5 11.0577 8.5 10.8V9.86667Z" fill="#1C1C1C"/>
<path d="M12.5 9.86667C12.5 9.60893 12.7239 9.4 13 9.4C13.2761 9.4 13.5 9.60893 13.5 9.86667V10.8C13.5 11.0577 13.2761 11.2667 13 11.2667C12.7239 11.2667 12.5 11.0577 12.5 10.8V9.86667Z" fill="#1C1C1C"/>
<path d="M16.5 9.86667C16.5 9.60893 16.7239 9.4 17 9.4C17.2761 9.4 17.5 9.60893 17.5 9.86667V10.8C17.5 11.0577 17.2761 11.2667 17 11.2667C16.7239 11.2667 16.5 11.0577 16.5 10.8V9.86667Z" fill="#1C1C1C"/>
<path d="M20.5 9.86667C20.5 9.60893 20.7239 9.4 21 9.4C21.2761 9.4 21.5 9.60893 21.5 9.86667V10.8C21.5 11.0577 21.2761 11.2667 21 11.2667C20.7239 11.2667 20.5 11.0577 20.5 10.8V9.86667Z" fill="#1C1C1C"/>
<path d="M10.5 9.86667C10.5 9.60893 10.7239 9.4 11 9.4C11.2761 9.4 11.5 9.60893 11.5 9.86667V10.8C11.5 11.0577 11.2761 11.2667 11 11.2667C10.7239 11.2667 10.5 11.0577 10.5 10.8V9.86667Z" fill="#1C1C1C"/>
<path d="M14.5 9.86667C14.5 9.60893 14.7239 9.4 15 9.4C15.2761 9.4 15.5 9.60893 15.5 9.86667V10.8C15.5 11.0577 15.2761 11.2667 15 11.2667C14.7239 11.2667 14.5 11.0577 14.5 10.8V9.86667Z" fill="#1C1C1C"/>
<path d="M18.5 9.86667C18.5 9.60893 18.7239 9.4 19 9.4C19.2761 9.4 19.5 9.60893 19.5 9.86667V10.8C19.5 11.0577 19.2761 11.2667 19 11.2667C18.7239 11.2667 18.5 11.0577 18.5 10.8V9.86667Z" fill="#1C1C1C"/>
<path d="M11 14.0667C11 14.5821 10.5523 15 10 15C9.44772 15 9 14.5821 9 14.0667C9 13.5512 9.44772 13.1333 10 13.1333C10.5523 13.1333 11 13.5512 11 14.0667Z" fill="#1C1C1C"/>
<path d="M11 16.8667C11 17.3821 10.5523 17.8 10 17.8C9.44772 17.8 9 17.3821 9 16.8667C9 16.3512 9.44772 15.9333 10 15.9333C10.5523 15.9333 11 16.3512 11 16.8667Z" fill="#1C1C1C"/>
<path d="M11 19.6667C11 20.1821 10.5523 20.6 10 20.6C9.44772 20.6 9 20.1821 9 19.6667C9 19.1512 9.44772 18.7333 10 18.7333C10.5523 18.7333 11 19.1512 11 19.6667Z" fill="#1C1C1C"/>
<path d="M11 22.4667C11 22.9821 10.5523 23.4 10 23.4C9.44772 23.4 9 22.9821 9 22.4667C9 21.9512 9.44772 21.5333 10 21.5333C10.5523 21.5333 11 21.9512 11 22.4667Z" fill="#1C1C1C"/>
<path d="M19 22.4667H23V23.4H20V26.2H19V22.4667Z" fill="#1C1C1C"/>
<path d="M12 14.0667C12 13.8089 12.2239 13.6 12.5 13.6H18.5C18.7761 13.6 19 13.8089 19 14.0667C19 14.3244 18.7761 14.5333 18.5 14.5333H12.5C12.2239 14.5333 12 14.3244 12 14.0667Z" fill="#1C1C1C"/>
<path d="M12 16.8667C12 16.6089 12.2239 16.4 12.5 16.4H19.5C19.7761 16.4 20 16.6089 20 16.8667C20 17.1244 19.7761 17.3333 19.5 17.3333H12.5C12.2239 17.3333 12 17.1244 12 16.8667Z" fill="#1C1C1C"/>
<path d="M12 19.6667C12 19.4089 12.2239 19.2 12.5 19.2H14.5C14.7761 19.2 15 19.4089 15 19.6667C15 19.9244 14.7761 20.1333 14.5 20.1333H12.5C12.2239 20.1333 12 19.9244 12 19.6667Z" fill="#1C1C1C"/>
<path d="M12 22.4667C12 22.2089 12.2239 22 12.5 22H17.5C17.7761 22 18 22.2089 18 22.4667C18 22.7244 17.7761 22.9333 17.5 22.9333H12.5C12.2239 22.9333 12 22.7244 12 22.4667Z" fill="#1C1C1C"/>
<path d="M11 4.73333C11 6.6 11 7.06667 11 7.06667H19C19 7.06667 19 6.6 19 4.73333C19 2.86667 17 1.93333 15 1.93333C13 1.93333 11 2.86667 11 4.73333ZM15 1C17 1 20 2.4 20 4.26667C20 4.73333 20 7.06667 20 7.06667L19 8H11L10 7.06667C10 7.06667 10 4.73333 10 4.26667C10 2.4 13 1 15 1Z" fill="black"/>
<path d="M12 7.06667C12 7.25126 11.9414 7.43171 11.8315 7.5852C11.7216 7.73868 11.5654 7.85831 11.3827 7.92895C11.2 7.9996 10.9989 8.01808 10.8049 7.98207C10.6109 7.94605 10.4327 7.85716 10.2929 7.72663C10.153 7.5961 10.0578 7.4298 10.0192 7.24875C9.98063 7.0677 10.0004 6.88004 10.0761 6.7095C10.1518 6.53895 10.28 6.39318 10.4444 6.29063C10.6089 6.18807 10.8022 6.13333 11 6.13333V7.06667H12Z" fill="black"/>
<path d="M19 6.13333C19.1978 6.13333 19.3911 6.18807 19.5556 6.29063C19.72 6.39318 19.8482 6.53895 19.9239 6.7095C19.9996 6.88004 20.0194 7.0677 19.9808 7.24875C19.9422 7.4298 19.847 7.5961 19.7071 7.72663C19.5673 7.85716 19.3891 7.94605 19.1951 7.98207C19.0011 8.01808 18.8 7.9996 18.6173 7.92895C18.4346 7.85831 18.2784 7.73869 18.1685 7.5852C18.0587 7.43171 18 7.25126 18 7.06667L19 7.06667V6.13333Z" fill="black"/>
</svg>
