<svg width="20" height="21" viewBox="0 0 20 21" fill="none" xmlns="http://www.w3.org/2000/svg">
<mask id="mask0_37938_203113" style="mask-type:alpha" maskUnits="userSpaceOnUse" x="0" y="0" width="20" height="21">
<rect y="0.5" width="20" height="20" fill="#F8F8FA"/>
<rect y="0.5" width="20" height="20" fill="white"/>
</mask>
<g mask="url(#mask0_37938_203113)">
<path d="M11.2905 10.4999L7.21725 7.10576C7.07892 6.99035 7.00808 6.84528 7.00475 6.67055C7.00158 6.49597 7.07242 6.34826 7.21725 6.22743C7.36225 6.10673 7.53792 6.04639 7.74425 6.04639C7.95058 6.04639 8.12625 6.10673 8.27125 6.22743L12.7655 9.97264C12.859 10.0507 12.925 10.133 12.9635 10.2195C13.002 10.306 13.0212 10.3995 13.0212 10.4999C13.0212 10.6003 13.002 10.6938 12.9635 10.7803C12.925 10.8669 12.859 10.9492 12.7655 11.0272L8.27125 14.7724C8.13275 14.8877 7.95867 14.9467 7.749 14.9495C7.5395 14.9522 7.36225 14.8931 7.21725 14.7724C7.07242 14.6516 7 14.5052 7 14.3333C7 14.1613 7.07242 14.0149 7.21725 13.8941L11.2905 10.4999Z" fill="black"/>
</g>
</svg>
