<?xml version="1.0" encoding="utf-8" standalone="yes"?><!-- Generator: Adobe Illustrator 22.0.1, SVG Export Plug-In . SVG Version: 6.00 Build 0)  --><svg xmlns="http://www.w3.org/2000/svg" xmlns:xlink="http://www.w3.org/1999/xlink" version="1.1" id="레이어_1" x="0px" y="0px" viewBox="0 0 3300 2200" style="enable-background:new 0 0 3300 2200;zoom: 1;" xml:space="preserve"><style type="text/css">
        .st0{fill:#FFFFFF;}
        .st1{fill:none;stroke:#000000;stroke-width:1.8;}
        .st2{font-family:'Arial-BoldMT';}
        .st3{font-size:12px;}
        .st4{font-family:'ArialMT';}
        .st5{opacity:0.4;fill:#00AEEF;enable-background:new    ;}
        .st6{fill:#27AAE1;}
        .st7{fill:none;stroke:#27AAE1;stroke-width:0.577;}
        .st8{fill:none;}
</style><g id="Notes"><rect id="artboard" x="-2" class="st0" width="3300" height="2200"></rect><line class="st1" x1="261" y1="292" x2="3034" y2="292"></line><text transform="matrix(1 0 0 1 260.9319 322.0433)" class="st2 st3">Weight/Scale Variations</text><text transform="matrix(1 0 0 1 533.9679 322.0433)" class="st4 st3">Ultralight</text><text transform="matrix(1 0 0 1 842.6817 322.0433)" class="st4 st3">Thin</text><text transform="matrix(1 0 0 1 1138.0509 322.0433)" class="st4 st3">Light</text><text transform="matrix(1 0 0 1 1426.7599 322.0433)" class="st4 st3">Regular</text><text transform="matrix(1 0 0 1 1723.1526 322.0433)" class="st4 st3">Medium</text><text transform="matrix(1 0 0 1 2016.1876 322.0433)" class="st4 st3">Semibold</text><text transform="matrix(1 0 0 1 2325.9023 322.0433)" class="st4 st3">Bold</text><text transform="matrix(1 0 0 1 2617.6155 322.0433)" class="st4 st3">Heavy</text><text transform="matrix(1 0 0 1 2916.6604 322.0433)" class="st4 st3">Black</text><line class="st1" x1="261" y1="1903" x2="3034" y2="1903"></line><g transform="matrix(1 0 0 1 263 1933)"><path d="M7.2,0.9c4.3,0,7.9-3.6,7.9-7.9s-3.6-7.9-7.9-7.9S-0.7-11.3-0.7-7S2.9,0.9,7.2,0.9z M7.2-0.6C3.7-0.6,0.8-3.5,0.8-7 s2.8-6.4,6.4-6.4s6.4,2.8,6.4,6.4S10.8-0.6,7.2-0.6z M7.2-3.4c0.5,0,0.7-0.3,0.7-0.8v-2.1h2.2c0.5,0,0.8-0.3,0.8-0.7 c0-0.5-0.3-0.7-0.8-0.7H7.9V-10c0-0.5-0.3-0.8-0.7-0.8S6.5-10.5,6.5-10v2.2H4.3C3.7-7.7,3.4-7.5,3.4-7s0.4,0.7,0.8,0.7h2.2v2.1 C6.5-3.7,6.7-3.4,7.2-3.4z"></path></g><g transform="matrix(1 0 0 1 281.506 1933)"><path d="M9.7,3c5.4,0,10-4.5,10-10c0-5.4-4.5-10-10-10c-5.4,0-10,4.5-10,10C-0.3-1.6,4.2,3,9.7,3z M9.7,1.3C5.1,1.3,1.4-2.4,1.4-7 s3.7-8.3,8.3-8.3S18-11.6,18-7S14.3,1.3,9.7,1.3z M9.6-2.4c0.5,0,0.8-0.4,0.8-0.9v-2.9h3.1c0.5,0,0.9-0.3,0.9-0.8S14-7.8,13.5-7.8 h-3v-3.1c0-0.6-0.3-0.9-0.8-0.9s-0.8,0.4-0.8,0.9v3.1h-3C5.2-7.8,4.8-7.5,4.8-7s0.4,0.8,0.9,0.8h3v2.9C8.8-2.7,9.1-2.4,9.6-2.4z"></path></g><g transform="matrix(1 0 0 1 304.924 1933)"><path d="M12.9,5.7c7,0,12.7-5.7,12.7-12.7s-5.8-12.7-12.7-12.7S0.2-14,0.2-7S6,5.7,12.9,5.7z M12.9,3.9C6.9,3.9,2-1,2-7 s4.8-10.9,10.9-10.9c6,0,10.9,4.9,10.9,10.9S19,3.9,12.9,3.9z M12.9-1c0.6,0,0.9-0.4,0.9-1v-4.1H18c0.6,0,1-0.3,1-0.9 s-0.4-0.9-1-0.9h-4.2v-4.2c0-0.6-0.4-1-0.9-1s-0.9,0.4-0.9,1v4.2H7.8c-0.6,0-1,0.3-1,0.9s0.4,0.9,1,0.9H12V-2 C12-1.4,12.3-1,12.9-1z"></path></g><text transform="matrix(1 0 0 1 260.9319 1953.0435)" class="st2 st3">Design Variations</text><text transform="matrix(1 0 0 1 260.9319 1971.0435)" class="st4 st3">Symbols are supported in up to nine weights and three scales.</text><text transform="matrix(1 0 0 1 260.9319 1989.0435)" class="st4 st3">For optimal layout with text and other symbols, vertically align</text><text transform="matrix(1 0 0 1 260.9319 2007.0435)" class="st4 st3">symbols with the adjacent text.</text><rect x="774" y="1919" class="st5" width="3" height="14"></rect><g transform="matrix(1 0 0 1 779 1933)"><path d="M8.5,0h1.8L5.1-14H3.4L-1.8,0H0l1.4-4H7L8.5,0z M4.2-11.9L4.2-11.9l2.3,6.4H2L4.2-11.9z"></path></g><rect x="789.6" y="1919" class="st5" width="3" height="14"></rect><text transform="matrix(1 0 0 1 773.9317 1953.0435)" class="st2 st3">Margins</text><text transform="matrix(1 0 0 1 773.9317 1971.0435)" class="st4 st3">Leading and trailing margins on the left and right side of each symbol</text><text transform="matrix(1 0 0 1 773.9317 1989.0435)" class="st4 st3">can be adjusted by modifying the width of the blue rectangles.</text><text transform="matrix(1 0 0 1 773.9317 2007.0435)" class="st4 st3">Modifications are automatically applied proportionally to all</text><text transform="matrix(1 0 0 1 773.9317 2025.0435)" class="st4 st3">scales and weights.</text><g transform="matrix(1 0 0 1 1289 1933)"><path d="M0.8,3.2l1.5,1.5C3.2,5.5,4.1,5.5,5,4.5L15.2-6.6c0.4,0.3,0.8,0.3,1.3,0.2l1-0.2L18.3-6v0.5c-0.1,0.5,0.1,0.9,0.6,1.4 l0.7,0.9c0.5,0.5,1.2,0.5,1.6,0.1l3.3-3.3C25-6.9,25-7.5,24.5-8l-0.9-0.8c-0.5-0.5-0.9-0.7-1.4-0.6l-0.5,0.1L21-10l0.3-1.1 c0.1-0.6,0-1-0.6-1.6l-2.4-2.4c-3.5-3.5-8.1-3.4-11.2-0.3c-0.5,0.3-0.5,0.9-0.2,1.4c0.2,0.4,0.7,0.6,1.4,0.4 c1.5-0.4,3-0.3,4.5,0.7l-0.6,1.6c-0.2,0.6-0.2,1.1,0,1.5L1,0.5C0,1.4-0.1,2.3,0.8,3.2z M8.6-15.1c2.7-2,6-1.7,8.4,0.7l2.6,2.6 c0.2,0.2,0.3,0.4,0.2,0.7l-0.4,1.6L21-7.9L22-8c0.3,0,0.4,0,0.6,0.2l0.6,0.6l-2.8,2.7L19.8-5c-0.2-0.3-0.2-0.4-0.2-0.6l0.1-1 l-1.6-1.6l-1.6,0.3c-0.3,0.1-0.4,0.1-0.7-0.2l-2.2-2.2c-0.2-0.2-0.3-0.4-0.1-0.7l0.9-2.3c-1.6-1.5-3.7-2.4-5.8-1.7 c-0.1,0-0.2,0-0.2,0C8.5-15,8.5-15,8.6-15.1z M2.1,2.5C1.6,2,1.7,1.7,2.1,1.4l11-10.1l1.2,1.2L4.1,3.4C3.8,3.7,3.4,3.8,3,3.4 L2.1,2.5z"></path></g><text transform="matrix(1 0 0 1 1286.9318 1953.0435)" class="st2 st3">Exporting</text><text transform="matrix(1 0 0 1 1286.9318 1971.0435)" class="st4 st3">Symbols should be outlined when exporting to ensure the</text><text transform="matrix(1 0 0 1 1286.9318 1989.0435)" class="st4 st3">design is preserved when submitting to Xcode.</text><text id="template-version" transform="matrix(1 0 0 1 2956.7815 1933.0435)" class="st4 st3">Template v.1.0</text><text transform="matrix(1 0 0 1 2899.1956 1951.0435)" class="st4 st3">Generated from house.fill</text><text transform="matrix(1 0 0 1 2919.8557 1969.0435)" class="st4 st3">Typeset at 100 points</text><text transform="matrix(1 0 0 1 260.9319 726.0434)" class="st4 st3">Small</text><text transform="matrix(1 0 0 1 260.9319 1156.0433)" class="st4 st3">Medium</text><text transform="matrix(1 0 0 1 260.9319 1586.0433)" class="st4 st3">Large</text></g><g id="Guides"><g id="H-reference" transform="matrix(1 0 0 1 339 696)"><path class="st6" d="M54.9,0h2.7l-27-70.5h-2.5L1,0h2.7L13-24.5h32.8L54.9,0z M29.2-67.1h0.2l15.4,40.4h-31L29.2-67.1z"></path></g><line id="Baseline-S" class="st7" x1="263" y1="696" x2="3036" y2="696"></line><line id="Capline-S" class="st7" x1="263" y1="625.5" x2="3036" y2="625.5"></line><g id="H-reference_1_" transform="matrix(1 0 0 1 339 1126)"><path class="st6" d="M54.9,0h2.7l-27-70.5h-2.5L1,0h2.7L13-24.5h32.8L54.9,0z M29.2-67.1h0.2l15.4,40.4h-31L29.2-67.1z"></path></g><line id="Baseline-M" class="st7" x1="263" y1="1126" x2="3036" y2="1126"></line><line id="Capline-M" class="st7" x1="263" y1="1055.5" x2="3036" y2="1055.5"></line><g id="H-reference_2_" transform="matrix(1 0 0 1 339 1556)"><path class="st6" d="M54.9,0h2.7l-27-70.5h-2.5L1,0h2.7L13-24.5h32.8L54.9,0z M29.2-67.1h0.2l15.4,40.4h-31L29.2-67.1z"></path></g><line id="Baseline-L" class="st7" x1="263" y1="1556" x2="3036" y2="1556"></line><line id="Capline-L" class="st7" x1="263" y1="1485.5" x2="3036" y2="1485.5"></line><rect id="left-margin" x="1380.4" y="1030.8" class="st5" width="12.5" height="119.3"></rect><rect id="right-margin" x="1506.9" y="1030.8" class="st5" width="12.5" height="119.3"></rect></g><g id="Black-L" transform="matrix(1 0 0 1 2831.86 1556)"><path d="M16.1-39.8c0,5.3,4.3,9.5,10.1,9.5c3,0,5.7-1.2,7.9-3.2l66.4-60.9c0.3-0.3,0.6-0.5,1.1-0.5c0.4,0,0.9,0.1,1.2,0.4l66.4,61 c2.2,2,4.9,3.2,7.9,3.2c5.8,0,10.1-4.2,10.1-9.5c0-2.7-0.6-5.3-3.8-8.3l-26.1-23.8v-40c0-3.1-2-5.1-5.1-5.1h-16.4 c-3.1,0-5.2,2-5.2,5.1v15.6l-15.7-14.3c-4.1-3.7-8.3-5.5-13.2-5.5c-4.8,0-9.1,1.9-13.1,5.5L19.9-48C16.6-45.1,16.1-42.5,16.1-39.8z M42.8,13.6c0,10.2,7.1,16.7,18.1,16.7h23.3v-47.5c0-3.1,2.1-5.2,5.2-5.2h24.4c3.1,0,5.1,2.1,5.1,5.2v47.5h23.4 c11,0,18.1-6.6,18.1-16.7v-43.9l-57.7-52.8c-0.3-0.3-0.7-0.5-1.1-0.5s-0.8,0.1-1.2,0.5L42.8-30.3V13.6z"></path></g><g id="Heavy-L" transform="matrix(1 0 0 1 2538.25 1556)"><path d="M16.1-39.9c0,4.6,3.8,8.2,8.8,8.2c2.6,0,5-1.1,6.9-2.9L97-94.4c0.4-0.4,0.8-0.6,1.4-0.6c0.5,0,1,0.1,1.5,0.5l65.2,59.9 c1.9,1.8,4.2,2.9,6.9,2.9c5,0,8.8-3.6,8.8-8.2c0-2.4-0.6-4.7-3.3-7.1l-24.8-22.7v-39.5c0-3-1.9-4.9-4.9-4.9h-14.2c-3,0-5,1.9-5,4.9 v17.6l-18.5-16.9c-3.6-3.3-7.5-4.8-11.8-4.8c-4.2,0-8.2,1.6-11.7,4.8L19.4-47.1C16.7-44.6,16.1-42.4,16.1-39.9z M40.6,13.4 c0,9.7,6.6,15.9,16.9,15.9h23.9v-46.8c0-3,2.1-5,5.1-5h23.9c3,0,5,2,5,5v46.8h24c10.4,0,16.9-6.2,16.9-15.9v-45L99.9-83 c-0.4-0.4-0.9-0.6-1.4-0.6s-1,0.2-1.5,0.7L40.6-31.4V13.4z"></path></g><g id="Bold-L" transform="matrix(1 0 0 1 2245.01 1556)"><path d="M16.1-40.1c0,3.9,3.2,6.8,7.3,6.8c2.2,0,4.2-1,5.9-2.5l64-58.5c0.5-0.5,1.1-0.7,1.8-0.7c0.6,0,1.2,0.2,1.8,0.7l63.9,58.5 c1.7,1.5,3.6,2.5,5.9,2.5c4.1,0,7.3-2.9,7.3-6.8c0-2.1-0.6-4-2.7-5.9l-23.4-21.4v-39c0-2.8-1.8-4.6-4.6-4.6h-11.8 c-2.8,0-4.6,1.8-4.6,4.6v19.9l-21.6-19.8c-3.1-2.8-6.4-4.2-10.2-4.2c-3.7,0-7,1.4-10.1,4.2L18.8-46C16.6-44,16.1-42.2,16.1-40.1z M38.1,13.2c0,9.2,6.1,14.9,15.7,14.9h24.6V-18c0-2.9,2-4.8,4.9-4.8h23.5c2.9,0,4.8,1.9,4.8,4.8v46.1h24.6 c9.7,0,15.7-5.8,15.7-14.9v-46.1l-55.1-50c-0.5-0.5-1.2-0.8-1.8-0.8c-0.6,0-1.3,0.2-1.9,0.8l-55,50.2L38.1,13.2L38.1,13.2z"></path></g><g id="Semibold-L" transform="matrix(1 0 0 1 1950.69 1556)"><path d="M16.1-40.2c0,3.4,2.7,5.8,6.3,5.8c2,0,3.7-0.9,5.1-2.2l63.1-57.7c0.6-0.6,1.3-0.9,2-0.9s1.4,0.3,2.1,0.9l63,57.7 c1.5,1.4,3.1,2.2,5.1,2.2c3.6,0,6.3-2.4,6.3-5.8c0-2-0.6-3.5-2.3-5.1l-22.6-20.6v-38.6c0-2.6-1.7-4.4-4.3-4.4h-10.1 c-2.6,0-4.4,1.8-4.4,4.4V-83l-23.8-21.7c-2.7-2.5-5.8-3.8-9-3.8s-6.3,1.3-8.9,3.8L18.4-45.3C16.6-43.7,16.1-42.1,16.1-40.2z M36.4,13c0,8.9,5.7,14.3,14.9,14.3h25v-45.6c0-2.9,1.9-4.7,4.8-4.7h23.1c2.9,0,4.7,1.8,4.7,4.7v45.6h25c9.2,0,14.8-5.4,14.8-14.3 v-46.9l-54.2-49c-0.7-0.6-1.4-0.9-2.1-0.9s-1.4,0.3-2.1,0.9l-54,49.4L36.4,13L36.4,13z"></path></g><g id="Medium-L" transform="matrix(1 0 0 1 1655.78 1556)"><path d="M16.1-40.3c0,3,2.4,5,5.5,5c1.8,0,3.3-0.8,4.6-2.1l62.5-57c0.7-0.7,1.4-1,2.1-1s1.5,0.3,2.2,0.9l62.4,57 c1.3,1.2,2.8,2.1,4.6,2.1c3.1,0,5.5-2.1,5.5-5c0-1.8-0.6-3.1-2-4.4l-21.8-19.9V-103c0-2.6-1.7-4.2-4.2-4.2h-8.7 c-2.5,0-4.3,1.7-4.3,4.2v22.6l-25.4-23.2c-2.4-2.3-5.3-3.4-8.2-3.4c-2.9,0-5.7,1.1-8.1,3.4L18.1-44.7 C16.6-43.4,16.1-42.1,16.1-40.3z M35.1,12.9c0,8.6,5.4,13.8,14.2,13.8h25.3v-45.2c0-2.8,1.9-4.6,4.7-4.6h22.9 c2.8,0,4.6,1.8,4.6,4.6v45.2h25.3c8.8,0,14.2-5.2,14.2-13.8v-47.5L92.9-82.8c-0.7-0.6-1.5-1-2.2-1c-0.8,0-1.6,0.3-2.3,1L35.1-34.1 V12.9z"></path></g><g id="Regular-L" transform="matrix(1 0 0 1 1361.44 1556)"><path d="M16.1-40.4c0,2.5,2,4.1,4.5,4.1c1.6,0,2.8-0.7,3.9-1.8L86-94.3c0.7-0.7,1.6-1,2.4-1s1.6,0.3,2.4,1l61.5,56.2 c1.1,1.1,2.3,1.8,3.9,1.8c2.5,0,4.5-1.6,4.5-4.1c0-1.6-0.6-2.6-1.6-3.6l-20.9-19v-38c0-2.5-1.6-4.1-4-4.1h-7.1 c-2.4,0-4.1,1.6-4.1,4.1v24.2L95.4-102c-2.1-2-4.6-2.9-7.1-2.9s-4.9,1-7,2.9L17.7-43.9C16.6-43,16.1-42,16.1-40.4z M33.4,12.8 c0,8.3,5,13.2,13.4,13.2h25.8v-44.7c0-2.7,1.8-4.5,4.5-4.5h22.6c2.7,0,4.5,1.8,4.5,4.5V26H130c8.4,0,13.4-4.9,13.4-13.2v-48.3 L90.8-82.7c-0.8-0.8-1.7-1.1-2.5-1.1c-0.9,0-1.7,0.3-2.5,1.2L33.4-34.9V12.8z"></path></g><g id="Light-L" transform="matrix(1 0 0 1 1066.44 1556)"><path d="M16.1-39.8c0,1.8,1.5,3,3.4,3c1.2,0,2.1-0.6,3-1.4l61.7-56.3c0.9-0.8,1.8-1.1,2.7-1.1c0.9,0,1.8,0.4,2.6,1.1L151-38.2 c0.8,0.8,1.7,1.4,2.9,1.4c1.9,0,3.4-1.2,3.4-3c0-1.2-0.4-2-1.2-2.7l-19.7-17.9v-39.1c0-2.1-1.4-3.4-3.3-3.4h-5.5 c-2,0-3.4,1.3-3.4,3.4v27.9L93-100.2c-1.9-1.8-4.2-2.6-6.4-2.6c-2.2,0-4.4,0.9-6.3,2.6l-63,57.6C16.5-41.8,16.1-41.1,16.1-39.8z M32.5,13.8c0,7.7,4.6,12.2,12.4,12.2H71v-44.6c0-2.5,1.7-4.1,4.2-4.1h23.2c2.5,0,4.1,1.6,4.1,4.1V26h26.1 c7.8,0,12.4-4.5,12.4-12.2v-51.3L89.6-83.3c-1-0.9-2.1-1.4-3-1.4c-1,0-2,0.4-3,1.4l-51,46.8L32.5,13.8L32.5,13.8z"></path></g><g id="Thin-L" transform="matrix(1 0 0 1 771.974 1556)"><path d="M16.1-39.2c0,1,0.7,1.7,1.9,1.7c0.8,0,1.3-0.3,1.8-0.8l61.9-56.5c1-0.9,2-1.3,3-1.3s2,0.5,2.8,1.3l61.9,56.5 c0.5,0.5,0.9,0.8,1.8,0.8c1.1,0,1.9-0.7,1.9-1.7c0-0.7-0.2-1.1-0.7-1.6l-18-16.5v-40.5c0-1.5-1.1-2.5-2.5-2.5h-3.3 c-1.4,0-2.5,1-2.5,2.5v33l-35.9-33c-1.7-1.5-3.6-2.3-5.6-2.3c-1.9,0-3.7,0.8-5.4,2.3l-62.3,57C16.3-40.3,16.1-39.8,16.1-39.2z M31.3,15c0,6.9,4.1,11,11,11H69v-44.4c0-2.2,1.4-3.6,3.6-3.6h23.9c2.1,0,3.6,1.4,3.6,3.6V26h26.7c6.9,0,11-4.1,11-11v-55.2 L88-84.2c-1.3-1.2-2.5-1.7-3.7-1.7s-2.4,0.5-3.7,1.7L31.3-38.6V15z"></path></g><g id="Ultralight-L" transform="matrix(1 0 0 1 476.41 1556)"><path d="M16.1-38.8c0,0.5,0.4,1,1.1,1c0.6,0,0.8-0.3,1.2-0.6l62-56.6c1-0.9,2.1-1.3,3.1-1.3s2.1,0.5,2.9,1.3l62,56.6 c0.3,0.3,0.5,0.6,1.1,0.6c0.7,0,1.1-0.5,1.1-1c0-0.4-0.1-0.7-0.4-1L133-55.5v-41.2c0-1.2-0.9-2.1-2.1-2.1h-2.2 c-1.2,0-2.1,0.8-2.1,2.1v35.5L88.3-96.5c-1.6-1.4-3.3-2.1-5.1-2.1c-1.7,0-3.4,0.7-4.9,2.1L16.5-39.8C16.2-39.5,16.1-39.2,16.1-38.8 z M30.7,15.7C30.7,22.1,34.5,26,41,26h26.9v-44.3c0-2,1.3-3.3,3.3-3.3h24.3c2,0,3.3,1.3,3.3,3.3V26h26.9c6.4,0,10.3-3.9,10.3-10.3 v-57.2L87.1-84.6c-1.4-1.3-2.7-1.9-4-1.9c-1.4,0-2.7,0.6-4.1,1.9L30.7-39.7V15.7z"></path></g><g id="Regular-M"><path d="M1499.7,1116 h-97.3 c-1.5,0 -2.7,1.2 -2.7,2.7 s1.2,2.7 2.7,2.7 h97.3 c1.5,0 2.7,-1.2 2.7,-2.7 C1502.4,1117.2 1501.2,1116 1499.7,1116  z "></path><path d="M1499.7,1089h-97.3c-1.5,0-2.7,1.2-2.7,2.7s1.2,2.7,2.7,2.7h97.3c1.5,0,2.7-1.2,2.7-2.7 C1502.4,1090.2,1501.2,1089,1499.7,1089z"></path><path d="M1402.3,1067.3h97.3c1.5,0,2.7-1.2,2.7-2.7s-1.2-2.7-2.7-2.7h-97.3c-1.5,0-2.7,1.2-2.7,2.7 C1399.6,1066.1,1400.8,1067.3,1402.3,1067.3z"></path></g><g id="Medium-M"><path d="M1795.2,1115.2h-96.3c-1.8,0-3.2,1.4-3.2,3.2s1.4,3.2,3.2,3.2h96.3c1.8,0,3.2-1.4,3.2-3.2S1796.9,1115.2,1795.2,1115.2z"></path><path d="M1795.2,1088.5h-96.3c-1.8,0-3.2,1.4-3.2,3.2s1.4,3.2,3.2,3.2h96.3c1.8,0,3.2-1.4,3.2-3.2S1796.9,1088.5,1795.2,1088.5z"></path><path d="M1698.8,1068.1h96.3c1.8,0,3.2-1.4,3.2-3.2c0-1.8-1.4-3.2-3.2-3.2h-96.3c-1.8,0-3.2,1.4-3.2,3.2 C1695.6,1066.7,1697.1,1068.1,1698.8,1068.1z"></path></g><g id="Semibold-M"><path d="M2090.7,1114.4h-95.3c-2,0-3.7,1.7-3.7,3.7s1.7,3.7,3.7,3.7h95.3c2,0,3.7-1.7,3.7-3.7S2092.7,1114.4,2090.7,1114.4z"></path><path d="M2090.7,1088h-95.3c-2,0-3.7,1.7-3.7,3.7s1.7,3.7,3.7,3.7h95.3c2,0,3.7-1.7,3.7-3.7S2092.7,1088,2090.7,1088z"></path><path d="M1995.3,1068.9h95.3c2,0,3.7-1.7,3.7-3.7s-1.7-3.7-3.7-3.7h-95.3c-2,0-3.7,1.7-3.7,3.7 C1991.6,1067.2,1993.3,1068.9,1995.3,1068.9z"></path></g><g id="Bold-M"><path d="M2387.2,1113.7h-94.4c-2.3,0-4.2,1.9-4.2,4.2s1.9,4.2,4.2,4.2h94.4c2.3,0,4.2-1.9,4.2-4.2S2389.5,1113.7,2387.2,1113.7z"></path><path d="M2387.2,1087.5h-94.4c-2.3,0-4.2,1.9-4.2,4.2s1.9,4.2,4.2,4.2h94.4c2.3,0,4.2-1.9,4.2-4.2S2389.5,1087.5,2387.2,1087.5z"></path><path d="M2292.8,1069.6h94.4c2.3,0,4.2-1.9,4.2-4.2c0-2.3-1.9-4.2-4.2-4.2h-94.4c-2.3,0-4.2,1.9-4.2,4.2 C2288.6,1067.8,2290.5,1069.6,2292.8,1069.6z"></path></g><g id="Heavy-M"><path d="M2683.7,1112.9h-93.4c-2.6,0-4.7,2.1-4.7,4.7s2.1,4.7,4.7,4.7h93.4c2.6,0,4.7-2.1,4.7-4.7S2686.3,1112.9,2683.7,1112.9z"></path><path d="M2683.7,1087h-93.4c-2.6,0-4.7,2.1-4.7,4.7s2.1,4.7,4.7,4.7h93.4c2.6,0,4.7-2.1,4.7-4.7S2686.3,1087,2683.7,1087z"></path><path d="M2590.3,1070.4h93.4c2.6,0,4.7-2.1,4.7-4.7s-2.1-4.7-4.7-4.7h-93.4c-2.6,0-4.7,2.1-4.7,4.7S2587.7,1070.4,2590.3,1070.4z"></path></g><g id="Black-M"><path d="M2979.2,1112.2h-92.5c-2.8,0-5.1,2.3-5.1,5.1s2.3,5.1,5.1,5.1h92.5c2.8,0,5.1-2.3,5.1-5.1S2982.1,1112.2,2979.2,1112.2z"></path><path d="M2979.2,1086.5h-92.5c-2.8,0-5.1,2.3-5.1,5.1s2.3,5.1,5.1,5.1h92.5c2.8,0,5.1-2.3,5.1-5.1S2982.1,1086.5,2979.2,1086.5z"></path><path d="M2886.8,1071.1h92.5c2.8,0,5.1-2.3,5.1-5.1s-2.3-5.1-5.1-5.1h-92.5c-2.8,0-5.1,2.3-5.1,5.1S2883.9,1071.1,2886.8,1071.1z"></path></g><g id="Light-M"><path d="M1202,1116.8h-98.4c-1.2,0-2.2,1-2.2,2.2s1,2.2,2.2,2.2h98.4c1.2,0,2.2-1,2.2-2.2C1204.1,1117.8,1203.2,1116.8,1202,1116.8 z"></path><path d="M1202,1089.5h-98.4c-1.2,0-2.2,1-2.2,2.2s1,2.2,2.2,2.2h98.4c1.2,0,2.2-1,2.2-2.2S1203.2,1089.5,1202,1089.5z"></path><path d="M1103.6,1066.5h98.4c1.2,0,2.2-1,2.2-2.2s-1-2.2-2.2-2.2h-98.4c-1.2,0-2.2,1-2.2,2.2S1102.4,1066.5,1103.6,1066.5z"></path></g><g id="Thin-M"><path d="M905.3,1117.6h-99.4c-0.9,0-1.7,0.7-1.7,1.7s0.7,1.7,1.7,1.7h99.4c0.9,0,1.7-0.7,1.7-1.7S906.2,1117.6,905.3,1117.6z"></path><path d="M905.3,1090h-99.4c-0.9,0-1.7,0.7-1.7,1.7s0.7,1.7,1.7,1.7h99.4c0.9,0,1.7-0.7,1.7-1.7S906.2,1090,905.3,1090z"></path><path d="M805.8,1065.7h99.4c0.9,0,1.7-0.7,1.7-1.7s-0.7-1.7-1.7-1.7h-99.4c-0.9,0-1.7,0.7-1.7,1.7S804.9,1065.7,805.8,1065.7z"></path></g><g id="Ultralight-M"><path d="M609.2,1118.5H508.6c-0.6,0-1.1,0.5-1.1,1.1s0.5,1.1,1.1,1.1h100.5c0.6,0,1.1-0.5,1.1-1.1S609.8,1118.5,609.2,1118.5z"></path><path d="M609.2,1090.5H508.6c-0.6,0-1.1,0.5-1.1,1.1s0.5,1.1,1.1,1.1h100.5c0.6,0,1.1-0.5,1.1-1.1S609.8,1090.5,609.2,1090.5z"></path><path d="M508.6,1064.9h100.5c0.6,0,1.1-0.5,1.1-1.1s-0.5-1.1-1.1-1.1H508.6c-0.6,0-1.1,0.5-1.1,1.1S508,1064.9,508.6,1064.9z"></path></g><g id="Regular-S"><path d="M1488.1,680.4h-75.4c-1.2,0-2.1,0.9-2.1,2.1s0.9,2.1,2.1,2.1h75.4c1.2,0,2.1-0.9,2.1-2.1 C1490.2,681.3,1489.3,680.4,1488.1,680.4z"></path><path d="M1488.1,659.5h-75.4c-1.2,0-2.1,0.9-2.1,2.1c0,1.2,0.9,2.1,2.1,2.1h75.4c1.2,0,2.1-0.9,2.1-2.1S1489.3,659.5,1488.1,659.5z"></path><path d="M1412.6,642.7h75.4c1.2,0,2.1-0.9,2.1-2.1c0-1.2-0.9-2.1-2.1-2.1h-75.4c-1.2,0-2.1,0.9-2.1,2.1 C1410.5,641.7,1411.5,642.7,1412.6,642.7z"></path></g><g id="Medium-S"><path d="M1784.1,679.8h-74.6c-1.4,0-2.5,1.1-2.5,2.5s1.1,2.5,2.5,2.5h74.6c1.4,0,2.5-1.1,2.5-2.5S1785.4,679.8,1784.1,679.8z"></path><path d="M1784.1,659.1h-74.6c-1.4,0-2.5,1.1-2.5,2.5s1.1,2.5,2.5,2.5h74.6c1.4,0,2.5-1.1,2.5-2.5S1785.4,659.1,1784.1,659.1z"></path><path d="M1709.4,643.3h74.6c1.4,0,2.5-1.1,2.5-2.5s-1.1-2.5-2.5-2.5h-74.6c-1.4,0-2.5,1.1-2.5,2.5S1708.1,643.3,1709.4,643.3z"></path></g><g id="Semibold-S"><path d="M2080.1,679.2h-73.9c-1.6,0-2.9,1.3-2.9,2.9s1.3,2.9,2.9,2.9h73.9c1.6,0,2.9-1.3,2.9-2.9S2081.7,679.2,2080.1,679.2z"></path><path d="M2080.1,658.7h-73.9c-1.6,0-2.9,1.3-2.9,2.9s1.3,2.9,2.9,2.9h73.9c1.6,0,2.9-1.3,2.9-2.9S2081.7,658.7,2080.1,658.7z"></path><path d="M2006.2,643.9h73.9c1.6,0,2.9-1.3,2.9-2.9s-1.3-2.9-2.9-2.9h-73.9c-1.6,0-2.9,1.3-2.9,2.9 C2003.3,642.6,2004.6,643.9,2006.2,643.9z"></path></g><g id="Bold-S"><path d="M2376.9,678.6h-73.2c-1.8,0-3.3,1.5-3.3,3.3s1.5,3.3,3.3,3.3h73.2c1.8,0,3.3-1.5,3.3-3.3S2378.7,678.6,2376.9,678.6z"></path><path d="M2376.9,658.3h-73.2c-1.8,0-3.3,1.5-3.3,3.3s1.5,3.3,3.3,3.3h73.2c1.8,0,3.3-1.5,3.3-3.3S2378.7,658.3,2376.9,658.3z"></path><path d="M2303.8,644.4h73.2c1.8,0,3.3-1.5,3.3-3.3s-1.5-3.3-3.3-3.3h-73.2c-1.8,0-3.3,1.5-3.3,3.3 C2300.5,643,2302,644.4,2303.8,644.4z"></path></g><g id="Heavy-S"><path d="M2672.7,678h-72.4c-2,0-3.6,1.6-3.6,3.6s1.6,3.6,3.6,3.6h72.4c2,0,3.6-1.6,3.6-3.6S2674.7,678,2672.7,678z"></path><path d="M2672.7,657.9h-72.4c-2,0-3.6,1.6-3.6,3.6s1.6,3.6,3.6,3.6h72.4c2,0,3.6-1.6,3.6-3.6S2674.7,657.9,2672.7,657.9z"></path><path d="M2600.3,645.1h72.4c2,0,3.6-1.6,3.6-3.6s-1.6-3.6-3.6-3.6h-72.4c-2,0-3.6,1.6-3.6,3.6 C2596.7,643.4,2598.3,645.1,2600.3,645.1z"></path></g><g id="Black-S"><path d="M2969.7,677.5H2898c-2.2,0-4,1.8-4,4s1.8,4,4,4h71.7c2.2,0,4-1.8,4-4S2972,677.5,2969.7,677.5z"></path><path d="M2969.7,657.5H2898c-2.2,0-4,1.8-4,4s1.8,4,4,4h71.7c2.2,0,4-1.8,4-4S2972,657.5,2969.7,657.5z"></path><path d="M2898.1,645.6h71.7c2.2,0,4-1.8,4-4s-1.8-4-4-4h-71.7c-2.2,0-4,1.8-4,4S2895.9,645.6,2898.1,645.6z"></path></g><g id="Light-S"><path d="M1191.7,681h-76.3c-0.9,0-1.7,0.8-1.7,1.7s0.8,1.7,1.7,1.7h76.3c0.9,0,1.7-0.8,1.7-1.7C1193.3,681.8,1192.7,681,1191.7,681 z"></path><path d="M1191.7,659.9h-76.3c-0.9,0-1.7,0.8-1.7,1.7s0.8,1.7,1.7,1.7h76.3c0.9,0,1.7-0.8,1.7-1.7 C1193.4,660.6,1192.7,659.9,1191.7,659.9z"></path><path d="M1115.5,642h76.3c0.9,0,1.7-0.8,1.7-1.7s-0.8-1.7-1.7-1.7h-76.3c-0.9,0-1.7,0.8-1.7,1.7 C1113.8,641.3,1114.5,642,1115.5,642z"></path></g><g id="Thin-S"><path d="M895.1,681.6h-77c-0.7,0-1.3,0.5-1.3,1.3s0.5,1.3,1.3,1.3h77c0.7,0,1.3-0.5,1.3-1.3C896.4,682.2,895.8,681.6,895.1,681.6z"></path><path d="M895.1,660.2h-77c-0.7,0-1.3,0.5-1.3,1.3s0.5,1.3,1.3,1.3h77c0.7,0,1.3-0.5,1.3-1.3C896.4,660.8,895.8,660.2,895.1,660.2z"></path><path d="M818,641.4h77c0.7,0,1.3-0.5,1.3-1.3s-0.5-1.3-1.3-1.3h-77c-0.7,0-1.3,0.5-1.3,1.3S817.3,641.4,818,641.4z"></path></g><g id="Ultralight-S"><path d="M598.3,682.3h-78c-0.5,0-0.9,0.4-0.9,0.9s0.4,0.9,0.9,0.9h77.9c0.5,0,0.9-0.4,0.9-0.9S598.8,682.3,598.3,682.3z"></path><path d="M598.3,660.6h-78c-0.5,0-0.9,0.4-0.9,0.9s0.4,0.9,0.9,0.9h77.9c0.5,0,0.9-0.4,0.9-0.9C599.1,661,598.8,660.6,598.3,660.6z"></path><path d="M520.3,640.8h77.9c0.5,0,0.9-0.4,0.9-0.9s-0.4-0.9-0.9-0.9h-77.9c-0.5,0-0.9,0.4-0.9,0.9S519.9,640.8,520.3,640.8z"></path></g><line class="st8" x1="-172" y1="466" x2="-172" y2="1732"></line></svg>