<svg width="20" height="20" viewBox="0 0 20 20" fill="none" xmlns="http://www.w3.org/2000/svg">
<mask id="mask0_24299_84238" style="mask-type:alpha" maskUnits="userSpaceOnUse" x="0" y="0" width="20" height="20">
<rect width="20" height="20" fill="#D9D9D9"/>
</mask>
<g mask="url(#mask0_24299_84238)">
<path d="M9.3737 10.6237V13.332C9.3737 13.5091 9.43361 13.6575 9.55345 13.7773C9.6733 13.8971 9.8218 13.957 9.99895 13.957C10.1761 13.957 10.3245 13.8971 10.4442 13.7773C10.5638 13.6575 10.6237 13.5091 10.6237 13.332V10.6237H13.332C13.5091 10.6237 13.6575 10.5637 13.7773 10.4439C13.8971 10.3241 13.957 10.1756 13.957 9.99841C13.957 9.82124 13.8971 9.67283 13.7773 9.55318C13.6575 9.43353 13.5091 9.3737 13.332 9.3737H10.6237V6.66534C10.6237 6.48826 10.5637 6.33982 10.4439 6.22003C10.3241 6.10025 10.1756 6.04037 9.99841 6.04037C9.82124 6.04037 9.67283 6.10025 9.55318 6.22003C9.43353 6.33982 9.3737 6.48826 9.3737 6.66534V9.3737H6.66534C6.48826 9.3737 6.33983 9.43362 6.22005 9.55345C6.10026 9.6733 6.04036 9.8218 6.04036 9.99895C6.04036 10.1761 6.10026 10.3245 6.22005 10.4442C6.33983 10.5638 6.48826 10.6237 6.66534 10.6237H9.3737ZM10.0001 17.9153C8.90513 17.9153 7.87593 17.7075 6.91249 17.292C5.94903 16.8764 5.11096 16.3125 4.39828 15.6001C3.68559 14.8877 3.12137 14.05 2.70564 13.087C2.2899 12.124 2.08203 11.095 2.08203 10.0001C2.08203 8.90513 2.28981 7.87593 2.70536 6.91249C3.12092 5.94903 3.68488 5.11096 4.39724 4.39828C5.10961 3.68559 5.94732 3.12137 6.91034 2.70564C7.87336 2.2899 8.90234 2.08203 9.99728 2.08203C11.0922 2.08203 12.1214 2.28981 13.0849 2.70537C14.0483 3.12092 14.8864 3.68488 15.5991 4.39724C16.3118 5.10962 16.876 5.94732 17.2917 6.91035C17.7075 7.87336 17.9153 8.90234 17.9153 9.99728C17.9153 11.0922 17.7075 12.1214 17.292 13.0849C16.8764 14.0483 16.3125 14.8864 15.6001 15.5991C14.8877 16.3118 14.05 16.876 13.087 17.2917C12.124 17.7075 11.095 17.9153 10.0001 17.9153ZM9.99868 16.6653C11.8598 16.6653 13.4362 16.0195 14.7278 14.7278C16.0195 13.4362 16.6653 11.8598 16.6653 9.99868C16.6653 8.13757 16.0195 6.56118 14.7278 5.26951C13.4362 3.97784 11.8598 3.33201 9.99868 3.33201C8.13757 3.33201 6.56118 3.97784 5.26951 5.26951C3.97784 6.56118 3.33201 8.13757 3.33201 9.99868C3.33201 11.8598 3.97784 13.4362 5.26951 14.7278C6.56118 16.0195 8.13757 16.6653 9.99868 16.6653Z" fill="#10477A"/>
</g>
</svg>
