<svg width="20" height="20" viewBox="0 0 20 20" fill="none" xmlns="http://www.w3.org/2000/svg">
<mask id="mask0_8703_13973" style="mask-type:alpha" maskUnits="userSpaceOnUse" x="0" y="0" width="20" height="20">
<rect width="20" height="20" fill="#D9D9D9"/>
</mask>
<g mask="url(#mask0_8703_13973)">
<path d="M7.54813 14.5837C7.17299 14.5837 6.8559 14.4541 6.59687 14.1951C6.33785 13.9361 6.20833 13.619 6.20833 13.2439V3.75678C6.20833 3.38164 6.33785 3.06456 6.59687 2.80553C6.8559 2.54651 7.17299 2.41699 7.54813 2.41699H15.0352C15.4103 2.41699 15.7274 2.54651 15.9865 2.80553C16.2455 3.06456 16.375 3.38164 16.375 3.75678V13.2439C16.375 13.619 16.2455 13.9361 15.9865 14.1951C15.7274 14.4541 15.4103 14.5837 15.0352 14.5837H7.54813ZM7.54813 13.5003H15.0352C15.0994 13.5003 15.1581 13.4736 15.2115 13.4201C15.2649 13.3668 15.2917 13.308 15.2917 13.2439V3.75678C15.2917 3.69262 15.2649 3.63387 15.2115 3.58053C15.1581 3.52706 15.0994 3.50033 15.0352 3.50033H7.54813C7.48396 3.50033 7.42521 3.52706 7.37188 3.58053C7.3184 3.63387 7.29167 3.69262 7.29167 3.75678V13.2439C7.29167 13.308 7.3184 13.3668 7.37188 13.4201C7.42521 13.4736 7.48396 13.5003 7.54813 13.5003ZM4.96479 17.167C4.58965 17.167 4.27257 17.0375 4.01354 16.7785C3.75451 16.5194 3.625 16.2023 3.625 15.8272V5.79845C3.625 5.6447 3.67646 5.51595 3.77938 5.4122C3.88215 5.30859 4.00979 5.25678 4.16229 5.25678C4.31479 5.25678 4.44396 5.30859 4.54979 5.4122C4.65549 5.51595 4.70833 5.6447 4.70833 5.79845V15.8272C4.70833 15.8914 4.73507 15.9501 4.78854 16.0035C4.84188 16.0569 4.90062 16.0837 4.96479 16.0837H12.9935C13.1473 16.0837 13.276 16.135 13.3798 16.2378C13.4834 16.3407 13.5352 16.4685 13.5352 16.621C13.5352 16.7735 13.4834 16.9025 13.3798 17.0082C13.276 17.1141 13.1473 17.167 12.9935 17.167H4.96479Z" fill="#727272"/>
</g>
</svg>
