<svg width="20" height="21" viewBox="0 0 20 21" fill="none" xmlns="http://www.w3.org/2000/svg">
<path d="M10 3C8.41775 3 6.87103 3.46919 5.55544 4.34824C4.23985 5.22729 3.21447 6.47672 2.60897 7.93853C2.00347 9.40034 1.84504 11.0089 2.15372 12.5607C2.4624 14.1126 3.22433 15.538 4.34315 16.6569C5.46197 17.7757 6.88743 18.5376 8.43928 18.8463C9.99113 19.155 11.5997 18.9965 13.0615 18.391C14.5233 17.7855 15.7727 16.7602 16.6518 15.4446C17.5308 14.129 18 12.5823 18 11C18 8.87827 17.1571 6.84344 15.6569 5.34315C14.1566 3.84285 12.1217 3 10 3ZM9.85 5.15C10.0391 5.13967 10.2282 5.16897 10.4053 5.23601C10.5824 5.30304 10.7435 5.40634 10.8783 5.53929C11.0131 5.67223 11.1187 5.83187 11.1882 6.00799C11.2577 6.18411 11.2897 6.37281 11.282 6.562C11.297 6.75384 11.2702 6.94665 11.2035 7.12715C11.1368 7.30765 11.0318 7.47156 10.8957 7.6076C10.7597 7.74364 10.5957 7.84858 10.4152 7.9152C10.2347 7.98181 10.0418 8.00853 9.85 7.9935C9.65893 8.0051 9.46756 7.97601 9.28857 7.90815C9.10957 7.84029 8.94702 7.73521 8.81165 7.59985C8.67629 7.46449 8.57121 7.30194 8.50335 7.12294C8.43549 6.94394 8.4064 6.75258 8.418 6.5615C8.41033 6.37233 8.44228 6.18365 8.51181 6.00756C8.58134 5.83146 8.6869 5.67185 8.82173 5.53894C8.95657 5.40604 9.11769 5.30279 9.29477 5.23581C9.47184 5.16883 9.66097 5.1396 9.85 5.15ZM12 15.5C12 15.6326 11.9473 15.7598 11.8536 15.8536C11.7598 15.9473 11.6326 16 11.5 16H8.5C8.3674 16 8.24022 15.9473 8.14645 15.8536C8.05268 15.7598 8 15.6326 8 15.5V14.5C8 14.3674 8.05268 14.2402 8.14645 14.1464C8.24022 14.0527 8.3674 14 8.5 14H9V11H8.5C8.3674 11 8.24022 10.9473 8.14645 10.8536C8.05268 10.7598 8 10.6326 8 10.5V9.5C8 9.36739 8.05268 9.24021 8.14645 9.14645C8.24022 9.05268 8.3674 9 8.5 9H10.5C10.6326 9 10.7598 9.05268 10.8536 9.14645C10.9473 9.24021 11 9.36739 11 9.5V14H11.5C11.6326 14 11.7598 14.0527 11.8536 14.1464C11.9473 14.2402 12 14.3674 12 14.5V15.5Z" fill="#EDB345"/>
</svg>
