<svg width="62" height="62" viewBox="0 0 62 62" fill="none" xmlns="http://www.w3.org/2000/svg">
<g opacity="0.6">
<rect width="62" height="62" rx="31" fill="#F5F5F5"/>
<path d="M17 32.0489C17 27.5954 19.0045 21.7567 22.5 18.9971C23.905 17.8879 25.0557 16.8585 26.7081 15.9964C29.3485 14.6189 32.5219 14.0041 35.5 14C39.5 13.9946 41 14.4991 43 16C45 17.5009 44.5 19.6337 44.5 22.2693C44.5 23.3857 44.1086 24.4667 43.3939 25.3244L39.9335 29.4768C38.1276 31.6439 37.6618 34.6294 38.7216 37.2437C41.0948 43.0975 36.5 46.9971 31.5 47.4971C30.4655 47.6005 29.2811 47.6826 28.0532 47.7476C22.538 48.0399 18.3389 43.423 17.5196 37.9612L17.1535 35.5202C17.0513 34.839 17 34.1512 17 33.4625V32.0489Z" fill="#FFC107"/>
<path d="M33.5 42.4971C33.5 43.8778 32.3807 44.9971 31 44.9971C29.6193 44.9971 28.5 43.8778 28.5 42.4971C28.5 41.1163 29.6193 39.9971 31 39.9971C32.3807 39.9971 33.5 41.1163 33.5 42.4971Z" fill="#E4E4E4"/>
<path d="M23.5 35.4971C23.5 36.8778 22.3807 37.9971 21 37.9971C19.6193 37.9971 18.5 36.8778 18.5 35.4971C18.5 34.1163 19.6193 32.9971 21 32.9971C22.3807 32.9971 23.5 34.1163 23.5 35.4971Z" fill="#FF3D00"/>
<path d="M24.5 28.4971C24.5 29.8778 23.3807 30.9971 22 30.9971C20.6193 30.9971 19.5 29.8778 19.5 28.4971C19.5 27.1163 20.6193 25.9971 22 25.9971C23.3807 25.9971 24.5 27.1163 24.5 28.4971Z" fill="#4CAF50"/>
<path d="M29.5 23.4971C29.5 24.8778 28.3807 25.9971 27 25.9971C25.6193 25.9971 24.5 24.8778 24.5 23.4971C24.5 22.1163 25.6193 20.9971 27 20.9971C28.3807 20.9971 29.5 22.1163 29.5 23.4971Z" fill="#2196F3"/>
<path d="M36.5 21.4971C36.5 22.8778 35.3807 23.9971 34 23.9971C32.6193 23.9971 31.5 22.8778 31.5 21.4971C31.5 20.1163 32.6193 18.9971 34 18.9971C35.3807 18.9971 36.5 20.1163 36.5 21.4971Z" fill="#B0B1E8"/>
<path d="M37.5 28.9971H40.5L40 44.9971H38L37.5 28.9971Z" fill="url(#paint0_linear_32863_77618)"/>
<path d="M40 44.9971C40 45.5493 39.5523 45.9971 39 45.9971C38.4477 45.9971 38 45.5493 38 44.9971C38 44.4448 38.4477 43.9971 39 43.9971C39.5523 43.9971 40 44.4448 40 44.9971Z" fill="#434343"/>
<path d="M40.5 28.9971C40.5 28.9971 39.8294 29.0003 39.001 29.0003C38.1726 29.0003 37.5 28.9971 37.5 28.9971C36.999 27.9938 37.5 22.4971 42 19.4971C42 22.9971 40.5 28.1686 40.5 28.9971Z" fill="#F6F6F6"/>
</g>
<defs>
<linearGradient id="paint0_linear_32863_77618" x1="30.7778" y1="14" x2="30.7778" y2="47.9971" gradientUnits="userSpaceOnUse">
<stop offset="0.1" stop-color="#9E9E9E"/>
<stop offset="0.422977" stop-color="#9E9E9E"/>
<stop offset="0.423077" stop-color="#424242"/>
<stop offset="1" stop-color="#424242"/>
</linearGradient>
</defs>
</svg>
