<svg width="12" height="18" viewBox="0 0 12 18" fill="none" xmlns="http://www.w3.org/2000/svg">
<path d="M9.52875 0H2.47249C1.28362 0 0.316406 0.86741 0.316406 1.93359V9.31641C0.316406 10.3826 1.28362 11.25 2.47249 11.25H5.41259V16.9453H3.25652C2.93177 16.9453 2.66849 17.1814 2.66849 17.4727C2.66849 17.7639 2.93177 18 3.25652 18H8.74472C9.06946 18 9.33274 17.7639 9.33274 17.4727C9.33274 17.1814 9.06946 16.9453 8.74472 16.9453H6.58864V11.25H9.52875C10.7176 11.25 11.6848 10.3826 11.6848 9.31641V1.93359C11.6848 0.86741 10.7176 0 9.52875 0ZM9.33274 7.55859C9.33274 7.84983 9.06946 8.08594 8.74472 8.08594H8.54871V8.61328C8.54871 8.90452 8.28543 9.14062 7.96069 9.14062C7.63594 9.14062 7.37267 8.90452 7.37267 8.61328V8.08594H4.62857V8.61328C4.62857 8.90452 4.36529 9.14062 4.04054 9.14062C3.7158 9.14062 3.45252 8.90452 3.45252 8.61328V8.08594H3.25652C2.93177 8.08594 2.66849 7.84983 2.66849 7.55859V3.33984C2.66849 2.66136 3.284 2.10938 4.04054 2.10938H7.96069C8.71724 2.10938 9.33274 2.66136 9.33274 3.33984V7.55859Z" fill="#175C8E"/>
</svg>
