<svg width="114" height="58" viewBox="0 0 114 58" fill="none" xmlns="http://www.w3.org/2000/svg">
<path d="M71.8214 57.068C70.5372 57.068 69.3599 56.8628 68.4177 56.4747L2.11951 29.1061C1.55247 28.8745 1.08773 28.5702 0.783177 28.2287C0.280991 27.6653 0.233514 26.8968 0.66429 26.2916C0.93256 25.915 1.38109 25.5652 1.96202 25.2811L49.8434 1.6475C50.7574 1.1921 51.9135 0.949219 53.1784 0.949219C54.6321 0.949219 56.0491 1.29077 57.0662 1.88609L112.097 34.2185C113.097 34.8003 113.646 35.6045 113.595 36.4202C113.563 37.2047 112.962 37.9429 111.906 38.4659L75.9007 56.2387C74.8326 56.7657 73.3458 57.068 71.8214 57.068Z" fill="#E0E0E0"/>
</svg>
