<svg width="246" height="44" viewBox="0 0 246 44" fill="none" xmlns="http://www.w3.org/2000/svg">
<path d="M121.448 1.91043L116.5 8L129.5 8L124.552 1.91043C123.752 0.925348 122.248 0.925347 121.448 1.91043Z" fill="#4B4B4B"/>
<rect y="8" width="246" height="36" rx="8" fill="#4B4B4B"/>
<path d="M18.0469 22.0625C18.0469 25.1562 17.0156 27.9453 13.1602 29.8203L12.5625 28.9531C14.4434 28.0391 15.6152 26.9082 16.2773 25.5664L12.7734 25.8945L12.6211 24.9219L16.6289 24.6641C16.793 24.1309 16.8984 23.5625 16.9453 22.9648H13.1484V22.0625H18.0469ZM21.1172 20.9961V31.4961H19.9922V20.9961H21.1172ZM31.5352 21.0078V31.4961H30.4102V28.9883H28.0898V28.1445H30.4102V21.0078H31.5352ZM22.7109 26.4688C24.7031 26.457 27.3516 26.4453 29.6484 26.1289L29.707 26.9492C28.7109 27.125 27.6738 27.2305 26.6602 27.2891V31.168H25.5469V27.3477C24.5859 27.3887 23.6719 27.3945 22.8633 27.3945L22.7109 26.4688ZM26.168 21.4883C27.7148 21.4883 28.8281 22.3438 28.8281 23.5859C28.8281 24.8516 27.7148 25.6719 26.168 25.6719C24.5859 25.6719 23.4844 24.8516 23.4844 23.5859C23.4844 22.3438 24.5859 21.4883 26.168 21.4883ZM26.168 22.3438C25.1953 22.3438 24.5273 22.8477 24.5391 23.5859C24.5273 24.3359 25.1953 24.8164 26.168 24.8164C27.1055 24.8164 27.7734 24.3359 27.7734 23.5859C27.7734 22.8477 27.1055 22.3438 26.168 22.3438ZM41.6367 25.9766V26.8906H34.3242V21.9336H41.543V22.8477H35.4258V25.9766H41.6367ZM42.7383 29.1875V30.1133H33.1289V29.1875H42.7383ZM53.0977 25.8125V26.668H43.4883V25.8125H53.0977ZM51.9141 27.4062V29.7148H45.75V30.582H52.2422V31.3672H44.6367V28.9766H50.8125V28.2031H44.625V27.4062H51.9141ZM51.8906 21.2656V23.5391H45.8203V24.3359H52.0664V25.1211H44.7188V22.8008H50.7773V22.0508H44.6953V21.2656H51.8906ZM66.375 27.3242V28.2383H62.1328V31.5078H61.0312V28.2383H56.8008V27.3242H66.375ZM65.4609 22.2617V23.1641H62.1445C62.209 24.3242 63.791 25.4551 65.7891 25.707L65.3906 26.5977C63.7031 26.3633 62.2676 25.5723 61.5938 24.5C60.9082 25.584 59.4609 26.3633 57.7734 26.5977L57.3633 25.707C59.3613 25.4551 60.9551 24.3477 61.0312 23.1641H57.7031V22.2617H61.0312V20.9961H62.1328V22.2617H65.4609ZM75.3516 20.9961V25.1797H76.9805V26.1055H75.3516V31.4844H74.2383V20.9961H75.3516ZM72.6094 22.0977C72.5977 25.1328 71.2617 27.8398 67.8047 29.5508L67.1836 28.6836C69.8145 27.3711 71.2441 25.4727 71.4727 23.0234H67.7109V22.0977H72.6094ZM85.7227 20.9961V25.25H87.4102V26.1758H85.7227V31.4961H84.6211V20.9961H85.7227ZM83.707 22.6367V23.5508H77.4844V22.6367H80.0742V21.1367H81.1875V22.6367H83.707ZM80.6367 24.3242C82.1367 24.3242 83.2383 25.332 83.25 26.7617C83.2383 28.2031 82.1367 29.1992 80.6367 29.2109C79.125 29.1992 78.0234 28.2031 78.0234 26.7617C78.0234 25.332 79.125 24.3242 80.6367 24.3242ZM80.6367 25.2383C79.7461 25.2383 79.0781 25.8594 79.0898 26.7617C79.0781 27.6758 79.7461 28.2852 80.6367 28.2734C81.5273 28.2852 82.1836 27.6758 82.1836 26.7617C82.1836 25.8594 81.5273 25.2383 80.6367 25.2383ZM96.4102 22.0039V23.0352C96.4102 24.3359 96.4102 25.7891 96.0117 27.9336L94.8867 27.8164C95.2969 25.7891 95.2969 24.3008 95.2969 23.0352V22.9062H88.9219V22.0039H96.4102ZM97.4883 29.1523V30.0781H87.9141V29.1523H91.5586V25.4492H92.6602V29.1523H97.4883ZM106.535 21.6992V26.2227H101.625V21.6992H106.535ZM102.715 22.5898V25.332H105.445V22.5898H102.715ZM109.465 20.9961V23.4336H110.988V24.3594H109.465V26.9492H108.352V20.9961H109.465ZM109.629 27.5352V28.4258H106.758C106.91 29.4219 108.275 30.3418 110.062 30.6055L109.652 31.4609C108.059 31.2148 106.746 30.4824 106.137 29.4805C105.539 30.4883 104.232 31.2148 102.645 31.4492L102.234 30.5938C104.033 30.3418 105.369 29.4512 105.551 28.4258H102.656V27.5352H109.629ZM121.16 26.1406V27.0312H116.918V28.0625H119.988V31.3672H112.734V28.0625H115.816V27.0312H111.586V26.1406H121.16ZM116.918 20.9609V21.957H120.199V22.8359H116.988C117.1 23.8438 118.547 24.5879 120.645 24.7578L120.316 25.5898C118.488 25.4258 117.018 24.8457 116.367 23.8789C115.711 24.8457 114.24 25.4258 112.43 25.5898L112.09 24.7578C114.193 24.5879 115.629 23.8438 115.758 22.8359H112.547V21.957H115.816V20.9609H116.918ZM113.836 28.9531V30.4648H118.91V28.9531H113.836ZM133.137 20.9961V23.1875H134.66V24.1133H133.137V26.3047H132.023V20.9961H133.137ZM133.137 26.7852V29.4453H127.465V30.4766H133.5V31.3672H126.375V28.6133H132.035V27.6523H126.352V26.7852H133.137ZM127.805 21.3594C129.398 21.3594 130.559 22.3203 130.559 23.7031C130.559 25.0859 129.398 26.0469 127.805 26.0469C126.211 26.0469 125.039 25.0859 125.051 23.7031C125.039 22.3203 126.211 21.3594 127.805 21.3594ZM127.805 22.2734C126.832 22.2734 126.129 22.8477 126.129 23.7031C126.129 24.5586 126.832 25.1562 127.805 25.1562C128.766 25.1562 129.48 24.5586 129.48 23.7031C129.48 22.8477 128.766 22.2734 127.805 22.2734ZM143.965 21.0078V27.2305H142.852V21.0078H143.965ZM140.613 21.6289V24.582H136.898V25.8477C138.732 25.8535 140.086 25.7891 141.68 25.5312L141.82 26.4453C140.109 26.7148 138.668 26.7734 136.688 26.7617H135.809V23.7148H139.512V22.5195H135.785V21.6289H140.613ZM143.965 27.7578V31.3672H137.062V27.7578H143.965ZM138.164 28.6484V30.4648H142.875V28.6484H138.164ZM150.41 21.1719C152.777 21.1719 154.16 21.8047 154.16 22.9766C154.16 24.1484 152.777 24.793 150.41 24.793C148.043 24.793 146.66 24.1484 146.66 22.9766C146.66 21.8047 148.043 21.1719 150.41 21.1719ZM150.41 21.9922C148.734 21.9922 147.809 22.3555 147.82 22.9766C147.809 23.6211 148.734 23.9609 150.41 23.9609C152.086 23.9609 153.012 23.6211 153.012 22.9766C153.012 22.3555 152.086 21.9922 150.41 21.9922ZM155.203 25.4375V26.3281H145.629V25.4375H155.203ZM153.996 27.1367V29.5977H147.879V30.5352H154.289V31.3906H146.789V28.7891H152.895V27.9688H146.777V27.1367H153.996ZM167.18 20.9961V23.4805H168.703V24.4062H167.18V27.125H166.066V20.9961H167.18ZM160.43 21.5938V23.1172H163.184V21.5938H164.285V26.5156H159.34V21.5938H160.43ZM160.43 25.6367H163.184V23.9961H160.43V25.6367ZM167.262 27.6758V28.5664H161.602V30.4648H167.449V31.3438H160.488V27.6758H167.262ZM172.113 21.7812C173.684 21.7812 174.797 23.2109 174.809 25.4609C174.797 27.7227 173.684 29.1523 172.113 29.1523C170.543 29.1523 169.418 27.7227 169.43 25.4609C169.418 23.2109 170.543 21.7812 172.113 21.7812ZM172.113 22.7773C171.152 22.7773 170.496 23.8086 170.496 25.4609C170.496 27.125 171.152 28.1562 172.113 28.1562C173.086 28.1562 173.742 27.125 173.742 25.4609C173.742 23.8086 173.086 22.7773 172.113 22.7773ZM177.48 20.9961V25.1094H179.168V26.0469H177.48V31.4961H176.367V20.9961H177.48ZM189.281 29.2695V30.1953H179.672V29.2695H183.902V27.1133H180.773V21.7109H181.887V23.5156H187.043V21.7109H188.145V27.1133H185.004V29.2695H189.281ZM181.887 26.2109H187.043V24.418H181.887V26.2109ZM193.242 23.8672C193.242 25.543 193.945 27.3359 195.352 28.1914L194.73 29.0469C193.746 28.4551 193.078 27.4062 192.727 26.1875C192.334 27.5234 191.613 28.6602 190.594 29.2812L189.902 28.4492C191.391 27.5586 192.164 25.707 192.164 23.9141V21.957H193.242V23.8672ZM199.078 20.9961V31.4961H198.012V20.9961H199.078ZM196.898 21.1953V30.9805H195.844V25.6133H194.215V24.6875H195.844V21.1953H196.898ZM210.023 29.2578V30.1836H200.414V29.2578H202.711V26.5156C201.85 26.041 201.328 25.2852 201.328 24.3477C201.328 22.6953 202.945 21.6055 205.195 21.6055C207.457 21.6055 209.074 22.6953 209.074 24.3477C209.074 25.2734 208.57 26.0176 207.727 26.4922V29.2578H210.023ZM205.195 22.4961C203.543 22.4961 202.406 23.2109 202.406 24.3477C202.406 25.4727 203.543 26.2109 205.195 26.2109C206.836 26.2109 207.996 25.4727 207.996 24.3477C207.996 23.2109 206.836 22.4961 205.195 22.4961ZM203.812 29.2578H206.602V26.9141C206.174 27.0254 205.699 27.0781 205.195 27.0781C204.703 27.0781 204.234 27.0254 203.812 26.9258V29.2578ZM212.719 22.0156L212.613 28.0508H211.453L211.348 22.0156H212.719ZM212.039 30.582C211.582 30.582 211.195 30.207 211.207 29.75C211.195 29.293 211.582 28.918 212.039 28.918C212.484 28.918 212.871 29.293 212.871 29.75C212.871 30.207 212.484 30.582 212.039 30.582Z" fill="white"/>
<mask id="mask0_10883_21771" style="mask-type:alpha" maskUnits="userSpaceOnUse" x="214" y="16" width="20" height="20">
<rect x="214" y="16" width="20" height="20" fill="#D9D9D9"/>
</mask>
<g mask="url(#mask0_10883_21771)">
<path d="M224 26.7811L221.276 29.4861C221.154 29.607 221.028 29.666 220.898 29.6632C220.767 29.6606 220.642 29.5989 220.521 29.4782C220.4 29.3575 220.34 29.2307 220.34 29.0976C220.34 28.9645 220.4 28.8371 220.521 28.7153L223.218 25.9991L220.513 23.2957C220.392 23.1738 220.333 23.0463 220.336 22.9132C220.339 22.7803 220.4 22.6535 220.521 22.5328C220.642 22.412 220.769 22.3516 220.902 22.3516C221.035 22.3516 221.162 22.412 221.284 22.5328L224 25.2378L226.704 22.5328C226.825 22.412 226.952 22.3516 227.082 22.3516C227.212 22.3516 227.338 22.412 227.459 22.5328C227.574 22.6481 227.632 22.7736 227.632 22.9093C227.632 23.045 227.574 23.1738 227.459 23.2957L224.761 25.9991L227.466 28.7232C227.587 28.8452 227.648 28.9713 227.648 29.1016C227.648 29.232 227.587 29.3575 227.466 29.4782C227.351 29.5936 227.226 29.6514 227.09 29.6514C226.954 29.6514 226.825 29.5936 226.704 29.4782L224 26.7811Z" fill="white"/>
</g>
</svg>
