<svg width="32" height="32" viewBox="0 0 32 32" fill="none" xmlns="http://www.w3.org/2000/svg">
<rect width="32" height="32" rx="16" fill="#F5F5F5"/>
<path d="M18.9163 16.0026C18.9163 16.3856 18.8409 16.7649 18.6943 17.1188C18.5477 17.4726 18.3329 17.7942 18.0621 18.065C17.7912 18.3358 17.4697 18.5507 17.1158 18.6973C16.762 18.8438 16.3827 18.9193 15.9997 18.9193C15.6167 18.9193 15.2374 18.8438 14.8835 18.6973C14.5296 18.5507 14.2081 18.3358 13.9373 18.065C13.6664 17.7942 13.4516 17.4726 13.305 17.1188C13.1584 16.7649 13.083 16.3856 13.083 16.0026C13.083 15.2291 13.3903 14.4872 13.9373 13.9402C14.4843 13.3932 15.2261 13.0859 15.9997 13.0859C16.7732 13.0859 17.5151 13.3932 18.0621 13.9402C18.6091 14.4872 18.9163 15.2291 18.9163 16.0026Z" stroke="#727272" stroke-width="1.5"/>
<path d="M23.509 17.7487C23.944 17.6312 24.1615 17.5721 24.2473 17.4604C24.3332 17.3479 24.3332 17.1679 24.3332 16.8071V15.1954C24.3332 14.8346 24.3332 14.6537 24.2473 14.5421C24.1615 14.4304 23.944 14.3712 23.509 14.2546C21.884 13.8162 20.8665 12.1171 21.2857 10.5021C21.4015 10.0579 21.459 9.83541 21.404 9.70541C21.349 9.57541 21.1907 9.48541 20.8748 9.30625L19.4373 8.48958C19.1273 8.31458 18.9723 8.22625 18.8332 8.24458C18.694 8.26291 18.5365 8.41958 18.2223 8.73375C17.0065 9.94625 14.9948 9.94625 13.7782 8.73375C13.464 8.42041 13.3073 8.26375 13.1682 8.24458C13.029 8.22625 12.874 8.31375 12.564 8.49041L11.1265 9.30625C10.8098 9.48541 10.6515 9.57541 10.5973 9.70625C10.5423 9.83541 10.5998 10.0579 10.7148 10.5021C11.134 12.1171 10.1165 13.8162 8.49067 14.2546C8.05567 14.3712 7.83817 14.4296 7.75234 14.5421C7.6665 14.6546 7.6665 14.8346 7.6665 15.1954V16.8071C7.6665 17.1679 7.6665 17.3487 7.75234 17.4604C7.83817 17.5721 8.05567 17.6312 8.49067 17.7487C10.1157 18.1871 11.1332 19.8862 10.714 21.5004C10.5982 21.9446 10.5407 22.1671 10.5957 22.2971C10.6507 22.4271 10.809 22.5171 11.1248 22.6971L12.5623 23.5121C12.8723 23.6887 13.0273 23.7762 13.1665 23.7579C13.3057 23.7396 13.4632 23.5829 13.7773 23.2687C14.994 22.0546 17.0073 22.0546 18.224 23.2687C18.5382 23.5821 18.6948 23.7387 18.834 23.7579C18.9732 23.7762 19.1282 23.6887 19.439 23.5121L20.8757 22.6962C21.1923 22.5171 21.3507 22.4271 21.4048 22.2962C21.459 22.1654 21.4023 21.9446 21.2873 21.5004C20.8673 19.8862 21.884 18.1871 23.509 17.7487Z" stroke="#727272" stroke-width="1.5" stroke-linecap="round"/>
</svg>
