<svg width="16" height="16" viewBox="0 0 16 16" fill="none" xmlns="http://www.w3.org/2000/svg">
<mask id="mask0_8173_28432" style="mask-type:alpha" maskUnits="userSpaceOnUse" x="0" y="0" width="16" height="16">
<rect width="16" height="16" fill="#D9D9D9"/>
</mask>
<g mask="url(#mask0_8173_28432)">
<path d="M5.40026 4.59704L7.16943 2.28154C7.27798 2.14366 7.4062 2.03999 7.55409 1.97054C7.70198 1.90099 7.85626 1.86621 8.01693 1.86621C8.17759 1.86621 8.32909 1.90099 8.47143 1.97054C8.61376 2.03999 8.7392 2.14366 8.84776 2.28154L10.6169 4.59704L13.3399 5.49438C13.5699 5.57904 13.7475 5.71166 13.8726 5.89221C13.9978 6.07288 14.0604 6.27588 14.0604 6.50121C14.0604 6.60954 14.0458 6.71471 14.0164 6.81671C13.9871 6.91871 13.9381 7.01854 13.8694 7.11621L12.1079 9.52388L12.1746 12.1342C12.1746 12.4408 12.07 12.7005 11.8608 12.9134C11.6516 13.1264 11.4024 13.2329 11.1131 13.2329C11.1036 13.2329 11.0088 13.2183 10.8284 13.1892L8.00026 12.3854L5.17209 13.1892C5.11654 13.2114 5.06754 13.2243 5.02509 13.2277C4.98265 13.2312 4.93676 13.2329 4.88743 13.2329C4.59509 13.2329 4.34232 13.1264 4.12909 12.9134C3.91587 12.7005 3.81482 12.4408 3.82593 12.1342L3.89259 9.52388L2.12459 7.11621C2.05593 7.0181 2.00693 6.9206 1.97759 6.82371C1.94826 6.72671 1.93359 6.62421 1.93359 6.51621C1.93359 6.28699 1.99848 6.07816 2.12826 5.88971C2.25804 5.70127 2.44315 5.56738 2.68359 5.48804L5.40026 4.59704Z" fill="#FFC62B"/>
</g>
</svg>
