<svg width="30" height="30" viewBox="0 0 30 30" fill="none" xmlns="http://www.w3.org/2000/svg">
<rect x="0.5" y="0.5" width="29" height="29" rx="14.5" fill="white"/>
<rect x="0.5" y="0.5" width="29" height="29" rx="14.5" stroke="#E1E1E1"/>
<path d="M19.9997 16.4108L15.7097 12.1708C15.6167 12.0771 15.5061 12.0027 15.3843 11.9519C15.2624 11.9011 15.1317 11.875 14.9997 11.875C14.8677 11.875 14.737 11.9011 14.6151 11.9519C14.4933 12.0027 14.3827 12.0771 14.2897 12.1708L10.0497 16.4108C9.95598 16.5038 9.88158 16.6144 9.83081 16.7362C9.78004 16.8581 9.75391 16.9888 9.75391 17.1208C9.75391 17.2528 9.78004 17.3835 9.83081 17.5054C9.88158 17.6272 9.95598 17.7378 10.0497 17.8308C10.2371 18.017 10.4905 18.1216 10.7547 18.1216C11.0189 18.1216 11.2723 18.017 11.4597 17.8308L14.9997 14.2908L18.5397 17.8308C18.726 18.0155 18.9774 18.1197 19.2397 18.1208C19.3713 18.1216 19.5018 18.0963 19.6236 18.0466C19.7454 17.9968 19.8563 17.9235 19.9497 17.8308C20.0468 17.7412 20.1251 17.6332 20.1802 17.5131C20.2353 17.3931 20.2661 17.2633 20.2708 17.1312C20.2754 16.9992 20.2539 16.8675 20.2073 16.7439C20.1608 16.6202 20.0902 16.507 19.9997 16.4108Z" fill="black"/>
</svg>
