<svg width="20" height="21" viewBox="0 0 20 21" fill="none" xmlns="http://www.w3.org/2000/svg">
<path d="M10 3C8.41775 3 6.87103 3.46919 5.55544 4.34824C4.23985 5.22729 3.21447 6.47672 2.60897 7.93853C2.00347 9.40034 1.84504 11.0089 2.15372 12.5607C2.4624 14.1126 3.22433 15.538 4.34315 16.6569C5.46197 17.7757 6.88743 18.5376 8.43928 18.8463C9.99113 19.155 11.5997 18.9965 13.0615 18.391C14.5233 17.7855 15.7727 16.7602 16.6518 15.4446C17.5308 14.129 18 12.5823 18 11C18 8.87827 17.1571 6.84344 15.6569 5.34315C14.1566 3.84285 12.1217 3 10 3ZM15.333 7.54L9.009 15.6705C8.95647 15.7376 8.89033 15.7928 8.81492 15.8326C8.73952 15.8723 8.65656 15.8956 8.5715 15.901C8.5595 15.902 8.5465 15.902 8.535 15.902C8.4561 15.9021 8.37795 15.8867 8.30503 15.8566C8.2321 15.8265 8.16583 15.7823 8.11 15.7265L4.218 11.829C4.16222 11.7733 4.11796 11.7071 4.08777 11.6343C4.05757 11.5614 4.04203 11.4833 4.04203 11.4045C4.04203 11.3257 4.05757 11.2476 4.08777 11.1747C4.11796 11.1019 4.16222 11.0357 4.218 10.98L4.881 10.3175C4.99355 10.2054 5.14592 10.1425 5.30475 10.1425C5.46359 10.1425 5.61596 10.2054 5.7285 10.3175L8.4015 12.991L13.657 6.2365C13.755 6.11097 13.8988 6.02942 14.0568 6.00974C14.2148 5.99006 14.3742 6.03384 14.5 6.1315L15.2275 6.698C15.3526 6.79606 15.4339 6.93957 15.4536 7.09728C15.4734 7.25499 15.43 7.41411 15.333 7.54Z" fill="#36BF6E"/>
</svg>
