<svg width="20" height="21" viewBox="0 0 20 21" fill="none" xmlns="http://www.w3.org/2000/svg">
<mask id="mask0_18739_48235" style="mask-type:alpha" maskUnits="userSpaceOnUse" x="0" y="0" width="20" height="21">
<rect y="0.5" width="20" height="20" fill="#D9D9D9"/>
</mask>
<g mask="url(#mask0_18739_48235)">
<path d="M2.5 8.83333V3.83333C2.5 3.59722 2.57986 3.39931 2.73958 3.23958C2.89931 3.07986 3.09722 3 3.33333 3H8.33333C8.56944 3 8.76736 3.07986 8.92708 3.23958C9.08681 3.39931 9.16667 3.59722 9.16667 3.83333V8.83333C9.16667 9.06944 9.08681 9.26736 8.92708 9.42708C8.76736 9.58681 8.56944 9.66667 8.33333 9.66667H3.33333C3.09722 9.66667 2.89931 9.58681 2.73958 9.42708C2.57986 9.26736 2.5 9.06944 2.5 8.83333ZM4.16667 8H7.5V4.66667H4.16667V8ZM2.5 17.1667V12.1667C2.5 11.9306 2.57986 11.7326 2.73958 11.5729C2.89931 11.4132 3.09722 11.3333 3.33333 11.3333H8.33333C8.56944 11.3333 8.76736 11.4132 8.92708 11.5729C9.08681 11.7326 9.16667 11.9306 9.16667 12.1667V17.1667C9.16667 17.4028 9.08681 17.6007 8.92708 17.7604C8.76736 17.9201 8.56944 18 8.33333 18H3.33333C3.09722 18 2.89931 17.9201 2.73958 17.7604C2.57986 17.6007 2.5 17.4028 2.5 17.1667ZM4.16667 16.3333H7.5V13H4.16667V16.3333ZM10.8333 8.83333V3.83333C10.8333 3.59722 10.9132 3.39931 11.0729 3.23958C11.2326 3.07986 11.4306 3 11.6667 3H16.6667C16.9028 3 17.1007 3.07986 17.2604 3.23958C17.4201 3.39931 17.5 3.59722 17.5 3.83333V8.83333C17.5 9.06944 17.4201 9.26736 17.2604 9.42708C17.1007 9.58681 16.9028 9.66667 16.6667 9.66667H11.6667C11.4306 9.66667 11.2326 9.58681 11.0729 9.42708C10.9132 9.26736 10.8333 9.06944 10.8333 8.83333ZM12.5 8H15.8333V4.66667H12.5V8ZM15.8333 18V16.3333H17.5V18H15.8333ZM10.8333 13V11.3333H12.5V13H10.8333ZM12.5 14.6667V13H14.1667V14.6667H12.5ZM10.8333 16.3333V14.6667H12.5V16.3333H10.8333ZM12.5 18V16.3333H14.1667V18H12.5ZM14.1667 16.3333V14.6667H15.8333V16.3333H14.1667ZM14.1667 13V11.3333H15.8333V13H14.1667ZM15.8333 14.6667V13H17.5V14.6667H15.8333Z" fill="#4B4B4B"/>
</g>
</svg>
