<svg width="62" height="62" viewBox="0 0 62 62" fill="none" xmlns="http://www.w3.org/2000/svg">
<g opacity="0.6">
<rect width="62" height="62" rx="31" fill="#F5F5F5"/>
<path d="M17 18L30 19.9892V38.9892L17 37.9892V18Z" fill="#EFEBE9"/>
<path d="M17 38L30 39V40H16L17 38Z" fill="#BCAAA4"/>
<path d="M15 20.0128L17 18V38L16 40.0128H15V20.0128Z" fill="#D7CCC8"/>
<path d="M13 19H16L15 20V40H31V42H13V19Z" fill="#D32F2F"/>
<path d="M30 20H31V40H30V20Z" fill="#BCAAA4"/>
<path d="M45 18L32 19.9892V38.9892L45 37.9892V18Z" fill="#EFEBE9"/>
<path d="M45 38L32 39V40H46L45 38Z" fill="#BCAAA4"/>
<path d="M47 20.0128L45 18V38L46 40.0128H47V20.0128Z" fill="#D7CCC8"/>
<path d="M49 19H46L47 20V40H31V42H49V19Z" fill="#D32F2F"/>
<path d="M32 20H31V40H32V20Z" fill="#BCAAA4"/>
<path d="M29 40C29 40.5304 29.2107 41.0391 29.5858 41.4142C29.9609 41.7893 30.4696 42 31 42C31.5304 42 32.0391 41.7893 32.4142 41.4142C32.7893 41.0391 33 40.5304 33 40H31H29Z" fill="#4C0808"/>
<path d="M28 42C28 42.2626 28.0776 42.5227 28.2284 42.7654C28.3791 43.008 28.6001 43.2285 28.8787 43.4142C29.1573 43.5999 29.488 43.7472 29.8519 43.8478C30.2159 43.9483 30.606 44 31 44C31.394 44 31.7841 43.9483 32.1481 43.8478C32.512 43.7472 32.8427 43.5999 33.1213 43.4142C33.3999 43.2285 33.6209 43.008 33.7716 42.7654C33.9224 42.5227 34 42.2626 34 42H31H28Z" fill="#D32F2F"/>
</g>
</svg>
