<svg width="18" height="22" viewBox="0 0 18 22" fill="none" xmlns="http://www.w3.org/2000/svg">
<path d="M4.75 13.75H8.179M4.75 9.75H12.75M11.25 0.75H6.25C5.85218 0.75 5.47064 0.908035 5.18934 1.18934C4.90804 1.47064 4.75 1.85218 4.75 2.25C4.75 2.64782 4.90804 3.02936 5.18934 3.31066C5.47064 3.59196 5.85218 3.75 6.25 3.75H11.25C11.6478 3.75 12.0294 3.59196 12.3107 3.31066C12.592 3.02936 12.75 2.64782 12.75 2.25C12.75 1.85218 12.592 1.47064 12.3107 1.18934C12.0294 0.908035 11.6478 0.75 11.25 0.75Z" stroke="black" stroke-width="1.5" stroke-linecap="round" stroke-linejoin="round"/>
<path d="M4.75 13.75H8.179M4.75 9.75H12.75M11.25 0.75H6.25C5.85218 0.75 5.47064 0.908035 5.18934 1.18934C4.90804 1.47064 4.75 1.85218 4.75 2.25C4.75 2.64782 4.90804 3.02936 5.18934 3.31066C5.47064 3.59196 5.85218 3.75 6.25 3.75H11.25C11.6478 3.75 12.0294 3.59196 12.3107 3.31066C12.592 3.02936 12.75 2.64782 12.75 2.25C12.75 1.85218 12.592 1.47064 12.3107 1.18934C12.0294 0.908035 11.6478 0.75 11.25 0.75Z" stroke="black" stroke-opacity="0.2" stroke-width="1.5" stroke-linecap="round" stroke-linejoin="round"/>
<path d="M4.75 13.75H8.179M4.75 9.75H12.75M11.25 0.75H6.25C5.85218 0.75 5.47064 0.908035 5.18934 1.18934C4.90804 1.47064 4.75 1.85218 4.75 2.25C4.75 2.64782 4.90804 3.02936 5.18934 3.31066C5.47064 3.59196 5.85218 3.75 6.25 3.75H11.25C11.6478 3.75 12.0294 3.59196 12.3107 3.31066C12.592 3.02936 12.75 2.64782 12.75 2.25C12.75 1.85218 12.592 1.47064 12.3107 1.18934C12.0294 0.908035 11.6478 0.75 11.25 0.75Z" stroke="black" stroke-opacity="0.2" stroke-width="1.5" stroke-linecap="round" stroke-linejoin="round"/>
<path d="M12.75 2.25C14.304 2.297 15.23 2.47 15.871 3.112C16.751 3.99 16.751 5.405 16.751 8.232V14.75C16.751 17.578 16.751 18.992 15.871 19.871C14.993 20.75 13.578 20.75 10.751 20.75H6.751C3.921 20.75 2.507 20.75 1.629 19.871C0.751 18.992 0.75 17.578 0.75 14.75V8.233C0.75 5.405 0.75 3.99 1.629 3.112C2.27 2.47 3.197 2.297 4.75 2.25" stroke="black" stroke-width="1.5" stroke-linecap="round" stroke-linejoin="round"/>
<path d="M12.75 2.25C14.304 2.297 15.23 2.47 15.871 3.112C16.751 3.99 16.751 5.405 16.751 8.232V14.75C16.751 17.578 16.751 18.992 15.871 19.871C14.993 20.75 13.578 20.75 10.751 20.75H6.751C3.921 20.75 2.507 20.75 1.629 19.871C0.751 18.992 0.75 17.578 0.75 14.75V8.233C0.75 5.405 0.75 3.99 1.629 3.112C2.27 2.47 3.197 2.297 4.75 2.25" stroke="black" stroke-opacity="0.2" stroke-width="1.5" stroke-linecap="round" stroke-linejoin="round"/>
<path d="M12.75 2.25C14.304 2.297 15.23 2.47 15.871 3.112C16.751 3.99 16.751 5.405 16.751 8.232V14.75C16.751 17.578 16.751 18.992 15.871 19.871C14.993 20.75 13.578 20.75 10.751 20.75H6.751C3.921 20.75 2.507 20.75 1.629 19.871C0.751 18.992 0.75 17.578 0.75 14.75V8.233C0.75 5.405 0.75 3.99 1.629 3.112C2.27 2.47 3.197 2.297 4.75 2.25" stroke="black" stroke-opacity="0.2" stroke-width="1.5" stroke-linecap="round" stroke-linejoin="round"/>
</svg>
