<svg width="16" height="16" viewBox="0 0 16 16" fill="none" xmlns="http://www.w3.org/2000/svg">
<mask id="mask0_22088_39494" style="mask-type:alpha" maskUnits="userSpaceOnUse" x="0" y="0" width="16" height="16">
<rect width="16" height="16" fill="#D9D9D9"/>
</mask>
<g mask="url(#mask0_22088_39494)">
<path d="M13.7453 13.6673C12.4387 13.6673 11.126 13.3752 9.80731 12.791C8.4887 12.2068 7.27716 11.3827 6.17268 10.3187C5.06832 9.25454 4.21234 8.08954 3.60475 6.82365C2.99716 5.55787 2.69336 4.29682 2.69336 3.04048C2.69336 2.8386 2.76269 2.67037 2.90136 2.53582C3.04003 2.40126 3.21336 2.33398 3.42136 2.33398H5.68267C5.85773 2.33398 6.01217 2.38893 6.14599 2.49882C6.2798 2.6086 6.36491 2.74426 6.40131 2.90582L6.79876 4.86732C6.82626 5.04932 6.82048 5.20571 6.78143 5.33648C6.74225 5.46726 6.672 5.5771 6.57065 5.66598L4.9694 7.16482C5.22709 7.6186 5.52152 8.04787 5.85271 8.45265C6.18377 8.85732 6.54223 9.24382 6.92807 9.61215C7.30848 9.97804 7.71292 10.3178 8.1414 10.6315C8.56988 10.9452 9.03256 11.237 9.52945 11.5072L11.0853 9.99815C11.1938 9.8896 11.3252 9.81348 11.4795 9.76982C11.6336 9.72626 11.7938 9.7156 11.9601 9.73782L13.8853 10.1148C14.0604 10.1593 14.2033 10.2452 14.314 10.3725C14.4247 10.4998 14.48 10.6443 14.48 10.8058V12.9673C14.48 13.1673 14.4101 13.334 14.2701 13.4673C14.1302 13.6007 13.9552 13.6673 13.7453 13.6673ZM4.47731 6.21865L5.71473 5.08015C5.73692 5.06304 5.75136 5.03954 5.75807 5.00965C5.76477 4.97976 5.76367 4.95198 5.75477 4.92632L5.45335 3.43648C5.44445 3.40237 5.42891 3.37676 5.40672 3.35965C5.38453 3.34254 5.35564 3.33398 5.32005 3.33398H3.83736C3.81067 3.33398 3.78842 3.34254 3.77063 3.35965C3.75295 3.37676 3.74411 3.39815 3.74411 3.42382C3.77958 3.87937 3.85712 4.34215 3.97672 4.81215C4.0962 5.28226 4.26307 5.7511 4.47731 6.21865ZM10.5093 11.9802C10.9689 12.1862 11.4482 12.3437 11.9473 12.4527C12.4465 12.5615 12.9129 12.6263 13.3466 12.6468C13.3733 12.6468 13.3955 12.6383 13.4133 12.6212C13.4311 12.604 13.44 12.5827 13.44 12.557V11.1545C13.44 11.1203 13.4311 11.0925 13.4133 11.0712C13.3955 11.0498 13.3689 11.0349 13.3334 11.0263L11.8774 10.7417C11.8507 10.7331 11.8274 10.732 11.8074 10.7385C11.7874 10.7449 11.7663 10.7588 11.744 10.7802L10.5093 11.9802Z" fill="#175C8E"/>
</g>
</svg>
