<svg width="28" height="28" viewBox="0 0 28 28" fill="none" xmlns="http://www.w3.org/2000/svg">
<path d="M2.86215 27.5256C2.07505 27.5256 1.40125 27.2453 0.84075 26.6848C0.28025 26.1243 0 25.4505 0 24.6634V3.47118C0 2.68408 0.28025 2.01028 0.84075 1.44978C1.40125 0.889252 2.07505 0.608988 2.86215 0.608988H15.4375C15.7739 0.608988 16.0559 0.722843 16.2835 0.950553C16.5111 1.17826 16.6249 1.46041 16.6249 1.797C16.6249 2.13362 16.5111 2.4156 16.2835 2.64294C16.0559 2.87028 15.7739 2.98395 15.4375 2.98395H2.86215C2.72005 2.98395 2.60332 3.02963 2.51196 3.12099C2.4206 3.21234 2.37492 3.32908 2.37492 3.47118V24.6634C2.37492 24.8055 2.4206 24.9222 2.51196 25.0136C2.60332 25.1049 2.72005 25.1506 2.86215 25.1506H24.0544C24.1965 25.1506 24.3132 25.1049 24.4045 25.0136C24.4959 24.9222 24.5416 24.8055 24.5416 24.6634V12.0881C24.5416 11.7516 24.6554 11.4696 24.8832 11.242C25.1108 11.0144 25.393 10.9006 25.7296 10.9006C26.0662 10.9006 26.3482 11.0144 26.5755 11.242C26.8029 11.4696 26.9165 11.7516 26.9165 12.0881V24.6634C26.9165 25.4505 26.6363 26.1243 26.0758 26.6848C25.5153 27.2453 24.8415 27.5256 24.0544 27.5256H2.86215ZM21.9839 5.54159H20.0047C19.6683 5.54159 19.3863 5.42775 19.1587 5.20006C18.9311 4.97235 18.8173 4.6902 18.8173 4.35361C18.8173 4.01699 18.9311 3.73502 19.1587 3.50768C19.3863 3.28034 19.6683 3.16667 20.0047 3.16667H21.9839V1.18746C21.9839 0.851 22.0978 0.568969 22.3255 0.341365C22.5532 0.113787 22.8353 0 23.172 0C23.5086 0 23.7905 0.113787 24.0179 0.341365C24.2452 0.568969 24.3589 0.851 24.3589 1.18746V3.16667H26.3381C26.6745 3.16667 26.9566 3.28051 27.1842 3.50819C27.4117 3.7359 27.5255 4.01805 27.5255 4.35464C27.5255 4.69126 27.4117 4.97324 27.1842 5.20058C26.9566 5.42792 26.6745 5.54159 26.3381 5.54159H24.3589V7.52079C24.3589 7.85725 24.245 8.13928 24.0173 8.36689C23.7896 8.59446 23.5075 8.70825 23.1709 8.70825C22.8343 8.70825 22.5523 8.59446 22.325 8.36689C22.0976 8.13928 21.9839 7.85725 21.9839 7.52079V5.54159ZM12.2403 20.4311L9.6461 17.1061C9.49793 16.9254 9.30966 16.8351 9.08129 16.8351C8.85292 16.8351 8.66465 16.9305 8.51647 17.1213L6.01971 20.4432C5.8289 20.6868 5.80377 20.9385 5.94435 21.1983C6.08492 21.4582 6.29578 21.5881 6.57693 21.5881H20.4614C20.7425 21.5881 20.9534 21.4582 21.094 21.1983C21.2345 20.9385 21.2145 20.6868 21.0338 20.4432L17.2582 15.3858C17.11 15.1949 16.9192 15.0995 16.6858 15.0995C16.4524 15.0995 16.2612 15.1962 16.1123 15.3897L12.2403 20.4311Z" fill="#727272"/>
</svg>
