<svg width="40" height="41" viewBox="0 0 40 41" fill="none" xmlns="http://www.w3.org/2000/svg">
<path d="M21.0085 5.83311L24.8785 13.6703L33.5321 14.927C34.4538 15.0609 34.8218 16.1929 34.155 16.8425L27.8932 22.9429L29.3714 31.5568C29.5289 32.4743 28.5654 33.1739 27.7411 32.7407L20.0012 28.6738L12.2612 32.7407C11.4369 33.1739 10.4734 32.4743 10.6309 31.5568L12.1091 22.9429L5.84736 16.8425C5.1805 16.1929 5.54851 15.0609 6.47018 14.927L15.1238 13.6703L18.993 5.83311C19.4053 4.99834 20.5962 4.99834 21.0085 5.83311Z" fill="#FFA527"/>
<path d="M13.5708 12.0511C13.4111 12.0511 13.2536 11.9772 13.1526 11.8382L8.77742 5.81967C8.60968 5.58907 8.66093 5.26611 8.89165 5.09866C9.12259 4.931 9.44552 4.98222 9.61306 5.21283L13.9882 11.2315C14.156 11.4621 14.1047 11.7851 13.874 11.9525C13.7824 12.0192 13.676 12.0511 13.5708 12.0511Z" fill="#FFD364"/>
<path d="M2.51649 26.574C2.29873 26.574 2.0962 26.4353 2.0254 26.2171C1.93731 25.9459 2.0857 25.6546 2.35698 25.5666L9.43624 23.2676C9.70772 23.1795 9.99896 23.3278 10.0871 23.599C10.1751 23.8701 10.0267 24.1614 9.75547 24.2494L2.67621 26.5485C2.62311 26.5657 2.56939 26.574 2.51649 26.574Z" fill="#FFD364"/>
<path d="M20.001 38.3371C19.7157 38.3371 19.4844 38.1058 19.4844 37.8207V31.3132C19.4844 31.0281 19.7157 30.7969 20.001 30.7969C20.2863 30.7969 20.5176 31.0281 20.5176 31.3132V37.8207C20.5176 38.1058 20.2863 38.3371 20.001 38.3371Z" fill="#FFD364"/>
<path d="M37.4837 26.574C37.4308 26.574 37.377 26.5657 37.3239 26.5485L30.2447 24.2494C29.9734 24.1614 29.825 23.8701 29.9131 23.599C30.0012 23.3278 30.2926 23.1795 30.5639 23.2676L37.6432 25.5666C37.9144 25.6546 38.0628 25.9459 37.9747 26.2171C37.9037 26.4351 37.7014 26.574 37.4837 26.574Z" fill="#FFD364"/>
<path d="M26.4302 12.0511C26.325 12.0511 26.2188 12.019 26.127 11.9525C25.8963 11.7849 25.845 11.4621 26.0128 11.2315L30.3879 5.21283C30.5557 4.98222 30.8786 4.931 31.1094 5.09866C31.3401 5.26631 31.3913 5.58907 31.2236 5.81967L26.8484 11.8384C26.7474 11.9774 26.5899 12.0513 26.4302 12.0513V12.0511Z" fill="#FFD364"/>
</svg>
