<svg width="24" height="24" viewBox="0 0 24 24" fill="none" xmlns="http://www.w3.org/2000/svg">
<mask id="mask0_15716_18025" style="mask-type:alpha" maskUnits="userSpaceOnUse" x="0" y="0" width="24" height="24">
<rect width="24" height="24" fill="white"/>
</mask>
<g mask="url(#mask0_15716_18025)">
<path d="M12 22.4805C10.5414 22.4805 9.17545 22.2059 7.90228 21.6565C6.62928 21.1072 5.52195 20.3616 4.58028 19.4198C3.63845 18.4781 2.89286 17.3708 2.34353 16.0978C1.7942 14.8246 1.51953 13.4587 1.51953 12C1.51953 10.5309 1.79145 9.16228 2.33528 7.89428C2.87911 6.62645 3.62461 5.51895 4.57178 4.57178L6.45228 6.43803C5.73778 7.15253 5.1787 7.98453 4.77503 8.93403C4.37136 9.88336 4.16953 10.9064 4.16953 12.0033C4.16953 14.1968 4.9257 16.0497 6.43803 17.562C7.95036 19.0744 9.80437 19.8305 12 19.8305C14.1957 19.8305 16.0497 19.0744 17.562 17.562C19.0744 16.0497 19.8305 14.1968 19.8305 12.0033C19.8305 10.9064 19.631 9.88336 19.232 8.93403C18.8332 7.98453 18.2765 7.15253 17.562 6.43803L19.4283 4.57178C20.3754 5.51895 21.121 6.62645 21.6648 7.89428C22.2086 9.16228 22.4805 10.5309 22.4805 12C22.4805 13.4587 22.2059 14.8246 21.6565 16.0978C21.1072 17.3708 20.3616 18.4781 19.4198 19.4198C18.4781 20.3616 17.3708 21.1072 16.0978 21.6565C14.8246 22.2059 13.4587 22.4805 12 22.4805ZM10.675 13.325V1.51953H13.325V13.325H10.675Z" fill="white"/>
</g>
</svg>
