<?xml version="1.0" encoding="utf-8" standalone="yes"?><!-- Generator: Adobe Illustrator 22.0.1, SVG Export Plug-In . SVG Version: 6.00 Build 0)  --><svg xmlns="http://www.w3.org/2000/svg" xmlns:xlink="http://www.w3.org/1999/xlink" version="1.1" id="레이어_1" x="0px" y="0px" viewBox="0 0 3300 2200" style="enable-background:new 0 0 3300 2200;zoom: 1;" xml:space="preserve"><style type="text/css">
        .st0{fill:#FFFFFF;}
        .st1{fill:none;stroke:#000000;stroke-width:1.8;}
        .st2{font-family:'Arial-BoldMT';}
        .st3{font-size:12px;}
        .st4{font-family:'ArialMT';}
        .st5{opacity:0.4;fill:#00AEEF;enable-background:new    ;}
        .st6{fill:#27AAE1;}
        .st7{fill:none;stroke:#27AAE1;stroke-width:0.577;}
        .st8{fill:none;}
        .st9{fill:#252525;}
</style><g id="Notes"><rect id="artboard" x="-1.8" y="-0.1" class="st0" width="3300" height="2200"></rect><line class="st1" x1="261.2" y1="291.9" x2="3034.2" y2="291.9"></line><text transform="matrix(1 0 0 1 261.1194 321.9183)" class="st2 st3">Weight/Scale Variations</text><text transform="matrix(1 0 0 1 534.1554 321.9183)" class="st4 st3">Ultralight</text><text transform="matrix(1 0 0 1 842.8692 321.9183)" class="st4 st3">Thin</text><text transform="matrix(1 0 0 1 1138.2384 321.9183)" class="st4 st3">Light</text><text transform="matrix(1 0 0 1 1426.9474 321.9183)" class="st4 st3">Regular</text><text transform="matrix(1 0 0 1 1723.3401 321.9183)" class="st4 st3">Medium</text><text transform="matrix(1 0 0 1 2016.3751 321.9183)" class="st4 st3">Semibold</text><text transform="matrix(1 0 0 1 2326.0898 321.9183)" class="st4 st3">Bold</text><text transform="matrix(1 0 0 1 2617.803 321.9183)" class="st4 st3">Heavy</text><text transform="matrix(1 0 0 1 2916.8479 321.9183)" class="st4 st3">Black</text><line class="st1" x1="261.2" y1="1902.9" x2="3034.2" y2="1902.9"></line><g transform="matrix(1 0 0 1 263 1933)"><path d="M7.4,0.8c4.3,0,7.9-3.6,7.9-7.9S11.7-15,7.4-15s-7.9,3.6-7.9,7.9S3.1,0.8,7.4,0.8z M7.4-0.7C3.9-0.7,1-3.6,1-7.1 s2.8-6.4,6.4-6.4s6.4,2.8,6.4,6.4S11-0.7,7.4-0.7z M7.4-3.5c0.5,0,0.7-0.3,0.7-0.8v-2.1h2.2c0.5,0,0.8-0.3,0.8-0.7 c0-0.5-0.3-0.7-0.8-0.7H8.1v-2.3c0-0.5-0.3-0.8-0.7-0.8s-0.7,0.3-0.7,0.8v2.2H4.5C3.9-7.8,3.6-7.6,3.6-7.1S4-6.4,4.4-6.4h2.2v2.1 C6.7-3.8,6.9-3.5,7.4-3.5z"></path></g><g transform="matrix(1 0 0 1 281.506 1933)"><path d="M9.9,2.9c5.4,0,10-4.5,10-10c0-5.4-4.5-10-10-10c-5.4,0-10,4.5-10,10C-0.1-1.7,4.4,2.9,9.9,2.9z M9.9,1.2 c-4.6,0-8.3-3.7-8.3-8.3s3.7-8.3,8.3-8.3s8.3,3.7,8.3,8.3S14.5,1.2,9.9,1.2z M9.8-2.5c0.5,0,0.8-0.4,0.8-0.9v-2.9h3.1 c0.5,0,0.9-0.3,0.9-0.8s-0.4-0.8-0.9-0.8h-3V-11c0-0.6-0.3-0.9-0.8-0.9S9.1-11.5,9.1-11v3.1h-3C5.4-7.9,5-7.6,5-7.1 s0.4,0.8,0.9,0.8h3v2.9C9-2.8,9.3-2.5,9.8-2.5z"></path></g><g transform="matrix(1 0 0 1 304.924 1933)"><path d="M13.1,5.6c7,0,12.7-5.7,12.7-12.7S20-19.8,13.1-19.8S0.4-14.1,0.4-7.1S6.2,5.6,13.1,5.6z M13.1,3.8 c-6,0-10.9-4.9-10.9-10.9S7-18,13.1-18c6,0,10.9,4.9,10.9,10.9S19.2,3.8,13.1,3.8z M13.1-1.1c0.6,0,0.9-0.4,0.9-1v-4.1h4.2 c0.6,0,1-0.3,1-0.9S18.8-8,18.2-8H14v-4.2c0-0.6-0.4-1-0.9-1s-0.9,0.4-0.9,1V-8H8C7.4-8,7-7.7,7-7.1s0.4,0.9,1,0.9h4.2v4.1 C12.2-1.5,12.5-1.1,13.1-1.1z"></path></g><text transform="matrix(1 0 0 1 261.1194 1952.9185)" class="st2 st3">Design Variations</text><text transform="matrix(1 0 0 1 261.1194 1970.9185)" class="st4 st3">Symbols are supported in up to nine weights and three scales.</text><text transform="matrix(1 0 0 1 261.1194 1988.9185)" class="st4 st3">For optimal layout with text and other symbols, vertically align</text><text transform="matrix(1 0 0 1 261.1194 2006.9185)" class="st4 st3">symbols with the adjacent text.</text><rect x="774.2" y="1918.9" class="st5" width="3" height="14"></rect><g transform="matrix(1 0 0 1 779 1933)"><path d="M8.7-0.1h1.8l-5.2-14H3.6l-5.2,14h1.8l1.4-4h5.6L8.7-0.1z M4.4-12L4.4-12l2.3,6.4H2.2L4.4-12z"></path></g><rect x="789.8" y="1918.9" class="st5" width="3" height="14"></rect><text transform="matrix(1 0 0 1 774.1192 1952.9185)" class="st2 st3">Margins</text><text transform="matrix(1 0 0 1 774.1192 1970.9185)" class="st4 st3">Leading and trailing margins on the left and right side of each symbol</text><text transform="matrix(1 0 0 1 774.1192 1988.9185)" class="st4 st3">can be adjusted by modifying the width of the blue rectangles.</text><text transform="matrix(1 0 0 1 774.1192 2006.9185)" class="st4 st3">Modifications are automatically applied proportionally to all</text><text transform="matrix(1 0 0 1 774.1192 2024.9185)" class="st4 st3">scales and weights.</text><g transform="matrix(1 0 0 1 1289 1933)"><path d="M1,3.1l1.5,1.5c0.9,0.8,1.8,0.8,2.7-0.2L15.4-6.7c0.4,0.3,0.8,0.3,1.3,0.2l1-0.2l0.8,0.6v0.5c-0.1,0.5,0.1,0.9,0.6,1.4 l0.7,0.9c0.5,0.5,1.2,0.5,1.6,0.1l3.3-3.3c0.5-0.5,0.5-1.1,0-1.6l-0.9-0.8c-0.5-0.5-0.9-0.7-1.4-0.6l-0.5,0.1l-0.7-0.7l0.3-1.1 c0.1-0.6,0-1-0.6-1.6l-2.4-2.4c-3.5-3.5-8.1-3.4-11.2-0.3c-0.5,0.3-0.5,0.9-0.2,1.4c0.2,0.4,0.7,0.6,1.4,0.4 c1.5-0.4,3-0.3,4.5,0.7l-0.6,1.6c-0.2,0.6-0.2,1.1,0,1.5L1.2,0.4C0.2,1.3,0.1,2.2,1,3.1z M8.8-15.2c2.7-2,6-1.7,8.4,0.7l2.6,2.6 c0.2,0.2,0.3,0.4,0.2,0.7l-0.4,1.6L21.2-8l1-0.1c0.3,0,0.4,0,0.6,0.2l0.6,0.6l-2.8,2.7L20-5.1c-0.2-0.3-0.2-0.4-0.2-0.6l0.1-1 l-1.6-1.6L16.7-8c-0.3,0.1-0.4,0.1-0.7-0.2l-2.2-2.2c-0.2-0.2-0.3-0.4-0.1-0.7l0.9-2.3c-1.6-1.5-3.7-2.4-5.8-1.7 c-0.1,0-0.2,0-0.2,0C8.7-15.1,8.7-15.1,8.8-15.2z M2.3,2.4c-0.5-0.5-0.4-0.8,0-1.1l11-10.1l1.2,1.2L4.3,3.3C4,3.6,3.6,3.7,3.2,3.3 L2.3,2.4z"></path></g><text transform="matrix(1 0 0 1 1287.1193 1952.9185)" class="st2 st3">Exporting</text><text transform="matrix(1 0 0 1 1287.1193 1970.9185)" class="st4 st3">Symbols should be outlined when exporting to ensure the</text><text transform="matrix(1 0 0 1 1287.1193 1988.9185)" class="st4 st3">design is preserved when submitting to Xcode.</text><text id="template-version" transform="matrix(1 0 0 1 2956.969 1932.9185)" class="st4 st3">Template v.1.0</text><text transform="matrix(1 0 0 1 2899.3831 1950.9185)" class="st4 st3">Generated from house.fill</text><text transform="matrix(1 0 0 1 2920.0432 1968.9185)" class="st4 st3">Typeset at 100 points</text><text transform="matrix(1 0 0 1 261.1194 725.9184)" class="st4 st3">Small</text><text transform="matrix(1 0 0 1 261.1194 1155.9183)" class="st4 st3">Medium</text><text transform="matrix(1 0 0 1 261.1194 1585.9183)" class="st4 st3">Large</text></g><g id="Guides"><g id="H-reference" transform="matrix(1 0 0 1 339 696)"><path class="st6" d="M54.9,0h2.7l-27-70.5h-2.5L1,0h2.7L13-24.5h32.8L54.9,0z M29.2-67.1h0.2l15.4,40.4h-31L29.2-67.1z"></path></g><line id="Baseline-S" class="st7" x1="263" y1="696" x2="3036" y2="696"></line><line id="Capline-S" class="st7" x1="263" y1="625.5" x2="3036" y2="625.5"></line><g id="H-reference_1_" transform="matrix(1 0 0 1 339 1126)"><path class="st6" d="M54.9,0h2.7l-27-70.5h-2.5L1,0h2.7L13-24.5h32.8L54.9,0z M29.2-67.1h0.2l15.4,40.4h-31L29.2-67.1z"></path></g><line id="Baseline-M" class="st7" x1="263" y1="1126" x2="3036" y2="1126"></line><line id="Capline-M" class="st7" x1="263" y1="1055.5" x2="3036" y2="1055.5"></line><g id="H-reference_2_" transform="matrix(1 0 0 1 339 1556)"><path class="st6" d="M54.9,0h2.7l-27-70.5h-2.5L1,0h2.7L13-24.5h32.8L54.9,0z M29.2-67.1h0.2l15.4,40.4h-31L29.2-67.1z"></path></g><line id="Baseline-L" class="st7" x1="263" y1="1556" x2="3036" y2="1556"></line><line id="Capline-L" class="st7" x1="263" y1="1485.5" x2="3036" y2="1485.5"></line><rect id="left-margin" x="1380.4" y="1030.8" class="st5" width="12.5" height="119.3"></rect><rect id="right-margin" x="1506.9" y="1030.8" class="st5" width="12.5" height="119.3"></rect></g><g id="Black-L" transform="matrix(1 0 0 1 2831.86 1556)"><path d="M16.1-39.8c0,5.3,4.3,9.5,10.1,9.5c3,0,5.7-1.2,7.9-3.2l66.4-60.9c0.3-0.3,0.6-0.5,1.1-0.5c0.4,0,0.9,0.1,1.2,0.4l66.4,61 c2.2,2,4.9,3.2,7.9,3.2c5.8,0,10.1-4.2,10.1-9.5c0-2.7-0.6-5.3-3.8-8.3l-26.1-23.8v-40c0-3.1-2-5.1-5.1-5.1h-16.4 c-3.1,0-5.2,2-5.2,5.1v15.6l-15.7-14.3c-4.1-3.7-8.3-5.5-13.2-5.5c-4.8,0-9.1,1.9-13.1,5.5L19.9-48C16.6-45.1,16.1-42.5,16.1-39.8z M42.8,13.6c0,10.2,7.1,16.7,18.1,16.7h23.3v-47.5c0-3.1,2.1-5.2,5.2-5.2h24.4c3.1,0,5.1,2.1,5.1,5.2v47.5h23.4 c11,0,18.1-6.6,18.1-16.7v-43.9l-57.7-52.8c-0.3-0.3-0.7-0.5-1.1-0.5s-0.8,0.1-1.2,0.5L42.8-30.3V13.6z"></path></g><g id="Heavy-L" transform="matrix(1 0 0 1 2538.25 1556)"><path d="M16.1-39.9c0,4.6,3.8,8.2,8.8,8.2c2.6,0,5-1.1,6.9-2.9L97-94.4c0.4-0.4,0.8-0.6,1.4-0.6c0.5,0,1,0.1,1.5,0.5l65.2,59.9 c1.9,1.8,4.2,2.9,6.9,2.9c5,0,8.8-3.6,8.8-8.2c0-2.4-0.6-4.7-3.3-7.1l-24.8-22.7v-39.5c0-3-1.9-4.9-4.9-4.9h-14.2c-3,0-5,1.9-5,4.9 v17.6l-18.5-16.9c-3.6-3.3-7.5-4.8-11.8-4.8c-4.2,0-8.2,1.6-11.7,4.8L19.4-47.1C16.7-44.6,16.1-42.4,16.1-39.9z M40.6,13.4 c0,9.7,6.6,15.9,16.9,15.9h23.9v-46.8c0-3,2.1-5,5.1-5h23.9c3,0,5,2,5,5v46.8h24c10.4,0,16.9-6.2,16.9-15.9v-45L99.9-83 c-0.4-0.4-0.9-0.6-1.4-0.6s-1,0.2-1.5,0.7L40.6-31.4V13.4z"></path></g><g id="Bold-L" transform="matrix(1 0 0 1 2245.01 1556)"><path d="M16.1-40.1c0,3.9,3.2,6.8,7.3,6.8c2.2,0,4.2-1,5.9-2.5l64-58.5c0.5-0.5,1.1-0.7,1.8-0.7c0.6,0,1.2,0.2,1.8,0.7l63.9,58.5 c1.7,1.5,3.6,2.5,5.9,2.5c4.1,0,7.3-2.9,7.3-6.8c0-2.1-0.6-4-2.7-5.9l-23.4-21.4v-39c0-2.8-1.8-4.6-4.6-4.6h-11.8 c-2.8,0-4.6,1.8-4.6,4.6v19.9l-21.6-19.8c-3.1-2.8-6.4-4.2-10.2-4.2c-3.7,0-7,1.4-10.1,4.2L18.8-46C16.6-44,16.1-42.2,16.1-40.1z M38.1,13.2c0,9.2,6.1,14.9,15.7,14.9h24.6V-18c0-2.9,2-4.8,4.9-4.8h23.5c2.9,0,4.8,1.9,4.8,4.8v46.1h24.6 c9.7,0,15.7-5.8,15.7-14.9v-46.1l-55.1-50c-0.5-0.5-1.2-0.8-1.8-0.8c-0.6,0-1.3,0.2-1.9,0.8l-55,50.2L38.1,13.2L38.1,13.2z"></path></g><g id="Semibold-L" transform="matrix(1 0 0 1 1950.69 1556)"><path d="M16.1-40.2c0,3.4,2.7,5.8,6.3,5.8c2,0,3.7-0.9,5.1-2.2l63.1-57.7c0.6-0.6,1.3-0.9,2-0.9s1.4,0.3,2.1,0.9l63,57.7 c1.5,1.4,3.1,2.2,5.1,2.2c3.6,0,6.3-2.4,6.3-5.8c0-2-0.6-3.5-2.3-5.1l-22.6-20.6v-38.6c0-2.6-1.7-4.4-4.3-4.4h-10.1 c-2.6,0-4.4,1.8-4.4,4.4V-83l-23.8-21.7c-2.7-2.5-5.8-3.8-9-3.8s-6.3,1.3-8.9,3.8L18.4-45.3C16.6-43.7,16.1-42.1,16.1-40.2z M36.4,13c0,8.9,5.7,14.3,14.9,14.3h25v-45.6c0-2.9,1.9-4.7,4.8-4.7h23.1c2.9,0,4.7,1.8,4.7,4.7v45.6h25c9.2,0,14.8-5.4,14.8-14.3 v-46.9l-54.2-49c-0.7-0.6-1.4-0.9-2.1-0.9s-1.4,0.3-2.1,0.9l-54,49.4L36.4,13L36.4,13z"></path></g><g id="Medium-L" transform="matrix(1 0 0 1 1655.78 1556)"><path d="M16.1-40.3c0,3,2.4,5,5.5,5c1.8,0,3.3-0.8,4.6-2.1l62.5-57c0.7-0.7,1.4-1,2.1-1s1.5,0.3,2.2,0.9l62.4,57 c1.3,1.2,2.8,2.1,4.6,2.1c3.1,0,5.5-2.1,5.5-5c0-1.8-0.6-3.1-2-4.4l-21.8-19.9V-103c0-2.6-1.7-4.2-4.2-4.2h-8.7 c-2.5,0-4.3,1.7-4.3,4.2v22.6l-25.4-23.2c-2.4-2.3-5.3-3.4-8.2-3.4c-2.9,0-5.7,1.1-8.1,3.4L18.1-44.7 C16.6-43.4,16.1-42.1,16.1-40.3z M35.1,12.9c0,8.6,5.4,13.8,14.2,13.8h25.3v-45.2c0-2.8,1.9-4.6,4.7-4.6h22.9 c2.8,0,4.6,1.8,4.6,4.6v45.2h25.3c8.8,0,14.2-5.2,14.2-13.8v-47.5L92.9-82.8c-0.7-0.6-1.5-1-2.2-1c-0.8,0-1.6,0.3-2.3,1L35.1-34.1 V12.9z"></path></g><g id="Regular-L" transform="matrix(1 0 0 1 1361.44 1556)"><path d="M16.1-40.4c0,2.5,2,4.1,4.5,4.1c1.6,0,2.8-0.7,3.9-1.8L86-94.3c0.7-0.7,1.6-1,2.4-1s1.6,0.3,2.4,1l61.5,56.2 c1.1,1.1,2.3,1.8,3.9,1.8c2.5,0,4.5-1.6,4.5-4.1c0-1.6-0.6-2.6-1.6-3.6l-20.9-19v-38c0-2.5-1.6-4.1-4-4.1h-7.1 c-2.4,0-4.1,1.6-4.1,4.1v24.2L95.4-102c-2.1-2-4.6-2.9-7.1-2.9s-4.9,1-7,2.9L17.7-43.9C16.6-43,16.1-42,16.1-40.4z M33.4,12.8 c0,8.3,5,13.2,13.4,13.2h25.8v-44.7c0-2.7,1.8-4.5,4.5-4.5h22.6c2.7,0,4.5,1.8,4.5,4.5V26H130c8.4,0,13.4-4.9,13.4-13.2v-48.3 L90.8-82.7c-0.8-0.8-1.7-1.1-2.5-1.1c-0.9,0-1.7,0.3-2.5,1.2L33.4-34.9V12.8z"></path></g><g id="Light-L" transform="matrix(1 0 0 1 1066.44 1556)"><path d="M16.1-39.8c0,1.8,1.5,3,3.4,3c1.2,0,2.1-0.6,3-1.4l61.7-56.3c0.9-0.8,1.8-1.1,2.7-1.1c0.9,0,1.8,0.4,2.6,1.1L151-38.2 c0.8,0.8,1.7,1.4,2.9,1.4c1.9,0,3.4-1.2,3.4-3c0-1.2-0.4-2-1.2-2.7l-19.7-17.9v-39.1c0-2.1-1.4-3.4-3.3-3.4h-5.5 c-2,0-3.4,1.3-3.4,3.4v27.9L93-100.2c-1.9-1.8-4.2-2.6-6.4-2.6c-2.2,0-4.4,0.9-6.3,2.6l-63,57.6C16.5-41.8,16.1-41.1,16.1-39.8z M32.5,13.8c0,7.7,4.6,12.2,12.4,12.2H71v-44.6c0-2.5,1.7-4.1,4.2-4.1h23.2c2.5,0,4.1,1.6,4.1,4.1V26h26.1 c7.8,0,12.4-4.5,12.4-12.2v-51.3L89.6-83.3c-1-0.9-2.1-1.4-3-1.4c-1,0-2,0.4-3,1.4l-51,46.8L32.5,13.8L32.5,13.8z"></path></g><g id="Thin-L" transform="matrix(1 0 0 1 771.974 1556)"><path d="M16.1-39.2c0,1,0.7,1.7,1.9,1.7c0.8,0,1.3-0.3,1.8-0.8l61.9-56.5c1-0.9,2-1.3,3-1.3s2,0.5,2.8,1.3l61.9,56.5 c0.5,0.5,0.9,0.8,1.8,0.8c1.1,0,1.9-0.7,1.9-1.7c0-0.7-0.2-1.1-0.7-1.6l-18-16.5v-40.5c0-1.5-1.1-2.5-2.5-2.5h-3.3 c-1.4,0-2.5,1-2.5,2.5v33l-35.9-33c-1.7-1.5-3.6-2.3-5.6-2.3c-1.9,0-3.7,0.8-5.4,2.3l-62.3,57C16.3-40.3,16.1-39.8,16.1-39.2z M31.3,15c0,6.9,4.1,11,11,11H69v-44.4c0-2.2,1.4-3.6,3.6-3.6h23.9c2.1,0,3.6,1.4,3.6,3.6V26h26.7c6.9,0,11-4.1,11-11v-55.2 L88-84.2c-1.3-1.2-2.5-1.7-3.7-1.7s-2.4,0.5-3.7,1.7L31.3-38.6V15z"></path></g><g id="Ultralight-L" transform="matrix(1 0 0 1 476.41 1556)"><path d="M16.1-38.8c0,0.5,0.4,1,1.1,1c0.6,0,0.8-0.3,1.2-0.6l62-56.6c1-0.9,2.1-1.3,3.1-1.3s2.1,0.5,2.9,1.3l62,56.6 c0.3,0.3,0.5,0.6,1.1,0.6c0.7,0,1.1-0.5,1.1-1c0-0.4-0.1-0.7-0.4-1L133-55.5v-41.2c0-1.2-0.9-2.1-2.1-2.1h-2.2 c-1.2,0-2.1,0.8-2.1,2.1v35.5L88.3-96.5c-1.6-1.4-3.3-2.1-5.1-2.1c-1.7,0-3.4,0.7-4.9,2.1L16.5-39.8C16.2-39.5,16.1-39.2,16.1-38.8 z M30.7,15.7C30.7,22.1,34.5,26,41,26h26.9v-44.3c0-2,1.3-3.3,3.3-3.3h24.3c2,0,3.3,1.3,3.3,3.3V26h26.9c6.4,0,10.3-3.9,10.3-10.3 v-57.2L87.1-84.6c-1.4-1.3-2.7-1.9-4-1.9c-1.4,0-2.7,0.6-4.1,1.9L30.7-39.7V15.7z"></path></g><line class="st8" x1="-172" y1="466" x2="-172" y2="1732"></line><g transform="" id="Regular-M"><path class="st9" d="M1500.3,1140.4 l-3.3,-13.5 c-0.9,-3.8 -2.6,-7.3 -5,-10.4 c-2.4,-3 -5.5,-5.6 -8.9,-7.3 l-9.1,-4.6 c-1.2,-0.6 -2.2,-1.4 -3,-2.5 c-0.8,-1 -1.4,-2.3 -1.7,-3.5 l-1.5,-6.3 c1.6,-2.2 3,-4.4 4.2,-6.8 c3.1,-6.3 4.7,-13.3 4.7,-20.2 v-3 c0,-7.2 -2.8,-14 -7.8,-19.1 s-11.7,-8 -18.8,-8 c-7.1,0 -13.8,2.8 -18.9,8 c-5,5.1 -7.8,11.9 -7.8,19.1 v3 c0,7 1.6,14 4.7,20.2 c1.2,2.4 2.6,4.6 4.2,6.8 l-1.5,6.3 c-0.3,1.3 -0.9,2.5 -1.7,3.6 c-0.8,1 -1.8,1.9 -3,2.5 l-9.1,4.6 c-3.4,1.7 -6.5,4.3 -8.9,7.3 c-2.4,3.1 -4.1,6.6 -5,10.4 l-3.3,13.4 c-0.2,0.9 0,1.8 0.5,2.4 c0.5,0.7 1.4,1.1 2.2,1.1 h95.1 c0.9,0 1.7,-0.4 2.2,-1.1 C1500.3,1142.1 1500.5,1141.2 1500.3,1140.4  z M1429,1062.2 c0,-5.6 2.2,-11.2 6.1,-15.2 c4,-4 9.2,-6.2 14.8,-6.2 c5.6,0 10.8,2.2 14.8,6.2 c3.9,4 6.2,9.5 6.2,15.2 v3 c0,6.1 -1.4,12.2 -4.1,17.7 s-6.6,10.3 -11.4,14 c-3.1,2.4 -7.7,2.4 -10.8,0 c-4.8,-3.7 -8.7,-8.5 -11.4,-14 c-2.7,-5.5 -4.1,-11.6 -4.1,-17.7 L1429,1062.2 L1429,1062.2  z M1406,1138.2 l2.4,-9.9 c0.7,-3 2.1,-5.8 4,-8.2 c1.9,-2.4 4.3,-4.4 7,-5.7 l9.1,-4.6 c1.9,-1 3.6,-2.3 4.9,-4 s2.3,-3.6 2.8,-5.7 l0.6,-2.3 c1.4,1.4 2.8,2.6 4.3,3.8 c2.5,1.9 5.7,3 8.9,3 c3.2,0 6.3,-1.1 8.9,-3 c1.5,-1.2 2.9,-2.5 4.3,-3.8 l0.6,2.3 c0.5,2.1 1.5,4 2.8,5.7 s3,3 4.9,4 l9.1,4.6 c2.7,1.4 5.1,3.4 7,5.7 c1.9,2.4 3.3,5.2 4,8.2 l2.4,9.9 H1406  z "></path></g><g transform="" id="Medium-M"><path class="st9" d="M1796.9,1140.3 l-3.3,-13.5 c-1,-3.9 -2.7,-7.5 -5.2,-10.6 s-5.5,-5.6 -9.1,-7.4 l-9.1,-4.6 c-1.1,-0.6 -2.1,-1.3 -2.8,-2.3 c-0.8,-1 -1.3,-2.1 -1.6,-3.3 l-1.5,-6 c1.5,-2.1 2.9,-4.3 4.1,-6.7 c3.1,-6.3 4.7,-13.4 4.7,-20.5 v-3 c0,-7.4 -2.8,-14.3 -7.9,-19.5 s-12.1,-8.1 -19.3,-8.1 s-14.2,3 -19.3,8.1 c-5.1,5.2 -7.9,12.2 -7.9,19.6 v3 c0,7.1 1.6,14.2 4.7,20.5 c1.2,2.4 2.6,4.6 4.1,6.7 l-1.5,6 c-0.3,1.2 -0.9,2.4 -1.6,3.3 c-0.8,1 -1.7,1.8 -2.8,2.3 l-9.1,4.6 c-3.5,1.8 -6.6,4.3 -9.1,7.4 s-4.2,6.7 -5.2,10.6 l-3.3,13.4 c-0.3,1 0,2.1 0.6,2.9 s1.6,1.3 2.7,1.3 h95.1 c1.1,0 2,-0.5 2.7,-1.3 C1796.9,1142.4 1797.1,1141.3 1796.9,1140.3  z M1725.6,1062.2 c0,-5.5 2.2,-10.9 6,-14.8 s8.9,-6.1 14.4,-6.1 s10.5,2.2 14.4,6.1 c3.8,3.9 6,9.3 6,14.7 v3 c0,6 -1.4,12.1 -4,17.5 s-6.5,10.1 -11.3,13.8 c-2.9,2.2 -7.2,2.2 -10.1,0 c-4.7,-3.6 -8.6,-8.4 -11.3,-13.8 c-2.6,-5.4 -4,-11.4 -4,-17.5 L1725.6,1062.2 L1725.6,1062.2  z M1702.8,1137.6 l2.3,-9.2 c0.7,-2.9 2.1,-5.7 3.9,-8 c1.9,-2.4 4.1,-4.2 6.8,-5.6 l9.1,-4.6 c2,-1 3.7,-2.4 5.1,-4.2 c1.4,-1.7 2.4,-3.7 2.9,-5.9 l0.3,-1.3 c1.2,1.1 2.4,2.2 3.6,3.1 c2.6,2 5.9,3.1 9.2,3.1 s6.6,-1.1 9.2,-3.1 c1.3,-1 2.5,-2 3.7,-3.2 l0.3,1.3 c0.5,2.2 1.5,4.2 2.9,5.9 c1.4,1.7 3.1,3.2 5.1,4.2 l9.1,4.6 c2.6,1.3 4.9,3.2 6.8,5.6 c1.8,2.3 3.2,5.1 3.9,8 l2.3,9.2 L1702.8,1137.6 L1702.8,1137.6  z "></path></g><g transform="" id="Semibold-M"><path class="st9" d="M2094.3,1140.1 l-3.3,-13.5 c-1,-4 -2.7,-7.6 -5.3,-10.8 c-2.5,-3.2 -5.6,-5.8 -9.2,-7.6 l-9.1,-4.6 c-1,-0.5 -1.9,-1.3 -2.6,-2.2 c-0.7,-0.9 -1.2,-2 -1.5,-3.1 l-1.4,-5.8 c1.5,-2.1 2.9,-4.2 4,-6.5 c3.1,-6.4 4.8,-13.6 4.8,-20.7 v-3 c0,-7.5 -2.9,-14.6 -8.1,-19.9 c-5.3,-5.4 -12.2,-8.3 -19.7,-8.3 c-7.3,0 -14.5,3 -19.7,8.3 s-8.1,12.4 -8.1,19.9 v3 c0,7.2 1.7,14.3 4.8,20.7 c1.1,2.3 2.5,4.5 4,6.5 l-1.4,5.8 c-0.3,1.1 -0.8,2.2 -1.5,3.1 s-1.6,1.6 -2.6,2.2 l-9.1,4.6 c-3.6,1.8 -6.8,4.4 -9.2,7.6 c-2.5,3.2 -4.3,6.8 -5.3,10.8 l-3.3,13.4 c-0.3,1.2 0,2.5 0.7,3.4 c0.8,1 1.9,1.5 3.1,1.5 h95.1 c1.2,0 2.4,-0.6 3.1,-1.5 C2094.3,1142.6 2094.6,1141.3 2094.3,1140.1  z M2023.1,1062.2 c0,-5.3 2.1,-10.6 5.8,-14.3 c3.7,-3.8 8.7,-5.9 14,-5.9 c5.3,0 10.2,2.1 14,5.9 c3.7,3.8 5.8,9 5.8,14.3 v3 c0,5.9 -1.4,11.9 -4,17.2 c-2.6,5.3 -6.4,10 -11.1,13.6 c-2.7,2.1 -6.7,2.1 -9.4,0 c-4.7,-3.6 -8.5,-8.2 -11.1,-13.6 c-2.6,-5.3 -4,-11.3 -4,-17.2 V1062.2  z M2000.4,1137.1 l2.1,-8.5 c0.7,-2.9 2,-5.5 3.8,-7.8 s4.1,-4.1 6.6,-5.4 l9.1,-4.6 c2,-1 3.9,-2.5 5.3,-4.3 s2.5,-3.9 3,-6.2 l0.1,-0.4 c1,0.9 1.9,1.8 3,2.6 c2.7,2.1 6.1,3.2 9.6,3.2 c3.4,0 6.8,-1.2 9.6,-3.2 c1,-0.8 2,-1.7 3,-2.6 l0.1,0.4 c0.6,2.2 1.6,4.3 3,6.2 c1.4,1.8 3.2,3.3 5.3,4.3 l9.1,4.6 c2.6,1.3 4.8,3.1 6.6,5.4 s3.1,4.9 3.8,7.8 l2.1,8.5 H2000.4  z "></path></g><g transform="" id="Bold-M"><path class="st9" d="M2392.8,1140 l-3.3,-13.5 c-1,-4.1 -2.8,-7.8 -5.4,-11 c-2.5,-3.2 -5.8,-5.9 -9.4,-7.8 l-9.1,-4.6 c-1,-0.5 -1.8,-1.2 -2.4,-2 c-0.7,-0.9 -1.1,-1.8 -1.4,-2.9 l-1.4,-5.5 c1.4,-2 2.8,-4.2 3.9,-6.4 c3.2,-6.5 4.9,-13.7 4.9,-21 v-3 c0,-7.7 -2.9,-14.9 -8.3,-20.3 c-5.3,-5.4 -12.6,-8.5 -20.1,-8.5 c-7.6,0 -14.7,3 -20.1,8.5 c-5.3,5.4 -8.3,12.7 -8.3,20.3 v3 c0,7.2 1.7,14.5 4.9,21 c1.1,2.3 2.4,4.4 3.9,6.4 l-1.3,5.5 c-0.3,1.1 -0.8,2.1 -1.4,2.9 c-0.7,0.8 -1.5,1.5 -2.4,2 l-9.1,4.6 c-3.7,1.9 -6.9,4.5 -9.4,7.8 c-2.6,3.3 -4.4,7 -5.4,11 l-3.3,13.4 c-0.3,1.4 0,2.8 0.8,3.9 c0.9,1.1 2.2,1.7 3.6,1.7 h95.1 c1.4,0 2.7,-0.6 3.6,-1.7 C2392.8,1142.8 2393.1,1141.3 2392.8,1140  z M2321.6,1062.2 c0,-5.2 2.1,-10.3 5.7,-14 c3.6,-3.7 8.4,-5.7 13.6,-5.7 c5.1,0 9.9,2 13.6,5.7 c3.6,3.7 5.7,8.8 5.7,14 v3 c0,5.9 -1.4,11.7 -3.9,17 c-2.6,5.2 -6.3,9.8 -10.9,13.4 c-2.5,1.9 -6.2,1.9 -8.7,0 c-4.6,-3.5 -8.4,-8.1 -10.9,-13.4 c-2.6,-5.2 -3.9,-11.1 -3.9,-17 v-3 H2321.6  z M2299,1136.5 l1.9,-7.8 c0.7,-2.7 1.9,-5.4 3.7,-7.6 s3.9,-4 6.4,-5.3 l9.1,-4.6 c2.1,-1.1 4,-2.6 5.5,-4.5 c1.4,-1.7 2.3,-3.8 2.9,-5.9 c0.8,0.7 1.5,1.4 2.3,2 c2.8,2.2 6.4,3.4 9.9,3.4 s7.1,-1.2 9.9,-3.4 c0.8,-0.6 1.6,-1.3 2.3,-2 c0.6,2.2 1.6,4.2 2.9,5.9 c1.5,1.9 3.4,3.4 5.5,4.5 l9.1,4.6 c2.5,1.3 4.7,3.1 6.4,5.3 c1.8,2.2 3,4.8 3.7,7.6 l1.9,7.8 H2299  z "></path></g><g transform="" id="Heavy-M"><path class="st9" d="M2689.1,1139.8 l-3.3,-13.5 c-1,-4.1 -2.8,-7.9 -5.5,-11.2 c-2.6,-3.3 -5.9,-6 -9.6,-7.9 l-9.1,-4.6 c-0.9,-0.4 -1.6,-1.1 -2.3,-1.9 c-0.6,-0.8 -1.1,-1.7 -1.3,-2.7 l-1.3,-5.3 c1.4,-2 2.7,-4.1 3.8,-6.3 c3.2,-6.6 4.9,-13.9 4.9,-21.2 v-3 c0,-7.8 -3,-15.2 -8.4,-20.7 c-5.5,-5.6 -12.7,-8.6 -20.5,-8.6 c-7.6,0 -15.1,3.1 -20.5,8.6 s-8.4,12.9 -8.4,20.7 v3 c0,7.3 1.7,14.7 4.9,21.2 c1.1,2.2 2.4,4.3 3.8,6.3 l-1.3,5.3 c-0.2,1 -0.7,1.9 -1.3,2.7 c-0.6,0.8 -1.4,1.4 -2.3,1.8 l-9.1,4.6 c-3.8,1.9 -7,4.6 -9.6,7.9 s-4.5,7.1 -5.5,11.2 l-3.3,13.4 c-0.4,1.5 0,3.2 0.9,4.4 c1,1.2 2.5,2 4,2 h95.1 c1.6,0 3.1,-0.7 4,-2 C2689.1,1143 2689.4,1141.4 2689.1,1139.8  z M2617.9,1062.2 c0,-5.1 2,-10 5.5,-13.5 c3.5,-3.6 8.2,-5.6 13.1,-5.6 c5,0 9.6,2 13.1,5.6 s5.5,8.5 5.5,13.5 v3 c0,5.8 -1.3,11.6 -3.9,16.7 c-2.5,5.2 -6.3,9.7 -10.8,13.2 c-2.3,1.8 -5.7,1.8 -8,0 c-4.5,-3.5 -8.2,-8 -10.8,-13.2 c-2.5,-5.2 -3.9,-10.9 -3.9,-16.7 v-3 H2617.9  z M2595.5,1135.9 l1.7,-7.1 c0.7,-2.7 1.9,-5.2 3.6,-7.3 c1.7,-2.2 3.8,-3.9 6.2,-5.1 l9.1,-4.6 c2.2,-1.1 4.1,-2.7 5.7,-4.6 c1.3,-1.6 2.1,-3.4 2.8,-5.3 c0.6,0.5 1.1,1 1.7,1.5 c2.9,2.2 6.6,3.5 10.3,3.5 s7.3,-1.2 10.3,-3.5 c0.6,-0.5 1.2,-1 1.7,-1.5 c0.6,1.9 1.5,3.7 2.7,5.3 c1.5,2 3.4,3.5 5.7,4.6 l9.1,4.6 c2.4,1.2 4.5,3 6.2,5.1 s2.9,4.7 3.6,7.3 l1.7,7.1 H2595.5  z "></path></g><g transform="" id="Black-M"><path class="st9" d="M2986.7,1139.7 l-3.3,-13.5 c-1,-4.2 -2.9,-8.1 -5.6,-11.5 c-2.7,-3.4 -6,-6.1 -9.8,-8.1 l-9.1,-4.6 c-0.8,-0.4 -1.5,-1 -2.1,-1.7 s-1,-1.6 -1.2,-2.5 l-1.2,-5 c1.4,-2 2.6,-4 3.7,-6.1 c3.3,-6.6 5,-14.1 5,-21.5 v-3 c0,-8 -3.1,-15.5 -8.6,-21.1 s-13.1,-8.8 -20.9,-8.8 c-7.9,0 -15.3,3.1 -20.9,8.8 c-5.5,5.7 -8.6,13.2 -8.6,21.1 v3 c0,7.4 1.7,14.8 5,21.5 c1.1,2.1 2.3,4.2 3.7,6.1 l-1.2,5 c-0.2,0.9 -0.6,1.7 -1.2,2.5 c-0.6,0.7 -1.3,1.3 -2.1,1.7 l-9.1,4.6 c-3.8,2 -7.1,4.7 -9.8,8.1 s-4.5,7.2 -5.6,11.5 l-3.3,13.4 c-0.4,1.7 0,3.5 1.1,4.9 s2.7,2.2 4.5,2.2 h95.1 c1.8,0 3.4,-0.8 4.5,-2.2 C2986.7,1143.2 2987.1,1141.4 2986.7,1139.7  z M2915.5,1062.2 c0,-4.9 1.9,-9.7 5.3,-13.2 c3.4,-3.5 7.9,-5.4 12.7,-5.4 s9.3,1.9 12.7,5.4 s5.3,8.3 5.3,13.2 v3 c0,5.7 -1.3,11.4 -3.8,16.5 s-6.2,9.5 -10.6,13 c-2.1,1.6 -5.2,1.6 -7.3,0 c-4.4,-3.4 -8.1,-7.9 -10.6,-12.9 c-2.5,-5.1 -3.8,-10.8 -3.8,-16.5 v-3.1 H2915.5  z M2893.3,1135.4 l1.6,-6.4 c0.7,-2.6 1.8,-5 3.5,-7.1 c1.6,-2.1 3.7,-3.8 6,-5 l9.1,-4.6 c2.3,-1.2 4.2,-2.8 5.8,-4.8 c1.1,-1.4 1.9,-3 2.5,-4.7 c0.4,0.3 0.7,0.7 1.1,1 c3,2.3 6.8,3.6 10.6,3.6 s7.6,-1.3 10.6,-3.6 c0.4,-0.3 0.8,-0.7 1.1,-1 c0.6,1.7 1.4,3.3 2.5,4.7 c1.6,2 3.6,3.7 5.8,4.8 l9.1,4.6 c2.3,1.2 4.4,2.9 6,5 c1.7,2.1 2.8,4.5 3.5,7.1 l1.6,6.4 H2893.3  z "></path></g><g transform="" id="Light-M"><path class="st9" d="M1202.9,1140.5 l-3.3,-13.5 c-0.9,-3.7 -2.6,-7.2 -4.9,-10.2 s-5.3,-5.4 -8.7,-7.1 l-9.1,-4.6 c-1.2,-0.6 -2.3,-1.5 -3.2,-2.6 c-0.9,-1.1 -1.5,-2.4 -1.8,-3.8 l-1.6,-6.5 c1.6,-2.2 3.1,-4.5 4.3,-6.9 c3,-6.2 4.6,-13.1 4.6,-20 v-3 c0,-7.1 -2.7,-13.7 -7.6,-18.7 s-11.5,-7.8 -18.4,-7.8 c-7,0 -13.5,2.8 -18.4,7.8 s-7.6,11.7 -7.6,18.7 v3 c0,6.9 1.6,13.8 4.6,20 c1.2,2.5 2.7,4.7 4.3,6.9 l-1.6,6.6 c-0.3,1.4 -1,2.7 -1.8,3.8 c-0.9,1.1 -1.9,2 -3.2,2.6 l-9.1,4.6 c-3.3,1.7 -6.3,4.2 -8.7,7.1 c-2.4,3 -4,6.4 -4.9,10.2 l-3.3,13.4 c-0.2,0.7 0,1.4 0.4,2 s1.1,0.9 1.8,0.9 h95.1 c0.7,0 1.4,-0.3 1.8,-0.9 C1202.9,1141.9 1203.1,1141.2 1202.9,1140.5  z M1131.6,1065.3 v-3 c0,-5.8 2.3,-11.5 6.3,-15.5 c4.1,-4.1 9.5,-6.4 15.2,-6.4 s11.1,2.3 15.2,6.4 c4,4.1 6.3,9.8 6.3,15.5 v3 c0,6.2 -1.4,12.4 -4.2,18 c-2.7,5.6 -6.7,10.4 -11.6,14.2 c-3.3,2.5 -8.2,2.5 -11.5,0 c-4.9,-3.7 -8.9,-8.6 -11.6,-14.2 C1133.1,1077.7 1131.6,1071.5 1131.6,1065.3  z M1108.5,1138.8 l2.6,-10.6 c0.8,-3.1 2.1,-5.9 4.1,-8.4 c1.9,-2.4 4.4,-4.5 7.2,-5.9 l9.1,-4.6 c1.8,-0.9 3.4,-2.2 4.7,-3.9 c1.3,-1.6 2.2,-3.5 2.7,-5.5 l0.8,-3.3 c1.6,1.6 3.2,3.2 5,4.5 c2.4,1.9 5.5,2.9 8.5,2.9 c3.1,0 6.1,-1 8.5,-2.9 c1.8,-1.4 3.4,-2.9 5,-4.5 l0.8,3.3 c0.5,2 1.4,3.9 2.7,5.5 c1.3,1.6 2.9,2.9 4.7,3.9 l9.1,4.6 c2.8,1.4 5.2,3.4 7.2,5.9 s3.3,5.3 4.1,8.4 l2.6,10.6 H1108.5  z "></path></g><g transform="" id="Thin-M"><path class="st9" d="M906.3,1140.7 l-3.3,-13.5 c-0.9,-3.7 -2.5,-7 -4.8,-9.9 s-5.2,-5.3 -8.5,-7 l-9.1,-4.6 c-1.3,-0.7 -2.5,-1.6 -3.4,-2.8 c-0.9,-1.2 -1.6,-2.5 -1.9,-4 l-1.7,-6.8 c1.7,-2.2 3.2,-4.6 4.4,-7.1 c3,-6.1 4.6,-12.9 4.6,-19.7 v-3 c0,-6.9 -2.6,-13.4 -7.5,-18.3 c-4.8,-4.9 -11.2,-7.6 -18,-7.6 s-13.2,2.7 -18,7.6 s-7.5,11.4 -7.5,18.3 v3 c0,6.8 1.6,13.6 4.6,19.7 c1.2,2.5 2.7,4.8 4.4,7.1 l-1.7,6.8 c-0.4,1.4 -1,2.8 -1.9,4 s-2.1,2.1 -3.4,2.8 l-9.1,4.6 c-3.3,1.7 -6.2,4.1 -8.5,7 s-3.9,6.3 -4.8,9.9 l-3.3,13.4 c-0.1,0.5 0,1.1 0.3,1.5 s0.8,0.7 1.3,0.7 h95.1 c0.5,0 1,-0.2 1.3,-0.7 C906.3,1141.7 906.5,1141.2 906.3,1140.7  z M835,1065.3 v-3 c0,-5.9 2.4,-11.8 6.5,-16 c4.2,-4.2 9.7,-6.6 15.6,-6.6 s11.4,2.3 15.6,6.6 c4.1,4.2 6.5,10 6.5,16 v3 c0,6.3 -1.5,12.6 -4.2,18.2 c-2.8,5.6 -6.8,10.6 -11.8,14.4 c-3.5,2.7 -8.7,2.7 -12.2,0 c-4.9,-3.8 -9,-8.7 -11.8,-14.4 C836.5,1077.9 835,1071.6 835,1065.3  z M811.7,1139.4 l2.8,-11.3 c0.8,-3.2 2.2,-6.1 4.2,-8.6 s4.5,-4.6 7.3,-6.1 l9.1,-4.6 c1.8,-0.9 3.3,-2.1 4.5,-3.7 c1.2,-1.5 2.1,-3.4 2.6,-5.3 l1.1,-4.4 c1.7,1.9 3.6,3.7 5.6,5.2 c2.3,1.8 5.2,2.8 8.2,2.8 c2.9,0 5.8,-1 8.2,-2.8 c2,-1.6 3.9,-3.3 5.6,-5.2 l1.1,4.3 c0.5,1.9 1.4,3.7 2.6,5.3 c1.2,1.6 2.8,2.8 4.5,3.7 l9.1,4.6 c2.8,1.4 5.4,3.5 7.3,6 c2,2.6 3.4,5.5 4.2,8.6 l2.8,11.3 h-90.8 V1139.4  z "></path></g><g transform="" id="Ultralight-M"><path class="st9" d="M605.5,1127.3 c-0.9,-3.6 -2.5,-6.9 -4.7,-9.7 c-2.2,-2.8 -5.1,-5.2 -8.3,-6.8 l-9.1,-4.6 c-1.4,-0.7 -2.6,-1.7 -3.6,-2.9 c-1,-1.2 -1.7,-2.7 -2.1,-4.2 l-1.7,-7 c1.7,-2.3 3.3,-4.6 4.5,-7.2 c2.9,-6 4.5,-12.8 4.5,-19.5 v-3 c0,-6.8 -2.6,-13.2 -7.3,-17.9 c-4.7,-4.8 -11,-7.4 -17.6,-7.4 s-12.9,2.6 -17.6,7.4 c-4.7,4.8 -7.3,11.2 -7.3,17.9 v3 c0,6.7 1.6,13.5 4.5,19.5 c1.3,2.6 2.8,4.9 4.5,7.2 l-1.7,7.1 c-0.4,1.5 -1.1,3 -2.1,4.2 s-2.2,2.2 -3.6,2.9 l-9.1,4.6 c-3.2,1.6 -6.1,4 -8.3,6.8 c-2.3,2.9 -3.9,6.2 -4.7,9.7 l-3.3,13.4 c-0.1,0.3 0,0.7 0.2,1 s0.5,0.4 0.9,0.4 h95.1 c0.4,0 0.7,-0.2 0.9,-0.4 c0.2,-0.3 0.3,-0.6 0.2,-1 L605.5,1127.3  z M537.5,1065.3 v-3 c0,-6.1 2.4,-12 6.6,-16.3 c4.3,-4.4 10,-6.8 16,-6.8 s11.7,2.4 16,6.8 s6.6,10.2 6.6,16.3 v3 c0,6.4 -1.5,12.8 -4.3,18.5 s-6.9,10.7 -11.9,14.6 c-3.7,2.8 -9.2,2.8 -12.9,0 c-5,-3.8 -9.1,-8.9 -11.9,-14.6 C539,1078 537.5,1071.7 537.5,1065.3  z M514,1139.9 l2.9,-12 c0.8,-3.3 2.2,-6.2 4.3,-8.9 c2,-2.6 4.6,-4.7 7.5,-6.2 l9.1,-4.6 c1.7,-0.9 3.2,-2.1 4.3,-3.6 c1.2,-1.5 2,-3.2 2.5,-5.1 l1.3,-5.4 c1.9,2.2 4,4.2 6.3,6 c2.2,1.7 5,2.7 7.8,2.7 s5.6,-0.9 7.8,-2.7 c2.3,-1.7 4.4,-3.8 6.3,-6 l1.3,5.4 c0.5,1.8 1.3,3.6 2.5,5.1 s2.6,2.7 4.3,3.6 l9.1,4.6 c2.9,1.5 5.5,3.6 7.5,6.2 c2.1,2.6 3.5,5.6 4.3,8.9 l2.9,12 H514  z "></path></g><g transform="" id="Regular-S"><path class="st9" d="M1488.9,699.9 l-2.6,-10.4 c-0.7,-3 -2,-5.7 -3.9,-8 c-1.8,-2.3 -4.2,-4.3 -6.9,-5.7 l-7.1,-3.6 c-0.9,-0.5 -1.7,-1.1 -2.3,-1.9 c-0.6,-0.8 -1.1,-1.8 -1.3,-2.7 l-1.2,-4.9 c1.2,-1.7 2.3,-3.4 3.3,-5.3 c2.4,-4.8 3.6,-10.3 3.6,-15.7 v-2.3 c0,-5.6 -2.1,-10.9 -6,-14.8 c-3.9,-4 -9.1,-6.2 -14.6,-6.2 s-10.7,2.2 -14.6,6.2 s-6,9.2 -6,14.8 v2.3 c0,5.4 1.3,10.8 3.6,15.7 c0.9,1.9 2,3.6 3.3,5.3 l-1.2,4.9 c-0.2,1 -0.7,2 -1.3,2.8 c-0.6,0.8 -1.4,1.5 -2.3,1.9 l-7.1,3.6 c-2.6,1.3 -5,3.3 -6.9,5.7 s-3.2,5.1 -3.9,8 l-2.6,10.4 c-0.2,0.7 0,1.4 0.4,1.9 s1.1,0.8 1.7,0.8 h73.7 c0.7,0 1.3,-0.3 1.7,-0.8 C1488.9,701.3 1489.1,700.6 1488.9,699.9  z M1433.7,639.4 c0,-4.4 1.7,-8.7 4.8,-11.7 c3.1,-3.1 7.1,-4.8 11.5,-4.8 s8.4,1.7 11.4,4.8 s4.8,7.4 4.8,11.7 v2.3 c0,4.7 -1.1,9.5 -3.2,13.7 s-5.1,8 -8.9,10.8 c-2.4,1.8 -6,1.8 -8.4,0 c-3.7,-2.8 -6.8,-6.6 -8.9,-10.8 s-3.2,-9 -3.2,-13.7 L1433.7,639.4 L1433.7,639.4  z M1415.9,698.2 l1.9,-7.7 c0.6,-2.3 1.6,-4.5 3.1,-6.4 c1.5,-1.8 3.3,-3.4 5.4,-4.4 l7.1,-3.6 c1.5,-0.8 2.8,-1.8 3.8,-3.1 s1.8,-2.8 2.2,-4.4 l0.4,-1.8 c1.1,1.1 2.2,2 3.3,2.9 c2,1.5 4.4,2.3 6.9,2.3 s4.9,-0.8 6.9,-2.3 c1.2,-0.9 2.3,-1.9 3.3,-3 l0.4,1.8 c0.4,1.6 1.1,3.1 2.2,4.4 c1,1.3 2.3,2.4 3.8,3.1 l7.1,3.6 c2.1,1.1 3.9,2.6 5.4,4.4 c1.5,1.9 2.5,4 3.1,6.4 l1.9,7.7 L1415.9,698.2 L1415.9,698.2  z "></path></g><g transform="" id="Medium-S"><path class="st9" d="M1786.1,699.8 l-2.6,-10.4 c-0.7,-3 -2.1,-5.8 -4,-8.2 s-4.3,-4.4 -7,-5.8 l-7.1,-3.6 c-0.9,-0.4 -1.6,-1 -2.2,-1.8 s-1,-1.6 -1.3,-2.6 l-1.1,-4.7 c1.2,-1.6 2.3,-3.3 3.2,-5.2 c2.4,-4.9 3.7,-10.4 3.7,-15.9 v-2.3 c0,-5.7 -2.2,-11.1 -6.2,-15.1 c-3.9,-4 -9.4,-6.3 -14.9,-6.3 s-11,2.3 -14.9,6.3 c-4,4 -6.2,9.4 -6.2,15.2 v2.3 c0,5.5 1.3,11 3.7,15.9 c0.9,1.8 2,3.5 3.2,5.2 l-1.1,4.7 c-0.2,1 -0.7,1.8 -1.3,2.6 c-0.6,0.8 -1.3,1.4 -2.2,1.8 l-7.1,3.6 c-2.7,1.4 -5.1,3.3 -7,5.8 c-1.9,2.4 -3.3,5.2 -4,8.2 l-2.5,10.4 c-0.2,0.8 0,1.6 0.5,2.3 c0.5,0.6 1.3,1 2.1,1 h73.7 c0.8,0 1.6,-0.4 2.1,-1 C1786.2,701.4 1786.3,700.6 1786.1,699.8  z M1730.9,639.4 c0,-4.3 1.7,-8.4 4.6,-11.4 c3,-3 6.9,-4.7 11.1,-4.7 s8.2,1.7 11.1,4.7 s4.6,7.2 4.6,11.4 v2.3 c0,4.7 -1.1,9.4 -3.1,13.5 c-2,4.2 -5.1,7.9 -8.7,10.7 c-2.3,1.7 -5.6,1.7 -7.8,0 c-3.7,-2.8 -6.7,-6.5 -8.7,-10.7 c-2.1,-4.2 -3.1,-8.9 -3.1,-13.5 V639.4  z M1713.2,697.8 l1.7,-7.1 c0.5,-2.2 1.6,-4.4 3,-6.2 s3.2,-3.3 5.3,-4.3 l7.1,-3.6 c1.5,-0.8 2.9,-1.9 3.9,-3.2 c1.1,-1.4 1.8,-2.9 2.3,-4.6 l0.2,-1 c0.9,0.9 1.8,1.7 2.8,2.4 c2,1.6 4.6,2.4 7.1,2.4 s5.1,-0.9 7.1,-2.4 c1,-0.8 1.9,-1.6 2.8,-2.4 l0.2,1 c0.4,1.7 1.2,3.2 2.2,4.6 c1.1,1.3 2.4,2.5 3.9,3.2 l7.1,3.6 c2,1 3.8,2.5 5.3,4.3 c1.4,1.8 2.5,3.9 3,6.2 l1.8,7.1 H1713.2  z "></path></g><g transform="" id="Semibold-S"><path class="st9" d="M2083.2,699.7 l-2.5,-10.4 c-0.8,-3.1 -2.1,-5.9 -4.1,-8.4 s-4.4,-4.5 -7.2,-5.9 l-7.1,-3.6 c-0.8,-0.4 -1.5,-1 -2,-1.7 c-0.6,-0.7 -1,-1.5 -1.2,-2.4 l-1.1,-4.5 c1.2,-1.6 2.2,-3.3 3.1,-5.1 c2.4,-5 3.7,-10.5 3.7,-16.1 v-2.3 c0,-5.8 -2.2,-11.3 -6.3,-15.5 c-4.1,-4.1 -9.5,-6.4 -15.2,-6.4 s-11.2,2.3 -15.2,6.4 c-4,4.1 -6.3,9.6 -6.3,15.5 v2.3 c0,5.5 1.3,11.1 3.7,16.1 c0.9,1.8 1.9,3.5 3.1,5.1 l-1.1,4.5 c-0.2,0.9 -0.6,1.7 -1.2,2.4 s-1.2,1.3 -2,1.7 l-7.1,3.6 c-2.8,1.4 -5.2,3.4 -7.2,5.9 c-1.9,2.5 -3.3,5.3 -4.1,8.4 l-2.6,10.4 c-0.2,0.9 0,1.9 0.6,2.7 c0.6,0.7 1.5,1.2 2.4,1.2 h73.7 c1,0 1.8,-0.4 2.4,-1.2 C2083.2,701.6 2083.4,700.6 2083.2,699.7  z M2028,639.4 c0,-4.1 1.6,-8.2 4.5,-11.1 c2.9,-2.9 6.7,-4.6 10.8,-4.6 s7.9,1.6 10.8,4.6 c2.9,2.9 4.5,7 4.5,11.1 v2.3 c0,4.6 -1.1,9.2 -3.1,13.3 s-5,7.7 -8.6,10.5 c-2.1,1.6 -5.2,1.6 -7.3,0 c-3.6,-2.8 -6.6,-6.4 -8.6,-10.5 s-3.1,-8.7 -3.1,-13.3 L2028,639.4 L2028,639.4  z M2010.4,697.3 l1.6,-6.6 c0.5,-2.2 1.5,-4.2 2.9,-6 c1.4,-1.7 3.1,-3.2 5.1,-4.2 l7,-3.6 c1.6,-0.8 3,-2 4.1,-3.4 s1.9,-3 2.3,-4.8 l0.1,-0.3 c0.7,0.7 1.5,1.4 2.3,2 c2.1,1.6 4.8,2.5 7.4,2.5 c2.7,0 5.3,-0.9 7.4,-2.5 c0.8,-0.6 1.6,-1.3 2.3,-2 l0.1,0.3 c0.4,1.7 1.2,3.4 2.3,4.8 c1.1,1.4 2.5,2.5 4.1,3.4 l7.1,3.6 c2,1 3.7,2.4 5.1,4.2 c1.4,1.8 2.4,3.8 2.9,6 l1.6,6.6 H2010.4  z "></path></g><g transform="" id="Bold-S"><path class="st9" d="M2380.3,699.6 l-2.6,-10.4 c-0.8,-3.1 -2.2,-6 -4.2,-8.6 c-2,-2.5 -4.5,-4.6 -7.3,-6 l-7.1,-3.6 c-0.7,-0.4 -1.4,-0.9 -1.9,-1.6 c-0.5,-0.7 -0.9,-1.4 -1.1,-2.2 l-1,-4.3 c1.1,-1.6 2.2,-3.2 3,-5 c2.5,-5 3.8,-10.7 3.8,-16.3 v-2.3 c0,-6 -2.3,-11.6 -6.4,-15.8 c-4.1,-4.2 -9.8,-6.6 -15.6,-6.6 c-5.9,0 -11.4,2.3 -15.6,6.6 c-4.1,4.2 -6.4,9.8 -6.4,15.8 v2.3 c0,5.6 1.3,11.2 3.8,16.3 c0.9,1.7 1.9,3.4 3,5 l-1,4.3 c-0.2,0.8 -0.6,1.6 -1.1,2.2 c-0.5,0.6 -1.2,1.2 -1.9,1.6 l-7.1,3.6 c-2.9,1.5 -5.3,3.5 -7.3,6 s-3.4,5.4 -4.2,8.6 l-2.5,10.4 c-0.3,1.1 0,2.2 0.7,3 c0.7,0.9 1.7,1.4 2.8,1.4 h73.7 c1.1,0 2.1,-0.5 2.8,-1.4 C2380.3,701.8 2380.5,700.7 2380.3,699.6  z M2325.1,639.4 c0,-4 1.6,-8 4.4,-10.8 c2.8,-2.9 6.5,-4.4 10.5,-4.4 s7.7,1.6 10.5,4.4 c2.8,2.8 4.4,6.8 4.4,10.8 v2.3 c0,4.5 -1.1,9.1 -3,13.2 c-2,4.1 -4.9,7.6 -8.5,10.3 c-1.9,1.5 -4.8,1.5 -6.8,0 c-3.6,-2.7 -6.5,-6.3 -8.5,-10.4 c-2,-4.1 -3,-8.6 -3,-13.2 L2325.1,639.4 L2325.1,639.4  z M2307.6,696.9 l1.5,-6 c0.5,-2.1 1.5,-4.1 2.8,-5.9 c1.4,-1.7 3,-3.1 5,-4.1 l7.1,-3.6 c1.7,-0.8 3.1,-2 4.2,-3.5 c1.1,-1.3 1.8,-2.9 2.3,-4.6 c0.6,0.5 1.2,1.1 1.8,1.6 c2.2,1.7 4.9,2.6 7.7,2.6 c2.7,0 5.5,-0.9 7.7,-2.6 c0.6,-0.5 1.2,-1 1.8,-1.6 c0.5,1.7 1.2,3.2 2.3,4.6 c1.1,1.4 2.6,2.7 4.2,3.5 l7.1,3.6 c1.9,1 3.6,2.4 5,4.1 c1.4,1.7 2.3,3.7 2.8,5.9 l1.5,6.1 L2307.6,696.9 L2307.6,696.9  z "></path></g><g transform="" id="Heavy-S"><path class="st9" d="M2677.6,699.5 l-2.5,-10.4 c-0.8,-3.2 -2.2,-6.1 -4.2,-8.7 c-2,-2.6 -4.5,-4.7 -7.5,-6.1 l-7.1,-3.6 c-0.7,-0.3 -1.3,-0.8 -1.7,-1.4 c-0.5,-0.6 -0.8,-1.3 -1,-2.1 l-1,-4.1 c1.1,-1.6 2.1,-3.2 2.9,-4.9 c2.5,-5.1 3.8,-10.8 3.8,-16.5 v-2.3 c0,-6.1 -2.3,-11.8 -6.5,-16.1 s-9.9,-6.7 -15.9,-6.7 c-5.9,0 -11.7,2.4 -15.9,6.7 s-6.5,10 -6.5,16.1 v2.3 c0,5.7 1.3,11.4 3.8,16.5 c0.8,1.7 1.8,3.3 2.9,4.9 l-1,4.1 c-0.2,0.8 -0.5,1.5 -1,2.1 s-1.1,1.1 -1.7,1.4 l-7.1,3.6 c-2.9,1.5 -5.4,3.6 -7.5,6.1 c-2,2.6 -3.5,5.5 -4.2,8.7 l-2.6,10.4 c-0.3,1.2 0,2.4 0.7,3.4 c0.8,1 1.9,1.5 3.1,1.5 h73.7 c1.2,0 2.4,-0.6 3.1,-1.5 C2677.6,701.9 2677.9,700.7 2677.6,699.5  z M2622.4,639.4 c0,-3.9 1.6,-7.7 4.3,-10.5 s6.3,-4.3 10.2,-4.3 c3.8,0 7.5,1.5 10.2,4.3 s4.3,6.6 4.3,10.5 v2.3 c0,4.5 -1,9 -3,13 s-4.8,7.5 -8.3,10.2 c-1.8,1.4 -4.4,1.4 -6.2,0 c-3.5,-2.7 -6.4,-6.2 -8.3,-10.2 c-2,-4 -3,-8.5 -3,-13 v-2.3 H2622.4  z M2605.1,696.5 l1.3,-5.5 c0.5,-2.1 1.5,-4 2.8,-5.7 s2.9,-3 4.8,-4 l7,-3.6 c1.7,-0.9 3.2,-2.1 4.4,-3.6 c1,-1.2 1.6,-2.6 2.1,-4.1 c0.5,0.4 0.9,0.8 1.3,1.2 c2.3,1.7 5.1,2.7 7.9,2.7 c2.8,0 5.7,-1 7.9,-2.7 c0.5,-0.4 0.9,-0.8 1.3,-1.2 c0.5,1.5 1.2,2.9 2.1,4.1 c1.2,1.5 2.7,2.7 4.4,3.6 l7.1,3.6 c1.9,1 3.5,2.3 4.8,4 s2.3,3.6 2.8,5.7 l1.3,5.5 H2605.1  z "></path></g><g transform="" id="Black-S"><path class="st9" d="M2975.2,699.4 l-2.6,-10.4 c-0.8,-3.3 -2.3,-6.3 -4.3,-8.9 c-2.1,-2.6 -4.6,-4.7 -7.6,-6.3 l-7.1,-3.6 c-0.6,-0.3 -1.2,-0.8 -1.6,-1.3 c-0.4,-0.6 -0.8,-1.2 -0.9,-1.9 l-0.9,-3.9 c1.1,-1.5 2,-3.1 2.9,-4.8 c2.5,-5.1 3.9,-10.9 3.9,-16.7 v-2.3 c0,-6.2 -2.4,-12 -6.7,-16.4 c-4.3,-4.3 -10.2,-6.8 -16.2,-6.8 c-6.1,0 -11.9,2.4 -16.2,6.8 c-4.3,4.4 -6.7,10.2 -6.7,16.4 v2.3 c0,5.7 1.3,11.5 3.9,16.7 c0.8,1.7 1.8,3.2 2.9,4.8 l-0.9,3.9 c-0.2,0.7 -0.5,1.4 -0.9,1.9 c-0.4,0.6 -1,1 -1.6,1.3 l-7.1,3.6 c-3,1.5 -5.5,3.6 -7.6,6.3 c-2.1,2.6 -3.5,5.6 -4.3,8.9 l-2.5,10.4 c-0.3,1.3 0,2.7 0.8,3.8 s2.1,1.7 3.5,1.7 h73.7 c1.4,0 2.6,-0.6 3.5,-1.7 C2975.2,702.1 2975.5,700.7 2975.2,699.4  z M2920.1,639.4 c0,-3.8 1.5,-7.5 4.1,-10.2 s6.1,-4.2 9.9,-4.2 c3.7,0 7.2,1.5 9.9,4.2 c2.6,2.7 4.1,6.4 4.1,10.2 v2.3 c0,4.4 -1,8.8 -3,12.8 c-1.9,3.9 -4.8,7.4 -8.2,10 c-1.6,1.3 -4,1.3 -5.7,0 c-3.4,-2.6 -6.3,-6.1 -8.2,-10 s-3,-8.4 -3,-12.8 L2920.1,639.4 L2920.1,639.4  z M2902.8,696 l1.2,-4.9 c0.5,-2 1.4,-3.9 2.7,-5.5 s2.8,-2.9 4.7,-3.8 l7.1,-3.6 c1.8,-0.9 3.3,-2.2 4.5,-3.7 c0.9,-1.1 1.5,-2.3 2,-3.6 c0.3,0.2 0.6,0.5 0.9,0.8 c2.4,1.8 5.3,2.8 8.2,2.8 s5.9,-1 8.2,-2.8 c0.3,-0.2 0.6,-0.5 0.9,-0.8 c0.5,1.3 1.1,2.5 2,3.6 c1.2,1.5 2.8,2.8 4.5,3.7 l7.1,3.6 c1.8,0.9 3.4,2.2 4.7,3.8 s2.2,3.5 2.7,5.5 l1.2,5 L2902.8,696 L2902.8,696  z "></path></g><g transform="" id="Light-S"><path class="st9" d="M1191.3,700 l-2.6,-10.4 c-0.7,-2.9 -2,-5.5 -3.8,-7.9 c-1.8,-2.3 -4.1,-4.2 -6.7,-5.5 l-7.1,-3.6 c-1,-0.5 -1.8,-1.2 -2.5,-2 c-0.7,-0.9 -1.2,-1.9 -1.4,-2.9 l-1.2,-5.1 c1.3,-1.7 2.4,-3.5 3.3,-5.4 c2.3,-4.8 3.6,-10.1 3.6,-15.5 v-2.3 c0,-5.5 -2.1,-10.6 -5.9,-14.5 s-8.9,-6 -14.3,-6 s-10.5,2.1 -14.3,6 s-5.9,9 -5.9,14.5 v2.3 c0,5.3 1.2,10.7 3.6,15.5 c0.9,1.9 2.1,3.7 3.3,5.4 l-1.2,5.1 c-0.3,1.1 -0.8,2.1 -1.4,2.9 c-0.7,0.9 -1.5,1.5 -2.5,2 l-7.1,3.6 c-2.6,1.3 -4.9,3.2 -6.7,5.5 c-1.8,2.3 -3.1,5 -3.8,7.9 l-2.6,10.4 c-0.1,0.5 0,1.1 0.3,1.5 s0.8,0.7 1.4,0.7 h73.7 c0.5,0 1.1,-0.2 1.4,-0.7 C1191.3,701.1 1191.4,700.6 1191.3,700  z M1136.1,641.7 v-2.3 c0,-4.5 1.8,-8.9 4.9,-12.1 c3.1,-3.2 7.3,-5 11.8,-5 c4.4,0 8.6,1.8 11.8,5 c3.1,3.2 4.9,7.6 4.9,12.1 v2.3 c0,4.8 -1.1,9.6 -3.2,13.9 c-2.1,4.3 -5.2,8.1 -9,11 c-2.6,2 -6.3,2 -8.9,0 c-3.8,-2.9 -6.9,-6.7 -9,-11 C1137.2,651.3 1136.1,646.5 1136.1,641.7  z M1118.1,698.7 l2,-8.2 c0.6,-2.4 1.7,-4.6 3.2,-6.5 s3.4,-3.5 5.5,-4.6 l7.1,-3.6 c1.4,-0.7 2.7,-1.7 3.6,-3 c1,-1.3 1.7,-2.7 2.1,-4.3 l0.6,-2.6 c1.2,1.3 2.5,2.5 3.8,3.5 c1.9,1.4 4.2,2.2 6.6,2.2 s4.7,-0.8 6.6,-2.2 c1.4,-1.1 2.6,-2.3 3.8,-3.5 l0.6,2.6 c0.4,1.6 1.1,3 2.1,4.3 s2.2,2.3 3.6,3 l7.1,3.6 c2.1,1.1 4.1,2.7 5.5,4.6 c1.5,1.9 2.6,4.1 3.2,6.5 l2,8.2 H1118.1  z "></path></g><g transform="" id="Thin-S"><path class="st9" d="M894.9,700.1 l-2.6,-10.4 c-0.7,-2.8 -2,-5.4 -3.7,-7.7 c-1.8,-2.2 -4,-4.1 -6.6,-5.4 l-7,-3.6 c-1,-0.5 -1.9,-1.2 -2.6,-2.2 c-0.7,-0.9 -1.2,-2 -1.5,-3.1 l-1.3,-5.3 c1.3,-1.7 2.5,-3.5 3.4,-5.5 c2.3,-4.7 3.5,-10 3.5,-15.3 v-2.3 c0,-5.4 -2.1,-10.4 -5.8,-14.2 s-8.7,-5.9 -14,-5.9 s-10.2,2.1 -14,5.9 c-3.7,3.8 -5.8,8.9 -5.8,14.2 v2.3 c0,5.3 1.2,10.6 3.5,15.3 c1,1.9 2.1,3.8 3.4,5.5 l-1.3,5.3 c-0.3,1.1 -0.8,2.2 -1.5,3.1 c-0.7,0.9 -1.6,1.6 -2.6,2.2 l-7.1,3.6 c-2.5,1.3 -4.8,3.2 -6.6,5.4 c-1.8,2.3 -3.1,4.9 -3.7,7.7 l-2.6,10.4 c-0.1,0.4 0,0.8 0.2,1.1 c0.3,0.3 0.6,0.5 1,0.5 h73.7 c0.4,0 0.8,-0.2 1,-0.5 C894.9,700.9 895,700.5 894.9,700.1  z M839.7,641.7 v-2.3 c0,-4.6 1.8,-9.1 5,-12.4 c3.2,-3.3 7.5,-5.1 12.1,-5.1 s8.9,1.8 12.1,5.1 c3.2,3.3 5,7.8 5,12.4 v2.3 c0,4.9 -1.1,9.8 -3.3,14.1 c-2.1,4.4 -5.3,8.2 -9.1,11.1 c-2.7,2.1 -6.7,2.1 -9.4,0 c-3.8,-2.9 -7,-6.8 -9.1,-11.1 C840.8,651.5 839.7,646.6 839.7,641.7  z M821.6,699.1 l2.1,-8.8 c0.6,-2.5 1.7,-4.7 3.3,-6.7 c1.5,-1.9 3.5,-3.6 5.7,-4.7 l7.1,-3.6 c1.4,-0.7 2.5,-1.7 3.5,-2.9 c0.9,-1.2 1.6,-2.6 2,-4.1 l0.8,-3.4 c1.3,1.5 2.8,2.9 4.3,4.1 c1.8,1.4 4.1,2.2 6.3,2.2 c2.3,0 4.5,-0.8 6.3,-2.2 c1.6,-1.2 3,-2.6 4.3,-4.1 l0.8,3.4 c0.4,1.5 1.1,2.9 2,4.1 c1,1.2 2.1,2.2 3.5,2.9 l7.1,3.6 c2.2,1.1 4.2,2.7 5.7,4.7 c1.6,2 2.7,4.2 3.3,6.7 l2.1,8.8 H821.6  z "></path></g><g transform="" id="Ultralight-S"><path class="st9" d="M594.2,689.8 c-0.7,-2.8 -1.9,-5.3 -3.7,-7.5 c-1.7,-2.2 -4,-4 -6.4,-5.3 l-7.1,-3.6 c-1.1,-0.6 -2,-1.3 -2.8,-2.3 c-0.7,-0.9 -1.3,-2.1 -1.6,-3.3 l-1.3,-5.5 c1.3,-1.7 2.5,-3.6 3.5,-5.6 c2.3,-4.7 3.5,-9.9 3.5,-15.1 v-2.3 c0,-5.3 -2,-10.2 -5.7,-13.9 c-3.6,-3.7 -8.5,-5.8 -13.7,-5.8 s-10,2.1 -13.7,5.8 c-3.6,3.7 -5.7,8.7 -5.7,13.9 v2.3 c0,5.2 1.2,10.4 3.5,15.1 c1,2 2.2,3.8 3.5,5.6 l-1.3,5.5 c-0.3,1.2 -0.8,2.3 -1.6,3.3 s-1.7,1.7 -2.8,2.3 l-7.1,3.6 c-2.5,1.3 -4.7,3.1 -6.4,5.3 c-1.8,2.2 -3,4.8 -3.7,7.5 l-2.6,10.4 c-0.1,0.3 0,0.5 0.2,0.8 c0.2,0.2 0.4,0.3 0.7,0.3 h73.7 c0.3,0 0.5,-0.1 0.7,-0.3 s0.2,-0.5 0.2,-0.8 L594.2,689.8  z M541.5,641.7 v-2.3 c0,-4.7 1.9,-9.3 5.1,-12.7 c3.3,-3.4 7.7,-5.2 12.4,-5.2 s9.1,1.9 12.4,5.2 c3.3,3.4 5.1,7.9 5.1,12.7 v2.3 c0,4.9 -1.1,9.9 -3.3,14.3 c-2.2,4.4 -5.4,8.3 -9.2,11.3 c-2.9,2.2 -7.1,2.2 -10,0 c-3.9,-3 -7.1,-6.9 -9.2,-11.3 C542.6,651.6 541.5,646.7 541.5,641.7  z M523.3,699.6 l2.3,-9.3 c0.6,-2.5 1.7,-4.8 3.3,-6.9 c1.6,-2 3.6,-3.7 5.8,-4.8 l7.1,-3.6 c1.3,-0.7 2.4,-1.6 3.4,-2.8 c0.9,-1.1 1.6,-2.5 1.9,-3.9 l1,-4.2 c1.5,1.7 3.1,3.3 4.8,4.6 s3.9,2.1 6.1,2.1 s4.3,-0.7 6.1,-2.1 c1.8,-1.4 3.4,-2.9 4.8,-4.6 l1,4.2 c0.4,1.4 1,2.8 1.9,3.9 c0.9,1.2 2,2.1 3.4,2.8 l7.1,3.6 c2.2,1.1 4.3,2.8 5.8,4.8 c1.6,2 2.7,4.3 3.3,6.9 l2.3,9.3 H523.3  z "></path></g></svg>