<svg width="16" height="16" viewBox="0 0 16 16" fill="none" xmlns="http://www.w3.org/2000/svg">
<path d="M5.74967 5.66536H2.74967C2.57286 5.66536 2.40329 5.59513 2.27827 5.4701C2.15325 5.34508 2.08301 5.17551 2.08301 4.9987V1.9987C2.08301 1.82189 2.15325 1.65232 2.27827 1.52729C2.40329 1.40227 2.57286 1.33203 2.74967 1.33203C2.92649 1.33203 3.09605 1.40227 3.22108 1.52729C3.3461 1.65232 3.41634 1.82189 3.41634 1.9987V4.33203H5.74967C5.92649 4.33203 6.09605 4.40227 6.22108 4.52729C6.3461 4.65232 6.41634 4.82189 6.41634 4.9987C6.41634 5.17551 6.3461 5.34508 6.22108 5.4701C6.09605 5.59513 5.92649 5.66536 5.74967 5.66536Z" fill="#4B4B4B"/>
<path d="M13.9996 8.66836C13.8228 8.66836 13.6532 8.59812 13.5282 8.4731C13.4032 8.34807 13.3329 8.17851 13.3329 8.00169C13.3335 6.82805 12.9466 5.68706 12.2323 4.75577C11.5181 3.82447 10.5165 3.15496 9.38283 2.85111C8.24921 2.54727 7.04699 2.62608 5.96273 3.07533C4.87847 3.52457 3.97281 4.31913 3.38628 5.3357C3.29769 5.48873 3.15195 5.6003 2.9811 5.64587C2.81026 5.69144 2.62831 5.66728 2.47528 5.5787C2.32225 5.49011 2.21067 5.34437 2.1651 5.17352C2.11953 5.00268 2.14369 4.82072 2.23228 4.6677C2.96578 3.39719 4.09807 2.40426 5.45349 1.84295C6.8089 1.28165 8.31167 1.18334 9.72866 1.56329C11.1457 1.94323 12.3976 2.78019 13.2904 3.94431C14.1832 5.10844 14.6668 6.53465 14.6663 8.00169C14.6663 8.17851 14.596 8.34807 14.471 8.4731C14.346 8.59812 14.1764 8.66836 13.9996 8.66836ZM13.2496 14.6684C13.0728 14.6684 12.9032 14.5981 12.7782 14.4731C12.6532 14.3481 12.5829 14.1785 12.5829 14.0017V11.6684H10.2496C10.0728 11.6684 9.90323 11.5981 9.77821 11.4731C9.65318 11.3481 9.58294 11.1785 9.58294 11.0017C9.58294 10.8249 9.65318 10.6553 9.77821 10.5303C9.90323 10.4053 10.0728 10.335 10.2496 10.335H13.2496C13.4264 10.335 13.596 10.4053 13.721 10.5303C13.846 10.6553 13.9163 10.8249 13.9163 11.0017V14.0017C13.9163 14.1785 13.846 14.3481 13.721 14.4731C13.596 14.5981 13.4264 14.6684 13.2496 14.6684Z" fill="#4B4B4B"/>
<path d="M7.99967 14.6654C6.23211 14.6636 4.53744 13.9607 3.28758 12.7108C2.03772 11.4609 1.33477 9.76627 1.33301 7.9987C1.33301 7.82189 1.40325 7.65232 1.52827 7.52729C1.65329 7.40227 1.82286 7.33203 1.99967 7.33203C2.17649 7.33203 2.34605 7.40227 2.47108 7.52729C2.5961 7.65232 2.66634 7.82189 2.66634 7.9987C2.66583 9.17234 3.05271 10.3133 3.76695 11.2446C4.48118 12.1759 5.48282 12.8454 6.61645 13.1493C7.75008 13.4531 8.9523 13.3743 10.0366 12.9251C11.1208 12.4758 12.0265 11.6813 12.613 10.6647C12.6569 10.5889 12.7152 10.5225 12.7847 10.4693C12.8543 10.4161 12.9336 10.3771 13.0182 10.3545C13.1028 10.332 13.191 10.3263 13.2778 10.3378C13.3646 10.3493 13.4482 10.3778 13.524 10.4217C13.5998 10.4656 13.6662 10.5239 13.7194 10.5934C13.7726 10.663 13.8116 10.7423 13.8342 10.8269C13.8567 10.9115 13.8624 10.9997 13.8509 11.0865C13.8394 11.1733 13.8109 11.2569 13.767 11.3327C13.1808 12.3438 12.3398 13.1835 11.3279 13.7683C10.3159 14.353 9.1684 14.6623 7.99967 14.6654Z" fill="#4B4B4B"/>
</svg>
