<svg width="29" height="29" viewBox="0 0 29 29" fill="none" xmlns="http://www.w3.org/2000/svg">
<mask id="mask0_32852_69012" style="mask-type:alpha" maskUnits="userSpaceOnUse" x="0" y="0" width="29" height="29">
<rect width="29" height="29" fill="#D9D9D9"/>
</mask>
<g mask="url(#mask0_32852_69012)">
<path d="M16.2905 14.4996L12.2173 9.57809C12.0789 9.41073 12.0081 9.20038 12.0048 8.94703C12.0016 8.69389 12.0724 8.47971 12.2173 8.3045C12.3623 8.1295 12.5379 8.04199 12.7442 8.04199C12.9506 8.04199 13.1262 8.1295 13.2712 8.3045L17.7655 13.7351C17.859 13.8482 17.925 13.9676 17.9635 14.093C18.002 14.2185 18.0212 14.354 18.0212 14.4996C18.0212 14.6452 18.002 14.7808 17.9635 14.9062C17.925 15.0317 17.859 15.151 17.7655 15.2642L13.2712 20.6948C13.1327 20.8619 12.9587 20.9475 12.749 20.9515C12.5395 20.9553 12.3623 20.8698 12.2173 20.6948C12.0724 20.5195 12 20.3073 12 20.058C12 19.8086 12.0724 19.5964 12.2173 19.4212L16.2905 14.4996Z" fill="#175C8E"/>
</g>
</svg>
