<svg width="32" height="32" viewBox="0 0 32 32" fill="none" xmlns="http://www.w3.org/2000/svg">
<mask id="mask0_1_6353" style="mask-type:alpha" maskUnits="userSpaceOnUse" x="0" y="0" width="32" height="32">
<rect width="32" height="32" fill="#D9D9D9"/>
</mask>
<g mask="url(#mask0_1_6353)">
<path d="M6.23381 28.7409C5.48542 28.7409 4.85196 28.4816 4.33344 27.9631C3.81492 27.4446 3.55566 26.8111 3.55566 26.0627V6.23381C3.55566 5.48542 3.81492 4.85196 4.33344 4.33344C4.85196 3.81492 5.48542 3.55566 6.23381 3.55566H26.0627C26.8111 3.55566 27.4446 3.81492 27.9631 4.33344C28.4816 4.85196 28.7409 5.48542 28.7409 6.23381V26.0627C28.7409 26.8111 28.4816 27.4446 27.9631 27.9631C27.4446 28.4816 26.8111 28.7409 26.0627 28.7409H6.23381ZM6.23381 26.5186H26.0627C26.1768 26.5186 26.2812 26.4711 26.376 26.376C26.4711 26.2812 26.5186 26.1768 26.5186 26.0627V6.23381C26.5186 6.11974 26.4711 6.01529 26.376 5.92048C26.2812 5.82542 26.1768 5.77789 26.0627 5.77789H6.23381C6.11974 5.77789 6.01529 5.82542 5.92048 5.92048C5.82542 6.01529 5.77789 6.11974 5.77789 6.23381V26.0627C5.77789 26.1768 5.82542 26.2812 5.92048 26.376C6.01529 26.4711 6.11974 26.5186 6.23381 26.5186ZM9.70974 23.1853H22.7008C22.9688 23.1853 23.1673 23.0637 23.2964 22.8205C23.4255 22.5775 23.4055 22.3421 23.2364 22.1142L19.7038 17.382C19.565 17.2034 19.3865 17.1142 19.1683 17.1142C18.9497 17.1142 18.7712 17.2034 18.6327 17.382L15.0086 22.1027L12.5812 18.9916C12.4427 18.8225 12.2665 18.7379 12.0527 18.7379C11.8391 18.7379 11.6629 18.8273 11.5242 19.006L9.18826 22.1142C9.00974 22.3421 8.98505 22.5775 9.11418 22.8205C9.24332 23.0637 9.44184 23.1853 9.70974 23.1853Z" fill="#175C8E"/>
</g>
</svg>
