<svg width="20" height="20" viewBox="0 0 20 20" fill="none" xmlns="http://www.w3.org/2000/svg">
<path d="M7.49907 9.79206C7.29298 9.79206 7.09152 9.85318 6.92016 9.96767C6.74881 10.0822 6.61525 10.2449 6.53638 10.4353C6.45752 10.6257 6.43688 10.8352 6.47709 11.0373C6.51729 11.2395 6.61653 11.4251 6.76226 11.5709C6.90799 11.7166 7.09365 11.8158 7.29578 11.856C7.49791 11.8962 7.70742 11.8756 7.89782 11.7967C8.08822 11.7179 8.25096 11.5843 8.36546 11.413C8.47995 11.2416 8.54107 11.0402 8.54107 10.8341C8.54107 10.5577 8.43128 10.2927 8.23587 10.0973C8.04046 9.90184 7.77542 9.79206 7.49907 9.79206ZM12.4991 9.79206C12.293 9.79206 12.0915 9.85318 11.9202 9.96767C11.7488 10.0822 11.6153 10.2449 11.5364 10.4353C11.4575 10.6257 11.4369 10.8352 11.4771 11.0373C11.5173 11.2395 11.6165 11.4251 11.7623 11.5709C11.908 11.7166 12.0937 11.8158 12.2958 11.856C12.4979 11.8962 12.7074 11.8756 12.8978 11.7967C13.0882 11.7179 13.251 11.5843 13.3655 11.413C13.48 11.2416 13.5411 11.0402 13.5411 10.8341C13.5411 10.5581 13.4316 10.2933 13.2366 10.098C13.0416 9.90261 12.7771 9.79259 12.5011 9.79206H12.4991ZM10.0001 1.66406C8.35136 1.66406 6.73968 2.15296 5.36883 3.06893C3.99798 3.9849 2.92954 5.28681 2.29861 6.81001C1.66767 8.33322 1.50259 10.0093 1.82424 11.6263C2.14589 13.2434 2.93981 14.7287 4.10562 15.8945C5.27143 17.0603 6.75677 17.8542 8.37379 18.1759C9.99082 18.4975 11.6669 18.3325 13.1901 17.7015C14.7133 17.0706 16.0152 16.0021 16.9312 14.6313C17.8472 13.2604 18.3361 11.6488 18.3361 10.0001C18.3353 7.78946 17.4568 5.66963 15.8936 4.1065C14.3305 2.54337 12.2107 1.66486 10.0001 1.66406ZM10.0001 16.6691C8.23207 16.6667 6.53717 15.9633 5.287 14.7131C4.03684 13.463 3.33345 11.7681 3.33107 10.0001C3.33235 9.76049 3.34637 9.52115 3.37307 9.28306C5.34221 8.40471 6.89749 6.8018 7.71607 4.80706C8.48386 5.89685 9.50242 6.78605 10.6859 7.39971C11.8693 8.01336 13.183 8.33348 14.5161 8.33306C15.1477 8.33379 15.7773 8.26096 16.3921 8.11606C16.6871 9.11044 16.7457 10.16 16.5633 11.181C16.3809 12.2021 15.9625 13.1664 15.3415 13.9972C14.7205 14.8279 13.9139 15.5021 12.9862 15.966C12.0585 16.4299 11.0353 16.6706 9.99807 16.6691H10.0001Z" fill="#A1A1A1"/>
</svg>
