<svg width="16" height="17" viewBox="0 0 16 17" fill="none" xmlns="http://www.w3.org/2000/svg">
<mask id="mask0_19552_52488" style="mask-type:alpha" maskUnits="userSpaceOnUse" x="0" y="0" width="16" height="17">
<rect y="0.5" width="16" height="16" fill="#D9D9D9"/>
</mask>
<g mask="url(#mask0_19552_52488)">
<path d="M7.99952 11.6667C8.14129 11.6667 8.26002 11.6187 8.35568 11.5229C8.45146 11.4271 8.49935 11.3084 8.49935 11.1667V8.33335C8.49935 8.19169 8.4514 8.07291 8.35552 7.97702C8.25963 7.88124 8.14085 7.83335 7.99918 7.83335C7.8574 7.83335 7.73868 7.88124 7.64302 7.97702C7.54724 8.07291 7.49935 8.19169 7.49935 8.33335V11.1667C7.49935 11.3084 7.54729 11.4271 7.64318 11.5229C7.73907 11.6187 7.85785 11.6667 7.99952 11.6667ZM7.99935 6.69235C8.1519 6.69235 8.27979 6.64074 8.38301 6.53752C8.48624 6.4343 8.53785 6.30641 8.53785 6.15385C8.53785 6.0013 8.48624 5.87341 8.38301 5.77019C8.27979 5.66708 8.1519 5.61552 7.99935 5.61552C7.84679 5.61552 7.7189 5.66708 7.61568 5.77019C7.51246 5.87341 7.46085 6.0013 7.46085 6.15385C7.46085 6.30641 7.51246 6.4343 7.61568 6.53752C7.7189 6.64074 7.84679 6.69235 7.99935 6.69235ZM8.00052 14.8334C7.12452 14.8334 6.30113 14.6671 5.53035 14.3347C4.75957 14.0022 4.08913 13.5511 3.51902 12.9812C2.9489 12.4113 2.49752 11.7411 2.16485 10.9707C1.83229 10.2002 1.66602 9.37708 1.66602 8.50119C1.66602 7.62519 1.83224 6.8018 2.16468 6.03102C2.49713 5.26024 2.94829 4.5898 3.51818 4.01969C4.08807 3.44958 4.75824 2.99819 5.52868 2.66552C6.29913 2.33296 7.12229 2.16669 7.99818 2.16669C8.87418 2.16669 9.69757 2.33291 10.4683 2.66535C11.2391 2.9978 11.9096 3.44896 12.4797 4.01885C13.0498 4.58874 13.5012 5.25891 13.8338 6.02935C14.1664 6.7998 14.3327 7.62296 14.3327 8.49885C14.3327 9.37485 14.1665 10.1982 13.834 10.969C13.5016 11.7398 13.0504 12.4102 12.4805 12.9804C11.9106 13.5505 11.2405 14.0019 10.47 14.3345C9.69957 14.6671 8.8764 14.8334 8.00052 14.8334ZM7.99935 13.8334C9.48824 13.8334 10.7493 13.3167 11.7827 12.2834C12.816 11.25 13.3327 9.98891 13.3327 8.50002C13.3327 7.01113 12.816 5.75002 11.7827 4.71669C10.7493 3.68335 9.48824 3.16669 7.99935 3.16669C6.51046 3.16669 5.24935 3.68335 4.21602 4.71669C3.18268 5.75002 2.66602 7.01113 2.66602 8.50002C2.66602 9.98891 3.18268 11.25 4.21602 12.2834C5.24935 13.3167 6.51046 13.8334 7.99935 13.8334Z" fill="#727272"/>
</g>
</svg>
