<svg width="98" height="75" viewBox="0 0 98 75" fill="none" xmlns="http://www.w3.org/2000/svg">
<path d="M73.4958 38.8336C68.5763 41.4424 62.1541 44.0456 54.2018 46.4841C46.2495 48.9171 39.4708 50.356 33.9316 50.9492C38.0998 55.6504 44.1764 58.6161 50.9496 58.6161C51.4432 58.6161 51.9313 58.5942 52.4194 58.5612C54.2951 58.4788 59.8397 58.2482 65.6367 58.2482C69.5306 58.2482 73.5342 58.3525 76.6164 58.6656C76.6164 58.6656 70.1777 53.1076 72.9035 41.7993C73.1667 40.8327 73.3642 39.8442 73.5013 38.8281" fill="#D370F9"/>
<path d="M28.3977 32.8359C19.2388 37.6964 15.2956 42.5679 16.4637 46.3959C17.6319 50.2239 23.6208 52.0528 33.9314 50.9543C30.3666 46.9341 28.1948 41.6398 28.1948 35.8401C28.1948 34.8241 28.2661 33.8245 28.3977 32.8414V32.8359Z" fill="#B611F5"/>
<path d="M85.4354 25.2763C84.2673 21.4483 78.2784 19.6195 67.9678 20.7179C71.5326 24.7381 73.7044 30.0325 73.7044 35.8321C73.7044 36.8482 73.6331 37.8477 73.5015 38.8308C82.6604 33.9703 86.6036 29.0988 85.4354 25.2708V25.2763Z" fill="#B611F5"/>
<path d="M67.9702 20.7216C63.8021 16.0204 57.7254 13.0547 50.9522 13.0547C39.4022 13.0547 29.8704 21.6718 28.406 32.8372C28.2744 33.8203 28.2031 34.8198 28.2031 35.8359C28.2031 41.6355 30.3694 46.9299 33.9398 50.9501C39.479 50.357 46.2576 48.918 54.2099 46.4851C62.1623 44.0521 68.5844 41.4433 73.5039 38.8346C73.6355 37.8515 73.7068 36.8519 73.7068 35.8359C73.7068 30.0362 71.5405 24.7419 67.9702 20.7216ZM38 28C35 28 35 27 35 27C35 27 35 26 38 26C41 26 41 27 41 27C41 27 41.5 28 38 28ZM48 28C45 28 45 27 45 27C45 27 45 25.9453 48 26C51 26.0547 51 27 51 27C51 27 50.9525 28 48 28Z" fill="#1D1D1B"/>
<path fill-rule="evenodd" clip-rule="evenodd" d="M12.5269 4.29561C12.5294 4.57164 12.6414 4.83538 12.8384 5.02879C13.0353 5.2222 13.3011 5.32945 13.5771 5.32695L18.3501 5.28363L12.8912 10.8425C12.747 10.9894 12.6496 11.1757 12.6113 11.3779C12.573 11.5801 12.5955 11.7892 12.676 11.9786C12.7565 12.1681 12.8913 12.3294 13.0635 12.4422C13.2356 12.555 13.4374 12.6142 13.6432 12.6124L20.9287 12.5463C21.2047 12.5438 21.4684 12.4317 21.6618 12.2348C21.8552 12.0378 21.9625 11.7721 21.96 11.4961C21.9575 11.22 21.8454 10.9563 21.6485 10.7629C21.4515 10.5695 21.1858 10.4622 20.9098 10.4647L16.1367 10.508L21.5956 4.9492C21.7398 4.80232 21.8372 4.616 21.8755 4.41377C21.9138 4.21154 21.8913 4.0025 21.8108 3.81306C21.7304 3.62363 21.5955 3.46231 21.4234 3.34949C21.2512 3.23668 21.0495 3.17744 20.8437 3.17927L13.5582 3.24539C13.2822 3.24789 13.0184 3.35995 12.825 3.5569C12.6316 3.75386 12.5244 4.01958 12.5269 4.29561ZM4.25728 10.6159C3.98124 10.6184 3.71552 10.5111 3.51857 10.3177C3.32161 10.1243 3.20956 9.86056 3.20705 9.58453C3.20455 9.3085 3.3118 9.04277 3.50521 8.84582C3.69863 8.64886 3.96236 8.53681 4.23839 8.5343L9.44229 8.48707C9.64811 8.48525 9.84984 8.54449 10.022 8.6573C10.1941 8.77011 10.329 8.93143 10.4095 9.12087C10.49 9.31031 10.5125 9.51935 10.4742 9.72158C10.4358 9.9238 10.3384 10.1101 10.1942 10.257L6.79805 13.7154L9.48951 13.691C9.76554 13.6885 10.0313 13.7957 10.2282 13.9891C10.4252 14.1825 10.5372 14.4463 10.5397 14.7223C10.5422 14.9983 10.435 15.2641 10.2416 15.461C10.0482 15.658 9.78443 15.77 9.5084 15.7725L4.30449 15.8198C4.09868 15.8216 3.89694 15.7624 3.72479 15.6495C3.55264 15.5367 3.4178 15.3754 3.33732 15.186C3.25684 14.9965 3.23433 14.7875 3.27264 14.5853C3.31095 14.383 3.40835 14.1967 3.55254 14.0498L6.94874 10.5914L4.25728 10.6159ZM12.6496 17.8258C12.3736 17.8283 12.1079 17.721 11.9109 17.5276C11.714 17.3342 11.6019 17.0705 11.5994 16.7944C11.5969 16.5184 11.7042 16.2527 11.8976 16.0557C12.091 15.8588 12.3547 15.7467 12.6307 15.7442L16.7939 15.7064C16.9997 15.7046 17.2014 15.7638 17.3736 15.8766C17.5457 15.9895 17.6806 16.1508 17.761 16.3402C17.8415 16.5297 17.864 16.7387 17.8257 16.9409C17.7874 17.1431 17.69 17.3295 17.5458 17.4764L15.181 19.8845L16.8316 19.8695C17.1077 19.867 17.3734 19.9743 17.5703 20.1677C17.7673 20.3611 17.8794 20.6248 17.8819 20.9009C17.8844 21.1769 17.7771 21.4426 17.5837 21.6396C17.3903 21.8365 17.1266 21.9486 16.8505 21.9511L12.6874 21.9889C12.4816 21.9907 12.2799 21.9315 12.1077 21.8187C11.9355 21.7058 11.8007 21.5445 11.7202 21.3551C11.6397 21.1657 11.6172 20.9566 11.6555 20.7544C11.6939 20.5522 11.7913 20.3658 11.9355 20.219L14.3003 17.8108L12.6496 17.8258Z" fill="black"/>
</svg>
