<svg width="16" height="17" viewBox="0 0 16 17" fill="none" xmlns="http://www.w3.org/2000/svg">
<mask id="mask0_6669_33891" style="mask-type:alpha" maskUnits="userSpaceOnUse" x="0" y="0" width="16" height="17">
<rect y="0.5" width="16" height="16" fill="#D9D9D9"/>
</mask>
<g mask="url(#mask0_6669_33891)">
<path d="M4.8718 14.1665C4.54039 14.1665 4.25668 14.0485 4.02068 13.8125C3.78467 13.5765 3.66667 13.2928 3.66667 12.9614V4.49987H3.5C3.35833 4.49987 3.23958 4.45193 3.14375 4.35606C3.04792 4.26019 3 4.14139 3 3.99966C3 3.85793 3.04792 3.73921 3.14375 3.64349C3.23958 3.54776 3.35833 3.49989 3.5 3.49989H5.99998C5.99998 3.33664 6.05746 3.19755 6.17242 3.08259C6.28737 2.96763 6.42647 2.91016 6.58972 2.91016H9.41025C9.57349 2.91016 9.71259 2.96763 9.82755 3.08259C9.94251 3.19755 9.99998 3.33664 9.99998 3.49989H12.5C12.6416 3.49989 12.7604 3.54783 12.8562 3.64371C12.9521 3.73958 13 3.85838 13 4.00011C13 4.14184 12.9521 4.26057 12.8562 4.35629C12.7604 4.45201 12.6416 4.49987 12.5 4.49987H12.3333V12.9614C12.3333 13.2928 12.2153 13.5765 11.9793 13.8125C11.7433 14.0485 11.4596 14.1665 11.1282 14.1665H4.8718ZM11.3333 4.49987H4.66665V12.9614C4.66665 13.0212 4.68588 13.0704 4.72435 13.1088C4.76282 13.1473 4.81197 13.1665 4.8718 13.1665H11.1282C11.188 13.1665 11.2372 13.1473 11.2756 13.1088C11.3141 13.0704 11.3333 13.0212 11.3333 12.9614V4.49987ZM6.76945 11.8332C6.91117 11.8332 7.02989 11.7853 7.12562 11.6895C7.22135 11.5936 7.26922 11.4749 7.26922 11.3332V6.33319C7.26922 6.19153 7.22128 6.07279 7.1254 5.97696C7.02952 5.88112 6.91072 5.83321 6.769 5.83321C6.62727 5.83321 6.50854 5.88112 6.41282 5.97696C6.31709 6.07279 6.26923 6.19153 6.26923 6.33319V11.3332C6.26923 11.4749 6.31717 11.5936 6.41305 11.6895C6.50892 11.7853 6.62772 11.8332 6.76945 11.8332ZM9.23097 11.8332C9.3727 11.8332 9.49143 11.7853 9.58715 11.6895C9.68287 11.5936 9.73073 11.4749 9.73073 11.3332V6.33319C9.73073 6.19153 9.68279 6.07279 9.58692 5.97696C9.49105 5.88112 9.37225 5.83321 9.23052 5.83321C9.08879 5.83321 8.97007 5.88112 8.87435 5.97696C8.77862 6.07279 8.73075 6.19153 8.73075 6.33319V11.3332C8.73075 11.4749 8.77869 11.5936 8.87457 11.6895C8.97044 11.7853 9.08924 11.8332 9.23097 11.8332Z" fill="#4B4B4B"/>
</g>
</svg>
