<svg width="269" height="60" viewBox="0 0 269 60" fill="none" xmlns="http://www.w3.org/2000/svg">
<g filter="url(#filter0_dd_18023_23823)">
<path d="M30.9478 44.0896L26 38L39 38L34.0522 44.0896C33.2518 45.0747 31.7482 45.0747 30.9478 44.0896Z" fill="#4B4B4B"/>
<rect width="249" height="32" rx="8" transform="matrix(1 0 0 -1 10 38)" fill="#4B4B4B"/>
<path d="M26.2539 23.9102C26.2539 23.3281 26.3711 22.752 26.6055 22.1816C26.8438 21.6113 27.1719 21.1016 27.5898 20.6523C28.0117 20.207 28.4883 19.8711 29.0195 19.6445L28.4102 18.7773C27.7969 19.0469 27.2539 19.4531 26.7812 19.9961C26.3086 20.543 25.9492 21.1699 25.7031 21.877C25.457 21.123 25.0957 20.4473 24.6191 19.8496C24.1465 19.252 23.6094 18.8047 23.0078 18.5078L22.3633 19.3867C22.8789 19.6289 23.3477 19.9902 23.7695 20.4707C24.1914 20.9551 24.5215 21.5 24.7598 22.1055C25.002 22.7148 25.125 23.3164 25.1289 23.9102V25.0234H22.7266V25.9492H28.6445V25.0234H26.2539V23.9102ZM31.082 16.5039H29.9688V27.0039H31.082V16.5039ZM41.1484 25.6797C41.1484 25.1094 41.1328 24.6016 41.1016 24.1562C41.0742 23.7109 41 23.207 40.8789 22.6445H42.3672V21.7305H32.7578V22.6445H39.7539C39.8789 23.1914 39.959 23.6836 39.9941 24.1211C40.0293 24.5586 40.0469 25.0391 40.0469 25.5625H33.9648V26.4766H41.1484V25.6797ZM41.1602 16.6328H33.9297V20.3945H41.1602V16.6328ZM35.0195 17.5352H40.0586V19.5156H35.0195V17.5352ZM54.7773 16.4805H53.6641V27.0039H54.7773V16.4805ZM51.5664 22.2227H47.793V19.9258C48.7148 19.9297 49.5605 19.959 50.3301 20.0137C51.1035 20.0684 51.9062 20.1641 52.7383 20.3008L52.8438 19.3867C51.9688 19.2383 51.1191 19.1367 50.2949 19.082C49.4746 19.0273 48.5586 19 47.5469 19H46.6562V23.1133H50.4297V25.1523H46.6445V26.0547H51.5664V22.2227ZM66.0273 20.0195H63.6719V16.5039H62.5586V20.0195H59.8984V16.5039H58.7617V20.0195H56.418V20.9336H66.0273V20.0195ZM58.7148 25.2578H63.707V26.5938H64.8203V22.0938H57.6133V26.5938H58.7148V25.2578ZM63.707 22.9844V24.3789H58.7148V22.9844H63.707ZM74.9805 22.8203H76.6094V21.8945H74.9805V16.5156H73.8672V27.0039H74.9805V22.8203ZM72.2383 25.9023C72.2305 24.3008 71.8418 22.8633 71.0723 21.5898C70.3027 20.3164 69.0898 19.2695 67.4336 18.4492L66.8125 19.3164C68.125 19.9727 69.1387 20.7734 69.8535 21.7188C70.5723 22.6641 70.9883 23.75 71.1016 24.9766H67.3398V25.9023H72.2383ZM88.2812 22.8203H89.9102V21.8945H88.2812V16.5156H87.168V27.0039H88.2812V22.8203ZM85.5391 25.9023C85.5312 24.3008 85.1426 22.8633 84.373 21.5898C83.6035 20.3164 82.3906 19.2695 80.7344 18.4492L80.1133 19.3164C81.4258 19.9727 82.4395 20.7734 83.1543 21.7188C83.873 22.6641 84.2891 23.75 84.4023 24.9766H80.6406V25.9023H85.5391ZM94.1406 25.0703C94.1406 24.625 94.2402 24.1992 94.4395 23.793C94.6387 23.3906 94.9277 23.0332 95.3066 22.7207C95.6855 22.4121 96.1367 22.1758 96.6602 22.0117L96.1328 21.1445C95.543 21.332 95.0312 21.6133 94.5977 21.9883C94.168 22.3633 93.8359 22.8047 93.6016 23.3125C93.3711 22.7305 93.0293 22.2227 92.5762 21.7891C92.123 21.3594 91.5859 21.0352 90.9648 20.8164L90.3906 21.707C90.9258 21.8828 91.3906 22.1406 91.7852 22.4805C92.1836 22.8242 92.4883 23.2188 92.6992 23.6641C92.9141 24.1094 93.0234 24.5742 93.0273 25.0586V25.3516H90.7188V26.2539H96.4023V25.3516H94.1406V25.0703ZM98.7227 24.4023H100.246V23.4883H98.7227V20.6992H97.6094V27.0039H98.7227V24.4023ZM95.3359 20.4414C96.0547 20.4414 96.6758 20.3633 97.1992 20.207C97.7227 20.0547 98.123 19.832 98.4004 19.5391C98.6777 19.25 98.8164 18.9023 98.8164 18.4961C98.8164 18.0859 98.6758 17.7324 98.3945 17.4355C98.1172 17.1387 97.7168 16.9121 97.1934 16.7559C96.6738 16.5996 96.0547 16.5234 95.3359 16.5273C94.6094 16.5234 93.9805 16.5996 93.4492 16.7559C92.9219 16.9121 92.5156 17.1387 92.2305 17.4355C91.9492 17.7324 91.8086 18.0859 91.8086 18.4961C91.8086 18.9023 91.9492 19.25 92.2305 19.5391C92.5156 19.832 92.9219 20.0547 93.4492 20.207C93.9805 20.3633 94.6094 20.4414 95.3359 20.4414ZM95.3359 19.5625C94.5703 19.5625 93.9746 19.4688 93.5488 19.2812C93.127 19.0977 92.918 18.8359 92.9219 18.4961C92.918 18.1484 93.127 17.8789 93.5488 17.6875C93.9746 17.5 94.5703 17.4062 95.3359 17.4062C96.0938 17.4062 96.6816 17.5 97.0996 17.6875C97.5176 17.875 97.7266 18.1445 97.7266 18.4961C97.7266 18.8359 97.5176 19.0977 97.0996 19.2812C96.6816 19.4688 96.0938 19.5625 95.3359 19.5625ZM112.023 24.6953H113.547V23.7695H112.023V21.6719H110.91V27.0039H112.023V24.6953ZM109.094 22.0117H104.184V26.3242H109.094V22.0117ZM105.273 22.9023H108.004V25.4336H105.273V22.9023ZM105.918 17.6992C106.676 17.7344 107.34 17.8477 107.91 18.0391L108.074 17.1602C107.637 17.0117 107.197 16.9121 106.756 16.8613C106.314 16.8105 105.852 16.7852 105.367 16.7852H104.828V20.7578H105.918V17.6992ZM113.008 19.8203H107.711V20.6406H109.832V21.5195H110.922V20.6406H113.008V19.8203ZM110.359 19.4805C110.746 19.4766 111.088 19.4141 111.385 19.293C111.686 19.1758 111.92 19.0059 112.088 18.7832C112.256 18.5645 112.34 18.3047 112.34 18.0039C112.34 17.7031 112.256 17.4414 112.088 17.2188C111.92 16.9961 111.686 16.8262 111.385 16.709C111.088 16.5879 110.746 16.5273 110.359 16.5273C109.965 16.5273 109.617 16.5879 109.316 16.709C109.016 16.8262 108.783 16.9961 108.619 17.2188C108.455 17.4414 108.375 17.7031 108.379 18.0039C108.375 18.3047 108.455 18.5645 108.619 18.7832C108.783 19.0059 109.016 19.1758 109.316 19.293C109.617 19.4141 109.965 19.4766 110.359 19.4805ZM110.359 18.707C110.062 18.6992 109.822 18.6328 109.639 18.5078C109.455 18.3867 109.363 18.2188 109.363 18.0039C109.363 17.7852 109.455 17.6113 109.639 17.4824C109.822 17.3535 110.062 17.2891 110.359 17.2891C110.652 17.2891 110.889 17.3535 111.068 17.4824C111.252 17.6113 111.344 17.7852 111.344 18.0039C111.344 18.2148 111.252 18.3828 111.068 18.5078C110.889 18.6328 110.652 18.6992 110.359 18.707ZM123.719 20.6289H114.145V21.5195H123.719V20.6289ZM122.641 16.7266H115.352V19.7734H116.477V17.6289H122.641V16.7266ZM118.926 26.6523C119.68 26.6562 120.338 26.5742 120.9 26.4062C121.467 26.2383 121.904 25.9961 122.213 25.6797C122.521 25.3633 122.676 24.9883 122.676 24.5547C122.676 24.1172 122.521 23.7383 122.213 23.418C121.908 23.1016 121.473 22.8574 120.906 22.6855C120.34 22.5137 119.68 22.4258 118.926 22.4219C118.168 22.4258 117.506 22.5137 116.939 22.6855C116.377 22.8574 115.941 23.1016 115.633 23.418C115.328 23.7383 115.176 24.1172 115.176 24.5547C115.176 24.9883 115.328 25.3633 115.633 25.6797C115.941 25.9961 116.377 26.2383 116.939 26.4062C117.506 26.5742 118.168 26.6562 118.926 26.6523ZM118.926 25.7617C118.395 25.7617 117.932 25.7129 117.537 25.6152C117.146 25.5176 116.846 25.377 116.635 25.1934C116.424 25.0137 116.32 24.8008 116.324 24.5547C116.32 24.3008 116.422 24.082 116.629 23.8984C116.84 23.7148 117.141 23.5742 117.531 23.4766C117.926 23.3828 118.391 23.3359 118.926 23.3359C119.461 23.3359 119.924 23.3828 120.314 23.4766C120.705 23.5742 121.004 23.7148 121.211 23.8984C121.422 24.082 121.527 24.3008 121.527 24.5547C121.527 24.8008 121.422 25.0137 121.211 25.1934C121 25.377 120.699 25.5176 120.309 25.6152C119.918 25.7129 119.457 25.7617 118.926 25.7617ZM131.066 25.3281C131.066 24.8672 131.168 24.4258 131.371 24.0039C131.578 23.582 131.871 23.209 132.25 22.8848C132.633 22.5645 133.082 22.3203 133.598 22.1523L133 21.2734C132.434 21.4727 131.938 21.7676 131.512 22.1582C131.09 22.5527 130.764 23.0117 130.533 23.5352C130.303 22.9375 129.967 22.418 129.525 21.9766C129.088 21.5391 128.566 21.207 127.961 20.9805L127.363 21.8711C127.902 22.0625 128.365 22.3359 128.752 22.6914C129.143 23.0508 129.441 23.4648 129.648 23.9336C129.855 24.4023 129.961 24.8984 129.965 25.4219V26.4531H131.066V25.3281ZM135.695 24.3672H137.219V23.4297H135.695V20.6641H134.582V27.0039H135.695V24.3672ZM132.309 20.418C133.023 20.418 133.643 20.3398 134.166 20.1836C134.689 20.0312 135.09 19.8086 135.367 19.5156C135.648 19.2266 135.789 18.8789 135.789 18.4727C135.789 18.0625 135.648 17.7109 135.367 17.418C135.09 17.125 134.689 16.9023 134.166 16.75C133.643 16.5977 133.023 16.5234 132.309 16.5273C131.586 16.5234 130.959 16.5977 130.428 16.75C129.896 16.9023 129.488 17.125 129.203 17.418C128.922 17.7109 128.781 18.0625 128.781 18.4727C128.781 18.8789 128.922 19.2266 129.203 19.5156C129.488 19.8086 129.896 20.0312 130.428 20.1836C130.959 20.3398 131.586 20.418 132.309 20.418ZM132.309 19.5391C131.805 19.5391 131.371 19.4961 131.008 19.4102C130.645 19.3281 130.367 19.207 130.176 19.0469C129.984 18.8867 129.891 18.6953 129.895 18.4727C129.891 18.1289 130.1 17.8652 130.521 17.6816C130.943 17.498 131.539 17.4023 132.309 17.3945C133.07 17.4023 133.658 17.498 134.072 17.6816C134.49 17.8652 134.699 18.1289 134.699 18.4727C134.699 18.8086 134.488 19.0703 134.066 19.2578C133.648 19.4453 133.062 19.5391 132.309 19.5391ZM146.57 20.8867H145.457V23.5234H143.488V24.4492H145.457V27.0039H146.57V20.8867ZM146.57 16.6328H139.645V20.3945H146.57V16.6328ZM140.746 17.5352H145.48V19.5156H140.746V17.5352ZM141.578 25.2109C141.578 24.7734 141.68 24.3457 141.883 23.9277C142.086 23.5098 142.379 23.1367 142.762 22.8086C143.145 22.4805 143.594 22.2266 144.109 22.0469L143.535 21.168C142.957 21.3711 142.453 21.6719 142.023 22.0703C141.594 22.4727 141.262 22.9375 141.027 23.4648C140.797 22.8789 140.455 22.3652 140.002 21.9238C139.553 21.4863 139.02 21.1602 138.402 20.9453L137.828 21.8242C138.355 22.0039 138.816 22.2676 139.211 22.6152C139.605 22.9629 139.908 23.3613 140.119 23.8105C140.334 24.2637 140.441 24.7305 140.441 25.2109V25.457H138.168V26.3711H143.828V25.457H141.578V25.2109ZM152.969 26.8281C153.758 26.8281 154.432 26.7578 154.99 26.6172C155.553 26.4805 155.98 26.2773 156.273 26.0078C156.57 25.7383 156.719 25.4102 156.719 25.0234C156.719 24.6367 156.57 24.3066 156.273 24.0332C155.98 23.7637 155.553 23.5586 154.99 23.418C154.432 23.2773 153.758 23.207 152.969 23.207C152.18 23.207 151.504 23.2773 150.941 23.418C150.383 23.5586 149.955 23.7637 149.658 24.0332C149.365 24.3066 149.219 24.6367 149.219 25.0234C149.219 25.4102 149.365 25.7383 149.658 26.0078C149.955 26.2773 150.383 26.4805 150.941 26.6172C151.504 26.7578 152.18 26.8281 152.969 26.8281ZM152.969 26.0078C152.133 26.0078 151.49 25.9219 151.041 25.75C150.592 25.5781 150.371 25.3359 150.379 25.0234C150.375 24.7031 150.594 24.459 151.035 24.291C151.48 24.123 152.125 24.0391 152.969 24.0391C153.809 24.0391 154.451 24.123 154.896 24.291C155.346 24.459 155.57 24.7031 155.57 25.0234C155.57 25.3359 155.344 25.5781 154.891 25.75C154.441 25.9219 153.801 26.0078 152.969 26.0078ZM157.762 21.6719H148.188V22.5625H157.762V21.6719ZM156.555 18.4023H150.438V17.4648H156.848V16.6094H149.348V19.2109H155.453V20.0312H149.336V20.8633H156.555V18.4023ZM169.75 23.875H171.25V22.9609H169.75V19.9258H168.637V26.9922H169.75V23.875ZM161.418 21.0977C162.59 21.0977 163.504 21.1074 164.16 21.127V21.8301C163.555 21.8965 163.078 22.0645 162.73 22.334C162.383 22.6035 162.211 22.9492 162.215 23.3711C162.211 23.6875 162.311 23.9629 162.514 24.1973C162.721 24.4316 163.014 24.6113 163.393 24.7363C163.771 24.8613 164.211 24.9219 164.711 24.918C165.207 24.9219 165.643 24.8613 166.018 24.7363C166.396 24.6113 166.689 24.4316 166.896 24.1973C167.104 23.9629 167.207 23.6875 167.207 23.3711C167.207 22.9531 167.033 22.6074 166.686 22.334C166.342 22.0645 165.871 21.8965 165.273 21.8301V21.168C166.32 21.2188 167.242 21.3008 168.039 21.4141L168.133 20.6172C167.137 20.4414 166.111 20.3281 165.057 20.2773C164.006 20.2305 162.832 20.207 161.535 20.207L161.418 21.0977ZM169.75 16.5039H168.637V18.5664H162.73V19.4336H169.75V16.5039ZM167.746 25.2695H161.688V26.1016H164.16V27.0859H165.273V26.1016H167.746V25.2695ZM164.711 24.1562C164.258 24.1641 163.904 24.0977 163.65 23.957C163.396 23.8164 163.27 23.6211 163.27 23.3711C163.27 23.125 163.396 22.9277 163.65 22.7793C163.908 22.6348 164.262 22.5625 164.711 22.5625C165.152 22.5625 165.5 22.6348 165.754 22.7793C166.012 22.9277 166.141 23.125 166.141 23.3711C166.141 23.6211 166.014 23.8164 165.76 23.957C165.506 24.0977 165.156 24.1641 164.711 24.1562ZM180.566 19.3633H179.453V26.9922H180.566V19.3633ZM180.883 16.7266H173.699V20.1367H174.824V17.6289H180.883V16.7266ZM174.871 26.2891C175.395 26.2891 175.867 26.1777 176.289 25.9551C176.715 25.7324 177.049 25.4238 177.291 25.0293C177.537 24.6348 177.66 24.1875 177.66 23.6875C177.66 23.1797 177.537 22.7266 177.291 22.3281C177.049 21.9336 176.715 21.625 176.289 21.4023C175.867 21.1836 175.395 21.0742 174.871 21.0742C174.348 21.0742 173.873 21.1836 173.447 21.4023C173.021 21.625 172.686 21.9355 172.439 22.334C172.193 22.7324 172.07 23.1836 172.07 23.6875C172.07 24.1875 172.193 24.6348 172.439 25.0293C172.686 25.4238 173.021 25.7324 173.447 25.9551C173.873 26.1777 174.348 26.2891 174.871 26.2891ZM174.871 25.3164C174.547 25.3164 174.254 25.2461 173.992 25.1055C173.734 24.9688 173.531 24.7773 173.383 24.5312C173.234 24.2852 173.16 24.0039 173.16 23.6875C173.16 23.3633 173.232 23.0762 173.377 22.8262C173.525 22.5801 173.729 22.3887 173.986 22.252C174.248 22.1152 174.543 22.0469 174.871 22.0469C175.191 22.0469 175.48 22.1152 175.738 22.252C175.996 22.3887 176.199 22.582 176.348 22.832C176.496 23.082 176.57 23.3672 176.57 23.6875C176.57 24 176.496 24.2793 176.348 24.5254C176.199 24.7754 175.994 24.9688 175.732 25.1055C175.475 25.2461 175.188 25.3164 174.871 25.3164ZM187.422 24.3672H182.207V25.2695H184.27V26.6992H185.371V25.2695H187.422V24.3672ZM184.82 23.7344C185.262 23.7344 185.654 23.6309 185.998 23.4238C186.342 23.2207 186.611 22.9355 186.807 22.5684C187.002 22.2051 187.102 21.7891 187.105 21.3203C187.102 20.8477 187.002 20.4258 186.807 20.0547C186.611 19.6875 186.342 19.4004 185.998 19.1934C185.654 18.9863 185.262 18.8828 184.82 18.8828C184.387 18.8828 183.996 18.9863 183.648 19.1934C183.301 19.4004 183.029 19.6895 182.834 20.0605C182.639 20.4316 182.543 20.8516 182.547 21.3203C182.543 21.7852 182.639 22.2012 182.834 22.5684C183.029 22.9355 183.301 23.2207 183.648 23.4238C183.996 23.6309 184.387 23.7344 184.82 23.7344ZM184.82 22.8086C184.57 22.8086 184.348 22.7441 184.152 22.6152C183.957 22.4902 183.805 22.3145 183.695 22.0879C183.586 21.8613 183.531 21.6055 183.531 21.3203C183.531 21.0273 183.586 20.7676 183.695 20.541C183.805 20.3184 183.957 20.1445 184.152 20.0195C184.348 19.8945 184.57 19.832 184.82 19.832C185.07 19.832 185.293 19.8945 185.488 20.0195C185.688 20.1445 185.842 20.3184 185.951 20.541C186.064 20.7676 186.121 21.0273 186.121 21.3203C186.121 21.6055 186.064 21.8613 185.951 22.0879C185.842 22.3145 185.688 22.4902 185.488 22.6152C185.289 22.7441 185.066 22.8086 184.82 22.8086ZM191.219 16.5039H190.164V21.7188H188.957V16.9961H187.902V26.7695H188.957V22.6328H190.164V27.0039H191.219V16.5039ZM202.211 17.8047H192.602V18.7305H196.832V20.8867H193.703V26.2891H194.816V24.4844H199.973V26.2891H201.074V20.8867H197.934V18.7305H202.211V17.8047ZM199.973 21.7891V23.582H194.816V21.7891H199.973ZM206.172 24.1328C206.172 23.5625 206.252 22.998 206.412 22.4395C206.572 21.8848 206.811 21.377 207.127 20.916C207.443 20.4551 207.828 20.0859 208.281 19.8086L207.66 18.9531C207.184 19.2383 206.775 19.627 206.436 20.1191C206.096 20.6152 205.834 21.1777 205.65 21.8066C205.451 21.123 205.17 20.5117 204.807 19.9727C204.447 19.4375 204.02 19.0195 203.523 18.7188L202.832 19.5508C203.312 19.8398 203.723 20.2227 204.062 20.6992C204.402 21.1797 204.658 21.7109 204.83 22.293C205.006 22.8789 205.094 23.4766 205.094 24.0859V26.043H206.172V24.1328ZM212.008 16.5039H210.941V27.0039H212.008V16.5039ZM209.828 17.0195H208.773V22.3867H207.145V23.3125H208.773V26.8047H209.828V17.0195ZM222.953 17.8164H213.344V18.7422H215.641V21.4844C215.203 21.7266 214.863 22.0332 214.621 22.4043C214.379 22.7754 214.258 23.1914 214.258 23.6523C214.258 24.1953 214.422 24.6738 214.75 25.0879C215.082 25.502 215.541 25.8223 216.127 26.0488C216.713 26.2793 217.379 26.3945 218.125 26.3945C218.875 26.3945 219.543 26.2793 220.129 26.0488C220.719 25.8223 221.178 25.502 221.506 25.0879C221.838 24.6738 222.004 24.1953 222.004 23.6523C222.004 23.1953 221.887 22.7832 221.652 22.416C221.418 22.0527 221.086 21.75 220.656 21.5078V18.7422H222.953V17.8164ZM218.125 25.5039C217.578 25.5039 217.094 25.4277 216.672 25.2754C216.25 25.127 215.922 24.9121 215.688 24.6309C215.453 24.3535 215.336 24.0273 215.336 23.6523C215.336 23.2812 215.453 22.9551 215.688 22.6738C215.922 22.3926 216.25 22.1738 216.672 22.0176C217.094 21.8652 217.578 21.7891 218.125 21.7891C218.668 21.7891 219.15 21.8652 219.572 22.0176C219.998 22.1738 220.33 22.3926 220.568 22.6738C220.807 22.9551 220.926 23.2812 220.926 23.6523C220.926 24.0234 220.807 24.3496 220.568 24.6309C220.334 24.9121 220.004 25.127 219.578 25.2754C219.156 25.4277 218.672 25.5039 218.125 25.5039ZM219.531 18.7422V21.0801C219.105 20.9746 218.637 20.9219 218.125 20.9219C217.633 20.9219 217.172 20.9727 216.742 21.0742V18.7422H219.531ZM225.543 19.9492H224.383L224.277 25.9844H225.648L225.543 19.9492ZM224.969 17.418C224.82 17.418 224.68 17.4551 224.547 17.5293C224.418 17.6035 224.316 17.7051 224.242 17.834C224.168 17.9629 224.133 18.1016 224.137 18.25C224.133 18.3984 224.168 18.5371 224.242 18.666C224.316 18.7949 224.418 18.8965 224.547 18.9707C224.68 19.0449 224.82 19.082 224.969 19.082C225.113 19.082 225.25 19.0449 225.379 18.9707C225.508 18.8965 225.609 18.7949 225.684 18.666C225.762 18.5371 225.801 18.3984 225.801 18.25C225.801 18.1016 225.762 17.9629 225.684 17.834C225.609 17.7051 225.508 17.6035 225.379 17.5293C225.25 17.4551 225.113 17.418 224.969 17.418Z" fill="#4B4B4B"/>
<mask id="mask0_18023_23823" style="mask-type:alpha" maskUnits="userSpaceOnUse" x="227" y="12" width="20" height="20">
<rect width="20" height="20" transform="matrix(1 0 0 -1 227 32)" fill="#D9D9D9"/>
</mask>
<g mask="url(#mask0_18023_23823)">
<path d="M237 21.2179L234.276 18.5129C234.154 18.392 234.028 18.333 233.898 18.3358C233.767 18.3384 233.642 18.4001 233.521 18.5208C233.4 18.6415 233.34 18.7684 233.34 18.9014C233.34 19.0345 233.4 19.1619 233.521 19.2837L236.218 22L233.513 24.7033C233.392 24.8252 233.333 24.9527 233.336 25.0858C233.339 25.2187 233.4 25.3455 233.521 25.4662C233.642 25.587 233.769 25.6475 233.902 25.6475C234.035 25.6475 234.162 25.587 234.284 25.4662L237 22.7612L239.704 25.4662C239.825 25.587 239.952 25.6475 240.082 25.6475C240.212 25.6475 240.338 25.587 240.459 25.4662C240.574 25.3509 240.632 25.2254 240.632 25.0898C240.632 24.9541 240.574 24.8252 240.459 24.7033L237.761 22L240.466 19.2758C240.587 19.1538 240.648 19.0277 240.648 18.8975C240.648 18.767 240.587 18.6415 240.466 18.5208C240.351 18.4054 240.226 18.3477 240.09 18.3477C239.954 18.3477 239.825 18.4054 239.704 18.5208L237 21.2179Z" fill="white"/>
</g>
</g>
<path d="M26.2539 19.5898C26.2539 20.1719 26.3711 20.748 26.6055 21.3184C26.8438 21.8887 27.1719 22.3984 27.5898 22.8477C28.0117 23.293 28.4883 23.6289 29.0195 23.8555L28.4102 24.7227C27.7969 24.4531 27.2539 24.0469 26.7812 23.5039C26.3086 22.957 25.9492 22.3301 25.7031 21.623C25.457 22.377 25.0957 23.0527 24.6191 23.6504C24.1465 24.248 23.6094 24.6953 23.0078 24.9922L22.3633 24.1133C22.8789 23.8711 23.3477 23.5098 23.7695 23.0293C24.1914 22.5449 24.5215 22 24.7598 21.3945C25.002 20.7852 25.125 20.1836 25.1289 19.5898V18.4766H22.7266V17.5508H28.6445V18.4766H26.2539V19.5898ZM31.082 26.9961H29.9688V16.4961H31.082V26.9961ZM41.1484 17.8203C41.1484 18.3906 41.1328 18.8984 41.1016 19.3438C41.0742 19.7891 41 20.293 40.8789 20.8555H42.3672V21.7695H32.7578V20.8555H39.7539C39.8789 20.3086 39.959 19.8164 39.9941 19.3789C40.0293 18.9414 40.0469 18.4609 40.0469 17.9375H33.9648V17.0234H41.1484V17.8203ZM41.1602 26.8672H33.9297V23.1055H41.1602V26.8672ZM35.0195 25.9648H40.0586V23.9844H35.0195V25.9648ZM54.7773 27.0195H53.6641V16.4961H54.7773V27.0195ZM51.5664 21.2773H47.793V23.5742C48.7148 23.5703 49.5605 23.541 50.3301 23.4863C51.1035 23.4316 51.9062 23.3359 52.7383 23.1992L52.8438 24.1133C51.9688 24.2617 51.1191 24.3633 50.2949 24.418C49.4746 24.4727 48.5586 24.5 47.5469 24.5H46.6562V20.3867H50.4297V18.3477H46.6445V17.4453H51.5664V21.2773ZM66.0273 23.4805H63.6719V26.9961H62.5586V23.4805H59.8984V26.9961H58.7617V23.4805H56.418V22.5664H66.0273V23.4805ZM58.7148 18.2422H63.707V16.9062H64.8203V21.4062H57.6133V16.9062H58.7148V18.2422ZM63.707 20.5156V19.1211H58.7148V20.5156H63.707ZM74.9805 20.6797H76.6094V21.6055H74.9805V26.9844H73.8672V16.4961H74.9805V20.6797ZM72.2383 17.5977C72.2305 19.1992 71.8418 20.6367 71.0723 21.9102C70.3027 23.1836 69.0898 24.2305 67.4336 25.0508L66.8125 24.1836C68.125 23.5273 69.1387 22.7266 69.8535 21.7812C70.5723 20.8359 70.9883 19.75 71.1016 18.5234H67.3398V17.5977H72.2383ZM88.2812 20.6797H89.9102V21.6055H88.2812V26.9844H87.168V16.4961H88.2812V20.6797ZM85.5391 17.5977C85.5312 19.1992 85.1426 20.6367 84.373 21.9102C83.6035 23.1836 82.3906 24.2305 80.7344 25.0508L80.1133 24.1836C81.4258 23.5273 82.4395 22.7266 83.1543 21.7812C83.873 20.8359 84.2891 19.75 84.4023 18.5234H80.6406V17.5977H85.5391ZM94.1406 18.4297C94.1406 18.875 94.2402 19.3008 94.4395 19.707C94.6387 20.1094 94.9277 20.4668 95.3066 20.7793C95.6855 21.0879 96.1367 21.3242 96.6602 21.4883L96.1328 22.3555C95.543 22.168 95.0312 21.8867 94.5977 21.5117C94.168 21.1367 93.8359 20.6953 93.6016 20.1875C93.3711 20.7695 93.0293 21.2773 92.5762 21.7109C92.123 22.1406 91.5859 22.4648 90.9648 22.6836L90.3906 21.793C90.9258 21.6172 91.3906 21.3594 91.7852 21.0195C92.1836 20.6758 92.4883 20.2812 92.6992 19.8359C92.9141 19.3906 93.0234 18.9258 93.0273 18.4414V18.1484H90.7188V17.2461H96.4023V18.1484H94.1406V18.4297ZM98.7227 19.0977H100.246V20.0117H98.7227V22.8008H97.6094V16.4961H98.7227V19.0977ZM95.3359 23.0586C96.0547 23.0586 96.6758 23.1367 97.1992 23.293C97.7227 23.4453 98.123 23.668 98.4004 23.9609C98.6777 24.25 98.8164 24.5977 98.8164 25.0039C98.8164 25.4141 98.6758 25.7676 98.3945 26.0645C98.1172 26.3613 97.7168 26.5879 97.1934 26.7441C96.6738 26.9004 96.0547 26.9766 95.3359 26.9727C94.6094 26.9766 93.9805 26.9004 93.4492 26.7441C92.9219 26.5879 92.5156 26.3613 92.2305 26.0645C91.9492 25.7676 91.8086 25.4141 91.8086 25.0039C91.8086 24.5977 91.9492 24.25 92.2305 23.9609C92.5156 23.668 92.9219 23.4453 93.4492 23.293C93.9805 23.1367 94.6094 23.0586 95.3359 23.0586ZM95.3359 23.9375C94.5703 23.9375 93.9746 24.0312 93.5488 24.2188C93.127 24.4023 92.918 24.6641 92.9219 25.0039C92.918 25.3516 93.127 25.6211 93.5488 25.8125C93.9746 26 94.5703 26.0938 95.3359 26.0938C96.0938 26.0938 96.6816 26 97.0996 25.8125C97.5176 25.625 97.7266 25.3555 97.7266 25.0039C97.7266 24.6641 97.5176 24.4023 97.0996 24.2188C96.6816 24.0312 96.0938 23.9375 95.3359 23.9375ZM112.023 18.8047H113.547V19.7305H112.023V21.8281H110.91V16.4961H112.023V18.8047ZM109.094 21.4883H104.184V17.1758H109.094V21.4883ZM105.273 20.5977H108.004V18.0664H105.273V20.5977ZM105.918 25.8008C106.676 25.7656 107.34 25.6523 107.91 25.4609L108.074 26.3398C107.637 26.4883 107.197 26.5879 106.756 26.6387C106.314 26.6895 105.852 26.7148 105.367 26.7148H104.828V22.7422H105.918V25.8008ZM113.008 23.6797H107.711V22.8594H109.832V21.9805H110.922V22.8594H113.008V23.6797ZM110.359 24.0195C110.746 24.0234 111.088 24.0859 111.385 24.207C111.686 24.3242 111.92 24.4941 112.088 24.7168C112.256 24.9355 112.34 25.1953 112.34 25.4961C112.34 25.7969 112.256 26.0586 112.088 26.2812C111.92 26.5039 111.686 26.6738 111.385 26.791C111.088 26.9121 110.746 26.9727 110.359 26.9727C109.965 26.9727 109.617 26.9121 109.316 26.791C109.016 26.6738 108.783 26.5039 108.619 26.2812C108.455 26.0586 108.375 25.7969 108.379 25.4961C108.375 25.1953 108.455 24.9355 108.619 24.7168C108.783 24.4941 109.016 24.3242 109.316 24.207C109.617 24.0859 109.965 24.0234 110.359 24.0195ZM110.359 24.793C110.062 24.8008 109.822 24.8672 109.639 24.9922C109.455 25.1133 109.363 25.2812 109.363 25.4961C109.363 25.7148 109.455 25.8887 109.639 26.0176C109.822 26.1465 110.062 26.2109 110.359 26.2109C110.652 26.2109 110.889 26.1465 111.068 26.0176C111.252 25.8887 111.344 25.7148 111.344 25.4961C111.344 25.2852 111.252 25.1172 111.068 24.9922C110.889 24.8672 110.652 24.8008 110.359 24.793ZM123.719 22.8711H114.145V21.9805H123.719V22.8711ZM122.641 26.7734H115.352V23.7266H116.477V25.8711H122.641V26.7734ZM118.926 16.8477C119.68 16.8438 120.338 16.9258 120.9 17.0938C121.467 17.2617 121.904 17.5039 122.213 17.8203C122.521 18.1367 122.676 18.5117 122.676 18.9453C122.676 19.3828 122.521 19.7617 122.213 20.082C121.908 20.3984 121.473 20.6426 120.906 20.8145C120.34 20.9863 119.68 21.0742 118.926 21.0781C118.168 21.0742 117.506 20.9863 116.939 20.8145C116.377 20.6426 115.941 20.3984 115.633 20.082C115.328 19.7617 115.176 19.3828 115.176 18.9453C115.176 18.5117 115.328 18.1367 115.633 17.8203C115.941 17.5039 116.377 17.2617 116.939 17.0938C117.506 16.9258 118.168 16.8438 118.926 16.8477ZM118.926 17.7383C118.395 17.7383 117.932 17.7871 117.537 17.8848C117.146 17.9824 116.846 18.123 116.635 18.3066C116.424 18.4863 116.32 18.6992 116.324 18.9453C116.32 19.1992 116.422 19.418 116.629 19.6016C116.84 19.7852 117.141 19.9258 117.531 20.0234C117.926 20.1172 118.391 20.1641 118.926 20.1641C119.461 20.1641 119.924 20.1172 120.314 20.0234C120.705 19.9258 121.004 19.7852 121.211 19.6016C121.422 19.418 121.527 19.1992 121.527 18.9453C121.527 18.6992 121.422 18.4863 121.211 18.3066C121 18.123 120.699 17.9824 120.309 17.8848C119.918 17.7871 119.457 17.7383 118.926 17.7383ZM131.066 18.1719C131.066 18.6328 131.168 19.0742 131.371 19.4961C131.578 19.918 131.871 20.291 132.25 20.6152C132.633 20.9355 133.082 21.1797 133.598 21.3477L133 22.2266C132.434 22.0273 131.938 21.7324 131.512 21.3418C131.09 20.9473 130.764 20.4883 130.533 19.9648C130.303 20.5625 129.967 21.082 129.525 21.5234C129.088 21.9609 128.566 22.293 127.961 22.5195L127.363 21.6289C127.902 21.4375 128.365 21.1641 128.752 20.8086C129.143 20.4492 129.441 20.0352 129.648 19.5664C129.855 19.0977 129.961 18.6016 129.965 18.0781V17.0469H131.066V18.1719ZM135.695 19.1328H137.219V20.0703H135.695V22.8359H134.582V16.4961H135.695V19.1328ZM132.309 23.082C133.023 23.082 133.643 23.1602 134.166 23.3164C134.689 23.4688 135.09 23.6914 135.367 23.9844C135.648 24.2734 135.789 24.6211 135.789 25.0273C135.789 25.4375 135.648 25.7891 135.367 26.082C135.09 26.375 134.689 26.5977 134.166 26.75C133.643 26.9023 133.023 26.9766 132.309 26.9727C131.586 26.9766 130.959 26.9023 130.428 26.75C129.896 26.5977 129.488 26.375 129.203 26.082C128.922 25.7891 128.781 25.4375 128.781 25.0273C128.781 24.6211 128.922 24.2734 129.203 23.9844C129.488 23.6914 129.896 23.4688 130.428 23.3164C130.959 23.1602 131.586 23.082 132.309 23.082ZM132.309 23.9609C131.805 23.9609 131.371 24.0039 131.008 24.0898C130.645 24.1719 130.367 24.293 130.176 24.4531C129.984 24.6133 129.891 24.8047 129.895 25.0273C129.891 25.3711 130.1 25.6348 130.521 25.8184C130.943 26.002 131.539 26.0977 132.309 26.1055C133.07 26.0977 133.658 26.002 134.072 25.8184C134.49 25.6348 134.699 25.3711 134.699 25.0273C134.699 24.6914 134.488 24.4297 134.066 24.2422C133.648 24.0547 133.062 23.9609 132.309 23.9609ZM146.57 22.6133H145.457V19.9766H143.488V19.0508H145.457V16.4961H146.57V22.6133ZM146.57 26.8672H139.645V23.1055H146.57V26.8672ZM140.746 25.9648H145.48V23.9844H140.746V25.9648ZM141.578 18.2891C141.578 18.7266 141.68 19.1543 141.883 19.5723C142.086 19.9902 142.379 20.3633 142.762 20.6914C143.145 21.0195 143.594 21.2734 144.109 21.4531L143.535 22.332C142.957 22.1289 142.453 21.8281 142.023 21.4297C141.594 21.0273 141.262 20.5625 141.027 20.0352C140.797 20.6211 140.455 21.1348 140.002 21.5762C139.553 22.0137 139.02 22.3398 138.402 22.5547L137.828 21.6758C138.355 21.4961 138.816 21.2324 139.211 20.8848C139.605 20.5371 139.908 20.1387 140.119 19.6895C140.334 19.2363 140.441 18.7695 140.441 18.2891V18.043H138.168V17.1289H143.828V18.043H141.578V18.2891ZM152.969 16.6719C153.758 16.6719 154.432 16.7422 154.99 16.8828C155.553 17.0195 155.98 17.2227 156.273 17.4922C156.57 17.7617 156.719 18.0898 156.719 18.4766C156.719 18.8633 156.57 19.1934 156.273 19.4668C155.98 19.7363 155.553 19.9414 154.99 20.082C154.432 20.2227 153.758 20.293 152.969 20.293C152.18 20.293 151.504 20.2227 150.941 20.082C150.383 19.9414 149.955 19.7363 149.658 19.4668C149.365 19.1934 149.219 18.8633 149.219 18.4766C149.219 18.0898 149.365 17.7617 149.658 17.4922C149.955 17.2227 150.383 17.0195 150.941 16.8828C151.504 16.7422 152.18 16.6719 152.969 16.6719ZM152.969 17.4922C152.133 17.4922 151.49 17.5781 151.041 17.75C150.592 17.9219 150.371 18.1641 150.379 18.4766C150.375 18.7969 150.594 19.041 151.035 19.209C151.48 19.377 152.125 19.4609 152.969 19.4609C153.809 19.4609 154.451 19.377 154.896 19.209C155.346 19.041 155.57 18.7969 155.57 18.4766C155.57 18.1641 155.344 17.9219 154.891 17.75C154.441 17.5781 153.801 17.4922 152.969 17.4922ZM157.762 21.8281H148.188V20.9375H157.762V21.8281ZM156.555 25.0977H150.438V26.0352H156.848V26.8906H149.348V24.2891H155.453V23.4688H149.336V22.6367H156.555V25.0977ZM169.75 19.625H171.25V20.5391H169.75V23.5742H168.637V16.5078H169.75V19.625ZM161.418 22.4023C162.59 22.4023 163.504 22.3926 164.16 22.373V21.6699C163.555 21.6035 163.078 21.4355 162.73 21.166C162.383 20.8965 162.211 20.5508 162.215 20.1289C162.211 19.8125 162.311 19.5371 162.514 19.3027C162.721 19.0684 163.014 18.8887 163.393 18.7637C163.771 18.6387 164.211 18.5781 164.711 18.582C165.207 18.5781 165.643 18.6387 166.018 18.7637C166.396 18.8887 166.689 19.0684 166.896 19.3027C167.104 19.5371 167.207 19.8125 167.207 20.1289C167.207 20.5469 167.033 20.8926 166.686 21.166C166.342 21.4355 165.871 21.6035 165.273 21.6699V22.332C166.32 22.2812 167.242 22.1992 168.039 22.0859L168.133 22.8828C167.137 23.0586 166.111 23.1719 165.057 23.2227C164.006 23.2695 162.832 23.293 161.535 23.293L161.418 22.4023ZM169.75 26.9961H168.637V24.9336H162.73V24.0664H169.75V26.9961ZM167.746 18.2305H161.688V17.3984H164.16V16.4141H165.273V17.3984H167.746V18.2305ZM164.711 19.3438C164.258 19.3359 163.904 19.4023 163.65 19.543C163.396 19.6836 163.27 19.8789 163.27 20.1289C163.27 20.375 163.396 20.5723 163.65 20.7207C163.908 20.8652 164.262 20.9375 164.711 20.9375C165.152 20.9375 165.5 20.8652 165.754 20.7207C166.012 20.5723 166.141 20.375 166.141 20.1289C166.141 19.8789 166.014 19.6836 165.76 19.543C165.506 19.4023 165.156 19.3359 164.711 19.3438ZM180.566 24.1367H179.453V16.5078H180.566V24.1367ZM180.883 26.7734H173.699V23.3633H174.824V25.8711H180.883V26.7734ZM174.871 17.2109C175.395 17.2109 175.867 17.3223 176.289 17.5449C176.715 17.7676 177.049 18.0762 177.291 18.4707C177.537 18.8652 177.66 19.3125 177.66 19.8125C177.66 20.3203 177.537 20.7734 177.291 21.1719C177.049 21.5664 176.715 21.875 176.289 22.0977C175.867 22.3164 175.395 22.4258 174.871 22.4258C174.348 22.4258 173.873 22.3164 173.447 22.0977C173.021 21.875 172.686 21.5645 172.439 21.166C172.193 20.7676 172.07 20.3164 172.07 19.8125C172.07 19.3125 172.193 18.8652 172.439 18.4707C172.686 18.0762 173.021 17.7676 173.447 17.5449C173.873 17.3223 174.348 17.2109 174.871 17.2109ZM174.871 18.1836C174.547 18.1836 174.254 18.2539 173.992 18.3945C173.734 18.5312 173.531 18.7227 173.383 18.9688C173.234 19.2148 173.16 19.4961 173.16 19.8125C173.16 20.1367 173.232 20.4238 173.377 20.6738C173.525 20.9199 173.729 21.1113 173.986 21.248C174.248 21.3848 174.543 21.4531 174.871 21.4531C175.191 21.4531 175.48 21.3848 175.738 21.248C175.996 21.1113 176.199 20.918 176.348 20.668C176.496 20.418 176.57 20.1328 176.57 19.8125C176.57 19.5 176.496 19.2207 176.348 18.9746C176.199 18.7246 175.994 18.5312 175.732 18.3945C175.475 18.2539 175.188 18.1836 174.871 18.1836ZM187.422 19.1328H182.207V18.2305H184.27V16.8008H185.371V18.2305H187.422V19.1328ZM184.82 19.7656C185.262 19.7656 185.654 19.8691 185.998 20.0762C186.342 20.2793 186.611 20.5645 186.807 20.9316C187.002 21.2949 187.102 21.7109 187.105 22.1797C187.102 22.6523 187.002 23.0742 186.807 23.4453C186.611 23.8125 186.342 24.0996 185.998 24.3066C185.654 24.5137 185.262 24.6172 184.82 24.6172C184.387 24.6172 183.996 24.5137 183.648 24.3066C183.301 24.0996 183.029 23.8105 182.834 23.4395C182.639 23.0684 182.543 22.6484 182.547 22.1797C182.543 21.7148 182.639 21.2988 182.834 20.9316C183.029 20.5645 183.301 20.2793 183.648 20.0762C183.996 19.8691 184.387 19.7656 184.82 19.7656ZM184.82 20.6914C184.57 20.6914 184.348 20.7559 184.152 20.8848C183.957 21.0098 183.805 21.1855 183.695 21.4121C183.586 21.6387 183.531 21.8945 183.531 22.1797C183.531 22.4727 183.586 22.7324 183.695 22.959C183.805 23.1816 183.957 23.3555 184.152 23.4805C184.348 23.6055 184.57 23.668 184.82 23.668C185.07 23.668 185.293 23.6055 185.488 23.4805C185.688 23.3555 185.842 23.1816 185.951 22.959C186.064 22.7324 186.121 22.4727 186.121 22.1797C186.121 21.8945 186.064 21.6387 185.951 21.4121C185.842 21.1855 185.688 21.0098 185.488 20.8848C185.289 20.7559 185.066 20.6914 184.82 20.6914ZM191.219 26.9961H190.164V21.7812H188.957V26.5039H187.902V16.7305H188.957V20.8672H190.164V16.4961H191.219V26.9961ZM202.211 25.6953H192.602V24.7695H196.832V22.6133H193.703V17.2109H194.816V19.0156H199.973V17.2109H201.074V22.6133H197.934V24.7695H202.211V25.6953ZM199.973 21.7109V19.918H194.816V21.7109H199.973ZM206.172 19.3672C206.172 19.9375 206.252 20.502 206.412 21.0605C206.572 21.6152 206.811 22.123 207.127 22.584C207.443 23.0449 207.828 23.4141 208.281 23.6914L207.66 24.5469C207.184 24.2617 206.775 23.873 206.436 23.3809C206.096 22.8848 205.834 22.3223 205.65 21.6934C205.451 22.377 205.17 22.9883 204.807 23.5273C204.447 24.0625 204.02 24.4805 203.523 24.7812L202.832 23.9492C203.312 23.6602 203.723 23.2773 204.062 22.8008C204.402 22.3203 204.658 21.7891 204.83 21.207C205.006 20.6211 205.094 20.0234 205.094 19.4141V17.457H206.172V19.3672ZM212.008 26.9961H210.941V16.4961H212.008V26.9961ZM209.828 26.4805H208.773V21.1133H207.145V20.1875H208.773V16.6953H209.828V26.4805ZM222.953 25.6836H213.344V24.7578H215.641V22.0156C215.203 21.7734 214.863 21.4668 214.621 21.0957C214.379 20.7246 214.258 20.3086 214.258 19.8477C214.258 19.3047 214.422 18.8262 214.75 18.4121C215.082 17.998 215.541 17.6777 216.127 17.4512C216.713 17.2207 217.379 17.1055 218.125 17.1055C218.875 17.1055 219.543 17.2207 220.129 17.4512C220.719 17.6777 221.178 17.998 221.506 18.4121C221.838 18.8262 222.004 19.3047 222.004 19.8477C222.004 20.3047 221.887 20.7168 221.652 21.084C221.418 21.4473 221.086 21.75 220.656 21.9922V24.7578H222.953V25.6836ZM218.125 17.9961C217.578 17.9961 217.094 18.0723 216.672 18.2246C216.25 18.373 215.922 18.5879 215.688 18.8691C215.453 19.1465 215.336 19.4727 215.336 19.8477C215.336 20.2188 215.453 20.5449 215.688 20.8262C215.922 21.1074 216.25 21.3262 216.672 21.4824C217.094 21.6348 217.578 21.7109 218.125 21.7109C218.668 21.7109 219.15 21.6348 219.572 21.4824C219.998 21.3262 220.33 21.1074 220.568 20.8262C220.807 20.5449 220.926 20.2188 220.926 19.8477C220.926 19.4766 220.807 19.1504 220.568 18.8691C220.334 18.5879 220.004 18.373 219.578 18.2246C219.156 18.0723 218.672 17.9961 218.125 17.9961ZM219.531 24.7578V22.4199C219.105 22.5254 218.637 22.5781 218.125 22.5781C217.633 22.5781 217.172 22.5273 216.742 22.4258V24.7578H219.531ZM225.543 23.5508H224.383L224.277 17.5156H225.648L225.543 23.5508ZM224.969 26.082C224.82 26.082 224.68 26.0449 224.547 25.9707C224.418 25.8965 224.316 25.7949 224.242 25.666C224.168 25.5371 224.133 25.3984 224.137 25.25C224.133 25.1016 224.168 24.9629 224.242 24.834C224.316 24.7051 224.418 24.6035 224.547 24.5293C224.68 24.4551 224.82 24.418 224.969 24.418C225.113 24.418 225.25 24.4551 225.379 24.5293C225.508 24.6035 225.609 24.7051 225.684 24.834C225.762 24.9629 225.801 25.1016 225.801 25.25C225.801 25.3984 225.762 25.5371 225.684 25.666C225.609 25.7949 225.508 25.8965 225.379 25.9707C225.25 26.0449 225.113 26.082 224.969 26.082Z" fill="white"/>
<defs>
<filter id="filter0_dd_18023_23823" x="0" y="0" width="269" height="60" filterUnits="userSpaceOnUse" color-interpolation-filters="sRGB">
<feFlood flood-opacity="0" result="BackgroundImageFix"/>
<feColorMatrix in="SourceAlpha" type="matrix" values="0 0 0 0 0 0 0 0 0 0 0 0 0 0 0 0 0 0 127 0" result="hardAlpha"/>
<feOffset dy="4"/>
<feGaussianBlur stdDeviation="5"/>
<feColorMatrix type="matrix" values="0 0 0 0 0 0 0 0 0 0 0 0 0 0 0 0 0 0 0.08 0"/>
<feBlend mode="normal" in2="BackgroundImageFix" result="effect1_dropShadow_18023_23823"/>
<feColorMatrix in="SourceAlpha" type="matrix" values="0 0 0 0 0 0 0 0 0 0 0 0 0 0 0 0 0 0 127 0" result="hardAlpha"/>
<feOffset dy="1"/>
<feGaussianBlur stdDeviation="2"/>
<feColorMatrix type="matrix" values="0 0 0 0 0 0 0 0 0 0 0 0 0 0 0 0 0 0 0.04 0"/>
<feBlend mode="normal" in2="effect1_dropShadow_18023_23823" result="effect2_dropShadow_18023_23823"/>
<feBlend mode="normal" in="SourceGraphic" in2="effect2_dropShadow_18023_23823" result="shape"/>
</filter>
</defs>
</svg>
