<svg width="62" height="62" viewBox="0 0 62 62" fill="none" xmlns="http://www.w3.org/2000/svg">
<g opacity="0.6">
<rect width="62" height="62" rx="31" fill="#F5F5F5"/>
<path d="M20.9254 20.2741C20.1267 19.5111 20.0977 18.2451 20.8607 17.4464C21.6237 16.6477 22.8897 16.6187 23.6884 17.3817L38.3621 31.399C38.6895 31.7117 38.8792 32.1417 38.8896 32.5943C38.8999 33.0469 39.0897 33.4769 39.417 33.7897L45.052 39.1726C45.2517 39.3633 45.5682 39.3561 45.759 39.1564C45.9497 38.9567 46.2662 38.9495 46.4659 39.1402L46.6156 39.2833C46.7513 39.4128 46.8298 39.5909 46.8341 39.7784L46.8436 40.1925C46.854 40.6452 46.6841 41.0834 46.3713 41.4108L45.9667 41.8343C45.654 42.1617 45.224 42.3515 44.7714 42.3618L44.3573 42.3713C44.1698 42.3756 43.9883 42.3052 43.8527 42.1757L43.7029 42.0326C43.5032 41.8419 43.496 41.5254 43.6867 41.3257C43.8775 41.126 43.8702 40.8095 43.6705 40.6188L38.0355 35.2359C37.7082 34.9231 37.2699 34.7532 36.8173 34.7636C36.3647 34.774 35.9265 34.6041 35.5991 34.2913L20.9254 20.2741Z" fill="url(#paint0_linear_32863_77608)"/>
<path d="M20.9254 20.2741C20.1267 19.5111 20.0977 18.2451 20.8607 17.4464C21.6237 16.6477 22.8897 16.6187 23.6884 17.3817L38.3621 31.399C38.6895 31.7117 38.8792 32.1417 38.8896 32.5943C38.8999 33.0469 39.0897 33.4769 39.417 33.7897L45.052 39.1726C45.2517 39.3633 45.5682 39.3561 45.759 39.1564C45.9497 38.9567 46.2662 38.9495 46.4659 39.1402L46.6156 39.2833C46.7513 39.4128 46.8298 39.5909 46.8341 39.7784L46.8436 40.1925C46.854 40.6452 46.6841 41.0834 46.3713 41.4108L45.9667 41.8343C45.654 42.1617 45.224 42.3515 44.7714 42.3618L44.3573 42.3713C44.1698 42.3756 43.9883 42.3052 43.8527 42.1757L43.7029 42.0326C43.5032 41.8419 43.496 41.5254 43.6867 41.3257C43.8775 41.126 43.8702 40.8095 43.6705 40.6188L38.0355 35.2359C37.7082 34.9231 37.2699 34.7532 36.8173 34.7636C36.3647 34.774 35.9265 34.6041 35.5991 34.2913L20.9254 20.2741Z" fill="url(#paint1_linear_32863_77608)" fill-opacity="0.2"/>
<path d="M28.5104 32.0111C31.8299 35.3305 31.8299 40.7124 28.5104 44.0319C25.191 47.3513 19.809 47.3513 16.4896 44.0319C13.1701 40.7124 13.1701 35.3305 16.4896 32.0111C19.809 28.6916 25.191 28.6916 28.5104 32.0111Z" fill="#284268"/>
<path d="M27.9794 43.8558C26.1286 45.5962 23.6543 46.2913 21.3047 45.9385C22.2157 44.1348 21.9666 41.8955 20.5541 40.332L20.5492 40.3272L22.5 38.3764L27.9794 43.8558Z" fill="#BA6847"/>
<path d="M24.8098 36.0763C26.3731 37.4886 28.6121 37.7382 30.4156 36.8276C30.7683 39.177 30.0739 41.6509 28.3336 43.5016L22.8542 38.0222L24.805 36.0714L24.8098 36.0763Z" fill="#BA6847"/>
<path d="M20.1957 40.6807C21.4899 42.1251 21.6868 44.2031 20.7902 45.8425C19.4185 45.5439 18.1116 44.8818 17.0206 43.8558L20.1957 40.6807Z" fill="#BA6847"/>
<path d="M28.3336 32.5428C29.3597 33.634 30.0211 34.9412 30.3196 36.3131C28.6804 37.2092 26.6027 37.0119 25.1586 35.7179L28.3336 32.5428Z" fill="#BA6847"/>
<path d="M14.679 39.7312C16.3184 38.8345 18.397 39.0321 19.8414 40.3265L16.6664 43.5016C15.6402 42.4103 14.9775 41.1032 14.679 39.7312Z" fill="#BA6847"/>
<path d="M17.0199 32.1879C18.8704 30.4478 21.3447 29.7535 23.6939 30.1059C22.7821 31.9116 23.0341 34.1536 24.4508 35.7172L22.5 37.6679L17.0199 32.1879Z" fill="#BA6847"/>
<path d="M24.2084 30.2019C25.5806 30.5003 26.888 31.1623 27.9794 32.1885L24.8043 35.3636C23.5102 33.9194 23.3121 31.8412 24.2084 30.2019Z" fill="#BA6847"/>
<path d="M22.1458 38.0222L20.1957 39.9722C18.6319 38.5553 16.3888 38.3044 14.583 39.2168C14.2304 36.8674 14.9254 34.3927 16.6657 32.5421L22.1458 38.0222Z" fill="#BA6847"/>
<path d="M37.4792 43C37.4792 44.6569 36.136 46 34.4792 46C32.8223 46 31.4792 44.6569 31.4792 43C31.4792 41.3431 32.8223 40 34.4792 40C36.136 40 37.4792 41.3431 37.4792 43Z" fill="#EEF4C3"/>
<path d="M34.4792 40C35.4218 40 36.2622 40.4353 36.8122 41.1152C36.0358 41.39 35.4792 42.1295 35.4792 43C35.4792 43.8704 36.0359 44.6089 36.8122 44.8838C36.2622 45.5641 35.4221 46 34.4792 46C33.5361 46 32.6952 45.5643 32.1452 44.8838C32.9219 44.6092 33.4792 43.8707 33.4792 43C33.4792 42.1291 32.9221 41.3898 32.1452 41.1152C32.6952 40.435 33.5363 40 34.4792 40Z" fill="url(#paint2_linear_32863_77608)"/>
<path d="M31.8542 41.5488C32.501 41.7155 32.9792 42.3012 32.9792 43C32.9792 43.6987 32.5008 44.2835 31.8542 44.4502C31.6161 44.0202 31.4792 43.5263 31.4792 43C31.4792 42.4734 31.6159 41.979 31.8542 41.5488Z" fill="url(#paint3_linear_32863_77608)"/>
<path d="M37.1032 41.5488C37.3417 41.9791 37.4792 42.4732 37.4792 43C37.4792 43.5265 37.3414 44.0201 37.1032 44.4502C36.457 44.2831 35.9792 43.6984 35.9792 43C35.9792 42.3015 36.4569 41.7158 37.1032 41.5488Z" fill="url(#paint4_linear_32863_77608)"/>
<path d="M34.4792 19C34.4792 20.6569 33.136 22 31.4792 22C29.8223 22 28.4792 20.6569 28.4792 19C28.4792 17.3431 29.8223 16 31.4792 16C33.136 16 34.4792 17.3431 34.4792 19Z" fill="#E74343"/>
<path d="M31.4792 16C32.4218 16 33.2622 16.4353 33.8122 17.1152C33.0358 17.39 32.4792 18.1295 32.4792 19C32.4792 19.8704 33.0359 20.6089 33.8122 20.8838C33.2622 21.5641 32.4221 22 31.4792 22C30.5361 22 29.6952 21.5643 29.1452 20.8838C29.9219 20.6092 30.4792 19.8707 30.4792 19C30.4792 18.1291 29.9221 17.3898 29.1452 17.1152C29.6952 16.435 30.5363 16 31.4792 16Z" fill="white"/>
<path d="M28.8542 17.5488C29.501 17.7155 29.9792 18.3012 29.9792 19C29.9792 19.6987 29.5008 20.2835 28.8542 20.4502C28.6161 20.0202 28.4792 19.5263 28.4792 19C28.4792 18.4734 28.6159 17.979 28.8542 17.5488Z" fill="white"/>
<path d="M34.1032 17.5488C34.3417 17.9791 34.4792 18.4732 34.4792 19C34.4792 19.5265 34.3414 20.0201 34.1032 20.4502C33.457 20.2831 32.9792 19.6984 32.9792 19C32.9792 18.3015 33.4569 17.7158 34.1032 17.5488Z" fill="white"/>
<path d="M39.4792 24.8889C39.4792 22.7411 41.4939 21 43.9792 21C46.4645 21 48.4792 22.7411 48.4792 24.8889V27.6942C48.4792 28.7323 47.7747 29.674 46.6792 30.1L46.6195 30.1232C45.5604 30.5351 44.8792 31.4455 44.8792 32.4493V34.2222C44.8792 34.6518 44.4762 35 43.9792 35C43.4821 35 43.0792 34.6518 43.0792 34.2222V32.4493C43.0792 31.4455 42.398 30.5351 41.3388 30.1232L41.2792 30.1C40.1837 29.674 39.4792 28.7323 39.4792 27.6942V24.8889Z" fill="url(#paint5_linear_32863_77608)"/>
<path d="M43.0792 29.4006H44.8792V34.2222C44.8792 34.6518 44.4762 35 43.9792 35C43.4821 35 43.0792 34.6518 43.0792 34.2222V29.4006Z" fill="#7F7F7F"/>
</g>
<defs>
<linearGradient id="paint0_linear_32863_77608" x1="14" y1="28.6446" x2="48.4792" y2="28.6447" gradientUnits="userSpaceOnUse">
<stop stop-color="#A07C6B"/>
<stop offset="0.274038" stop-color="#BA907B"/>
<stop offset="1" stop-color="#C79A83"/>
</linearGradient>
<linearGradient id="paint1_linear_32863_77608" x1="31.2396" y1="16" x2="31.2396" y2="44.7774" gradientUnits="userSpaceOnUse">
<stop/>
<stop offset="1" stop-color="#6E6469"/>
</linearGradient>
<linearGradient id="paint2_linear_32863_77608" x1="31.2396" y1="16" x2="31.2396" y2="46.5215" gradientUnits="userSpaceOnUse">
<stop stop-color="#DEF135"/>
<stop offset="0.576923" stop-color="#C7DF2C"/>
<stop offset="1" stop-color="#7EA30E"/>
</linearGradient>
<linearGradient id="paint3_linear_32863_77608" x1="31.2396" y1="16" x2="31.2396" y2="46.5215" gradientUnits="userSpaceOnUse">
<stop stop-color="#DEF135"/>
<stop offset="0.576923" stop-color="#C7DF2C"/>
<stop offset="1" stop-color="#7EA30E"/>
</linearGradient>
<linearGradient id="paint4_linear_32863_77608" x1="31.2396" y1="16" x2="31.2396" y2="46.5215" gradientUnits="userSpaceOnUse">
<stop stop-color="#DEF135"/>
<stop offset="0.576923" stop-color="#C7DF2C"/>
<stop offset="1" stop-color="#7EA30E"/>
</linearGradient>
<linearGradient id="paint5_linear_32863_77608" x1="38.4785" y1="26" x2="38.4785" y2="31.5" gradientUnits="userSpaceOnUse">
<stop stop-color="#EE3E54"/>
<stop offset="0.6" stop-color="#EE3E54"/>
<stop offset="0.6001" stop-color="#CC7D42"/>
</linearGradient>
</defs>
</svg>
