<svg width="223" height="44" viewBox="0 0 223 44" fill="none" xmlns="http://www.w3.org/2000/svg">
<path d="M109.948 1.91043L105 8L118 8L113.052 1.91043C112.252 0.925348 110.748 0.925347 109.948 1.91043Z" fill="#4B4B4B"/>
<rect y="8" width="223" height="36" rx="8" fill="#4B4B4B"/>
<path d="M21.9961 29.3047V30.2422H12.3867V29.3047H16.6172V27.4648H13.5586V24.125H19.7227V22.6484H13.5352V21.7344H20.8242V25.0156H14.6602V26.5508H21.0703V27.4648H17.7188V29.3047H21.9961ZM31.0781 22.0625V23.1875C31.0781 24.5469 31.0781 26.0234 30.6914 28.2617L29.5547 28.1562C29.9766 26.0586 29.9766 24.5117 29.9766 23.1875V22.9766H23.7891V22.0625H31.0781ZM32.332 29.082V30.0078H22.7578V29.082H32.332ZM41.8359 21.0078V28.6367H40.7227V21.0078H41.8359ZM42.1523 30.3711V31.2734H34.9688V27.8633H36.0938V30.3711H42.1523ZM36.1406 21.7109C37.7227 21.7109 38.9297 22.7891 38.9297 24.3125C38.9297 25.8594 37.7227 26.9258 36.1406 26.9258C34.5586 26.9258 33.3398 25.8594 33.3398 24.3125C33.3398 22.7891 34.5586 21.7109 36.1406 21.7109ZM36.1406 22.6836C35.1562 22.6836 34.4297 23.3516 34.4297 24.3125C34.4297 25.2969 35.1562 25.9531 36.1406 25.9531C37.1016 25.9531 37.8398 25.2969 37.8398 24.3125C37.8398 23.3516 37.1016 22.6836 36.1406 22.6836ZM51.6797 20.9961V25.25H53.3672V26.1758H51.6797V31.4961H50.5781V20.9961H51.6797ZM49.6641 22.6367V23.5508H43.4414V22.6367H46.0312V21.1367H47.1445V22.6367H49.6641ZM46.5938 24.3242C48.0938 24.3242 49.1953 25.332 49.207 26.7617C49.1953 28.2031 48.0938 29.1992 46.5938 29.2109C45.082 29.1992 43.9805 28.2031 43.9805 26.7617C43.9805 25.332 45.082 24.3242 46.5938 24.3242ZM46.5938 25.2383C45.7031 25.2383 45.0352 25.8594 45.0469 26.7617C45.0352 27.6758 45.7031 28.2852 46.5938 28.2734C47.4844 28.2852 48.1406 27.6758 48.1406 26.7617C48.1406 25.8594 47.4844 25.2383 46.5938 25.2383ZM62.3672 22.0039V23.0352C62.3672 24.3359 62.3672 25.7891 61.9688 27.9336L60.8438 27.8164C61.2539 25.7891 61.2539 24.3008 61.2539 23.0352V22.9062H54.8789V22.0039H62.3672ZM63.4453 29.1523V30.0781H53.8711V29.1523H57.5156V25.4492H58.6172V29.1523H63.4453ZM72.832 22.0625C72.832 25.1562 71.8008 27.9453 67.9453 29.8203L67.3477 28.9531C69.2285 28.0391 70.4004 26.9082 71.0625 25.5664L67.5586 25.8945L67.4062 24.9219L71.4141 24.6641C71.5781 24.1309 71.6836 23.5625 71.7305 22.9648H67.9336V22.0625H72.832ZM75.9023 20.9961V31.4961H74.7773V20.9961H75.9023ZM86.3203 21.0078V31.4961H85.1953V28.9883H82.875V28.1445H85.1953V21.0078H86.3203ZM77.4961 26.4688C79.4883 26.457 82.1367 26.4453 84.4336 26.1289L84.4922 26.9492C83.4961 27.125 82.459 27.2305 81.4453 27.2891V31.168H80.332V27.3477C79.3711 27.3887 78.457 27.3945 77.6484 27.3945L77.4961 26.4688ZM80.9531 21.4883C82.5 21.4883 83.6133 22.3438 83.6133 23.5859C83.6133 24.8516 82.5 25.6719 80.9531 25.6719C79.3711 25.6719 78.2695 24.8516 78.2695 23.5859C78.2695 22.3438 79.3711 21.4883 80.9531 21.4883ZM80.9531 22.3438C79.9805 22.3438 79.3125 22.8477 79.3242 23.5859C79.3125 24.3359 79.9805 24.8164 80.9531 24.8164C81.8906 24.8164 82.5586 24.3359 82.5586 23.5859C82.5586 22.8477 81.8906 22.3438 80.9531 22.3438ZM96.4219 25.9766V26.8906H89.1094V21.9336H96.3281V22.8477H90.2109V25.9766H96.4219ZM97.5234 29.1875V30.1133H87.9141V29.1875H97.5234ZM109.465 20.9961V23.1875H110.988V24.1133H109.465V26.3047H108.352V20.9961H109.465ZM109.465 26.7852V29.4453H103.793V30.4766H109.828V31.3672H102.703V28.6133H108.363V27.6523H102.68V26.7852H109.465ZM104.133 21.3594C105.727 21.3594 106.887 22.3203 106.887 23.7031C106.887 25.0859 105.727 26.0469 104.133 26.0469C102.539 26.0469 101.367 25.0859 101.379 23.7031C101.367 22.3203 102.539 21.3594 104.133 21.3594ZM104.133 22.2734C103.16 22.2734 102.457 22.8477 102.457 23.7031C102.457 24.5586 103.16 25.1562 104.133 25.1562C105.094 25.1562 105.809 24.5586 105.809 23.7031C105.809 22.8477 105.094 22.2734 104.133 22.2734ZM120.293 21.0078V27.2305H119.18V21.0078H120.293ZM116.941 21.6289V24.582H113.227V25.8477C115.061 25.8535 116.414 25.7891 118.008 25.5312L118.148 26.4453C116.438 26.7148 114.996 26.7734 113.016 26.7617H112.137V23.7148H115.84V22.5195H112.113V21.6289H116.941ZM120.293 27.7578V31.3672H113.391V27.7578H120.293ZM114.492 28.6484V30.4648H119.203V28.6484H114.492ZM126.738 21.1719C129.105 21.1719 130.488 21.8047 130.488 22.9766C130.488 24.1484 129.105 24.793 126.738 24.793C124.371 24.793 122.988 24.1484 122.988 22.9766C122.988 21.8047 124.371 21.1719 126.738 21.1719ZM126.738 21.9922C125.062 21.9922 124.137 22.3555 124.148 22.9766C124.137 23.6211 125.062 23.9609 126.738 23.9609C128.414 23.9609 129.34 23.6211 129.34 22.9766C129.34 22.3555 128.414 21.9922 126.738 21.9922ZM131.531 25.4375V26.3281H121.957V25.4375H131.531ZM130.324 27.1367V29.5977H124.207V30.5352H130.617V31.3906H123.117V28.7891H129.223V27.9688H123.105V27.1367H130.324ZM143.508 20.9961V23.4805H145.031V24.4062H143.508V27.125H142.395V20.9961H143.508ZM136.758 21.5938V23.1172H139.512V21.5938H140.613V26.5156H135.668V21.5938H136.758ZM136.758 25.6367H139.512V23.9961H136.758V25.6367ZM143.59 27.6758V28.5664H137.93V30.4648H143.777V31.3438H136.816V27.6758H143.59ZM148.441 21.7812C150.012 21.7812 151.125 23.2109 151.137 25.4609C151.125 27.7227 150.012 29.1523 148.441 29.1523C146.871 29.1523 145.746 27.7227 145.758 25.4609C145.746 23.2109 146.871 21.7812 148.441 21.7812ZM148.441 22.7773C147.48 22.7773 146.824 23.8086 146.824 25.4609C146.824 27.125 147.48 28.1562 148.441 28.1562C149.414 28.1562 150.07 27.125 150.07 25.4609C150.07 23.8086 149.414 22.7773 148.441 22.7773ZM153.809 20.9961V25.1094H155.496V26.0469H153.809V31.4961H152.695V20.9961H153.809ZM165.609 29.2695V30.1953H156V29.2695H160.23V27.1133H157.102V21.7109H158.215V23.5156H163.371V21.7109H164.473V27.1133H161.332V29.2695H165.609ZM158.215 26.2109H163.371V24.418H158.215V26.2109ZM169.57 23.8672C169.57 25.543 170.273 27.3359 171.68 28.1914L171.059 29.0469C170.074 28.4551 169.406 27.4062 169.055 26.1875C168.662 27.5234 167.941 28.6602 166.922 29.2812L166.23 28.4492C167.719 27.5586 168.492 25.707 168.492 23.9141V21.957H169.57V23.8672ZM175.406 20.9961V31.4961H174.34V20.9961H175.406ZM173.227 21.1953V30.9805H172.172V25.6133H170.543V24.6875H172.172V21.1953H173.227ZM186.352 29.2578V30.1836H176.742V29.2578H179.039V26.5156C178.178 26.041 177.656 25.2852 177.656 24.3477C177.656 22.6953 179.273 21.6055 181.523 21.6055C183.785 21.6055 185.402 22.6953 185.402 24.3477C185.402 25.2734 184.898 26.0176 184.055 26.4922V29.2578H186.352ZM181.523 22.4961C179.871 22.4961 178.734 23.2109 178.734 24.3477C178.734 25.4727 179.871 26.2109 181.523 26.2109C183.164 26.2109 184.324 25.4727 184.324 24.3477C184.324 23.2109 183.164 22.4961 181.523 22.4961ZM180.141 29.2578H182.93V26.9141C182.502 27.0254 182.027 27.0781 181.523 27.0781C181.031 27.0781 180.562 27.0254 180.141 26.9258V29.2578ZM189.047 22.0156L188.941 28.0508H187.781L187.676 22.0156H189.047ZM188.367 30.582C187.91 30.582 187.523 30.207 187.535 29.75C187.523 29.293 187.91 28.918 188.367 28.918C188.812 28.918 189.199 29.293 189.199 29.75C189.199 30.207 188.812 30.582 188.367 30.582Z" fill="white"/>
<mask id="mask0_12876_13876" style="mask-type:alpha" maskUnits="userSpaceOnUse" x="191" y="16" width="20" height="20">
<rect x="191" y="16" width="20" height="20" fill="#D9D9D9"/>
</mask>
<g mask="url(#mask0_12876_13876)">
<path d="M201 26.7811L198.276 29.4861C198.154 29.607 198.028 29.666 197.897 29.6632C197.767 29.6606 197.641 29.5989 197.521 29.4782C197.4 29.3575 197.34 29.2307 197.34 29.0976C197.34 28.9645 197.4 28.8371 197.521 28.7153L200.218 25.9991L197.513 23.2957C197.392 23.1738 197.333 23.0463 197.336 22.9132C197.338 22.7803 197.4 22.6535 197.521 22.5328C197.641 22.412 197.768 22.3516 197.901 22.3516C198.034 22.3516 198.162 22.412 198.284 22.5328L201 25.2378L203.703 22.5328C203.825 22.412 203.951 22.3516 204.082 22.3516C204.212 22.3516 204.338 22.412 204.458 22.5328C204.574 22.6481 204.631 22.7736 204.631 22.9093C204.631 23.045 204.574 23.1738 204.458 23.2957L201.761 25.9991L204.466 28.7232C204.587 28.8452 204.647 28.9713 204.647 29.1016C204.647 29.232 204.587 29.3575 204.466 29.4782C204.351 29.5936 204.225 29.6514 204.09 29.6514C203.954 29.6514 203.825 29.5936 203.703 29.4782L201 26.7811Z" fill="white"/>
</g>
</svg>
