<svg width="16" height="16" viewBox="0 0 16 16" fill="none" xmlns="http://www.w3.org/2000/svg">
<path d="M14.9996 9.63482C14.9996 11.1581 14.1596 11.2669 13.9996 11.2669H1.70531L4.35017 8.38898L3.64521 7.61646L0.145398 11.4247C-0.0484661 11.6369 -0.0484661 11.9796 0.145398 12.1918L3.64521 16L4.35017 15.2329L1.70531 12.355H13.9996C14.6896 12.355 15.9995 11.8109 15.9995 9.63482V8.00272H14.9996V9.63482Z" fill="#175C8E"/>
<path d="M1.00043 6.37062C1.00043 4.84733 1.84039 4.73853 2.00038 4.73853H14.2947L11.6498 7.61646L12.3548 8.38354L15.8546 4.57532C16.0485 4.36311 16.0485 4.02044 15.8546 3.80823L12.3548 0L11.6448 0.772527L14.2947 3.65046H2.00038C1.31042 3.65046 0.000488281 4.19449 0.000488281 6.37062V8.00272H1.00043V6.37062Z" fill="#175C8E"/>
</svg>
