<svg width="14" height="21" viewBox="0 0 14 21" fill="none" xmlns="http://www.w3.org/2000/svg">
<path d="M7 2.49805H12V17.998L7 15.498L2 17.998V2.49805H7Z" fill="#F7941E"/>
<path d="M11 0.498047H3.00001C2.20436 0.498047 1.4413 0.814117 0.878688 1.37673C0.316078 1.93934 7.88292e-06 2.7024 7.88292e-06 3.49805V19.498C-0.000691684 19.6743 0.0451825 19.8475 0.132986 20.0003C0.220789 20.1531 0.347404 20.2799 0.500008 20.368C0.652027 20.4558 0.824471 20.502 1.00001 20.502C1.17554 20.502 1.34799 20.4558 1.50001 20.368L7.00001 17.188L12.5 20.368C12.6524 20.4544 12.8248 20.4993 13 20.498C13.1752 20.4993 13.3476 20.4544 13.5 20.368C13.6526 20.2799 13.7792 20.1531 13.867 20.0003C13.9548 19.8475 14.0007 19.6743 14 19.498V3.49805C14 2.7024 13.6839 1.93934 13.1213 1.37673C12.5587 0.814117 11.7957 0.498047 11 0.498047ZM12 17.768L7.50001 15.168C7.34799 15.0803 7.17554 15.0341 7.00001 15.0341C6.82447 15.0341 6.65203 15.0803 6.50001 15.168L2.00001 17.768V3.49805C2.00001 3.23283 2.10536 2.97848 2.2929 2.79094C2.48044 2.6034 2.73479 2.49805 3.00001 2.49805H11C11.2652 2.49805 11.5196 2.6034 11.7071 2.79094C11.8947 2.97848 12 3.23283 12 3.49805V17.768Z" fill="#175C8E"/>
</svg>
