<svg width="20" height="21" viewBox="0 0 20 21" fill="none" xmlns="http://www.w3.org/2000/svg">
<g clip-path="url(#clip0_28075_139819)">
<path d="M19.3971 23H0.19707C-0.12119 23 -0.426414 22.8736 -0.651458 22.6485C-0.876502 22.4235 -1.00293 22.1183 -1.00293 21.8V0.2C-1.00293 -0.11826 -0.876502 -0.423485 -0.651458 -0.648528C-0.426414 -0.873572 -0.12119 -1 0.19707 -1H19.3971C19.7153 -1 20.0206 -0.873572 20.2456 -0.648528C20.4706 -0.423485 20.5971 -0.11826 20.5971 0.2V21.8C20.5971 22.1183 20.4706 22.4235 20.2456 22.6485C20.0206 22.8736 19.7153 23 19.3971 23ZM4.99707 5V7.4H14.5971V5H4.99707ZM4.99707 9.8V12.2H14.5971V9.8H4.99707ZM4.99707 14.6V17H10.9971V14.6H4.99707Z" fill="#E1E1E1"/>
</g>
<defs>
<clipPath id="clip0_28075_139819">
<rect width="20" height="20" fill="white" transform="translate(0 0.5)"/>
</clipPath>
</defs>
</svg>
