<svg width="20" height="20" viewBox="0 0 20 20" fill="none" xmlns="http://www.w3.org/2000/svg">
<mask id="mask0_24299_83687" style="mask-type:alpha" maskUnits="userSpaceOnUse" x="0" y="0" width="20" height="20">
<rect width="20" height="20" fill="#D9D9D9"/>
</mask>
<g mask="url(#mask0_24299_83687)">
<path d="M4.26421 17.0828C3.84994 17.0828 3.49531 16.9353 3.20031 16.6403C2.90531 16.3453 2.75781 15.9907 2.75781 15.5764V4.42264C2.75781 4.00838 2.90531 3.65374 3.20031 3.35874C3.49531 3.06373 3.84994 2.91622 4.26421 2.91622H10.8828C11.0599 2.91622 11.2083 2.97615 11.3281 3.09599C11.4479 3.21584 11.5078 3.36434 11.5078 3.54149C11.5078 3.71866 11.4479 3.86707 11.3281 3.98672C11.2083 4.10638 11.0599 4.1662 10.8828 4.1662H4.26421C4.18942 4.1662 4.12798 4.19024 4.0799 4.23833C4.03181 4.28641 4.00777 4.34785 4.00777 4.42264V15.5764C4.00777 15.6512 4.03181 15.7127 4.0799 15.7607C4.12798 15.8088 4.18942 15.8329 4.26421 15.8329H15.418C15.4928 15.8329 15.5542 15.8088 15.6023 15.7607C15.6504 15.7127 15.6744 15.6512 15.6744 15.5764V8.95785C15.6744 8.78078 15.7344 8.63235 15.8542 8.51256C15.974 8.39276 16.1225 8.33287 16.2997 8.33287C16.4769 8.33287 16.6253 8.39276 16.7449 8.51256C16.8646 8.63235 16.9244 8.78078 16.9244 8.95785V15.5764C16.9244 15.9907 16.7769 16.3453 16.4819 16.6403C16.1869 16.9353 15.8323 17.0828 15.418 17.0828H4.26421ZM14.3283 5.51233H13.2866C13.1095 5.51233 12.9611 5.45241 12.8413 5.33258C12.7215 5.21273 12.6616 5.06423 12.6616 4.88708C12.6616 4.70991 12.7215 4.5615 12.8413 4.44185C12.9611 4.3222 13.1095 4.26237 13.2866 4.26237H14.3283V3.22068C14.3283 3.0436 14.3882 2.89516 14.5081 2.77537C14.6279 2.65559 14.7764 2.5957 14.9536 2.5957C15.1307 2.5957 15.2791 2.65559 15.3988 2.77537C15.5184 2.89516 15.5783 3.0436 15.5783 3.22068V4.26237H16.62C16.797 4.26237 16.9455 4.32229 17.0653 4.44212C17.185 4.56197 17.2449 4.71047 17.2449 4.88762C17.2449 5.06479 17.185 5.2132 17.0653 5.33285C16.9455 5.4525 16.797 5.51233 16.62 5.51233H15.5783V6.55401C15.5783 6.7311 15.5184 6.87953 15.3985 6.99933C15.2787 7.1191 15.1302 7.17899 14.953 7.17899C14.7759 7.17899 14.6274 7.1191 14.5078 6.99933C14.3881 6.87953 14.3283 6.7311 14.3283 6.55401V5.51233ZM9.20008 13.3489L7.83471 11.5989C7.75672 11.5038 7.65763 11.4563 7.53744 11.4563C7.41724 11.4563 7.31815 11.5065 7.24017 11.6069L5.92608 13.3553C5.82565 13.4835 5.81243 13.616 5.88642 13.7527C5.9604 13.8895 6.07138 13.9578 6.21935 13.9578H13.527C13.6749 13.9578 13.7859 13.8895 13.8599 13.7527C13.9339 13.616 13.9233 13.4835 13.8283 13.3553L11.8411 10.6935C11.7631 10.593 11.6627 10.5428 11.5398 10.5428C11.417 10.5428 11.3163 10.5937 11.238 10.6955L9.20008 13.3489Z" fill="#10477A"/>
</g>
</svg>
