<svg width="14" height="15" viewBox="0 0 14 15" fill="none" xmlns="http://www.w3.org/2000/svg">
<path d="M8.81399 5.36065L5.95399 8.22732L4.85399 7.12732C4.79422 7.05753 4.72068 7.00085 4.63797 6.96083C4.55526 6.92082 4.46517 6.89833 4.37336 6.89479C4.28154 6.89124 4.18999 6.90671 4.10444 6.94023C4.01889 6.97374 3.94119 7.02458 3.87622 7.08955C3.81125 7.15452 3.76041 7.23222 3.7269 7.31777C3.69338 7.40332 3.67791 7.49487 3.68146 7.58669C3.685 7.6785 3.70749 7.76859 3.7475 7.8513C3.78752 7.93401 3.8442 8.00755 3.91399 8.06732L5.48065 9.64065C5.54295 9.70244 5.61682 9.75132 5.69805 9.7845C5.77927 9.81767 5.86625 9.83449 5.95399 9.83398C6.12888 9.83325 6.29648 9.76381 6.42065 9.64065L9.75399 6.30732C9.81647 6.24534 9.86607 6.17161 9.89992 6.09037C9.93376 6.00913 9.95119 5.92199 9.95119 5.83398C9.95119 5.74598 9.93376 5.65884 9.89992 5.5776C9.86607 5.49636 9.81647 5.42263 9.75399 5.36065C9.62908 5.23648 9.46011 5.16679 9.28399 5.16679C9.10786 5.16679 8.9389 5.23648 8.81399 5.36065ZM7.00065 0.833984C5.68211 0.833984 4.39318 1.22498 3.29685 1.95752C2.20052 2.69006 1.34604 3.73125 0.841457 4.94943C0.336873 6.1676 0.204851 7.50805 0.462086 8.80125C0.71932 10.0945 1.35426 11.2823 2.28661 12.2147C3.21896 13.147 4.40685 13.782 5.70005 14.0392C6.99326 14.2965 8.3337 14.1644 9.55188 13.6598C10.7701 13.1553 11.8112 12.3008 12.5438 11.2045C13.2763 10.1081 13.6673 8.81919 13.6673 7.50065C13.6673 6.62517 13.4949 5.75827 13.1599 4.94943C12.8248 4.14059 12.3338 3.40566 11.7147 2.78661C11.0956 2.16755 10.3607 1.67649 9.55188 1.34145C8.74304 1.00642 7.87613 0.833984 7.00065 0.833984ZM7.00065 12.834C5.94582 12.834 4.91467 12.5212 4.03761 11.9352C3.16055 11.3491 2.47696 10.5162 2.0733 9.54163C1.66963 8.56709 1.56401 7.49474 1.7698 6.46017C1.97559 5.4256 2.48354 4.4753 3.22942 3.72941C3.9753 2.98354 4.92561 2.47558 5.96017 2.2698C6.99474 2.06401 8.06709 2.16963 9.04163 2.57329C10.0162 2.97696 10.8491 3.66055 11.4352 4.53761C12.0212 5.41467 12.334 6.44582 12.334 7.50065C12.334 8.91514 11.7721 10.2717 10.7719 11.2719C9.7717 12.2721 8.41514 12.834 7.00065 12.834Z" fill="#0C9D61"/>
</svg>
