<svg width="20" height="20" viewBox="0 0 20 20" fill="none" xmlns="http://www.w3.org/2000/svg">
<mask id="mask0_1_5788" style="mask-type:alpha" maskUnits="userSpaceOnUse" x="0" y="0" width="20" height="20">
<rect width="20" height="20" fill="#D9D9D9"/>
</mask>
<g mask="url(#mask0_1_5788)">
<path d="M3.58971 15.8337H16.4101C16.485 15.8337 16.5464 15.8096 16.5945 15.7616C16.6426 15.7135 16.6666 15.6521 16.6666 15.5772V14.111C16.6666 14.0361 16.6426 13.9746 16.5945 13.9266C16.5464 13.8785 16.485 13.8545 16.4101 13.8545H3.58971C3.51485 13.8545 3.45339 13.8785 3.40534 13.9266C3.35728 13.9746 3.33325 14.0361 3.33325 14.111V15.5772C3.33325 15.6521 3.35728 15.7135 3.40534 15.7616C3.45339 15.8096 3.51485 15.8337 3.58971 15.8337ZM8.197 8.3897C8.197 7.89609 8.37353 7.47359 8.72659 7.1222C9.07964 6.77067 9.50409 6.59491 9.99992 6.59491C10.177 6.59491 10.3254 6.53498 10.4451 6.41512C10.565 6.29526 10.6249 6.14678 10.6249 5.9697C10.6249 5.79248 10.565 5.64401 10.4451 5.52428C10.3254 5.4047 10.177 5.34491 9.99992 5.34491C9.16034 5.34491 8.44165 5.64192 7.84388 6.23595C7.24596 6.82998 6.947 7.5479 6.947 8.3897V10.1847C6.947 10.3618 7.00693 10.5102 7.12679 10.6299C7.24665 10.7498 7.3952 10.8097 7.57242 10.8097C7.7495 10.8097 7.8979 10.7498 8.01763 10.6299C8.13721 10.5102 8.197 10.3618 8.197 10.1847V8.3897ZM5.76117 12.6045H14.2387V8.3897C14.2387 7.21553 13.8253 6.21824 12.9985 5.39783C12.1715 4.57727 11.1715 4.16699 9.99846 4.16699C8.82527 4.16699 7.82575 4.57727 6.99992 5.39783C6.17409 6.21824 5.76117 7.21553 5.76117 8.3897V12.6045ZM3.58971 17.0837C3.1754 17.0837 2.82075 16.9362 2.52575 16.6412C2.23075 16.3462 2.08325 15.9915 2.08325 15.5772V14.111C2.08325 13.6966 2.23075 13.342 2.52575 13.047C2.82075 12.752 3.1754 12.6045 3.58971 12.6045H4.51117V8.3897C4.51117 6.86526 5.04367 5.57199 6.10867 4.50991C7.17381 3.44796 8.47082 2.91699 9.99971 2.91699C11.5287 2.91699 12.8258 3.44796 13.891 4.50991C14.9561 5.57199 15.4887 6.86526 15.4887 8.3897V12.6045H16.4101C16.8244 12.6045 17.1791 12.752 17.4741 13.047C17.7691 13.342 17.9166 13.6966 17.9166 14.111V15.5772C17.9166 15.9915 17.7691 16.3462 17.4741 16.6412C17.1791 16.9362 16.8244 17.0837 16.4101 17.0837H3.58971Z" fill="#4B4B4B"/>
</g>
</svg>
