<svg width="16" height="16" viewBox="0 0 16 16" fill="none" xmlns="http://www.w3.org/2000/svg">
<path d="M9.81203 5.85967L6.95203 8.72634L5.85203 7.62634C5.79227 7.55655 5.71872 7.49987 5.63601 7.45986C5.5533 7.41984 5.46322 7.39736 5.3714 7.39381C5.27959 7.39026 5.18804 7.40573 5.10249 7.43925C5.01694 7.47277 4.93924 7.5236 4.87427 7.58857C4.8093 7.65354 4.75846 7.73124 4.72494 7.81679C4.69143 7.90234 4.67596 7.9939 4.6795 8.08571C4.68305 8.17752 4.70553 8.26761 4.74555 8.35032C4.78557 8.43303 4.84225 8.50658 4.91203 8.56634L6.4787 10.1397C6.54099 10.2015 6.61487 10.2503 6.6961 10.2835C6.77732 10.3167 6.8643 10.3335 6.95203 10.333C7.12693 10.3323 7.29453 10.2628 7.4187 10.1397L10.752 6.80634C10.8145 6.74437 10.8641 6.67063 10.898 6.58939C10.9318 6.50815 10.9492 6.42102 10.9492 6.33301C10.9492 6.245 10.9318 6.15786 10.898 6.07662C10.8641 5.99538 10.8145 5.92165 10.752 5.85967C10.6271 5.73551 10.4582 5.66581 10.282 5.66581C10.1059 5.66581 9.93694 5.73551 9.81203 5.85967ZM7.9987 1.33301C6.68016 1.33301 5.39123 1.724 4.2949 2.45654C3.19857 3.18909 2.34409 4.23028 1.8395 5.44845C1.33492 6.66663 1.2029 8.00707 1.46013 9.30028C1.71737 10.5935 2.35231 11.7814 3.28466 12.7137C4.21701 13.6461 5.40489 14.281 6.6981 14.5382C7.99131 14.7955 9.33175 14.6635 10.5499 14.1589C11.7681 13.6543 12.8093 12.7998 13.5418 11.7035C14.2744 10.6071 14.6654 9.31822 14.6654 7.99967C14.6654 7.1242 14.4929 6.25729 14.1579 5.44845C13.8229 4.63961 13.3318 3.90469 12.7127 3.28563C12.0937 2.66657 11.3588 2.17551 10.5499 1.84048C9.74109 1.50545 8.87418 1.33301 7.9987 1.33301ZM7.9987 13.333C6.94387 13.333 5.91272 13.0202 5.03566 12.4342C4.1586 11.8481 3.47501 11.0152 3.07134 10.0407C2.66768 9.06611 2.56206 7.99376 2.76785 6.95919C2.97363 5.92463 3.48158 4.97432 4.22746 4.22844C4.97334 3.48256 5.92365 2.97461 6.95822 2.76882C7.99278 2.56303 9.06514 2.66865 10.0397 3.07232C11.0142 3.47598 11.8472 4.15957 12.4332 5.03663C13.0192 5.9137 13.332 6.94484 13.332 7.99967C13.332 9.41416 12.7701 10.7707 11.7699 11.7709C10.7697 12.7711 9.41319 13.333 7.9987 13.333Z" fill="#0C9D61"/>
</svg>
