<svg width="24" height="24" viewBox="0 0 24 24" fill="none" xmlns="http://www.w3.org/2000/svg">
<path d="M12 2C13.3132 2 14.6139 2.2582 15.8271 2.76074C17.0404 3.26329 18.1427 4.00015 19.0713 4.92871C19.9998 5.85727 20.7367 6.95964 21.2393 8.17285C21.7418 9.38611 22 10.6868 22 12C22 14.6522 20.9467 17.1959 19.0713 19.0713C17.1959 20.9467 14.6522 22 12 22C10.6868 22 9.38611 21.7418 8.17285 21.2393C6.95964 20.7367 5.85727 19.9998 4.92871 19.0713C3.05335 17.1959 2 14.6522 2 12C2 9.34784 3.05335 6.80407 4.92871 4.92871C6.80407 3.05335 9.34784 2 12 2ZM11 7C10.4696 7 9.96101 7.21086 9.58594 7.58594C9.21087 7.96101 9 8.46957 9 9V11C9 11.5304 9.21086 12.039 9.58594 12.4141C9.96101 12.7891 10.4696 13 11 13H13V15H9V17H13C13.5304 17 14.039 16.7891 14.4141 16.4141C14.7891 16.039 15 15.5304 15 15V9C15 8.46957 14.7891 7.96101 14.4141 7.58594C14.039 7.21086 13.5304 7 13 7H11ZM13 11H11V9H13V11ZM16.5 4.25C16.0858 4.25 15.75 4.58579 15.75 5V5.75H15C14.5858 5.75 14.25 6.08579 14.25 6.5C14.25 6.91421 14.5858 7.25 15 7.25H15.75V8C15.75 8.41421 16.0858 8.75 16.5 8.75C16.9142 8.75 17.25 8.41421 17.25 8V7.25H18C18.4142 7.25 18.75 6.91421 18.75 6.5C18.75 6.08579 18.4142 5.75 18 5.75H17.25V5C17.25 4.58579 16.9142 4.25 16.5 4.25Z" fill="white"/>
</svg>
