<svg width="16" height="16" viewBox="0 0 16 16" fill="none" xmlns="http://www.w3.org/2000/svg">
<path d="M8.17497 4.7971L8.63128 5.07089V1.83594H7.36914V5.07069L7.82545 4.7971C7.87825 4.76546 7.93865 4.74875 8.00021 4.74875C8.06176 4.74875 8.12216 4.76546 8.17497 4.7971Z" fill="#CACACA"/>
<path d="M12.2232 3.19516V2.41846C12.2232 2.26397 12.1618 2.1158 12.0526 2.00655C11.9433 1.89731 11.7951 1.83594 11.6406 1.83594H9.31055V3.77769H11.6406C11.7951 3.77769 11.9433 3.71631 12.0526 3.60707C12.1618 3.49782 12.2232 3.34966 12.2232 3.19516Z" fill="#CACACA"/>
<path d="M4.35987 3.77769H6.68997V1.83594H4.35987C4.20537 1.83594 4.05721 1.89731 3.94796 2.00655C3.83872 2.1158 3.77734 2.26397 3.77734 2.41846V3.19516C3.77734 3.34966 3.83872 3.49782 3.94796 3.60707C4.05721 3.71631 4.20537 3.77769 4.35987 3.77769Z" fill="#CACACA"/>
<path d="M12.5825 5.64117L11.879 4.43359C11.8005 4.44895 11.7208 4.45676 11.6408 4.45689H9.31068V5.67049C9.31065 5.7306 9.29468 5.78963 9.26439 5.84155C9.2341 5.89347 9.19057 5.93643 9.13826 5.96604C9.08595 5.99565 9.02672 6.01086 8.96661 6.0101C8.9065 6.00935 8.84767 5.99266 8.79612 5.96175L8 5.48427L7.20388 5.96175C7.15233 5.99266 7.0935 6.00935 7.03339 6.0101C6.97328 6.01086 6.91405 5.99565 6.86174 5.96604C6.80943 5.93643 6.7659 5.89347 6.73561 5.84155C6.70532 5.78963 6.68935 5.7306 6.68932 5.67049V4.45689H4.35922C4.27924 4.45676 4.19946 4.44895 4.12097 4.43359L3.41748 5.64117C3.14448 6.10886 3.00042 6.6406 3 7.18214V12.855C3.00041 13.2024 3.13863 13.5356 3.38434 13.7813C3.63005 14.027 3.96319 14.1652 4.31068 14.1656H11.6893C12.0368 14.1652 12.3699 14.027 12.6157 13.7813C12.8614 13.5356 12.9996 13.2024 13 12.855V7.18214C12.9996 6.6406 12.8555 6.10886 12.5825 5.64117ZM11.2524 12.2724C11.2525 12.3171 11.2437 12.3613 11.2266 12.4025C11.2095 12.4437 11.1845 12.4812 11.153 12.5128C11.1214 12.5443 11.0839 12.5694 11.0427 12.5864C11.0015 12.6035 10.9573 12.6123 10.9126 12.6122H5.08738C5.04275 12.6123 4.99855 12.6035 4.95731 12.5864C4.91607 12.5694 4.8786 12.5443 4.84704 12.5128C4.81548 12.4812 4.79045 12.4437 4.77339 12.4025C4.75632 12.3613 4.74755 12.3171 4.74757 12.2724V9.55398C4.74755 9.50935 4.75632 9.46515 4.77339 9.42391C4.79045 9.38267 4.81548 9.3452 4.84704 9.31365C4.8786 9.28209 4.91607 9.25706 4.95731 9.23999C4.99855 9.22292 5.04275 9.21415 5.08738 9.21418H10.9126C10.9573 9.21415 11.0015 9.22292 11.0427 9.23999C11.0839 9.25706 11.1214 9.28209 11.153 9.31365C11.1845 9.3452 11.2095 9.38267 11.2266 9.42391C11.2437 9.46515 11.2525 9.50935 11.2524 9.55398V12.2724Z" fill="#CACACA"/>
<path d="M5.42773 11.9334H10.5734V9.89453H5.42773V11.9334ZM6.44715 10.5741H9.55395C9.64407 10.5741 9.7305 10.6099 9.79423 10.6737C9.85795 10.7374 9.89375 10.8238 9.89375 10.9139C9.89375 11.0041 9.85795 11.0905 9.79423 11.1542C9.7305 11.218 9.64407 11.2538 9.55395 11.2538H6.44715C6.35703 11.2538 6.2706 11.218 6.20687 11.1542C6.14315 11.0905 6.10735 11.0041 6.10735 10.9139C6.10735 10.8238 6.14315 10.7374 6.20687 10.6737C6.2706 10.6099 6.35703 10.5741 6.44715 10.5741Z" fill="#CACACA"/>
</svg>
