<svg width="20" height="20" viewBox="0 0 20 20" fill="none" xmlns="http://www.w3.org/2000/svg">
<mask id="mask0_1_6045" style="mask-type:alpha" maskUnits="userSpaceOnUse" x="0" y="0" width="20" height="20">
<rect width="20" height="20" fill="#D9D9D9"/>
</mask>
<g mask="url(#mask0_1_6045)">
<path d="M10.0001 18.3337C8.8473 18.3337 7.76397 18.1149 6.75008 17.6774C5.73619 17.2399 4.85425 16.6462 4.10425 15.8962C3.35425 15.1462 2.7605 14.2642 2.323 13.2503C1.8855 12.2364 1.66675 11.1531 1.66675 10.0003C1.66675 8.84755 1.8855 7.76421 2.323 6.75033C2.7605 5.73644 3.35425 4.85449 4.10425 4.10449C4.85425 3.35449 5.73619 2.76074 6.75008 2.32324C7.76397 1.88574 8.8473 1.66699 10.0001 1.66699C11.1529 1.66699 12.2362 1.88574 13.2501 2.32324C14.264 2.76074 15.1459 3.35449 15.8959 4.10449C16.6459 4.85449 17.2397 5.73644 17.6772 6.75033C18.1147 7.76421 18.3334 8.84755 18.3334 10.0003C18.3334 11.1531 18.1147 12.2364 17.6772 13.2503C17.2397 14.2642 16.6459 15.1462 15.8959 15.8962C15.1459 16.6462 14.264 17.2399 13.2501 17.6774C12.2362 18.1149 11.1529 18.3337 10.0001 18.3337ZM10.0001 16.667C10.7501 16.667 11.4723 16.5455 12.1667 16.3024C12.8612 16.0594 13.5001 15.7087 14.0834 15.2503L4.75008 5.91699C4.29175 6.50033 3.94105 7.13921 3.698 7.83366C3.45494 8.5281 3.33341 9.25033 3.33341 10.0003C3.33341 11.8614 3.97925 13.4378 5.27091 14.7295C6.56258 16.0212 8.13897 16.667 10.0001 16.667ZM15.2501 14.0837C15.7084 13.5003 16.0591 12.8614 16.3022 12.167C16.5452 11.4725 16.6667 10.7503 16.6667 10.0003C16.6667 8.13921 16.0209 6.56283 14.7292 5.27116C13.4376 3.97949 11.8612 3.33366 10.0001 3.33366C9.25008 3.33366 8.52786 3.45519 7.83341 3.69824C7.13897 3.9413 6.50008 4.29199 5.91675 4.75033L15.2501 14.0837Z" fill="#4B4B4B"/>
</g>
</svg>
