<svg width="74" height="28" viewBox="0 0 74 28" fill="none" xmlns="http://www.w3.org/2000/svg">
<mask id="mask0_9627_9189" style="mask-type:alpha" maskUnits="userSpaceOnUse" x="4" y="4" width="20" height="20">
<rect x="4" y="4" width="20" height="20" fill="#D9D9D9"/>
</mask>
<g mask="url(#mask0_9627_9189)">
<path d="M18.5012 21.7916C17.8648 21.7916 17.3236 21.5689 16.8777 21.1233C16.4316 20.6776 16.2085 20.1365 16.2085 19.5C16.2085 19.3821 16.2168 19.2744 16.2333 19.1769C16.25 19.0792 16.2748 18.9695 16.3079 18.8477L11.061 15.6346C10.8688 15.8675 10.6366 16.0352 10.3645 16.1377C10.0926 16.2403 9.80447 16.2916 9.50016 16.2916C8.86364 16.2916 8.32252 16.0689 7.87683 15.6235C7.43127 15.1781 7.2085 14.6373 7.2085 14.001C7.2085 13.3646 7.43127 12.8235 7.87683 12.3775C8.32252 11.9314 8.86364 11.7083 9.50016 11.7083C9.80044 11.7083 10.0876 11.7631 10.3616 11.8727C10.6356 11.9821 10.8688 12.1464 11.061 12.3654L16.3079 9.15227C16.2748 9.03047 16.25 8.92074 16.2333 8.8231C16.2168 8.7256 16.2085 8.6179 16.2085 8.49998C16.2085 7.86345 16.4312 7.32234 16.8766 6.87665C17.322 6.43109 17.8629 6.20831 18.4991 6.20831C19.1355 6.20831 19.6767 6.43102 20.1227 6.87644C20.5688 7.32185 20.7918 7.86269 20.7918 8.49894C20.7918 9.13533 20.5691 9.67651 20.1235 10.1225C19.6778 10.5686 19.1367 10.7916 18.5002 10.7916C18.1959 10.7916 17.9077 10.7403 17.6358 10.6377C17.3637 10.5352 17.1316 10.3675 16.9393 10.1346L11.6925 13.3477C11.7255 13.4695 11.7504 13.579 11.767 13.6762C11.7836 13.7735 11.7918 13.8808 11.7918 13.9983C11.7918 14.1158 11.7836 14.2237 11.767 14.3221C11.7504 14.4204 11.7255 14.5305 11.6925 14.6523L16.9393 17.8654C17.1316 17.6186 17.3637 17.4474 17.6358 17.3519C17.9077 17.2562 18.1959 17.2083 18.5002 17.2083C19.1367 17.2083 19.6778 17.431 20.1235 17.8764C20.5691 18.3219 20.7918 18.8627 20.7918 19.4989C20.7918 20.1353 20.5691 20.6765 20.1237 21.1225C19.6783 21.5686 19.1375 21.7916 18.5012 21.7916Z" fill="#4B4B4B"/>
</g>
<path d="M33.1328 15.6172C35.3711 15.6172 36.7891 16.3203 36.7891 17.5273C36.7891 18.7227 35.3711 19.4258 33.1328 19.4258C30.9062 19.4258 29.4883 18.7227 29.4883 17.5273C29.4883 16.3203 30.9062 15.6172 33.1328 15.6172ZM33.1328 16.3203C31.4688 16.332 30.3906 16.7891 30.4023 17.5273C30.3906 18.2539 31.4688 18.6992 33.1328 18.6992C34.7969 18.6992 35.8633 18.2539 35.875 17.5273C35.8633 16.7891 34.7969 16.332 33.1328 16.3203ZM36.707 9.57031V10.4492C36.707 11.293 36.707 12.1367 36.4141 13.2148L35.5117 13.1094C35.793 12.0312 35.793 11.2695 35.793 10.4492V10.3203H29.5586V9.57031H36.707ZM37.9141 13.8945V14.6445H28.4336V13.8945H32.3594V11.8789H33.2617V13.8945H37.9141ZM48.3203 14.9727V15.7344H45.8008V19.4492H44.875V15.7344H42.2031V19.4492H41.2539V15.7344H38.7812V14.9727H48.3203ZM43.5273 9.45312C45.7188 9.45312 47.1953 10.332 47.1953 11.7266C47.1953 13.1094 45.7188 13.9883 43.5273 13.9766C41.3359 13.9883 39.8594 13.1094 39.8594 11.7266C39.8594 10.332 41.3359 9.45312 43.5273 9.45312ZM43.5273 10.2031C41.8984 10.2031 40.7969 10.8008 40.8086 11.7266C40.7969 12.6523 41.8984 13.2383 43.5273 13.2383C45.1445 13.2383 46.2578 12.6523 46.2578 11.7266C46.2578 10.8008 45.1445 10.2031 43.5273 10.2031ZM57.2266 9.03125V13.332H58.9727V14.0938H57.2266V19.4492H56.3125V9.03125H57.2266ZM55.3047 10.707V11.4688H49.1055V10.707H51.7891V9.16016H52.7031V10.707H55.3047ZM52.2578 12.3359C53.7344 12.3359 54.8008 13.3203 54.8125 14.7266C54.8008 16.1328 53.7344 17.1172 52.2578 17.1172C50.7695 17.1172 49.6914 16.1328 49.7031 14.7266C49.6914 13.3203 50.7695 12.3359 52.2578 12.3359ZM52.2578 13.1094C51.2852 13.1094 50.5703 13.7891 50.582 14.7266C50.5703 15.6758 51.2852 16.3438 52.2578 16.332C53.2188 16.3438 53.9219 15.6758 53.9336 14.7266C53.9219 13.7891 53.2188 13.1094 52.2578 13.1094ZM68.1484 9.03125V19.4492H67.2227V9.03125H68.1484ZM65.0664 10.168C65.0547 13.168 63.6602 15.8164 60.168 17.4922L59.6641 16.7422C62.4824 15.4062 63.918 13.4082 64.1289 10.918H60.1445V10.168H65.0664Z" fill="#4B4B4B"/>
</svg>
