<svg width="16" height="16" viewBox="0 0 16 16" fill="none" xmlns="http://www.w3.org/2000/svg">
<path d="M3 6.33594H13.6667L13.11 12.4566C13.0799 12.7879 12.9271 13.0959 12.6815 13.3203C12.4359 13.5447 12.1153 13.6691 11.7827 13.6693H4.884C4.55136 13.6691 4.23078 13.5447 3.9852 13.3203C3.73962 13.0959 3.58677 12.7879 3.55667 12.4566L3 6.33594Z" stroke="#B611F5" stroke-linejoin="round"/>
<path d="M5.66406 7.66667V5.66667C5.66406 4.95942 5.94501 4.28115 6.44511 3.78105C6.94521 3.28095 7.62349 3 8.33073 3C9.03797 3 9.71625 3.28095 10.2163 3.78105C10.7164 4.28115 10.9974 4.95942 10.9974 5.66667V7.66667" stroke="#B611F5" stroke-linecap="round"/>
</svg>
