<svg width="176" height="36" viewBox="0 0 176 36" fill="none" xmlns="http://www.w3.org/2000/svg">
<path d="M1.91043 16.4478L8 11.5L8 24.5L1.91043 19.5522C0.925348 18.7518 0.925347 17.2482 1.91043 16.4478Z" fill="#4B4B4B"/>
<rect x="8" width="168" height="36" rx="8" fill="#4B4B4B"/>
<path d="M24.207 14.5078C24.1953 15.9609 25.1914 17.2852 26.8086 17.8242L26.2461 18.7031C25.0332 18.2754 24.1191 17.4199 23.6445 16.3242C23.1758 17.502 22.2559 18.4336 21.0078 18.8789L20.4453 18.0117C22.0859 17.4258 23.0703 16.0078 23.0703 14.5078V13.5H24.207V14.5078ZM29.0938 19.8047V23.4961H27.9805V20.707H21.9805V19.8047H29.0938ZM29.0938 12.9961V19.3008H27.9805V12.9961H29.0938ZM39.0078 12.9844V16.0312H40.543V16.957H39.0078V20.5898H37.8945V12.9844H39.0078ZM35.9141 13.8867V14.7891H32.3281V17.8477C34.373 17.8535 35.5273 17.7891 36.8398 17.5195L36.9688 18.4219C35.5508 18.7031 34.3086 18.7734 32.0586 18.7734H31.2266V13.8867H35.9141ZM39.4531 22.3711V23.2734H32.3516V19.8047H33.4648V22.3711H39.4531ZM47.7031 15.668C47.6914 17.5312 48.7695 19.4297 50.3398 20.1914L49.6484 21.082C48.5059 20.4902 47.6211 19.3125 47.1641 17.9062C46.6895 19.4062 45.7695 20.6602 44.5742 21.2812L43.8828 20.3789C45.5 19.6055 46.5898 17.5898 46.5898 15.668V13.875H47.7031V15.668ZM52.2383 12.9961V17.1797H53.9258V18.1289H52.2383V23.4961H51.125V12.9961H52.2383ZM58.3203 15.1875C58.3203 16.5469 59.3281 17.8242 60.9453 18.3398L60.3711 19.207C59.1641 18.8086 58.25 17.9824 57.7812 16.9336C57.3066 18.0762 56.375 18.9785 55.1211 19.418L54.5469 18.5391C56.1758 17.9883 57.1836 16.6289 57.1953 15.1875V14.7305H54.8398V13.8281H60.6289V14.7305H58.3203V15.1875ZM63.1367 13.0078V20.6719H62.0234V13.0078H63.1367ZM63.4531 22.3711V23.2734H56.2695V19.9453H57.3945V22.3711H63.4531ZM69.582 13.1719C71.9492 13.1719 73.332 13.8047 73.332 14.9766C73.332 16.1484 71.9492 16.793 69.582 16.793C67.2148 16.793 65.832 16.1484 65.832 14.9766C65.832 13.8047 67.2148 13.1719 69.582 13.1719ZM69.582 13.9922C67.9062 13.9922 66.9805 14.3555 66.9922 14.9766C66.9805 15.6211 67.9062 15.9609 69.582 15.9609C71.2578 15.9609 72.1836 15.6211 72.1836 14.9766C72.1836 14.3555 71.2578 13.9922 69.582 13.9922ZM74.375 17.4375V18.3281H64.8008V17.4375H74.375ZM73.168 19.1367V21.5977H67.0508V22.5352H73.4609V23.3906H65.9609V20.7891H72.0664V19.9688H65.9492V19.1367H73.168ZM86.3633 13.0078V16.125H87.8633V17.0391H86.3633V20.0742H85.25V13.0078H86.3633ZM78.0312 18.9023C78.8457 18.9023 79.7891 18.9023 80.7734 18.8672V18.1641C79.5781 18.041 78.8164 17.4785 78.8281 16.6289C78.8164 15.668 79.8125 15.0703 81.3242 15.082C82.8242 15.0703 83.8203 15.668 83.8203 16.6289C83.8203 17.4727 83.0703 18.0352 81.8867 18.1641V18.832C82.8242 18.7852 83.7734 18.709 84.6523 18.5859L84.7461 19.3828C82.4844 19.7812 80 19.793 78.1484 19.793L78.0312 18.9023ZM86.3633 20.5664V23.4961H85.25V21.4336H79.3438V20.5664H86.3633ZM84.3594 13.8984V14.7305H78.3008V13.8984H80.7734V12.9141H81.8867V13.8984H84.3594ZM81.3242 15.8438C80.4219 15.832 79.8828 16.125 79.8828 16.6289C79.8828 17.1211 80.4219 17.4375 81.3242 17.4375C82.2148 17.4375 82.7539 17.1211 82.7539 16.6289C82.7539 16.125 82.2148 15.832 81.3242 15.8438ZM97.1797 13.0078V20.6367H96.0664V13.0078H97.1797ZM97.4961 22.3711V23.2734H90.3125V19.8633H91.4375V22.3711H97.4961ZM91.4844 13.7109C93.0664 13.7109 94.2734 14.7891 94.2734 16.3125C94.2734 17.8594 93.0664 18.9258 91.4844 18.9258C89.9023 18.9258 88.6836 17.8594 88.6836 16.3125C88.6836 14.7891 89.9023 13.7109 91.4844 13.7109ZM91.4844 14.6836C90.5 14.6836 89.7734 15.3516 89.7734 16.3125C89.7734 17.2969 90.5 17.9531 91.4844 17.9531C92.4453 17.9531 93.1836 17.2969 93.1836 16.3125C93.1836 15.3516 92.4453 14.6836 91.4844 14.6836ZM104.035 14.7305V15.6328H98.8203V14.7305H100.883V13.3008H101.984V14.7305H104.035ZM101.434 16.2656C102.77 16.2656 103.707 17.2617 103.719 18.6797C103.707 20.1094 102.77 21.1172 101.434 21.1172C100.121 21.1172 99.1484 20.1094 99.1602 18.6797C99.1484 17.2617 100.121 16.2656 101.434 16.2656ZM101.434 17.1914C100.672 17.1914 100.145 17.8125 100.145 18.6797C100.145 19.5703 100.672 20.168 101.434 20.168C102.184 20.168 102.734 19.5703 102.734 18.6797C102.734 17.8125 102.184 17.1914 101.434 17.1914ZM107.832 12.9961V23.4961H106.777V18.2812H105.57V23.0039H104.516V13.2305H105.57V17.3672H106.777V12.9961H107.832ZM118.824 21.2695V22.1953H109.215V21.2695H113.445V19.1133H110.316V13.7109H111.43V15.5156H116.586V13.7109H117.688V19.1133H114.547V21.2695H118.824ZM111.43 18.2109H116.586V16.418H111.43V18.2109ZM122.785 15.8672C122.785 17.543 123.488 19.3359 124.895 20.1914L124.273 21.0469C123.289 20.4551 122.621 19.4062 122.27 18.1875C121.877 19.5234 121.156 20.6602 120.137 21.2812L119.445 20.4492C120.934 19.5586 121.707 17.707 121.707 15.9141V13.957H122.785V15.8672ZM128.621 12.9961V23.4961H127.555V12.9961H128.621ZM126.441 13.1953V22.9805H125.387V17.6133H123.758V16.6875H125.387V13.1953H126.441ZM139.566 21.2578V22.1836H129.957V21.2578H132.254V18.5156C131.393 18.041 130.871 17.2852 130.871 16.3477C130.871 14.6953 132.488 13.6055 134.738 13.6055C137 13.6055 138.617 14.6953 138.617 16.3477C138.617 17.2734 138.113 18.0176 137.27 18.4922V21.2578H139.566ZM134.738 14.4961C133.086 14.4961 131.949 15.2109 131.949 16.3477C131.949 17.4727 133.086 18.2109 134.738 18.2109C136.379 18.2109 137.539 17.4727 137.539 16.3477C137.539 15.2109 136.379 14.4961 134.738 14.4961ZM133.355 21.2578H136.145V18.9141C135.717 19.0254 135.242 19.0781 134.738 19.0781C134.246 19.0781 133.777 19.0254 133.355 18.9258V21.2578ZM142.262 14.0156L142.156 20.0508H140.996L140.891 14.0156H142.262ZM141.582 22.582C141.125 22.582 140.738 22.207 140.75 21.75C140.738 21.293 141.125 20.918 141.582 20.918C142.027 20.918 142.414 21.293 142.414 21.75C142.414 22.207 142.027 22.582 141.582 22.582Z" fill="white"/>
<mask id="mask0_8666_29774" style="mask-type:alpha" maskUnits="userSpaceOnUse" x="144" y="8" width="20" height="20">
<rect x="144" y="8" width="20" height="20" fill="#D9D9D9"/>
</mask>
<g mask="url(#mask0_8666_29774)">
<path d="M154 18.7821L151.276 21.4871C151.154 21.608 151.028 21.667 150.897 21.6642C150.767 21.6616 150.641 21.5999 150.521 21.4792C150.4 21.3585 150.34 21.2316 150.34 21.0986C150.34 20.9655 150.4 20.8381 150.521 20.7163L153.218 18L150.513 15.2967C150.392 15.1748 150.333 15.0473 150.336 14.9142C150.338 14.7813 150.4 14.6545 150.521 14.5338C150.641 14.413 150.768 14.3525 150.901 14.3525C151.034 14.3525 151.162 14.413 151.284 14.5338L154 17.2388L156.703 14.5338C156.825 14.413 156.951 14.3525 157.082 14.3525C157.212 14.3525 157.338 14.413 157.458 14.5338C157.574 14.6491 157.631 14.7746 157.631 14.9102C157.631 15.0459 157.574 15.1748 157.458 15.2967L154.761 18L157.466 20.7242C157.587 20.8462 157.647 20.9723 157.647 21.1025C157.647 21.233 157.587 21.3585 157.466 21.4792C157.351 21.5946 157.225 21.6523 157.09 21.6523C156.954 21.6523 156.825 21.5946 156.703 21.4792L154 18.7821Z" fill="white"/>
</g>
</svg>
