<svg width="21" height="20" viewBox="0 0 21 20" fill="none" xmlns="http://www.w3.org/2000/svg">
<mask id="mask0_18199_10997" style="mask-type:alpha" maskUnits="userSpaceOnUse" x="0" y="0" width="21" height="20">
<rect x="0.5" width="20" height="20" fill="#D9D9D9"/>
</mask>
<g mask="url(#mask0_18199_10997)">
<path d="M15.0007 17.7916C14.3643 17.7916 13.8231 17.5689 13.3772 17.1233C12.9311 16.6776 12.708 16.1365 12.708 15.5C12.708 15.3821 12.7163 15.2744 12.7328 15.1769C12.7495 15.0792 12.7743 14.9695 12.8074 14.8477L7.56051 11.6346C7.36829 11.8675 7.13613 12.0352 6.86405 12.1377C6.5921 12.2403 6.30398 12.2916 5.99967 12.2916C5.36315 12.2916 4.82204 12.0689 4.37634 11.6235C3.93079 11.1781 3.70801 10.6373 3.70801 10.001C3.70801 9.36463 3.93079 8.82345 4.37634 8.37748C4.82204 7.93137 5.36315 7.70831 5.99967 7.70831C6.29995 7.70831 6.58711 7.7631 6.86113 7.87269C7.13516 7.98213 7.36829 8.14637 7.56051 8.3654L12.8074 5.15227C12.7743 5.03047 12.7495 4.92074 12.7328 4.8231C12.7163 4.7256 12.708 4.6179 12.708 4.49998C12.708 3.86345 12.9307 3.32234 13.3761 2.87665C13.8215 2.43109 14.3624 2.20831 14.9986 2.20831C15.635 2.20831 16.1762 2.43102 16.6222 2.87644C17.0683 3.32185 17.2913 3.86269 17.2913 4.49894C17.2913 5.13533 17.0686 5.67651 16.623 6.12248C16.1773 6.56859 15.6362 6.79165 14.9997 6.79165C14.6954 6.79165 14.4072 6.74033 14.1353 6.63769C13.8632 6.53519 13.6311 6.36748 13.4388 6.13456L8.19197 9.34769C8.22502 9.46949 8.24988 9.57901 8.26655 9.67623C8.28308 9.77345 8.29134 9.88081 8.29134 9.99831C8.29134 10.1158 8.28308 10.2237 8.26655 10.3221C8.24988 10.4204 8.22502 10.5305 8.19197 10.6523L13.4388 13.8654C13.6311 13.6186 13.8632 13.4474 14.1353 13.3519C14.4072 13.2562 14.6954 13.2083 14.9997 13.2083C15.6362 13.2083 16.1773 13.431 16.623 13.8764C17.0686 14.3219 17.2913 14.8627 17.2913 15.4989C17.2913 16.1353 17.0686 16.6765 16.6232 17.1225C16.1778 17.5686 15.637 17.7916 15.0007 17.7916Z" fill="#4B4B4B"/>
</g>
</svg>
