<svg width="18" height="21" viewBox="0 0 18 21" fill="none" xmlns="http://www.w3.org/2000/svg">
<path d="M15.0101 3.07364C16.5706 4.68665 17.4631 6.86383 17.4989 9.14481C17.5347 11.4258 16.7109 13.6317 15.2018 15.2962L15.0101 15.5012L11.0029 19.6428C10.4945 20.1681 9.81191 20.4739 9.09347 20.4984C8.37503 20.5229 7.67445 20.2641 7.13366 19.7746L6.99766 19.6428L2.98954 15.5003C1.39552 13.8524 0.5 11.6174 0.5 9.28695C0.5 6.9565 1.39552 4.72151 2.98954 3.07364C4.58357 1.42577 6.74553 0.5 8.99983 0.5C11.2541 0.5 13.4161 1.42577 15.0101 3.07364ZM8.99983 6.35798C8.62776 6.35798 8.25934 6.43374 7.91559 6.58094C7.57184 6.72813 7.25951 6.94388 6.99641 7.21585C6.73332 7.48783 6.52462 7.81072 6.38224 8.16608C6.23986 8.52144 6.16657 8.90231 6.16657 9.28695C6.16657 9.67158 6.23986 10.0525 6.38224 10.4078C6.52462 10.7632 6.73332 11.0861 6.99641 11.358C7.25951 11.63 7.57184 11.8458 7.91559 11.993C8.25934 12.1401 8.62776 12.2159 8.99983 12.2159C9.75126 12.2159 10.4719 11.9073 11.0032 11.358C11.5346 10.8087 11.8331 10.0638 11.8331 9.28695C11.8331 8.51014 11.5346 7.76514 11.0032 7.21585C10.4719 6.66657 9.75126 6.35798 8.99983 6.35798Z" fill="black"/>
</svg>
