<svg width="16" height="17" viewBox="0 0 16 17" fill="none" xmlns="http://www.w3.org/2000/svg">
<g clip-path="url(#clip0_28075_139753)">
<path d="M7.96915 10.8359C7.60806 10.8366 7.26195 10.9847 7.00656 11.2477C6.75117 11.5107 6.6073 11.8672 6.60645 12.2393V15.1093C6.60645 15.4816 6.75002 15.8387 7.00557 16.102C7.26113 16.3653 7.60774 16.5133 7.96915 16.5133C8.33056 16.5133 8.67717 16.3653 8.93273 16.102C9.18829 15.8387 9.33186 15.4816 9.33186 15.1093V15.0806V15.0819V12.2399C9.33117 11.868 9.18756 11.5115 8.93243 11.2484C8.6773 10.9853 8.33142 10.837 7.97045 10.8359H7.96915Z" fill="#C358FC"/>
<path d="M12.903 2.23838H10.2805C9.96277 1.21371 9.04653 0.484375 7.96465 0.484375C6.88276 0.484375 5.96718 1.21371 5.654 2.22038L5.64947 2.23838H3.06124C2.88053 2.23838 2.70722 2.31234 2.57945 2.44399C2.45167 2.57564 2.37988 2.75419 2.37988 2.94038C2.37988 3.12656 2.45167 3.30511 2.57945 3.43676C2.70722 3.56841 2.88053 3.64237 3.06124 3.64237H5.68377C5.85718 4.24171 6.23377 4.73238 6.72877 5.03971L6.73912 5.04571C4.88141 5.62371 3.54977 7.36571 3.53812 9.43038V13.1157C3.54082 13.4219 3.66001 13.7147 3.87007 13.9312C4.08013 14.1478 4.36427 14.2708 4.66141 14.2737H5.58153V12.2737C5.58153 11.613 5.83629 10.9793 6.28976 10.5121C6.74324 10.0449 7.35828 9.78238 7.99959 9.78238C8.6409 9.78238 9.25594 10.0449 9.70941 10.5121C10.1629 10.9793 10.4176 11.613 10.4176 12.2737V14.2737H11.3371C11.6346 14.2716 11.9194 14.149 12.1298 13.9323C12.3403 13.7156 12.4595 13.4222 12.4617 13.1157V9.46638C12.4613 8.48226 12.1525 7.52457 11.5814 6.73576C11.0103 5.94696 10.2072 5.36918 9.29177 5.08838L9.26071 5.08038C9.76682 4.76948 10.1419 4.27489 10.3122 3.69371L10.3167 3.67638H12.9392C13.1198 3.67585 13.2928 3.60172 13.4205 3.47018C13.5481 3.33864 13.6201 3.16039 13.6206 2.97438C13.6134 2.78148 13.5359 2.59847 13.4034 2.46191C13.271 2.32535 13.0935 2.24529 12.9062 2.23771H12.9049L12.903 2.23838ZM7.96465 4.37771C7.69513 4.37771 7.43166 4.29537 7.20757 4.14109C6.98347 3.98682 6.80881 3.76754 6.70567 3.511C6.60253 3.25445 6.57555 2.97215 6.62813 2.6998C6.68071 2.42745 6.81049 2.17728 7.00107 1.98093C7.19165 1.78458 7.43446 1.65086 7.6988 1.59669C7.96314 1.54251 8.23713 1.57032 8.48613 1.67658C8.73513 1.78285 8.94796 1.9628 9.0977 2.19369C9.24743 2.42457 9.32735 2.69602 9.32735 2.97371L9.328 3.01371C9.328 3.76704 8.73529 4.37771 8.00412 4.37771L7.96335 4.37704H7.96529L7.96465 4.37771Z" fill="#C358FC"/>
</g>
<defs>
<clipPath id="clip0_28075_139753">
<rect width="16" height="16" fill="white" transform="translate(0 0.5)"/>
</clipPath>
</defs>
</svg>
