<svg width="20" height="20" viewBox="0 0 20 20" fill="none" xmlns="http://www.w3.org/2000/svg">
<mask id="mask0_13921_23523" style="mask-type:alpha" maskUnits="userSpaceOnUse" x="0" y="0" width="20" height="20">
<rect width="20" height="20" fill="#CACACA"/>
</mask>
<g mask="url(#mask0_13921_23523)">
<path d="M11.1667 10.0013L5.29167 4.1263C5.09722 3.93186 5 3.69575 5 3.41797C5 3.14019 5.09722 2.90408 5.29167 2.70964C5.48611 2.51519 5.72222 2.41797 6 2.41797C6.27778 2.41797 6.51389 2.51519 6.70833 2.70964L12.9375 8.9388C13.0903 9.09158 13.2014 9.25825 13.2708 9.4388C13.3403 9.61936 13.375 9.80686 13.375 10.0013C13.375 10.1957 13.3403 10.3832 13.2708 10.5638C13.2014 10.7444 13.0903 10.911 12.9375 11.0638L6.70833 17.293C6.51389 17.4874 6.27778 17.5846 6 17.5846C5.72222 17.5846 5.48611 17.4874 5.29167 17.293C5.09722 17.0985 5 16.8624 5 16.5846C5 16.3069 5.09722 16.0707 5.29167 15.8763L11.1667 10.0013Z" fill="#8E8E8E"/>
<path d="M11.1667 10.0013L5.29167 4.1263C5.09722 3.93186 5 3.69575 5 3.41797C5 3.14019 5.09722 2.90408 5.29167 2.70964C5.48611 2.51519 5.72222 2.41797 6 2.41797C6.27778 2.41797 6.51389 2.51519 6.70833 2.70964L12.9375 8.9388C13.0903 9.09158 13.2014 9.25825 13.2708 9.4388C13.3403 9.61936 13.375 9.80686 13.375 10.0013C13.375 10.1957 13.3403 10.3832 13.2708 10.5638C13.2014 10.7444 13.0903 10.911 12.9375 11.0638L6.70833 17.293C6.51389 17.4874 6.27778 17.5846 6 17.5846C5.72222 17.5846 5.48611 17.4874 5.29167 17.293C5.09722 17.0985 5 16.8624 5 16.5846C5 16.3069 5.09722 16.0707 5.29167 15.8763L11.1667 10.0013Z" fill="black" fill-opacity="0.2"/>
</g>
</svg>
